<?xml version="1.0" encoding="utf-8"?>
<!-- Generator: Adobe Illustrator 25.2.0, SVG Export Plug-In . SVG Version: 6.00 Build 0)  -->
<svg version="1.1" id="Layer_1" xmlns="http://www.w3.org/2000/svg" xmlns:xlink="http://www.w3.org/1999/xlink" x="0px" y="0px"
	 viewBox="0 0 300.5 290.8" style="enable-background:new 0 0 300.5 290.8;" xml:space="preserve">
<style type="text/css">
	.st0{fill:#FFFFFF;}
</style>
<path class="st0" d="M155.2,1C75,1,10,66,10,146.3s65,145.3,145.3,145.3s145.3-65,145.3-145.3S235.5,1,155.2,1z M226.5,184.4
	c2.8,2.8,2.8,7.2,0,10l-23.2,23.1c-2.8,2.8-7.2,2.8-10,0l-38.1-38.4l-38.1,38.4c-2.8,2.8-7.2,2.8-10,0L84,194.3
	c-2.8-2.8-2.8-7.2,0-10l38.4-38.1L84,108.1c-2.8-2.8-2.8-7.2,0-10L107.2,75c2.8-2.8,7.2-2.8,10,0l38.1,38.5L193.4,75
	c2.8-2.8,7.2-2.8,10,0l23.2,23.2c2.8,2.8,2.8,7.2,0,10l-38.5,38.1L226.5,184.4z"/>
</svg>
