<?xml version="1.0" encoding="utf-8"?>
<!-- Generator: Adobe Illustrator 25.2.0, SVG Export Plug-In . SVG Version: 6.00 Build 0)  -->
<svg version="1.1" id="Layer_1" focusable="false" xmlns="http://www.w3.org/2000/svg" xmlns:xlink="http://www.w3.org/1999/xlink"
	 x="0px" y="0px" viewBox="0 0 512 512" style="enable-background:new 0 0 512 512;" xml:space="preserve">
<style type="text/css">
	.st0{fill:#FFFFFF;}
</style>
<path class="st0" d="M478.8,143.7c-5.3-20.1-21.1-36-41.1-41.4C401.4,92.5,256,92.5,256,92.5s-145.4,0-181.7,9.8
	c-20,5.4-35.8,21.2-41.1,41.4c-9.7,36.5-9.7,112.7-9.7,112.7s0,76.2,9.7,112.7c5.3,20.1,21.1,35.3,41.1,40.7
	c36.3,9.8,181.7,9.8,181.7,9.8s145.4,0,181.7-9.8c20-5.4,35.8-20.6,41.1-40.7c9.7-36.5,9.7-112.7,9.7-112.7S488.5,180.2,478.8,143.7
	z M208.4,325.5V187.2L330,256.3L208.4,325.5L208.4,325.5z"/>
</svg>
