<svg id="Layer_1" data-name="Layer 1" xmlns="http://www.w3.org/2000/svg" viewBox="0 0 566.93 566.93"><defs><style>.cls-1{fill:#fff;}.cls-2{fill:#20232a;}</style></defs><path class="cls-1" d="M447.6,174.59V159.25h15.33V143.91H447.6V128.57H432.26v15.34H416.92v15.34h15.34v15.34Z"/><path class="cls-1" d="M301.17,147.51l-17.71-44.73-17.7,44.73-33.88-33.92,12.45,66.57H322.6l12.45-66.57Z"/><path class="cls-1" d="M473,291.57a642.57,642.57,0,0,0-380.24.56c8.4,28,17.36,55.44,25.76,83.44A560.16,560.16,0,0,1,446.7,375c9-28,17.36-56,26.32-83.44Z"/><path class="cls-1" d="M94.46,337.49c-28,9.52-56,20.72-82.88,34.72,12.88,9,24.64,18.48,37,28,.56,16.8,1.68,33,2.8,49.84,33.61-17.36,68.88-30.24,104.72-39.76l-44.23-21.84c-6.17-16.8-11.77-33.6-17.37-51Z"/><path class="cls-1" d="M472.46,337.49c-5.6,17.36-11.2,34.16-17.36,51.52l-44.24,21.84a485,485,0,0,1,104.72,39.76,486.38,486.38,0,0,0,2.81-49.84c11.76-9.52,24.07-19,37-28a594.47,594.47,0,0,0-82.89-35.28Z"/><circle class="cls-2" cx="283.46" cy="315.52" r="148.62"/><path class="cls-1" d="M412,394.61a1.74,1.74,0,0,0,0-3.38c-20.8-5.24-26.75-11.19-32-32h0a1.75,1.75,0,0,0-3.39,0c-5.23,20.8-11.19,26.75-32,32h0a1.74,1.74,0,0,0,0,3.38c20.8,5.24,26.75,11.19,32,32h0a1.75,1.75,0,0,0,3.39,0C385.28,405.8,391.23,399.85,412,394.61Z"/><path class="cls-1" d="M153.57,237.73a1.74,1.74,0,0,0,0,3.38c20.8,5.24,26.75,11.19,32,32h0a1.74,1.74,0,0,0,3.38,0c5.24-20.8,11.19-26.75,32-32h0a1.74,1.74,0,0,0,0-3.38c-20.8-5.24-26.75-11.19-32-32h0a1.74,1.74,0,0,0-3.38,0c-5.24,20.8-11.19,26.75-32,32Z"/><path class="cls-1" d="M213.45,315.52A70,70,0,1,0,234,266,70,70,0,0,0,213.45,315.52Z"/><path class="cls-1" d="M349.54,428.94l-8.82-15.11A113.82,113.82,0,0,1,172.29,291.3l-17.1-3.71h0A131.29,131.29,0,0,0,349.54,428.94Z"/><path class="cls-1" d="M409.5,352.23A131.29,131.29,0,0,0,220.08,200.57l8.46,15.32A113.81,113.81,0,0,1,392.69,347.35Z"/><path class="cls-2" d="M283.52,357.42h-.11a2.09,2.09,0,0,1-1.21-.38c-1.16-.83-28.56-20.37-38.65-36.86l0-.06a24.08,24.08,0,0,1,39.95-26.78,24.08,24.08,0,0,1,40,26.78l0,.06c-10.09,16.49-37.49,36-38.65,36.86a2.09,2.09,0,0,1-1.21.38Z"/></svg>