<svg id="Layer_1" data-name="Layer 1" xmlns="http://www.w3.org/2000/svg" viewBox="0 0 566.93 566.93"><defs><style>.cls-1,.cls-10,.cls-5,.cls-6,.cls-7,.cls-8{fill:#fff;}.cls-13,.cls-2,.cls-3,.cls-4{fill:#20232a;}.cls-10,.cls-11,.cls-12,.cls-13,.cls-14,.cls-2,.cls-4,.cls-5,.cls-6,.cls-7,.cls-8,.cls-9{stroke:#fff;stroke-miterlimit:10;}.cls-2{stroke-width:8px;}.cls-4{stroke-width:4.04px;}.cls-5{stroke-width:3.43px;}.cls-6,.cls-7{stroke-width:2.24px;}.cls-10,.cls-12,.cls-7,.cls-8,.cls-9{stroke-linecap:round;}.cls-8{stroke-width:7px;}.cls-11,.cls-12,.cls-14,.cls-9{fill:none;}.cls-9{stroke-width:7.05px;}.cls-10{stroke-width:4px;}.cls-11{stroke-width:8.53px;}.cls-12,.cls-13{stroke-width:12px;}.cls-14{stroke-width:8.81px;}</style></defs><path d="M510.91,521.16a8.62,8.62,0,0,1-6.14-2.54l-12.39-12.39a8.69,8.69,0,0,1,0-12.28l.16-.16a8.69,8.69,0,0,1,12.28,0l12.39,12.39a8.7,8.7,0,0,1,0,12.28l-.16.15A8.59,8.59,0,0,1,510.91,521.16Z"/><path class="cls-1" d="M498.68,494.25a5.67,5.67,0,0,1,4,1.66l12.38,12.39a5.69,5.69,0,0,1,0,8l-.15.16a5.7,5.7,0,0,1-8,0L494.5,504.11a5.69,5.69,0,0,1,0-8l.16-.16a5.65,5.65,0,0,1,4-1.66m0-6a11.62,11.62,0,0,0-8.27,3.42l-.15.15a11.7,11.7,0,0,0,0,16.53l12.38,12.39a11.7,11.7,0,0,0,16.53,0l.16-.16a11.68,11.68,0,0,0,0-16.52l-12.39-12.39a11.6,11.6,0,0,0-8.26-3.42Z"/><path class="cls-2" d="M511.4,495.86l-16.95,16.95c-9.68,9.68-69.22-34.15-81.08-46L228.2,281.64c-11.86-11.86-13.62-29.33-3.93-39l16.94-16.95c9.69-9.69,27.16-7.93,39,3.93L465.39,414.78C477.25,426.64,521.08,486.18,511.4,495.86Z"/><path class="cls-3" d="M71.69,95.48a10.36,10.36,0,0,1-7.38-3L51.92,80a10.44,10.44,0,0,1,0-14.77L63.85,53.33a10.45,10.45,0,0,1,14.78,0L91,65.72a10.44,10.44,0,0,1,0,14.77L79.08,92.43A10.38,10.38,0,0,1,71.69,95.48Z"/><path class="cls-1" d="M71.24,55a5.66,5.66,0,0,1,4,1.67L87.65,69.08a5.7,5.7,0,0,1,0,8L75.71,89.06a5.67,5.67,0,0,1-8,0L55.28,76.67a5.69,5.69,0,0,1,0-8L67.22,56.7a5.66,5.66,0,0,1,4-1.67m0-9.52A15.07,15.07,0,0,0,60.49,50L48.55,61.9a15.22,15.22,0,0,0,0,21.5L60.94,95.79a15.21,15.21,0,0,0,21.5,0L94.38,83.86a15.22,15.22,0,0,0,0-21.51L82,50a15.07,15.07,0,0,0-10.75-4.46Z"/><rect class="cls-2" x="120.86" y="35.75" width="90.07" height="263.1" rx="30.37" transform="translate(-69.71 166.31) rotate(-45)"/><path class="cls-4" d="M176.85,146.73,174.63,149c-3.16,3.16-9.17,2.27-13.42-2L109.89,95.65c-4.25-4.26-5.14-10.26-2-13.42L110.13,80c3.16-3.16,9.16-2.27,13.42,2l51.31,51.32C179.12,137.56,180,143.57,176.85,146.73Z"/><path class="cls-1" d="M522.2,44.73a3.81,3.81,0,0,0-4.13-.83L438.46,76.33a3.84,3.84,0,0,0-1.26.83L50.77,463.6a24.41,24.41,0,0,0,0,34.54l18,18a24.43,24.43,0,0,0,34.54,0L489.77,129.73a4,4,0,0,0,.83-1.26L523,48.86a3.81,3.81,0,0,0-.83-4.13Zm-69.85,69.84L448.25,131,130.5,448.75l-12.31-12.31L435.94,118.68ZM434.19,91l-3.75,22.46L113.32,430.54a129.48,129.48,0,0,1-7.7-11ZM97.94,510.78a16.79,16.79,0,0,1-23.77,0l-18-18a16.83,16.83,0,0,1,0-23.78l14.46-14.46c7.45,13.76,22.49,30.72,41.79,41.79Zm20-20C98.63,482,84.75,468.05,76.13,449l9.22-9.22c10.31,19.45,23.82,34,41.8,41.79Zm14.74-14.74c-18.9-9.62-32.72-23.66-41.79-41.79L100.1,425c8.23,14.53,23.46,29.75,41.79,41.8Zm14.74-14.74a133.3,133.3,0,0,1-11-7.7L453.51,136.5,476,132.75ZM484.34,123.63l-27.55,4.59,4.49-18a3.82,3.82,0,0,0-4.62-4.62l-18,4.49,4.6-27.56,30.59-12.46A26.46,26.46,0,0,0,496.81,93ZM499.8,85.71a19.13,19.13,0,0,1-18.58-18.58l31.35-12.77Z"/><rect class="cls-5" x="258.42" y="58.79" width="50.08" height="36.22" rx="4.18"/><rect class="cls-6" x="339.25" y="55.21" width="21.49" height="12.44" rx="2.73" transform="translate(699.99 122.87) rotate(-180)"/><line class="cls-7" x1="368.42" y1="50.45" x2="329.83" y2="50.44"/><line class="cls-7" x1="347" y1="62.65" x2="308.51" y2="70.67"/><line class="cls-8" x1="350.12" y1="47.97" x2="350.12" y2="54.37"/><rect class="cls-6" x="339.25" y="55.21" width="21.49" height="12.44" rx="2.73" transform="translate(699.99 122.87) rotate(-180)"/><line class="cls-7" x1="368.42" y1="50.45" x2="329.83" y2="50.44"/><line class="cls-9" x1="347" y1="62.65" x2="308.51" y2="70.67"/><rect class="cls-6" x="339.25" y="55.21" width="21.49" height="12.44" rx="2.73" transform="translate(699.99 122.87) rotate(-180)"/><line class="cls-10" x1="368.42" y1="50.45" x2="329.83" y2="50.44"/><rect class="cls-6" x="206.19" y="55.21" width="21.49" height="12.44" rx="2.73"/><line class="cls-7" x1="198.51" y1="50.45" x2="237.1" y2="50.44"/><line class="cls-7" x1="219.93" y1="62.65" x2="258.42" y2="70.67"/><line class="cls-8" x1="217.81" y1="47.97" x2="217.81" y2="54.37"/><rect class="cls-6" x="206.19" y="55.21" width="21.49" height="12.44" rx="2.73"/><line class="cls-7" x1="198.51" y1="50.45" x2="237.1" y2="50.44"/><line class="cls-7" x1="219.93" y1="62.65" x2="258.42" y2="70.67"/><line class="cls-8" x1="217.81" y1="47.97" x2="217.81" y2="54.37"/><rect class="cls-6" x="206.19" y="55.21" width="21.49" height="12.44" rx="2.73"/><line class="cls-10" x1="198.51" y1="50.45" x2="237.1" y2="50.44"/><line class="cls-9" x1="219.93" y1="62.65" x2="258.42" y2="70.67"/><line class="cls-8" x1="217.81" y1="47.97" x2="217.81" y2="54.37"/><path class="cls-3" d="M283.46,66.94a10,10,0,1,0,10,10A10,10,0,0,0,283.46,66.94Z"/><rect class="cls-3" x="108.78" y="188.23" width="349.37" height="226.62" rx="29.2"/><path class="cls-3" d="M376.75,209.1c0-6.18-4.64-29.92-10.21-44.72-2.69-7.14-9.6-12.21-12.31-12.21H275.64c-8.32,0-17.51,47.76-17.51,56.93"/><path class="cls-11" d="M361.06,199.85c0-5.74-4.65-30.66-10.39-30.66h-61c-5.74,0-10.39,24.92-10.39,30.66"/><rect class="cls-3" x="150.35" y="177.27" width="36.77" height="28.43" rx="7.73"/><path class="cls-1" d="M179.39,180.8A4.2,4.2,0,0,1,183.6,185v13a4.2,4.2,0,0,1-4.21,4.2h-21.3a4.2,4.2,0,0,1-4.21-4.2V185a4.2,4.2,0,0,1,4.21-4.21h21.3m0-7.05h-21.3A11.27,11.27,0,0,0,146.83,185v13a11.27,11.27,0,0,0,11.26,11.25h21.3A11.27,11.27,0,0,0,190.65,198V185a11.27,11.27,0,0,0-11.26-11.26Z"/><path class="cls-12" d="M236.78,203H421.6a22.49,22.49,0,0,1,22.48,22.48V375.26a22.49,22.49,0,0,1-22.48,22.48H197.27a22.49,22.49,0,0,1-22.48-22.48V233.53"/><rect class="cls-13" x="122.85" y="202.96" width="93.11" height="194.77" rx="22.48"/><path class="cls-14" d="M314,380.49a77.18,77.18,0,1,1,77.18-77.18A77.26,77.26,0,0,1,314,380.49Zm0-132a54.84,54.84,0,1,0,54.84,54.83A54.9,54.9,0,0,0,314,248.48Z"/><line class="cls-9" x1="305.09" y1="183.52" x2="335.27" y2="183.52"/><polyline class="cls-9" points="391.15 304.76 406.24 304.76 406.35 320.62"/><path class="cls-1" d="M404.67,233.57H421a7,7,0,0,0,0-14H404.67a7,7,0,0,0,0,14Z"/><path class="cls-1" d="M383.73,233.57h1.6a7,7,0,0,0,0-14h-1.6a7,7,0,0,0,0,14Z"/><path class="cls-3" d="M392.07,277.28a2.65,2.65,0,0,0,0-5.14c-31.53-7.93-40.55-17-48.49-48.49h0a2.64,2.64,0,0,0-5.13,0c-7.94,31.53-17,40.55-48.49,48.49h0a2.65,2.65,0,0,0,0,5.14c31.54,7.93,40.56,17,48.49,48.49h0a2.64,2.64,0,0,0,5.13,0C351.52,294.23,360.54,285.21,392.07,277.28Z"/><path class="cls-1" d="M374.69,276.4a1.74,1.74,0,0,0,0-3.38c-20.8-5.24-26.75-11.19-32-32h0a1.75,1.75,0,0,0-3.39,0c-5.23,20.8-11.19,26.75-32,32h0a1.74,1.74,0,0,0,0,3.38c20.8,5.24,26.75,11.19,32,32h0a1.75,1.75,0,0,0,3.39,0C347.94,287.59,353.89,281.64,374.69,276.4Z"/></svg>