<?xml version="1.0" encoding="utf-8"?>
<!-- Generator: Adobe Illustrator 25.2.3, SVG Export Plug-In . SVG Version: 6.00 Build 0)  -->
<svg version="1.1" id="Layer_1" xmlns="http://www.w3.org/2000/svg" xmlns:xlink="http://www.w3.org/1999/xlink" x="0px" y="0px"
	 viewBox="0 0 91 91" style="enable-background:new 0 0 91 91;" xml:space="preserve">
<style type="text/css">
	.st0{fill:#F4F4F4;}
	.st1{fill:#F2F2F2;}
	.st2{opacity:0.5;}
	.st3{fill:#898989;}
	.st4{fill:url(#SVGID_1_);}
	.st5{fill:url(#SVGID_2_);}
	.st6{fill:url(#SVGID_3_);}
	.st7{fill:url(#SVGID_4_);}
	.st8{fill:url(#SVGID_5_);}
	.st9{fill:url(#SVGID_6_);}
	.st10{fill:url(#SVGID_7_);}
	.st11{fill:url(#SVGID_8_);}
	.st12{fill:url(#SVGID_9_);}
	.st13{fill:url(#SVGID_10_);}
	.st14{fill:url(#SVGID_11_);}
	.st15{fill:url(#SVGID_12_);}
	.st16{fill:url(#SVGID_13_);}
	.st17{fill:url(#SVGID_14_);}
	.st18{fill:url(#SVGID_15_);}
	.st19{fill:url(#SVGID_16_);}
	.st20{fill:url(#SVGID_17_);}
	.st21{opacity:0.4;fill:#F2F2F2;}
	.st22{opacity:0.3;fill:#4C4C4C;}
	.st23{fill:url(#SVGID_18_);}
</style>
<g>
	<rect x="13.3" y="13.3" transform="matrix(0.7071 0.7071 -0.7071 0.7071 45.5205 -18.8552)" width="64.4" height="64.4"/>
	<g>
		<polygon class="st0" points="54,54 71.1,54 62.5,45.4 71.1,36.8 54,36.8 54,19.7 45.4,28.3 36.8,19.7 36.8,36.8 19.7,36.8 
			28.3,45.4 19.7,54 36.8,54 36.8,71.1 45.4,62.5 54,71.1 		"/>
		<g>
			<polygon class="st1" points="19.7,36.8 28.3,45.4 36.8,36.8 			"/>
			<polygon class="st1" points="36.8,54 36.8,54 36.8,54 			"/>
			<polygon class="st1" points="54,54 45.4,62.5 54,71.1 			"/>
			<polygon class="st1" points="54,19.7 45.4,28.3 54,36.8 			"/>
			<polygon class="st1" points="19.7,54 36.8,54 28.3,45.4 			"/>
			<polygon class="st1" points="36.8,36.8 28.3,45.4 36.8,54 36.8,54 			"/>
			<polygon class="st1" points="36.8,71.1 45.4,62.5 36.8,54 			"/>
			<polygon class="st1" points="36.8,54 45.4,62.5 54,54 			"/>
			<polygon class="st1" points="71.1,36.8 54,36.8 62.5,45.4 			"/>
			<polygon class="st1" points="71.1,54 62.5,45.4 54,54 			"/>
			<polygon class="st1" points="36.8,54 36.8,54 54,54 			"/>
			<polygon class="st1" points="36.8,54 54,54 45.4,45.4 			"/>
			<polygon class="st1" points="62.5,45.4 54,36.8 54,54 			"/>
			<polygon class="st1" points="54,54 54,36.8 45.4,45.4 			"/>
			<polygon class="st1" points="36.8,19.7 36.8,36.8 45.4,28.3 			"/>
			<polygon class="st1" points="45.4,28.3 36.8,36.8 54,36.8 			"/>
			<polygon class="st1" points="36.8,54 36.8,54 36.8,54 			"/>
			<polygon class="st1" points="36.8,54 45.4,45.4 36.8,36.8 36.8,54 			"/>
			<polygon class="st1" points="54,36.8 36.8,36.8 45.4,45.4 			"/>
		</g>
		<g>
			<g class="st2">
				<polygon class="st3" points="54,36.8 19.7,36.8 36.8,54 				"/>
				<polygon class="st3" points="54,36.8 54,71.1 36.8,54 				"/>
			</g>
			<g class="st2">
				<polygon class="st3" points="54,54 54,19.7 36.8,36.8 				"/>
				<polygon class="st3" points="54,54 19.7,54 36.8,36.8 				"/>
			</g>
			<g class="st2">
				<polygon class="st3" points="36.8,36.8 36.8,71.1 54,54 				"/>
				<polygon class="st3" points="36.8,36.8 71.1,36.8 54,54 				"/>
			</g>
			<g class="st2">
				<polygon class="st3" points="36.8,54 71.1,54 54,36.8 				"/>
				<polygon class="st3" points="36.8,54 36.8,19.7 54,36.8 				"/>
			</g>
			<g class="st2">
				
					<linearGradient id="SVGID_1_" gradientUnits="userSpaceOnUse" x1="21.156" y1="51.5703" x2="33.2554" y2="51.5703" gradientTransform="matrix(0.7071 0.7071 -0.7071 0.7071 45.5205 -18.8552)">
					<stop  offset="0" style="stop-color:#FFFFFF;stop-opacity:0.3"/>
					<stop  offset="0.4711" style="stop-color:#F8F8F8;stop-opacity:0"/>
				</linearGradient>
				<polygon class="st4" points="19.7,36.8 28.3,45.4 36.8,36.8 				"/>
				
					<linearGradient id="SVGID_2_" gradientUnits="userSpaceOnUse" x1="45.3549" y1="57.62" x2="45.3549" y2="57.62" gradientTransform="matrix(0.7071 0.7071 -0.7071 0.7071 45.5205 -18.8552)">
					<stop  offset="0" style="stop-color:#FFFFFF;stop-opacity:0.3"/>
					<stop  offset="0.4711" style="stop-color:#F8F8F8;stop-opacity:0"/>
				</linearGradient>
				<polygon class="st5" points="36.8,54 36.8,54 36.8,54 				"/>
				
					<linearGradient id="SVGID_3_" gradientUnits="userSpaceOnUse" x1="57.4544" y1="51.5703" x2="69.5538" y2="51.5703" gradientTransform="matrix(0.7071 0.7071 -0.7071 0.7071 45.5205 -18.8552)">
					<stop  offset="0" style="stop-color:#FFFFFF;stop-opacity:0.3"/>
					<stop  offset="0.4711" style="stop-color:#F8F8F8;stop-opacity:0"/>
				</linearGradient>
				<polygon class="st6" points="54,54 45.4,62.5 54,71.1 				"/>
				
					<linearGradient id="SVGID_4_" gradientUnits="userSpaceOnUse" x1="33.2554" y1="27.3713" x2="45.3549" y2="27.3713" gradientTransform="matrix(0.7071 0.7071 -0.7071 0.7071 45.5205 -18.8552)">
					<stop  offset="0" style="stop-color:#FFFFFF;stop-opacity:0.3"/>
					<stop  offset="0.4711" style="stop-color:#F8F8F8;stop-opacity:0"/>
				</linearGradient>
				<polygon class="st7" points="54,19.7 45.4,28.3 54,36.8 				"/>
				
					<linearGradient id="SVGID_5_" gradientUnits="userSpaceOnUse" x1="33.2554" y1="63.6697" x2="45.3549" y2="63.6697" gradientTransform="matrix(0.7071 0.7071 -0.7071 0.7071 45.5205 -18.8552)">
					<stop  offset="0" style="stop-color:#FFFFFF;stop-opacity:0.3"/>
					<stop  offset="0.4711" style="stop-color:#F8F8F8;stop-opacity:0"/>
				</linearGradient>
				<polygon class="st8" points="19.7,54 36.8,54 28.3,45.4 				"/>
				
					<linearGradient id="SVGID_6_" gradientUnits="userSpaceOnUse" x1="33.2554" y1="51.5703" x2="45.3549" y2="51.5703" gradientTransform="matrix(0.7071 0.7071 -0.7071 0.7071 45.5205 -18.8552)">
					<stop  offset="0" style="stop-color:#FFFFFF;stop-opacity:0.3"/>
					<stop  offset="0.4711" style="stop-color:#F8F8F8;stop-opacity:0"/>
				</linearGradient>
				<polygon class="st9" points="36.8,36.8 28.3,45.4 36.8,54 36.8,54 				"/>
				
					<linearGradient id="SVGID_7_" gradientUnits="userSpaceOnUse" x1="45.3549" y1="63.6697" x2="57.4544" y2="63.6697" gradientTransform="matrix(0.7071 0.7071 -0.7071 0.7071 45.5205 -18.8552)">
					<stop  offset="0" style="stop-color:#FFFFFF;stop-opacity:0.3"/>
					<stop  offset="0.4711" style="stop-color:#F8F8F8;stop-opacity:0"/>
				</linearGradient>
				<polygon class="st10" points="36.8,71.1 45.4,62.5 36.8,54 				"/>
				
					<linearGradient id="SVGID_8_" gradientUnits="userSpaceOnUse" x1="45.3549" y1="51.5703" x2="57.4544" y2="51.5703" gradientTransform="matrix(0.7071 0.7071 -0.7071 0.7071 45.5205 -18.8552)">
					<stop  offset="0" style="stop-color:#FFFFFF;stop-opacity:0.3"/>
					<stop  offset="0.4711" style="stop-color:#F8F8F8;stop-opacity:0"/>
				</linearGradient>
				<polygon class="st11" points="36.8,54 45.4,62.5 54,54 				"/>
				
					<linearGradient id="SVGID_9_" gradientUnits="userSpaceOnUse" x1="45.3549" y1="27.3713" x2="57.4544" y2="27.3713" gradientTransform="matrix(0.7071 0.7071 -0.7071 0.7071 45.5205 -18.8552)">
					<stop  offset="0" style="stop-color:#FFFFFF;stop-opacity:0.3"/>
					<stop  offset="0.4711" style="stop-color:#F8F8F8;stop-opacity:0"/>
				</linearGradient>
				<polygon class="st12" points="71.1,36.8 54,36.8 62.5,45.4 				"/>
				
					<linearGradient id="SVGID_10_" gradientUnits="userSpaceOnUse" x1="57.4544" y1="39.4708" x2="69.5538" y2="39.4708" gradientTransform="matrix(0.7071 0.7071 -0.7071 0.7071 45.5205 -18.8552)">
					<stop  offset="0" style="stop-color:#FFFFFF;stop-opacity:0.3"/>
					<stop  offset="0.4711" style="stop-color:#F8F8F8;stop-opacity:0"/>
				</linearGradient>
				<polygon class="st13" points="71.1,54 62.5,45.4 54,54 				"/>
				
					<linearGradient id="SVGID_11_" gradientUnits="userSpaceOnUse" x1="45.3549" y1="51.5703" x2="57.4544" y2="51.5703" gradientTransform="matrix(0.7071 0.7071 -0.7071 0.7071 45.5205 -18.8552)">
					<stop  offset="0" style="stop-color:#FFFFFF;stop-opacity:0.3"/>
					<stop  offset="0.4711" style="stop-color:#F8F8F8;stop-opacity:0"/>
				</linearGradient>
				<polygon class="st14" points="36.8,54 36.8,54 54,54 				"/>
				
					<linearGradient id="SVGID_12_" gradientUnits="userSpaceOnUse" x1="45.3549" y1="51.5703" x2="57.4544" y2="51.5703" gradientTransform="matrix(0.7071 0.7071 -0.7071 0.7071 45.5205 -18.8552)">
					<stop  offset="0" style="stop-color:#FFFFFF;stop-opacity:0.3"/>
					<stop  offset="0.4711" style="stop-color:#F8F8F8;stop-opacity:0"/>
				</linearGradient>
				<polygon class="st15" points="36.8,54 54,54 45.4,45.4 				"/>
				
					<linearGradient id="SVGID_13_" gradientUnits="userSpaceOnUse" x1="45.3549" y1="39.4708" x2="57.4544" y2="39.4708" gradientTransform="matrix(0.7071 0.7071 -0.7071 0.7071 45.5205 -18.8552)">
					<stop  offset="0" style="stop-color:#FFFFFF;stop-opacity:0.3"/>
					<stop  offset="0.4711" style="stop-color:#F8F8F8;stop-opacity:0"/>
				</linearGradient>
				<polygon class="st16" points="62.5,45.4 54,36.8 54,54 				"/>
				
					<linearGradient id="SVGID_14_" gradientUnits="userSpaceOnUse" x1="45.3549" y1="39.4708" x2="57.4544" y2="39.4708" gradientTransform="matrix(0.7071 0.7071 -0.7071 0.7071 45.5205 -18.8552)">
					<stop  offset="0" style="stop-color:#FFFFFF;stop-opacity:0.3"/>
					<stop  offset="0.4711" style="stop-color:#F8F8F8;stop-opacity:0"/>
				</linearGradient>
				<polygon class="st17" points="54,54 54,36.8 45.4,45.4 				"/>
				
					<linearGradient id="SVGID_15_" gradientUnits="userSpaceOnUse" x1="21.156" y1="39.4708" x2="32.1188" y2="39.4708" gradientTransform="matrix(0.7071 0.7071 -0.7071 0.7071 45.5205 -18.8552)">
					<stop  offset="0" style="stop-color:#FFFFFF;stop-opacity:0.3"/>
					<stop  offset="0.4711" style="stop-color:#F8F8F8;stop-opacity:0"/>
				</linearGradient>
				<polygon class="st18" points="36.8,19.7 36.8,36.8 45.4,28.3 				"/>
				
					<linearGradient id="SVGID_16_" gradientUnits="userSpaceOnUse" x1="45.3549" y1="57.62" x2="45.3549" y2="57.62" gradientTransform="matrix(0.7071 0.7071 -0.7071 0.7071 45.5205 -18.8552)">
					<stop  offset="0" style="stop-color:#FFFFFF;stop-opacity:0.3"/>
					<stop  offset="0.4711" style="stop-color:#F8F8F8;stop-opacity:0"/>
				</linearGradient>
				<polygon class="st19" points="36.8,54 36.8,54 36.8,54 				"/>
				
					<linearGradient id="SVGID_17_" gradientUnits="userSpaceOnUse" x1="33.2554" y1="39.4708" x2="45.3549" y2="39.4708" gradientTransform="matrix(0.7071 0.7071 -0.7071 0.7071 45.5205 -18.8552)">
					<stop  offset="0" style="stop-color:#FFFFFF;stop-opacity:0.3"/>
					<stop  offset="0.4711" style="stop-color:#F8F8F8;stop-opacity:0"/>
				</linearGradient>
				<polygon class="st20" points="54,36.8 36.8,36.8 45.4,45.4 				"/>
			</g>
			<polygon class="st21" points="54,36.8 36.8,36.8 45.4,45.4 			"/>
			<polygon class="st22" points="36.8,54 54,54 45.4,45.4 			"/>
		</g>
	</g>
	
		<linearGradient id="SVGID_18_" gradientUnits="userSpaceOnUse" x1="22.3526" y1="21.4151" x2="89.8496" y2="91.6432" gradientTransform="matrix(0.7071 0.7071 -0.7071 0.7071 45.5205 -18.8552)">
		<stop  offset="3.873676e-02" style="stop-color:#FFFFFF;stop-opacity:0.6"/>
		<stop  offset="0.6902" style="stop-color:#727272;stop-opacity:0"/>
	</linearGradient>
	<polygon class="st23" points="54.1,54.1 71.2,54.1 62.6,45.5 71.2,37 54.1,37 54.1,19.9 45.5,28.4 37,19.9 37,37 19.9,37 
		28.4,45.5 19.9,54.1 37,54.1 37,54.1 37,71.2 45.5,62.6 54.1,71.2 	"/>
</g>
</svg>
