<svg id="Layer_1" data-name="Layer 1" xmlns="http://www.w3.org/2000/svg" viewBox="0 0 566.93 566.93"><defs><style>.cls-1,.cls-4,.cls-5,.cls-6{fill:none;}.cls-2{fill:#fff;}.cls-3{fill:#20232a;}.cls-4,.cls-5,.cls-6{stroke:#fff;stroke-linecap:round;stroke-linejoin:round;}.cls-4{stroke-width:3.97px;}.cls-5{stroke-width:4.57px;}.cls-6{stroke-width:3.97px;}</style></defs><path class="cls-1" d="M497.92,47.6H78.9A12.7,12.7,0,0,0,66.22,60.28V443.61A12.66,12.66,0,0,0,78.9,456.22H358.13V354.53h152.4V60.28A12.66,12.66,0,0,0,497.92,47.6Z"/><path class="cls-2" d="M78.9,456.22a12.66,12.66,0,0,1-12.68-12.61V60.28A12.7,12.7,0,0,1,78.9,47.6h419a12.66,12.66,0,0,1,12.61,12.68V343.53l13.42,11V60.28a26.09,26.09,0,0,0-26-26.1H78.9a26.13,26.13,0,0,0-26.1,26.1V443.62a26.09,26.09,0,0,0,26.1,26H358.13V456.22Z"/><rect class="cls-2" x="52.8" y="102.45" width="466.61" height="13.42"/><path class="cls-2" d="M102.25,64.66a9.77,9.77,0,0,0-10,10,10.07,10.07,0,0,0,10,10,10,10,0,0,0,0-20Z"/><path class="cls-2" d="M136.39,64.66a10,10,0,1,0,10,10A9.77,9.77,0,0,0,136.39,64.66Z"/><path class="cls-2" d="M312.81,344.75a16.84,16.84,0,0,0,21.44,8.57c8.1-3.34,11.91-13.34,8.57-21.44l-26.68-60.52L369,272.79,251.33,163.68l-1,160.58,36.21-39.55Z"/><path class="cls-2" d="M170.52,64.66a10,10,0,1,0,10,10A9.77,9.77,0,0,0,170.52,64.66Z"/><path class="cls-3" d="M44.09,222.89a12.7,12.7,0,0,1,12.68-12.68h129a12.67,12.67,0,0,1,12.62,12.68V506.23a12.64,12.64,0,0,1-12.62,12.61h-129a12.66,12.66,0,0,1-12.68-12.61Z"/><path class="cls-2" d="M56.77,532.26h129a26.07,26.07,0,0,0,26-26V222.9a26.09,26.09,0,0,0-26-26.1h-129a26.13,26.13,0,0,0-26.1,26.1V506.23a26.1,26.1,0,0,0,26.1,26ZM44.09,222.89a12.7,12.7,0,0,1,12.68-12.68h129a12.67,12.67,0,0,1,12.62,12.68V506.23a12.64,12.64,0,0,1-12.62,12.61h-129a12.66,12.66,0,0,1-12.68-12.61Z"/><path class="cls-2" d="M78.73,231.91h65a6.71,6.71,0,1,0,0-13.42h-65a6.71,6.71,0,0,0,0,13.42Z"/><path class="cls-2" d="M168.86,230.77a4.69,4.69,0,0,0,1.14.61,4.84,4.84,0,0,0,1.26.4,10.28,10.28,0,0,0,1.35.13,9,9,0,0,0,1.27-.13,4,4,0,0,0,1.27-.4,3.69,3.69,0,0,0,1.14-.61,6.36,6.36,0,0,0,1-.8,6.85,6.85,0,0,0,2-4.77,6.45,6.45,0,0,0-.54-2.55,5.58,5.58,0,0,0-1.47-2.21,4.1,4.1,0,0,0-1-.8,3.69,3.69,0,0,0-1.14-.61,4.1,4.1,0,0,0-1.27-.4,5.8,5.8,0,0,0-2.62,0,4.79,4.79,0,0,0-1.27.4,4.69,4.69,0,0,0-1.14.61,10.09,10.09,0,0,0-1,.8,7.61,7.61,0,0,0-1.47,2.21,6.56,6.56,0,0,0-.47,2.55,6.83,6.83,0,0,0,1.94,4.77l1,.8Z"/><path class="cls-2" d="M121.25,486.39a11.88,11.88,0,1,0,11.87,11.87A11.89,11.89,0,0,0,121.25,486.39Z"/><path class="cls-2" d="M121.25,422.25a57.73,57.73,0,1,0-57.73-57.73A57.8,57.8,0,0,0,121.25,422.25Zm0-102a44.31,44.31,0,1,1-44.31,44.31A44.35,44.35,0,0,1,121.25,320.22Z"/><path class="cls-2" d="M108,382.69a6.69,6.69,0,0,0,9.48,0l26.86-26.85a6.71,6.71,0,0,0-9.49-9.49l-22.11,22.11-5-5A6.71,6.71,0,1,0,98.2,373Z"/><path class="cls-2" d="M450.12,314.4a22.14,22.14,0,0,1,12.11,3.6l70,45.66a8.62,8.62,0,0,1,3.93,7.44c0,.91.12,2.29.12,2.29v87.94a20.49,20.49,0,0,1-9.34,17.17l-67.75,44.28a62.63,62.63,0,0,1-5.71,2.79,27,27,0,0,1-4.59.53h-.36c-2-.06-8-2.16-9.93-3.39l-68.1-44.42a19.76,19.76,0,0,1-9-16.54l.28-91.58a11.16,11.16,0,0,1,5.42-9.36l71.46-43.21a22.18,22.18,0,0,1,11.47-3.19m0-14a36.16,36.16,0,0,0-18.71,5.21L360,348.82a25.12,25.12,0,0,0-12.18,21v.29l-.28,91.58A33.71,33.71,0,0,0,362.83,490l68.1,44.42c3.73,2.43,12.19,5.49,17.12,5.66h.82a40.18,40.18,0,0,0,7.45-.82l2.74-.88a57.41,57.41,0,0,0,7.75-3.89l67.77-44.29a34.38,34.38,0,0,0,15.68-28.89V373.39l-.07-1.34c0-.23-.05-.61-.05-.79a22.56,22.56,0,0,0-10.28-19.32l-70-45.67a36.14,36.14,0,0,0-19.76-5.87Z"/><ellipse class="cls-2" cx="476.64" cy="442.19" rx="12.74" ry="6.86" transform="translate(-146.58 627.44) rotate(-59.41)"/><ellipse class="cls-2" cx="511.65" cy="459" rx="12.12" ry="6.54" transform="translate(-143.83 665.89) rotate(-59.41)"/><path class="cls-4" d="M457.74,426.47c-5.76,3.75-8.59,7.44-8.59,14.28V518.2a5.77,5.77,0,0,0,9.2,5l68.57-44.68a20.49,20.49,0,0,0,9.34-17.17V373.39"/><ellipse class="cls-2" cx="381.4" cy="416.86" rx="6.29" ry="11.68" transform="translate(-159.07 252.13) rotate(-30.59)"/><ellipse class="cls-2" cx="400.6" cy="451.27" rx="6.29" ry="11.68" transform="translate(-173.91 266.7) rotate(-30.59)"/><ellipse class="cls-2" cx="419.8" cy="485.69" rx="6.29" ry="11.68" transform="translate(-188.75 281.26) rotate(-30.59)"/><path class="cls-2" d="M465.51,344.78c-4.46,2.76-11.6,2.7-15.93-.14s-4.19-7.36.29-10.1,11.57-2.66,15.88.15S470,342,465.51,344.78Z"/><path class="cls-2" d="M438,361.79c-4.55,2.81-11.78,2.77-16.14-.1s-4.17-7.46.4-10.25,11.74-2.73,16.07.12S442.54,359,438,361.79Z"/><path class="cls-2" d="M410,379.12c-4.63,2.87-11.95,2.84-16.34-.07s-4.15-7.56.5-10.41,11.91-2.79,16.28.09S414.61,376.26,410,379.12Z"/><path class="cls-2" d="M504.12,370c-4.42,2.81-11.55,2.78-15.91-.08s-4.28-7.44.16-10.23,11.52-2.73,15.86.1S508.53,367.24,504.12,370Z"/><path class="cls-2" d="M476.87,387.35c-4.5,2.87-11.73,2.85-16.12-.05s-4.26-7.54.26-10.38,11.69-2.8,16.06.07S481.36,384.5,476.87,387.35Z"/><path class="cls-2" d="M449.11,405c-4.59,2.91-11.91,2.91-16.32,0s-4.25-7.64.36-10.54,11.86-2.86,16.26,0S453.68,402.08,449.11,405Z"/><path class="cls-5" d="M436.33,426,366.79,379.8a11.25,11.25,0,0,1,.4-19l71.46-43.21a22.18,22.18,0,0,1,23.58.41l70,45.66a8.71,8.71,0,0,1,0,14.6l-74.35,47.91A19.63,19.63,0,0,1,436.33,426Z"/><path class="cls-6" d="M427,419.84l16.44,10.47a12.49,12.49,0,0,1,5.68,10.44V517a6.83,6.83,0,0,1-10.57,5.72l-68.1-44.42a19.76,19.76,0,0,1-9-16.54v-91.8"/><path class="cls-2" d="M457.74,426.47A20.29,20.29,0,0,0,449,439a12.47,12.47,0,0,0-5.54-8.7l-4.29-2.73a19.62,19.62,0,0,0,18.64-1.41l7.76-5Z"/><rect class="cls-2" x="444.53" y="522.52" width="6.82" height="9.16" transform="translate(503.92 -162.36) rotate(45)"/></svg>