<?xml version="1.0" encoding="utf-8"?>
<!-- Generator: Adobe Illustrator 25.2.0, SVG Export Plug-In . SVG Version: 6.00 Build 0)  -->
<svg version="1.1" id="Layer_1" xmlns="http://www.w3.org/2000/svg" xmlns:xlink="http://www.w3.org/1999/xlink" x="0px" y="0px"
	 viewBox="0 0 2188.6 1069.9" style="enable-background:new 0 0 2188.6 1069.9;" xml:space="preserve">
<style type="text/css">
	.st0{fill:#FFFFFF;}
</style>
<g>
	<path class="st0" d="M479.3,852.1c0-20.5-18.7-22.8-18.7-22.8c0,9.9-7.4,26.1-15.6,34.2c-8.3,8.2-15.4,23.1-71.5,23.1
		c-59.8,0-83.3-23-155.5-69.7c-35.5-22.9-64.4-35.3-89.8-38.6c55.2-24.1,63.3-77.8,59.1-143.9c-4.8-75.3-4.8-173,0-203.5
		c4.8-30.4,22.4-78.5,65.7-76.9c43.3,1.6,28.8,54.5,28.8,54.5s36.9-17.6,43.3-36.9s9.6-35.3,0-36.9c-9.6-1.6-72.1-33.6-120.1,8
		c-37.7,32.7-59.3,80.1-59.3,80.1s-16.8-0.7-27.2,32.6c-12.8,41-1.5,113.9,3.2,144.2c13.2,85.8,5.4,144.9-15.9,169.5
		c-2.9,3.3-5,6.5-6.5,9.2c-14.4,2.3-27.8,7.9-40.9,16.3C23,817.7,31.2,845.5,34.8,854c0.3,0.6,1.2,0.5,1.3-0.1
		c0.4-2.1,1.8-5.6,5.7-10.6c2.4-3.1,5-7.1,9.4-11c22.4-19.9,59.9-20.2,86.2-6.9c28.1,14.2,51.8,34.4,81,63.8
		c45.8,46.2,73.1,55.6,108.5,57.4c35.4,1.9,52.9-21.5,52.9-21.5s51.8,4.9,76.1-18.1C480.1,884,479.3,872.6,479.3,852.1z"/>
	<path class="st0" d="M290.2,433.1c6.1,29.4-3.7,61.5-10.1,91.7c-14,65.4-23,99.7-45.6,162.7c-4.3,12.1-15,42.7-22.3,53.1
		c-4.2,5.9-14.7,11.8-25.4,16.1c20.9,8.9,43.5,17.3,67.5,24.5c-2-14.8-1.2-29.9,1.1-45c5,5.2,11.3,9.4,19,12.2
		c-6.5-5.9-12.7-26.9-11.9-37.2c0.8-10.1,4-25.3,24.8-44.7c9.9-9.2,30.5-16.3,51.1-19.6c4.1,54.9,8.1,114.8,6,125.5
		c-2.5,12.7-7.8,21.1-14.5,26.8c35.1,6,72.4,9.1,111.6,8.1c1.7,0,3.5-0.1,5.3-0.2c-5.7-3.4-11.2-7.3-15.7-12.2
		c-13.1-14.1-16.9-34.3-19.8-53.3c-4.6-29.8-8.2-59.7-11.2-89.6c4.3,1.6,7.6,3.1,9.5,4.1c40.6,21.9,47.1,53.1,47.2,83.5
		c3.3,0.6,7.2-10.2,8.1-12.8c7.8-26.6,4.4-58.2-12.4-80.8c-14.4-17.6-34.6-31.9-56.2-39.3c-1.5-21.7-2.7-43.5-3.3-65.2
		c-0.9-29.7-0.2-61.8,14.2-86.9C365.5,451.9,326.4,444.1,290.2,433.1z M314.3,609.7c-10.6,4-19.7,8.4-27.8,13.9
		c12.8-40.9,26-81.6,39.6-122.2c-0.4,5.4,4.2,37.3,5.5,56.3c0.6,9,1.9,25.9,3.5,46.6C327.5,605.6,320.3,607.4,314.3,609.7z"/>
	<path class="st0" d="M772.5,765.5c30.4-6.4,61.4-13.5,92.7-21.6c1.1-0.3,2.2-0.6,3.2-0.8c-7.8-19.6-14.2-39.7-16.7-60.7
		c-1.9-15.4-1.6-31-1.7-46.6c-0.1-21.2-0.2-42.5-0.2-63.7c-0.2-60.1-3.9-119.1,8.2-177.5c-27.3,6.9-44.5,12.2-71.2,17.9
		c-3.3,0.7-6.7,1.4-10,2.1c-1.3,0.3-2.6,0.5-3.9,0.8c-13.6,2.8-27.1,5.4-40.4,7.9c-1,0.2-1.5,1.2-1.1,2.1c1.7,4.3,2.8,9.1,3.1,13.5
		c2.7,33.7-7.9,67-18.3,99.2c-3,9.3-6.1,18.7-9.1,28c-3,0.2-6.1,0.5-9.1,1c-25.5,4.3-42.4,9.6-62,27.3
		c-11.2,10.1-21.1,21.9-26.6,35.8c-5.5,14-6,30.4,1,43.6c7,13.3,22.4,22.4,37.2,19.7c-10.4-11.8-10.8-30.1-4.2-44.4
		c6.5-14.3,18.9-25.1,31.9-33.9c6.5-4.4,12.5-6.9,18.6-8.4c-12.4,38.2-24.8,76.4-37.2,114.7c-7.2,22.2-14.5,44.6-23.3,66.2
		c-0.4,1.1,0.4,2.2,1.6,2.1c23.8-3.4,48.3-7.3,73.5-11.8c1-0.2,1.5-1.2,1.1-2.1c-3.8-8.9-6.1-18.5-6.8-28.1
		c-1.8-24,4.7-47.7,11-70.9c6.7-24.6,13.5-49.2,20.3-73.7c14.4,2.6,28.7,12,36,24c4.4,7.2,6.1,15.1,6.4,23.6
		c0.4,11.8-2.4,16.9-11.2,24.7c7.4-0.2,13.4-2.7,18-7.7c-1.6,38.7-4.1,68.4-5.1,74.5C776.7,750.1,774.9,757.8,772.5,765.5z
		 M742.9,571.3c9.8-35.5,19.5-71.1,29.3-106.6c0.1-0.2,0.1-0.5,0-0.7c0,0.1,0.1,0.2,0.1,0.3c9.5,32.2,12.4,85.6,12.4,137.2
		C774.2,587.5,759.4,577.1,742.9,571.3z"/>
	<path class="st0" d="M669.3,901.5c-5.3,2.8-16.2,9-26.2,6.1c-15.5-4.6-47-55.1-49.6-99.2c-1.5-25.3-1.2-146.6-2.2-250.2
		c21-10.8,40.4-20.8,42.4-21.6c9.3-3.7,16.5-6.8,26.5-7.1c6.5-0.2,11.2,0.5,16.7,4c5.4,3.5,8.4,11.6,4.2,16.6
		c5-5.1,10-10.5,12.7-17.1c2.7-6.6,2.7-14.8-1.7-20.4c-4.4-5.6-13.9-7.2-18.8-2c2-14-14.7-29.8-28.8-30.9c-14.1-1.1-25.1,0.6-36.5,9
		c-6.3,4.7-12,9.1-17.5,13.5c-0.9-51.7-2.4-91.2-5.1-98.8c-1-2.9-2.2-5.7-3.6-8.3c82.4-28.5,154.3-62.5,258-61.9
		c19.1,0.1,27.9,2.4,44.6,11.7c17.1,9.5,19.5,16.3,22.6,24.3c13.8-24.5,4.8-58.7-13.9-74c-24.7-20.3-51.7-19.3-64.8-10.4
		c-8.8-9.7-34-26.4-74.2-18.9C661,283.1,567.2,339,534,356.2c-25,12.9-59,28.3-87.2,28.5c-22.8,0.1-45-12.2-51.2-34.1
		c-14.1,4.9-20.3,23.1-15.4,37.2c4.9,14.1,18.2,23.8,32.3,28.7c26.6,9.1,74.6,5.8,101.9-1.1c5.9-1.5,11.6-3.1,17.4-4.7
		c0.8,29.6,2.2,81.7,3.2,137c-9.5,8.2-23,20.5-32.5,22.7c-11.4,2.6-21,3.7-28.6,0.9c-11-4-18.9-12.9-11.6-22
		c-11.3,8.7-11.5,27.3-2.5,38.4c9,11.1,24.6,15.3,38.8,13.7c13.2-1.5,25.5-7.3,37.1-13.8c0.8,56.6,1,111.5-0.3,144.5
		c-3.6,92-0.9,127.3-22.4,171.9c-21.5,44.6-48.2,42.7-48.2,42.7l-18.1,0c0,0,2.1,10.4,12.9,18.6c11,8.4,30.9,14.6,43.3,15.1
		c19.8,0.7,38.5-7.3,47.1-19.2c8.6-11.8,11.6-17.7,11.6-17.7s34.6,14.7,64.8,1.1c30.1-13.6,41.2-35.2,45.5-42.5
		C673.4,899.5,672.2,899.9,669.3,901.5z"/>
	<path class="st0" d="M1097.4,618.7c4.5,16.1,15.1,31.4,30.8,37c6.9,2.5,14.8,4.2,22.2,4.3c8.8,0.1,19.5,0.1,27.8-2.6
		c15.1-4.8,33.1-15.4,40.9-29.9c7.5-13.9,10.6-26.7,19.1-40c3.6-5.6,6-9,11.4-12.9s18.4-7.9,19.4-7.6c0,0-7.3-1.6-10.3-3.2
		c-14.1-7.4-12.4-70.1-12.4-86.1c0-40.2-0.8-82.7-0.6-122.2c0.2-44-2.4-45.2,14.9-78.7c-17.8,5.8-43.1,13.5-61.6,19.5
		c2.9,5,4.2,9,5.3,13.8c14.6,65,8.1,261.5-4.2,292.1c-2.6,6.4-5.8,12.9-11.9,16.7c-3.6,2.2-7.9,3.1-11.8,1.7
		c-7.8-2.6-10.7-11.8-11.3-19.8c-5.8-81.8-2.2-177.5-1.6-260.2c0.1-15,3-24.8,9.2-34.3c0.3-0.4-0.1-1-0.6-0.8
		c-35.9,11.6-72.8,23.3-110.1,34.7c-1.6,0.5-2,2.7-0.5,3.6c9.3,6,16.8,15.2,21.5,25.2c7.9,17.1,9.2,36.3,10,55.1
		c2.2,48.2,2.6,96.5,1.2,144.8C1093.6,585.7,1092.9,602.7,1097.4,618.7z"/>
	<path class="st0" d="M1677.6,612.9c17.4-17.4,19.4-44.8,9.4-66.8c-11.9-27.1-42.8-26.1-56.2-19.9c0,0,20.7,7.3,20.7,22.4
		c0,15.1-9,32.7-33.2,48.7c-32.1,21-112.6,15.4-190.8-5.2c-46.7-12.3-83-21.6-112.7-20.7c22.4-22.1,42.9-53.6,42.9-84.4
		c0-28.8,1.7-133.5,1.7-133.5s1.8-68.6,15.3-110.8c0.4-1.2-0.8-2.4-2-2c-27.3,8.6-56.3,18-86.5,27.8c-1.2,0.4-1.5,1.9-0.5,2.8
		c0.8,0.6,1.5,1.4,2,2.2c2.8,4.3,4.2,10,5.1,15c6.3,35.3,3.4,71.9,2.9,107.8c-0.6,52.9-1.3,106.2-12.9,157.8
		c-2.1,9.2-4.5,18.4-8,27.1c-7.6,4.1-14.7,9.5-21.5,16.5c-9.5,11.1-12.8,29.8-11.9,40.1c0.9,10.3,5.4,20.5,8.7,19.8
		c-5.4-32.2,24.4-58.1,65.3-54.9c61.6,4.3,159.3,59.6,178.7,68.7c19.4,9,48.7,21.7,86.2,21.7c37.5,0,62.4-35.9,62.4-35.9
		s7.4-9.4,7.4-21.1c0-11.6-1.9-14-1.9-14S1660.1,630.3,1677.6,612.9z"/>
	<path class="st0" d="M885.1,739c4.3-1.8,9-3.4,14-4.9c33.7-9.8,80.4-17.6,108.4-28.4c24.7-9.5,44-24.3,57.3-47.1
		c5.6-9.6,10.1-25,12.8-35.7c7.2-28.7,0.4-65.4-14.5-91c-7.4-12.8-22-23.5-36.3-27c24.8-12,40-40.3,38.1-67.8
		c-1.9-27.4-10.6-54.8-35-67.5c-9.5-5-23.7-11.4-41.1-8.8c-10.4,1.6-47,12.7-77.5,21.5c-12.5,3.4-24.9,6.7-37.3,9.9
		c-0.3,0.1-0.5,0.1-0.7,0.2c0.1,0.1,0.1,0.2,0.2,0.3c2.5,3.4,17.1,35.4,17.1,63.1c0,62.1,4.3,249.3-3.9,278.3L885.1,739z
		 M1014.7,601.9c-0.9,32.8-8.6,56.9-28.9,76.7c-11.6,11.3-31.5,17.3-46.6,20.3c2.5-3.9,4.6-8.1,6.1-12.4c5.4-15,5.9-31.2,6.3-47.1
		c0.6-22.6,2.4-97.1,2.4-111.7c6.9,0.2,14.8,1.4,22.2,4.8C996.1,541.7,1015.5,569.1,1014.7,601.9z M968.5,400.5
		c5.6,1.1,11,3.3,15.2,7.1c3.1,2.9,5.4,6.6,7.3,10.5c4.2,8.6,6.3,18.1,6.4,27.6c0,6.6-1,13.2-3.9,19.1c-5,10.4-15.1,17.4-25.2,22.9
		c-4.6,2.5-9.2,4.8-14,6.9c-0.4-27.8-3-65.2-13.3-83.5c-1.5-2.7-3-5.4-4.8-7.9C946.8,400.4,957.8,398.4,968.5,400.5z"/>
	<circle class="st0" cx="1517.2" cy="376" r="20.5"/>
	<path class="st0" d="M1432.9,252.8c-29.3,35.6-48.8,90.3-48.8,145c0,40.8,5.4,80,21.6,107.1c26.7,44.6,74,64.6,111.5,64.6
		c60.3,0,133.1-87.5,133.1-195.4s-61.2-172.2-121.5-172.2C1499.1,201.8,1461.3,218.2,1432.9,252.8z M1525.3,232.3
		c33.9,0,52.7,65.7,52.7,155.7s-27.5,151.4-61.4,151.4c-33.9,0-61.4-61.3-61.4-151.4S1491.4,232.3,1525.3,232.3z"/>
	<path class="st0" d="M1836.1,569.4c0-36.8-14-72-22.5-88.5c-9.3-18-51.8-74.7-68-99.3c-17.9-27.1-34.5-54.7-38.3-72.6
		c-4.1-19.7-1.7-32.8,3.5-42.6c5.7-10.8,17.8-18.5,32.4-18.2c27.8,0.6,57.8,31.8,60.1,48c1.3,9.4,0.6,13.6-0.3,15.5
		c-0.4,0.8,0.5,1.7,1.4,1.3c8.4-4,28.4-25.9,33.3-41.5c4.2-13.1,9.8-39.9-31.2-59c-41.1-19.1-70.6-9.2-75.8-6.9
		c-5.2,2.3-32.6,15.7-47.6,40.9c-14.8,24.8-20.3,46.6-14.7,82.4c0.2,1.4,9.2,33.5,9.2,33.5s-15.2,5.7-12.9,21.9
		c2.3,16.2,1.2,34.1,53.2,111c52.1,76.9,49.1,126.7,49.1,143c0,114-101.4,183.2-176.4,183.2c-86.6,0-128-54.9-128-88.8
		c0-34.4,18.6-39.8,18.6-39.8s-8.3-17.5-29.7-17.4c-21.4,0.2-48.4,18.7-49,51.1c-0.6,32.4,18.5,59.4,23.7,61.2
		c5.2,1.8,3.4,4.1,3.4,4.1s-5.5,14.4,1.2,28.4c6.7,14,33.2,90.4,159.9,90.4c226.8,0,221-249.3,221-249.3S1836.1,646.3,1836.1,569.4z
		"/>
	<path class="st0" d="M2112.7,713.3c0,0-20.6,38.5-56.7,38.2c-28.2-0.2-62.1-9-75.2-17.9c-1.8-1.2-3.6-2.4-5.3-3.6
		c32.5-15.9,30.3-43.6,30.3-43.6v-71.1V482.1c16,9.5,27.2,23.2,30.7,27.9c26.4,37.8,18,68.7,4.4,95.9c2.7,2,47.4,2.5,47.4-80.3
		c0-44.3-36.6-68.3-64.5-83.3c-5.8-3.1-11.8-5.4-18-7.2V303.2c0-0.1,0.6-4.7,2-6.9s4.1-3.4,4.1-3.4c0.2-0.3,0.1-0.6-0.2-0.7
		c-11.7-4.8-105.5-39.3-121.4-44.7c-0.4-0.1-0.8,0.3-0.6,0.7c3,5.4,5.6,10.6,7.6,15.3c11.4,26.5-75.6,204-75.6,204
		c-0.1,0.1,5.3,8.1,5.4,8.3c7.4,12,14.5,28.6,19.4,46.9c0.5,1.7,1.8,9.9,2,11.5c0.1,0.5,0.8,0.6,1,0.1l11.5-29.6
		c1.4,9.6,5.8,18.8,13.3,26.8c-3.1-8.2,0.8-29.7,6.2-38.6c5.3-8.6,15-20.7,42.3-28.7c1.2-0.3,2.4-0.6,3.7-0.9l4.4,237.7
		c-6.1-3.5-11.9-6.6-17.8-9.4c-16.4-7.6-23.2-10.5-39.8-10.5c-45.6,0-43.7,47.6-43.7,47.6s11.2-22.1,28.6-22.1
		c17.8,0,24.5-1.2,43.1,17.3c25,24.9,62.6,75.3,119.3,75.3c27.5,0,37.5-18.8,37.5-18.8s25.9,5.8,42.7-11.4
		C2117.4,751.7,2112.7,713.3,2112.7,713.3z M1903.1,439.3c-9.7,5.4-17.6,11.4-24,17.8l43.9-113.3c0.2-0.5,1-0.4,1,0.2l1.6,86.7
		C1918.1,432.4,1910.6,435.1,1903.1,439.3z"/>
	<path class="st0" d="M1381.2,683.6c-1.9-4-4.9-7.9-8.9-10.9c-9.8-7.6-16.2-10.6-27.8-12.6c-56.7-9.7-122.9,17-179.8,40
		c-68.4,27.7-124.6,62.4-207.4,94c-69,26.3-179.3,55.6-253,43.3c-22.8-3.8-35.2-23.4-39.3-35.1c0,0-1.9,1.4-2.7,2.2
		c-11.3,11.3-11.9,44.8,22.9,70.7c30.1,22.4,92,9.2,157.7-6.8c16.2,10.7,47.7,23.3,96.5,7.6c56.4-18.1,139.1-62.6,196.4-95.1
		c0,0,35.1-20.3,46.6-27c46.3-27.3,115.1-60.9,136.5-65.6c13.8-3,24-3.3,31.5-2.7c14.2,1.2,18.7,6.7,20.9,10.8
		c3.3,6.3,2.6,11.2,2.3,14.6c-0.6,7.4-3.4,10.1-3.4,10.1c5.2-2,14.6-5.4,13.8-25.8C1384,693.8,1383.1,687.6,1381.2,683.6z"/>
	<path class="st0" d="M951.7,286.7c2.7,3.5,5.9,5.8,9.4,6.8c3.5,1,7,1,10.5-0.1c3.5-1.1,6.6-3.1,9.2-5.9c2.6-2.8,4.6-6.4,5.7-10.6
		c0.9-3.8,1-7.5,0.3-11.2c-0.7-3.6-2.2-6.7-4.4-9.2c-2.2-2.5-5.1-3.8-8.6-4.1c-3.5-0.2-7.6,1.1-12.2,4.1c-1.1,0.8-1.7,1.5-1.7,2.3
		c-0.1,0.8,0.4,1.4,1.2,1.6c0.8,0.2,1.9-0.2,3.3-1.2c3.7-2.5,7.1-3.6,10-3.1c2.9,0.5,5.3,1.9,7.1,4.3c1.8,2.4,2.9,5.3,3.3,8.7
		c0.4,3.4-0.1,6.7-1.5,10c-1.4,3.3-3.9,6.1-7.3,8.3c-5,2.9-9.2,4-12.5,3.1c-3.3-0.9-5.8-3.1-7.5-6.8c-1.7-3.7-2.6-8.4-2.7-14
		c-0.1-5.6,0.6-11.8,2-18.3c1.4-6.5,3.7-13.2,6.6-19.8c2.9-6.6,6.7-12.8,11.1-18.4c4.2-5.3,9.3-10,15.1-13.9
		c5.8-3.9,12-6.7,18.5-8.2c6.5-1.6,13.2-1.5,19.8,0.2c3.7,1.1,6.9,3.2,9.5,6.3c2.6,3.1,4.7,6.9,6,11.2c1.4,4.3,1.9,8.9,1.7,13.5
		c-0.5,6.6-2,13.5-4.5,20.3c-2.5,6.8-5.8,13.3-9.7,19.2c-3.9,5.9-8.1,10.9-12.6,14.8c-4.4,3.8-8.8,6.2-13.1,7
		c0.2-4,0.3-8.1,0.4-12.2c0.1-6.2,0.4-12.8,0.9-19.7c0.5-6.9,1.4-13.7,2.6-20.4c1.3-6.7,3.1-13,5.6-18.7c2.4-5.7,5.7-10.6,9.8-14.6
		l0.4-0.4l-0.6,0.1c-5.6,1.3-10.4,3.8-14.1,7.2s-6.7,7.7-8.9,12.7s-3.8,10.6-4.9,16.6c-1.1,6-1.9,12.3-2.3,18.8s-0.8,13-1,19.4
		c-0.2,6.5-0.6,12.8-1,18.7c-0.4,5.8-1.2,11.2-2.2,15.9c-1.1,4.7-2.7,8.6-4.9,11.5c-1.9,2.4-4.1,4-6.6,4.7c-2.5,0.7-4.8,0.6-6.9-0.2
		c-2.1-0.8-3.7-2.2-4.5-4.2c-0.8-2.1-0.9-4.3-0.2-6.5c0.7-2.2,1.9-4.3,3.5-6.2c1.7-1.9,3.6-3.5,5.7-4.9c2.1-1.3,4.2-2.2,6.3-2.6
		c0.7-0.3,1-0.9,0.9-1.6c-0.1-0.7-0.4-1.3-1-1.9c-0.5-0.6-1.1-0.9-1.7-0.9h0l0,0c-3.7,1.8-7.1,4-10,6.6c-2.9,2.6-5.1,5.5-6.4,8.7
		c-1.3,3.2-1.5,6.6-0.5,10.2c1,3.3,3,5.9,6,7.6c2,1.1,4.2,1.7,6.5,1.7c1.2,0,2.4-0.1,3.6-0.4c2.8-0.6,5.7-1.6,8.7-3.2
		c2.9-1.6,5.6-3.7,7.9-6.3c2.4-2.7,4.2-5.9,5.4-9.7c0.9-3.3,1.7-6.8,2.2-10.5c0.5-3.6,0.9-7.5,1.1-11.4c5.5,3.5,11.3,6.9,17.3,10.3
		c6,3.3,12.4,6.2,18.9,8.5c6.5,2.3,13.4,3.6,20.4,3.8c4.1,0.1,8.5-0.8,13.1-2.8c4.6-1.9,8.9-4.8,12.8-8.4c3.9-3.6,7-7.9,9.2-12.8
		c0.3-0.8,0.4-1.5,0.2-2.1c-0.1-0.3-0.3-0.4-0.5-0.5c-0.3-0.1-0.6-0.1-1.1,0.1l0,0l0,0c-0.9,1.1-1.7,2.2-2.4,3.2
		c-1.1,1.7-2.4,3.3-3.8,4.8c-1.4,1.4-3.2,2.7-5.4,3.7c-2.2,1-5.3,1.8-9.1,2.1c-5.7,0.6-11.7,0.4-17.8-0.3
		c-6.1-0.8-12.2-2.1-18.2-3.8c-6-1.8-11.7-3.9-17.1-6.3c-1-0.5-3.7-1.5-7.9-3c8.8-3.8,16.4-8.5,22.6-13.9c6.2-5.5,11.2-11.6,14.7-18
		c3.5-6.4,5.8-13,6.9-19.5c1-6.5,0.8-12.8-0.6-18.7c-1.4-5.9-4-11.1-7.7-15.5c-3.7-4.4-8.6-7.7-14.4-9.9s-12.9-2.8-20.8-1.9
		c-7.9,0.9-16.9,3.7-26.7,8.4c-8.1,4-15,9.2-20.6,15.3c-5.6,6.1-10.1,12.9-13.3,20c-3.2,7.2-5.4,14.4-6.4,21.5c-1,7.1-1,13.8,0,19.8
		C947,278.1,949,283.2,951.7,286.7z"/>
	<path class="st0" d="M1073.9,270.9c1.8,1,3.8,1.5,6,1.5c0.7,0,1.4-0.1,2.2-0.2c3-0.4,5.9-1.4,8.7-3s4.9-3.3,6.3-5.3l0,0
		c2.1-3.2,3.8-6.9,5.2-11.1l-1.7,45.3l0,0.3l12.6-4.1l1.4-38.1c0.8,0.7,1.7,1.3,2.7,1.9c1.2,0.6,2.7,0.9,4.4,0.9
		c1.8,0,4-0.4,6.5-1.2c2-0.6,3.7-1.6,5.1-3c1.4-1.3,2.6-2.9,3.6-4.8c1-1.8,1.7-3.9,2.3-6c0.1-0.6,0.3-1.2,0.4-1.9
		c2.7-1.9,5.1-4.2,7.2-7c1.4-1.9,2.5-3.8,3.5-5.9l-0.1,1.6c0,4.8,0.9,8.6,2.5,11.1c1.7,2.5,3.8,4,6.4,4.4c0.7,0.1,1.5,0.2,2.1,0.2
		c1.9,0,3.5-0.4,4.9-1.3c1.9-1.2,3.6-2.9,4.9-5.2c2-3.3,3.6-7.3,4.7-11.9c0.6,2.9,1.6,5.2,3,6.8c1.5,1.8,3.3,2.8,5.4,3.1
		c2.8,0.4,5.1,0.1,7.1-1.1c1.9-1.2,3.6-2.9,4.9-5.2c2-3.4,3.7-7.4,5.1-11.7c0.1-0.3,0.2-0.6,0.3-0.9l-0.4,14.7v0.3l12.5-4.2l0.2-6.1
		c0.7,0.7,1.6,1.3,2.7,1.8c1.2,0.5,2.7,0.8,4.5,0.8c0,0,0.1,0,0.1,0c1.7,0,3.9-0.4,6.4-1.3c1.9-0.6,3.6-1.7,5-3
		c1.4-1.3,2.6-3,3.5-4.8c0.9-1.9,1.7-3.9,2.3-6.1c0.1-0.5,0.2-1,0.4-1.6c2.9-1.9,5.4-4.4,7.6-7.3c1.4-1.9,2.6-3.9,3.5-5.9l0,1.3
		c0.1,4.8,1,8.6,2.7,11.1c1.7,2.5,3.8,4,6.5,4.4c0.7,0.1,1.4,0.2,2,0.2c1.9,0,3.5-0.4,5-1.4c1.9-1.2,3.5-3,4.8-5.3
		c2-3.5,3.7-7.4,5-11.8c0.3-0.9,0.5-1.7,0.7-2.6c0.4,3.1,1.2,5.6,2.5,7.5c1.7,2.5,3.9,4,6.5,4.3c0.7,0.1,1.3,0.1,1.9,0.1
		c2,0,3.7-0.5,5.1-1.4c1.9-1.2,3.5-3,4.8-5.3c2-3.5,3.7-7.4,4.9-11.9c0.6-2.2,1.1-4.3,1.6-6.4c0.4,1.8,0.9,3.4,1.4,4.9
		c1.5,3.9,3.7,6.6,6.3,8c1.7,0.9,3.5,1.3,5.5,1.3c0.9,0,1.8-0.1,2.7-0.3c3-0.6,5.9-1.7,8.6-3.3c2.7-1.6,4.7-3.5,6.1-5.6l0,0
		c2.1-3.4,3.7-7.3,4.9-11.8c0.6-2.1,1-4.1,1.4-6.2c0.3,1.5,0.7,2.9,1.1,4.1c1,2.9,2.2,5.3,3.7,6.9c1.5,1.6,3.1,2.7,4.9,3.1
		c0.7,0.2,1.5,0.3,2.2,0.3c1.1,0,2.1-0.2,3.2-0.5c1.2-0.4,2.3-1.3,3.4-2.8c1.1-1.5,2.1-3.3,2.9-5.3c0.8-1.9,1.4-3.9,1.9-6.1
		c0.7,2.2,1.7,3.9,3,5.1c1.4,1.3,3,2.2,4.8,2.4c2.7,0.4,5.1,0.1,7.1-1.1c1.9-1.2,3.6-2.9,4.9-5.2c2-3.4,3.7-7.3,5.1-11.7
		c1.3-4.4,2.4-8.7,3.1-12.8c0.7-4.1,1.1-7.5,1.3-10.1c0.1-1.7-0.1-2.6-0.6-2.9c-0.2-0.1-0.4-0.1-0.5-0.1c-0.3,0.1-0.5,0.4-0.6,1
		c-0.4,1.4-0.8,3.1-1.3,5c-0.9,3.7-1.9,7.7-3.1,11.9c-1.2,4.2-2.5,8.1-3.9,11.5c-1.4,3.3-3,5.6-4.6,6.7c-0.5,0.3-0.9,0.3-1.2,0.2
		c-0.4-0.2-0.8-0.6-1.2-1.3c-0.6-1.4-0.9-3.7-0.9-6.6l1.3-37.8l-12.6,4.1l-0.2,5.1c-1.5-1.1-3.1-1.8-5-2.1c-2-0.3-4.3,0-7,0.9
		c-2.4,0.8-4.5,2.2-6.1,4.1c-1.6,1.9-2.9,4.1-3.8,6.7c-0.9,2.5-1.6,5.3-2,8.2c-0.3,2.1-0.4,4.3-0.4,6.4c-0.7,3.4-1.5,7.1-2.5,11.1
		c-0.1,0.3-0.1,0.7-0.2,1c-0.4,1.7-1,4-1.8,6.6c-0.8,2.6-1.9,5.3-3.3,7.9c-1.4,2.4-3.2,4-5.4,5c-2.2,1-4.4,0.8-6.6-0.4
		c-1.4-0.8-2.5-2.5-3.4-5c-0.9-2.5-1.4-5.9-1.5-10.1c-0.1-3.6,0-7.1,0.4-10.6c0.4-3.5,1-6.4,1.9-8.8c0.9-2.4,2-3.9,3.4-4.4
		c1.9-0.6,3.3-0.3,4.4,0.8c1,1.1,1.7,2.6,2.1,4.4c0.4,1.8,0.5,3.5,0.3,4.9c-0.1,0.7,0.1,1.1,0.4,1.1c0.3,0.1,0.7,0.1,1.1-0.1
		c0.1,0,0.2,0,0.3,0l0.1,0c0.4,0,0.8-0.1,1.2-0.3c0.4-0.2,0.6-0.5,0.7-1c0.3-2.1,0.2-4.1-0.2-6.1c-0.4-2-1.3-3.9-2.6-5.6
		c-1.4-1.9-3.4-3.1-5.7-3.5c-2.4-0.4-5.3-0.1-8.5,1.1c-2.4,0.9-4.4,2.3-6,4.3c-1.5,1.9-2.8,4.2-3.6,6.8c-0.9,2.6-1.4,5.3-1.7,8.2
		c-0.3,2.7-0.3,5.5-0.2,8.3c-0.6,2.8-1.3,5.8-2.1,8.9c-1.1,4.3-2.3,8.2-3.7,11.6c-1.3,3.4-2.9,5.6-4.4,6.7c-0.5,0.3-0.9,0.3-1.3,0.2
		c-0.4-0.1-0.8-0.6-1.2-1.3c-0.6-1.4-1-3.7-1.1-6.6l0.5-37.9l-12.4,4.4l-0.3,21.9c-0.7,3.2-1.5,6.6-2.5,10.2
		c-1.1,4.3-2.4,8.1-3.8,11.5c-1.4,3.4-2.9,5.6-4.5,6.7c-0.5,0.3-0.9,0.3-1.3,0.2c-0.4-0.2-0.8-0.6-1.2-1.3c-0.6-1.4-1-3.7-1-6.6
		l1.5-69.7v-0.3l-12.5,4.3l-1.2,54.4c-0.8,2.3-2,4.8-3.5,7.5c-1.8,3-4,5.5-6.7,7.3c0.2-3.3,0.2-6.7,0-10.2c-0.2-3.6-0.8-7-1.8-10
		c-1-3.1-2.5-5.4-4.4-7c-2-1.6-4.7-2.1-7.9-1.5c-2.2,0.6-4.4,1.8-6.3,3.8c-1.8,1.8-3.2,3.7-4.4,5.9l1.1-38.3l-12.5,4.2l-1.5,54.7
		c-0.7,3-1.5,6.1-2.4,9.4c-1.2,4.3-2.5,8.1-3.9,11.5c-1.4,3.3-3,5.6-4.6,6.7c-0.5,0.3-0.9,0.3-1.2,0.2c-0.4-0.2-0.8-0.6-1.2-1.3
		c-0.6-1.4-0.9-3.7-0.9-6.6l1.3-37.6v-0.3l-12.6,4.1l-0.3,10.6c-0.4,6.1-1.2,11.8-2.2,17.2c-1,5.3-2.2,10-3.6,13.8
		c-1.4,3.8-2.9,6.4-4.4,7.7c-0.5,0.3-0.9,0.5-1.2,0.4c-0.4-0.1-0.8-0.5-1.1-1.2c-0.6-1.3-1-3.5-1-6.5l1.3-37.6v-0.3l-12.4,4.1
		l-0.1,0l-0.7,21.8c-0.9,2.4-2.1,5.1-3.7,8c-1.6,2.8-3.7,5-6.1,6.8c0.2-2.2,0.3-4.5,0.2-6.8c0-2.5-0.2-4.9-0.5-7.3
		c-0.3-2.4-0.8-4.6-1.6-6.6s-1.7-3.7-2.9-5.1c-1.2-1.4-2.7-2.3-4.5-2.8c-1.8-0.4-3.9-0.3-6.3,0.5c-1.3,0.4-2.8,1.6-4.7,3.4
		c-1.7,1.7-3.2,3.6-4.5,5.8l0.3-6.3l-12.6,4.1l-0.9,23c-0.7,2.8-1.5,5.8-2.4,8.9c-0.1,0.3-0.2,0.7-0.3,1c-0.4,1.7-1.1,3.9-2.1,6.5
		c-0.9,2.6-2.2,5.2-3.7,7.7c-1.5,2.3-3.3,3.9-5.6,4.8c-2.2,0.9-4.4,0.6-6.6-0.6c-1.4-1-2.4-2.7-3.1-4.8c-0.6-2.2-1-4.5-1.1-6.9
		c-0.1-2.2-0.1-4.1-0.1-5.7c1.5,1.6,3.3,2.2,5.2,1.8c2-0.4,4-1.6,5.8-3.5c1.9-1.9,3.3-4.3,4.4-7c1.1-2.7,1.5-5.5,1.2-8.3
		c-0.3-2.8-1.5-5.3-3.7-7.5c-1.4-1.3-3.2-2.1-5.3-2.3c-2.1-0.3-4.6,0.1-7.4,1c-2,0.6-3.8,1.7-5.3,3.1c-1.5,1.4-2.7,3.1-3.7,5
		c-1,1.9-1.8,4-2.3,6.3c-1,4.2-1.5,8.8-1.3,13.9c0.1,5.1,0.8,9.8,2.2,14C1069.3,266.6,1071.3,269.4,1073.9,270.9z M1078.4,242.7
		v-0.4c0.1-1.7,0.4-3.6,0.7-5.7c0.4-2.1,0.9-4.1,1.5-6.1c0.6-1.9,1.4-3.5,2.4-4.6c1.2-1.3,2.4-1.9,3.6-1.6c1.2,0.3,2.1,1.1,2.8,2.6
		c0.7,1.5,1.1,3.4,1,5.6c-0.1,2.3-0.8,4.8-2.1,7.4c-1,1.8-2.2,3.1-3.7,4c-1.4,0.9-2.8,1.2-4,1C1079.4,244.7,1078.7,244,1078.4,242.7
		z M1128.6,222.5c0.1,1.2,0.1,3.2,0,6c-0.1,2.8-0.3,5.9-0.7,9.2c-0.6,0-1.2,0-1.7,0c-1.2,0.1-2.2,0.6-2.9,1.6c-0.7,1-1.2,2-1.2,3.2
		c-0.1,1.2,0.2,2.2,0.9,3.1c0.7,0.8,1.8,1.1,3.2,1c-0.7,2.4-1.6,4.3-2.7,5.7c-1.1,1.4-2.4,2-4,1.7c-1.3-0.3-2.4-1.3-3.2-3.1
		c-0.8-1.8-1.2-4.2-1.1-7.1v0l0-0.1c0.1-1.5,0.3-3.8,0.7-6.9c0.4-3.1,1-6.4,1.7-9.9c0.8-3.5,1.8-6.5,3-9.1c1.2-2.6,2.7-4.1,4.4-4.6
		c0.7-0.2,1.4,0.4,2.1,1.7C1127.6,216.3,1128.2,218.8,1128.6,222.5z M1225.9,204.8c-1.2,0.1-2.1,0.6-2.8,1.5
		c-0.7,0.9-1.1,1.9-1.3,3.1c-0.1,1.2,0.1,2.2,0.7,3c0.6,0.8,1.5,1.2,2.8,1.3c-0.6,2.4-1.5,4.4-2.6,5.9c-1.1,1.5-2.4,2.1-4,1.8
		c-1.3-0.3-2.4-1.3-3.2-3.1c-0.8-1.8-1.3-4.1-1.3-7.1l0-0.2c0-1.5,0.2-3.8,0.6-6.9c0.3-3.1,0.9-6.4,1.6-9.9c0.7-3.5,1.7-6.5,2.9-9.2
		c1.2-2.6,2.6-4.2,4.4-4.7c0.1,0,0.2,0,0.3,0c0.6,0,1.2,0.6,1.8,1.8c0.7,1.4,1.3,4,1.7,7.6c0.1,1.2,0.2,3.1,0.1,6
		c-0.1,2.8-0.3,5.8-0.7,9.1C1226.7,204.8,1226.3,204.8,1225.9,204.8z M1352.4,147.4c0.4-3.9,1.2-7.4,2.2-10.2c1-2.8,2.3-4.5,3.8-5
		c0.1-0.1,0.3-0.1,0.5-0.1c0.4,0,0.9,0.1,1.4,0.4c0.7,0.4,1.4,1.3,2.1,2.5c0.6,1.3,1,2.6,1.1,4c0.1,1.4,0.1,4,0,7.7
		c-0.2,2.1-0.6,4.3-1,6.6c-0.4,2.3-0.9,4.6-1.5,6.7c-0.6,2.2-1.2,4.1-1.9,5.8c-0.7,1.7-1.4,3-2.1,3.9c-0.6,0.9-1.3,1.2-1.9,1.1
		c-0.6-0.1-1.2-1-1.7-2.6c-0.8-2.4-1.3-5.6-1.4-9.4C1351.8,155.3,1352,151.3,1352.4,147.4z"/>
	<path class="st0" d="M1279.9,145.8c0.9,0.4,1.9,0.7,2.9,0.7c0.7,0,1.5-0.1,2.3-0.4c1.7-0.6,3-1.7,3.8-3.4c0.8-1.7,0.9-3.4,0.3-5.1
		c-0.6-1.7-1.7-3-3.4-3.8c-1.7-0.8-3.3-0.9-5.1-0.3c-1.8,0.6-3,1.8-3.8,3.4c-0.8,1.7-0.9,3.4-0.3,5.1
		C1277.1,143.8,1278.3,145,1279.9,145.8z"/>
	<path class="st0" d="M1418.2,145.7c0.7,3,1.8,5.4,3.1,7.2c1.3,1.8,2.9,2.9,4.7,3.5c1,0.3,2,0.5,3,0.5c0.8,0,1.6-0.1,2.5-0.3
		c1.2-0.3,2.4-1.1,3.6-2.5c1.2-1.4,2.3-3.1,3.3-5.1c0.9-1.8,1.7-3.8,2.4-5.9c0.6,2.2,1.5,4,2.6,5.3c1.3,1.4,2.8,2.4,4.6,2.8
		c2.7,0.7,5.1,0.5,7.1-0.6c2-1,3.8-2.7,5.4-4.8c2.3-3.2,4.3-7,6-11.3c0.7-1.7,1.3-3.4,1.8-5.1c0.1,1.3,0.3,2.5,0.5,3.7
		c0.8,4.1,2.5,7.1,4.9,8.9c2.1,1.6,4.7,2.4,7.6,2.4c0.1,0,0.2,0,0.3,0c3.1-0.1,6.1-0.7,9-1.8c2.9-1.2,5.3-2.7,7-4.5l0,0
		c2.6-3,4.9-6.6,6.8-10.8c1.9-4.2,3.5-8.3,4.7-12.4c1.2-4,2-7.4,2.5-9.9c0.3-1.6,0.3-2.6-0.1-2.9c-0.2-0.2-0.4-0.2-0.5-0.2
		c-0.3,0.1-0.5,0.3-0.8,0.9c-0.6,1.5-1.3,3.1-2,4.9c-1.3,3.5-2.9,7.4-4.7,11.3c-0.1,0.3-0.3,0.6-0.4,1c-0.7,1.6-1.6,3.7-2.9,6.2
		c-1.2,2.5-2.8,4.9-4.6,7.2c-1.7,2.1-3.8,3.5-6.1,4c-2.3,0.6-4.5,0.1-6.5-1.5c-1.3-1.2-2.1-2.9-2.4-5.2c-0.3-2.2-0.4-4.6-0.2-7
		c0.2-2.2,0.4-4.1,0.7-5.7c1.3,1.8,2.9,2.6,4.9,2.4c2.1-0.2,4.2-1.1,6.3-2.8c2.1-1.7,3.9-3.8,5.3-6.3c1.4-2.6,2.2-5.3,2.3-8.1
		c0.1-2.8-0.8-5.5-2.8-7.9c-1.2-1.5-2.9-2.5-4.9-3c-2.1-0.5-4.6-0.5-7.5,0c-2.1,0.4-4,1.2-5.6,2.4c-1.6,1.2-3.1,2.7-4.3,4.5
		c-1.2,1.8-2.3,3.8-3.1,6c-1.3,3.4-2.2,7.2-2.8,11.3c-1,3.1-2.2,6.3-3.4,9.7c-1.5,4.1-3.1,7.9-4.8,11.1c-1.7,3.2-3.4,5.3-5.1,6.2
		c-0.5,0.2-1,0.3-1.3,0.1c-0.4-0.2-0.8-0.7-1-1.4c-0.5-1.5-0.6-3.7-0.4-6.7l7.9-69.3l0-0.3l-12.8,3.1l-4.2,36.9
		c-1.4-1.2-3-2.1-4.8-2.5c-1.9-0.4-4.3-0.4-7,0.3c-2.5,0.6-4.7,1.8-6.5,3.6c-1.8,1.7-3.2,3.9-4.4,6.3c-1.1,2.5-2,5.1-2.6,8
		c-0.6,2.8-1,5.7-1.1,8.6c-0.1,2.9-0.1,5.6,0.1,8.2C1417.4,141.5,1417.7,143.8,1418.2,145.7z M1429.2,135.5
		c0.2-3.8,0.6-7.8,1.3-11.7c0.7-3.9,1.7-7.2,3-10c1.2-2.7,2.6-4.3,4.2-4.7c0.1,0,0.2,0,0.3,0c0.4,0,0.9,0.2,1.5,0.6
		c0.7,0.5,1.3,1.4,1.8,2.7c0.5,1.3,0.8,2.6,0.8,3.9c0,1.6,0,2.2-0.1,2.4l-0.6,5.5c-0.4,2.1-0.9,4.3-1.5,6.5
		c-0.6,2.2-1.3,4.5-2.1,6.6c-0.8,2.1-1.6,4-2.4,5.7c-0.8,1.7-1.6,2.9-2.4,3.8c-0.7,0.8-1.4,1.1-1.9,1c-0.4-0.1-1-0.7-1.5-2.7
		C1429.2,142.5,1429,139.3,1429.2,135.5z M1481.7,114.7l0.1-0.4c0.3-1.7,0.8-3.5,1.5-5.6c0.6-2,1.4-4,2.3-5.8
		c0.9-1.8,1.9-3.2,2.9-4.2c1.4-1.2,2.6-1.5,3.7-1.1c1.1,0.4,1.9,1.4,2.5,2.9c0.5,1.5,0.6,3.5,0.2,5.7c-0.4,2.2-1.4,4.6-3.1,7.1
		c-1.2,1.6-2.6,2.8-4.1,3.5c-1.5,0.7-2.9,0.8-4.1,0.5C1482.4,116.9,1481.8,116,1481.7,114.7z"/>
	<path class="st0" d="M1537.8,134.5c1.5,0.6,2.9,0.9,4.3,0.9c1,0,1.9-0.1,2.8-0.4c2.1-0.7,4.1-2.1,5.9-4c2.8-2.9,5.4-6.3,7.6-10.3
		c1.1-1.9,2.1-3.8,3-5.6c-0.1,1.5-0.2,3-0.1,4.2c0.1,3.1,0.6,5.7,1.6,7.7c1,2,2.3,3.5,3.8,4.4c1.5,0.8,3.1,1.3,4.9,1.3
		c0.1,0,0.3,0,0.4,0c1.2,0,2.6-0.6,4-1.7c1.4-1.1,2.9-2.6,4.3-4.3c1.3-1.6,2.5-3.4,3.5-5.3c0.1,2.3,0.6,4.2,1.4,5.7
		c1,1.7,2.3,2.9,3.9,3.7c2.5,1.2,4.9,1.5,7.1,0.9c2.2-0.6,4.3-1.8,6.2-3.6c2.9-2.7,5.7-6,8.2-9.8c2.5-3.8,4.7-7.7,6.5-11.5
		c1.8-3.8,3.2-6.9,4.1-9.4c0.5-1.6,0.6-2.6,0.3-2.9c-0.2-0.2-0.4-0.2-0.5-0.2c-0.3,0-0.6,0.3-0.9,0.8c-0.8,1.3-1.7,2.8-2.6,4.5
		c-1.9,3.3-4,6.8-6.3,10.6c-2.3,3.8-4.6,7.1-7,9.9c-2.3,2.8-4.4,4.5-6.3,5.1c-0.5,0.1-0.9,0.1-1.2-0.2c-0.4-0.3-0.6-0.8-0.7-1.6
		c-0.2-1.5,0.1-3.8,1-6.6l11.7-35.7l0.1-0.2l-13.2,0.4l-1.6,4.8c-1.1-1.5-2.5-2.6-4.2-3.4c-1.8-0.8-4.1-1.2-6.9-1.1
		c-2.6,0.1-4.9,0.8-7,2.2c-2.1,1.3-4,3.1-5.6,5.3s-3,4.6-4.2,7.3c-0.7,1.7-1.4,3.4-1.9,5.2c0,0.1-0.1,0.1-0.1,0.2
		c-1.6,3.4-3.5,7.1-5.6,11c-2.1,3.9-4.2,7.4-6.4,10.3c-2.1,2.9-4.1,4.8-5.9,5.4c-0.5,0.1-1,0.1-1.3-0.1c-0.4-0.3-0.7-0.8-0.8-1.6
		c-0.3-1.5-0.1-3.8,0.6-6.7l17.9-67.4l0-0.3l-13,1.2l-0.1,0l-16.9,63.8c-1,4.7-1,8.6,0,11.4C1533.6,131.5,1535.3,133.5,1537.8,134.5
		z M1572.9,120.9c-0.1-2.5,0.3-5.7,1.3-9.4s2.2-7.5,3.7-11.1c1.5-3.7,3.2-6.7,5-9.2c1.7-2.4,3.5-3.7,5.1-3.8c0,0,0,0,0.1,0
		c0.5,0,1.1,0.3,1.6,0.9c0.6,0.6,1,1.6,1.3,3c0.3,1.4,0.2,2.8-0.1,4.2c-0.3,1.4-1.1,3.9-2.2,7.4c-0.8,1.9-1.7,4-2.8,6.1
		c-1.1,2.1-2.2,4.1-3.3,6c-1.2,1.9-2.3,3.6-3.4,5.1c-1.1,1.5-2.2,2.5-3.1,3.2c-0.9,0.6-1.6,0.8-2.1,0.5
		C1573.3,123.5,1573,122.6,1572.9,120.9z"/>
	<path class="st0" d="M1658.4,99.1c3.5,2,8.2,2.8,14,2.3c4.2-0.4,8.3-1.7,12.2-3.8c3.9-2.1,7-4.9,9.4-8.3c2.4-3.5,3.6-7.5,3.4-12
		c-0.2-1.1-0.6-1.7-1.4-2c-0.7-0.2-1.5-0.1-2.2,0.3c-0.7,0.4-1.1,1.1-1.2,2.1c0.1,3.6-0.8,6.9-2.6,9.8c-1.8,2.9-4.2,5.2-7.2,7
		c-2.9,1.8-6.1,2.9-9.5,3.2c-3.5,0.3-6.3-0.2-8.2-1.5c-1.9-1.3-3.1-3.3-3.5-5.9c-0.4-2.6-0.3-5.6,0.4-8.9c0.7-3.3,1.9-6.8,3.6-10.3
		c2.5-5.2,5.8-9.9,9.8-13.8c4-4,8.3-7.2,12.9-9.6c4.6-2.4,9.2-3.9,13.7-4.6s8.5-0.3,12.1,1.1c3.5,1.4,6.2,3.9,8,7.6
		c1.8,3.7,2.4,8.7,1.7,14.8c-0.8,5.8-3,12.3-6.6,19.5c-3.5,7.2-8,14.5-13.4,21.9c-5.3,7.3-11.1,14.2-17.3,20.4
		c-6.2,6.2-12.3,11.3-18.3,15.1c-6,3.8-11.4,5.9-16.3,6l-1,0l0.9,0.3c4.3,1.4,8.8,2.1,13.4,1.9c4.6-0.2,9.3-1.8,14.2-4.7
		c5.5-3.5,11.2-8.2,16.9-14c5.7-5.8,11.2-12.2,16.3-19.1c5.1-6.9,9.4-14,12.9-20.9c3.5-6.9,5.7-13.4,6.7-19.2c1-7.3,0.7-13.5-1-18.3
		c3.2,4.1,5.3,8.9,6.1,14.2c0.9,5.7,0.9,11.9-0.2,18.3s-2.8,13-5.2,19.4s-5.1,12.6-8,18.2c-2.9,5.6-5.9,10.5-8.8,14.7
		c-0.3,0.7-0.1,1.1,0.1,1.3c0.3,0.3,0.7,0.4,1.3,0.5c0.5,0.1,1,0.1,1.6,0.1c0.6,0,1.3-0.1,2.1-0.2l0.1,0l0-0.1
		c3.8-6.9,7.8-14,12.1-21c4.3-7,9-13.9,13.9-20.5c4.9-6.6,10.4-12.8,16.2-18.5c5.4-5.3,11.4-10.1,17.8-14.1
		c-4.8,4.9-9.4,10.5-13.8,16.7c-4.7,6.6-8.9,13.4-12.5,20.1c-3.6,6.7-6.4,12.8-8.4,18.1c-2.6,7.1-4.3,13.8-5,19.9
		c-0.7,6.1-0.3,11.4,1.4,15.6c1.7,4.3,4.9,7.2,9.5,8.8c1.9,0.6,4,0.9,6.5,0.9c3.6,0,7.8-0.7,12.6-2c0.6-0.2,0.7-0.5,0.7-0.8
		c0-0.3-0.2-0.6-0.5-0.9c-0.4-0.3-1.3-0.2-2.7,0.2c-1.2,0.3-2.5,0.5-3.9,0.7c-1.4,0.1-2.8-0.2-4.1-0.9c-3.3-2.2-5.3-5.7-5.9-10.4
		c-0.6-4.8-0.1-10.5,1.6-16.9c1.6-6.5,4.1-13.4,7.3-20.6c3.3-7.2,7.1-14.4,11.4-21.3c4.3-7,9-13.5,13.8-19.3
		c4.8-5.8,9.7-10.7,14.5-14.4c4.8-3.7,9.3-6,13.4-6.7l0.9-0.1l-0.9-0.2c-2.4-0.5-4.8-0.8-7.3-0.9c-2.5-0.1-5.1,0.2-7.8,0.8
		c-6.5,1.6-13,4.3-19.3,7.9c-6.3,3.7-12.5,8.1-18.3,13.2c-5.8,5.1-11.2,10.5-15.9,16.2c-4.2,5-7.8,10.1-10.7,15
		c2.2-6.1,3.8-12.1,4.6-18c0.9-6.6,0.8-12.9-0.2-18.8s-3.1-11.1-6.2-15.6c-3.1-4.5-7.3-8.2-12.5-10.8s-11.7-4-19.2-4.2
		c-0.1,0-0.2,0-0.2,0c-7.9,0-15,1.2-21.2,3.5c-6.3,2.3-11.8,5.4-16.3,9.3c-4.5,3.8-8.2,8.1-10.8,12.7c-2.7,4.6-4.4,9.2-5.1,13.7
		c-0.7,4.5-0.4,8.7,1,12.3C1652.4,94.3,1654.9,97.1,1658.4,99.1z"/>
	<path class="st0" d="M1814.4,134.5c-1.9,1.3-3.8,2.1-5.6,2.6c-1.8,0.4-3.5,0.6-5.2,0.5c1.4-2.4,2.7-4.8,3.7-7.2
		c1.1-2.5,1.9-4.8,2.4-6.9l0,0c0.4-1.7,0.6-3.5,0.5-5.2c-0.1-1.7-0.5-3.4-1.3-4.9c-0.8-1.5-1.9-2.8-3.4-4c-1.5-1.1-3.4-2-5.8-2.5
		c-2.3-0.6-4.6-0.5-6.9,0.1c-2.3,0.6-4.6,1.7-6.7,3.1c-2.2,1.5-4.2,3.3-6.1,5.4s-3.6,4.5-5.1,7c-1.5,2.5-2.8,5.1-3.7,7.7
		c-1,2.6-1.6,5.2-1.9,7.7c-0.3,2.5-0.2,4.9,0.3,7c0.5,2.2,1.5,4,3,5.6c1.5,1.5,3.6,2.6,6.2,3.3c1.1,0.3,2.2,0.4,3.3,0.4
		c0.9,0,1.7-0.1,2.6-0.3c1.9-0.4,3.8-1.1,5.6-2.2c1.8-1,3.5-2.4,5.2-3.9c1.6-1.5,3.1-3.2,4.6-5.1c3.3,0,6.7-0.7,10-2.1
		c1-0.4,2-0.9,3-1.4l-13.5,18.8l-0.1,0.2l12.6,3.5l0.1-0.1c1.2-1.3,2.9-3.4,5.2-6.2c2.3-2.8,4.9-6,7.9-9.5c2.9-3.5,6-6.8,9.1-9.9
		c3.1-3.1,6-5.5,8.7-7.2c2.7-1.7,5-2.2,6.8-1.7c0.2,0.1,0.4,0.2,0.6,0.4c0.2,0.2,0.3,0.4,0.3,0.6c0,1.2-0.5,2.6-1.5,4.2
		c-1,1.7-1.9,3-2.7,4c-0.1,0.1-0.1,0.1-0.1,0.2l-9.2,12.7c-2.6,4-4,7.6-4,10.6c0,3,0.9,5.5,2.8,7.2c2,1.9,4.2,2.9,6.5,3
		c0.2,0,0.3,0,0.5,0c2.1,0,4.3-0.5,6.5-1.6c3.6-1.7,7.2-4,10.8-6.9c0.6-0.5,1.1-1,1.7-1.4c-1.4,2.6-2.2,5-2.2,7.1
		c-0.1,3,0.8,5.5,2.7,7.3c2,1.9,4.1,3,6.4,3.1c0.3,0,0.5,0,0.8,0c2,0,4.1-0.5,6.3-1.4c3.6-1.6,7.3-3.8,10.9-6.7
		c2.1-1.6,4-3.2,5.8-4.9c-0.9,1.9-1.7,3.7-2.2,5.2c-1,2.9-1.3,5.6-1.1,7.8c0.2,2.2,0.9,4,2.1,5.4c1.2,1.4,2.7,2.4,4.5,3
		c1.2,0.4,2.6,0.3,4.4-0.2c1.7-0.5,3.6-1.4,5.5-2.6c1.7-1.1,3.5-2.3,5.1-3.7c-0.7,2.2-0.9,4.1-0.6,5.9c0.3,1.9,1.1,3.5,2.4,4.8
		c1.9,2,4,3.1,6.3,3.3c0.4,0,0.7,0.1,1.1,0.1c1.9,0,4-0.4,6-1.3c3.7-1.5,7.4-3.7,11.1-6.4c0.1,0,0.1-0.1,0.1-0.1l-8.8,10.5l-0.2,0.2
		l12.4,4.4l0.1-0.1c1.3-1.2,3.2-3.2,5.6-5.8c2.5-2.7,5.4-5.7,8.6-8.9c3.2-3.3,6.5-6.3,9.8-9.2c3.3-2.8,6.4-5.1,9.2-6.6
		c2.8-1.5,5.1-1.9,6.9-1.2c0.2,0.1,0.4,0.3,0.6,0.4c0.2,0.2,0.3,0.4,0.3,0.6c-0.1,1.2-0.7,2.5-1.7,4.1c-1.1,1.6-2.1,2.9-3,3.8
		c-0.1,0.1-0.1,0.1-0.2,0.2l-10.1,12c-2.9,3.8-4.6,7.3-4.8,10.3c-0.3,3,0.5,5.5,2.3,7.4c1.9,2,4,3.2,6.3,3.5c0.5,0.1,1,0.1,1.4,0.1
		c1.8,0,3.7-0.4,5.7-1.2c3.7-1.4,7.5-3.5,11.2-6.1c1.9-1.3,3.8-2.7,5.5-4.2c-0.9,1.7-1.7,3.3-2.2,4.7c-1.1,2.9-1.6,5.5-1.5,7.7
		c0.1,2.2,0.7,4.1,1.8,5.5c1.1,1.5,2.6,2.6,4.4,3.3c1.1,0.4,2.6,0.4,4.4,0c1.8-0.4,3.7-1.2,5.6-2.3c1.8-1,3.6-2.1,5.3-3.5
		c-0.8,2.1-1.2,4.1-0.9,5.8c0.2,1.9,1,3.6,2.2,4.9c1.8,2.1,3.9,3.3,6.2,3.6c0.6,0.1,1.2,0.1,1.7,0.1c1.7,0,3.5-0.3,5.4-1
		c3.7-1.3,7.6-3.3,11.4-5.8c3.8-2.5,7.3-5.2,10.5-8c3.2-2.8,5.6-5.1,7.4-7c1.1-1.3,1.6-2.1,1.4-2.6c-0.1-0.3-0.2-0.3-0.3-0.4
		c-0.3-0.1-0.6,0-1.1,0.4c-1.2,0.9-2.6,1.9-4.2,3.1c-3,2.3-6.4,4.7-9.9,7.3c-3.6,2.5-7.1,4.7-10.3,6.4c-3.2,1.7-5.9,2.4-7.8,2.2
		c-0.5-0.1-0.9-0.3-1.1-0.6c-0.3-0.4-0.3-1,0-1.8c0.4-1.5,1.6-3.4,3.5-5.7l24.9-28.2l0.2-0.2l-12.3-4.8l-3.4,3.8
		c-0.4-1.8-1.3-3.4-2.5-4.8c-1.3-1.5-3.3-2.7-5.9-3.7c-2.4-0.9-4.9-1.2-7.3-0.8c-2.4,0.4-4.9,1.3-7.2,2.7c-2.3,1.4-4.6,3.1-6.7,5.1
		c-1.5,1.4-2.9,2.9-4.2,4.5c-2.8,2.2-5.8,4.6-9.1,7c-3.5,2.6-6.9,4.9-10.1,6.6c-3.2,1.8-5.8,2.6-7.8,2.4c-0.5-0.1-0.9-0.3-1.1-0.6
		c-0.3-0.4-0.3-1-0.1-1.8c0.4-1.5,1.5-3.4,3.4-5.8l5.5-6.6c0.4-0.5,0.9-1,1.4-1.6c1-1.2,2.1-2.4,3.3-4c1.2-1.5,2.3-3,3.4-4.6
		c1.1-1.6,1.9-3.3,2.6-4.9c0.6-1.7,1-3.3,0.9-4.8c-0.1-1.5-0.6-3-1.8-4.3c-1.1-1.3-2.9-2.4-5.3-3.3c-0.8-0.3-2-0.5-3.3-0.5
		c-1.4-0.1-3.1,0.1-4.9,0.6s-4,1.3-6.2,2.5c-1.8,1-3.6,2.2-5.5,3.8l8.8-10.4l-12.3-4.4l-0.1,0l-13.4,16c-2.8,2.3-5.8,4.8-9.1,7.4
		c-3.5,2.7-6.8,5.1-10,6.9c-3.1,1.9-5.7,2.7-7.7,2.6c-0.5-0.1-0.9-0.3-1.1-0.6c-0.3-0.4-0.3-1-0.1-1.8c0.4-1.5,1.4-3.5,3.2-5.9
		l23.4-29.5l0.2-0.2l-12.6-4.1l-3.2,4c-0.5-1.8-1.4-3.3-2.8-4.7c-1.4-1.4-3.5-2.6-6.1-3.4c-2.4-0.8-4.9-0.9-7.3-0.4
		c-2.4,0.6-4.8,1.6-7.1,3.1c-2.3,1.5-4.4,3.3-6.4,5.4c-1.2,1.3-2.4,2.6-3.5,4c-0.1,0.1-0.2,0.1-0.2,0.2c-2.8,2.5-6,5.2-9.4,8
		c-3.4,2.8-6.7,5.2-9.8,7.1c-3.1,1.9-5.6,2.8-7.6,2.8c-0.6-0.1-1-0.3-1.2-0.6c-0.3-0.4-0.3-1-0.1-1.7c0.3-1.5,1.4-3.5,3.1-6
		l22.7-29.9l10.5,3.2l0.1,0l3.7-4.8l-10.6-3.2l16-21l-12.5-3.8l-0.1,0l-16,21l-7.2-2.2l-3.6,4.8l7.2,2.2l-12.2,16
		c-2.7,2.5-5.7,5.1-8.9,7.9c-3.3,2.9-6.6,5.4-9.6,7.4c-3,1.9-5.5,2.9-7.4,2.9c0,0-0.1,0-0.1,0c-0.5-0.1-0.9-0.2-1.1-0.5
		c-0.3-0.4-0.4-1-0.2-1.8c0.3-1.5,1.3-3.5,2.9-6l5-7c0.4-0.5,0.8-1.1,1.3-1.7c0.9-1.2,1.9-2.6,3-4.2c1.1-1.5,2.1-3.2,3.1-4.9
		c1-1.7,1.7-3.4,2.2-5.1c0.5-1.7,0.7-3.4,0.5-4.9c-0.2-1.5-0.9-2.9-2.1-4.2c-1.2-1.2-3.1-2.2-5.5-2.9l0,0c-0.8-0.2-2-0.3-3.4-0.3
		c-1.4,0-3,0.4-4.9,1c-1.9,0.6-3.9,1.6-6,3c-1.7,1.1-3.5,2.5-5.2,4.2l7.9-10.8l0.1-0.2l-12.6-3.5l-0.1,0l-12,16.7
		C1817.5,132.3,1816.1,133.4,1814.4,134.5z M1802.3,115.5c-0.1,1.3-0.5,2.9-1.2,4.9c-0.7,2-1.7,4.1-2.9,6.5
		c-1.2,2.3-2.5,4.6-3.9,6.9c-2-1.7-3.4-3.6-4.1-5.7c-0.7-2.1-0.6-4.2,0.5-6.1c1.4-1.8,2.8-3.3,4.2-4.7c1.3-1.3,2.6-2.4,3.8-3.1
		c0.9-0.5,1.7-0.8,2.3-0.8c0.2,0,0.4,0,0.5,0.1C1802.1,113.6,1802.4,114.3,1802.3,115.5z M1789.8,140.1c-1.2,1.5-2.4,2.9-3.6,4.1
		c-1.2,1.2-2.4,2.1-3.4,2.6c-1,0.6-2,0.7-2.8,0.6c-0.8-0.2-1.2-0.7-1.3-1.6c-0.1-0.9,0-2.1,0.4-3.6c0.4-1.5,1-3.1,1.9-4.9
		c0.8-1.7,1.7-3.5,2.8-5.3C1784.9,135.6,1786.9,138.4,1789.8,140.1z M1900.5,175.7c0.8-2.4,2.3-5.2,4.5-8.4c2.2-3.2,4.6-6.3,7.3-9.2
		s5.3-5.2,7.8-6.9c1.9-1.3,3.6-1.9,5-1.9c0.4,0,0.8,0.1,1.1,0.1c0.5,0.2,0.9,0.6,1.3,1.4c0.3,0.8,0.4,1.9,0.1,3.3
		c-0.3,1.4-0.8,2.7-1.5,3.9c-0.8,1.2-2.3,3.3-4.6,6.2c-1.4,1.5-3,3.1-4.7,4.7c-1.7,1.6-3.5,3.1-5.2,4.5c-1.7,1.4-3.4,2.6-5,3.6
		c-1.5,1-2.9,1.6-4,2c-1,0.3-1.8,0.2-2.2-0.2C1899.9,178.3,1900,177.3,1900.5,175.7z M2002,211.1c0.9-2.4,2.6-5.1,4.9-8.2
		c2.3-3.1,4.9-6,7.8-8.8c2.8-2.8,5.6-4.9,8.2-6.5c1.9-1.1,3.5-1.7,4.8-1.7c0.5,0,0.9,0.1,1.3,0.2c0.5,0.2,0.9,0.7,1.2,1.5
		c0.3,0.8,0.3,1.9,0,3.3c-0.3,1.4-0.9,2.7-1.7,3.8c-0.8,1.2-2.5,3.1-4.9,5.9c-1.5,1.5-3.1,3-4.9,4.5c-1.8,1.5-3.6,2.9-5.4,4.2
		c-1.8,1.3-3.5,2.4-5.2,3.3c-1.6,0.9-3,1.5-4.1,1.7c-1.1,0.3-1.8,0.1-2.2-0.3C2001.3,213.7,2001.4,212.7,2002,211.1z"/>
	<path class="st0" d="M1977.4,147.1c0.7-0.8,1.1-1.3,1.9-1.8c0.9-0.5,1.8-0.6,2.8-0.4c1,0.3,2,0.8,3.1,1.5s2.2,1.6,3.4,2.6
		c1.2,1,2.4,1.9,3.6,2.8c1.2,0.9,2.5,1.5,3.7,2c0.9,0.3,1.8,0.5,2.6,0.5c0.4,0,0.8,0,1.2-0.1c0.8-0.1,3.5-0.9,6.3-5.2
		c0.4-0.7,0.9-1.4,1.3-2.2l0.4-0.8l-0.7,0.6c-1.4,1.2-2.8,1.9-4.2,2.1c-1.4,0.2-2.8,0-4.2-0.4c-1.4-0.5-2.7-1.2-4-2.1
		c-1.3-0.9-2.5-1.8-3.6-2.8c-1.2-1.1-2.5-2.1-3.7-2.9s-2.4-1.3-3.7-1.5c-0.9-0.1-1.8,0.3-2.8,0.9c-0.9,0.7-1.8,1.5-2.6,2.6
		c-0.8,1.1-1.2,1.8-1.8,3c-0.8,1.8-1.3,3.7-1.5,4.6l-0.2,1.1l0.5-1C1975.6,150.2,1976.6,148,1977.4,147.1z"/>
	<path class="st0" d="M1173.3,177.8c0.8,0.1,1.7,0.2,2.4,0.2c5.4,0,8.7-2.4,9.6-3.3c1.9-1.6,3.5-3.6,4.8-5.9
		c1.3-2.3,2.5-4.9,3.5-7.6c0.4-1.1-1.8-4.1-5.3-8.1l-0.2-0.2l-0.1,0.3c-0.6,2-1.2,3.7-1.8,5.3c-1,2.8-2.3,5.6-3.8,8.1
		c-1.5,2.6-3.2,4.8-5.3,6.6c-2,1.8-4.4,3.1-7.2,3.7l-0.7,0.1l0.6,0.2C1171.1,177.5,1172.2,177.7,1173.3,177.8z"/>
</g>
</svg>
