<?xml version="1.0" encoding="utf-8"?>
<!-- Generator: Adobe Illustrator 25.2.0, SVG Export Plug-In . SVG Version: 6.00 Build 0)  -->
<svg version="1.1" id="Layer_1" xmlns="http://www.w3.org/2000/svg" xmlns:xlink="http://www.w3.org/1999/xlink" x="0px" y="0px"
	 viewBox="0 0 621.5 283.2" style="enable-background:new 0 0 621.5 283.2;" xml:space="preserve">
<style type="text/css">
	.st0{fill:#FFFFFF;}
</style>
<g>
	<path class="st0" d="M170.9,223.2c0-4.9-4.4-5.4-4.4-5.4c0,2.4-1.7,6.2-3.7,8.1c-2,1.9-3.6,5.5-16.9,5.5
		c-14.1,0-19.7-5.4-36.8-16.5c-8.4-5.4-15.2-8.3-21.2-9.1c13-5.7,15-18.4,14-34c-1.1-17.8-1.1-40.9,0-48.1
		c1.1-7.2,5.3-18.6,15.5-18.2s6.8,12.9,6.8,12.9s8.7-4.2,10.2-8.7c1.5-4.5,2.3-8.3,0-8.7c-2.3-0.4-17-8-28.4,1.9
		c-8.9,7.7-14,18.9-14,18.9s-4-0.2-6.4,7.7c-3,9.7-0.3,26.9,0.8,34.1c3.1,20.3,1.3,34.3-3.8,40.1c-0.7,0.8-1.2,1.5-1.5,2.2
		c-3.4,0.5-6.6,1.9-9.7,3.9c-8.4,5.4-6.4,12-5.6,14c0.1,0.1,0.3,0.1,0.3,0c0.1-0.5,0.4-1.3,1.4-2.5c0.6-0.7,1.2-1.7,2.2-2.6
		c5.3-4.7,14.2-4.8,20.4-1.6c6.6,3.3,12.3,8.1,19.1,15.1c10.8,10.9,17.3,13.1,25.7,13.6c8.4,0.4,12.5-5.1,12.5-5.1s12.3,1.2,18-4.3
		C171.1,230.7,170.9,228,170.9,223.2z"/>
	<path class="st0" d="M126.2,124.1c1.4,7-0.9,14.6-2.4,21.7c-3.3,15.5-5.4,23.6-10.8,38.5c-1,2.8-3.5,10.1-5.3,12.6
		c-1,1.4-3.5,2.8-6,3.8c4.9,2.1,10.3,4.1,16,5.8c-0.5-3.5-0.3-7.1,0.3-10.6c1.2,1.2,2.7,2.2,4.5,2.9c-1.5-1.4-3-6.4-2.8-8.8
		c0.2-2.4,0.9-6,5.9-10.6c2.3-2.2,7.2-3.8,12.1-4.6c1,13,1.9,27.1,1.4,29.7c-0.6,3-1.8,5-3.4,6.3c8.3,1.4,17.1,2.1,26.4,1.9
		c0.4,0,0.8,0,1.3,0c-1.4-0.8-2.6-1.7-3.7-2.9c-3.1-3.3-4-8.1-4.7-12.6c-1.1-7-1.9-14.1-2.6-21.2c1,0.4,1.8,0.7,2.3,1
		c9.6,5.2,11.1,12.6,11.2,19.8c0.8,0.1,1.7-2.4,1.9-3c1.8-6.3,1-13.8-2.9-19.1c-3.4-4.2-8.2-7.6-13.3-9.3
		c-0.4-5.1-0.6-10.3-0.8-15.4c-0.2-7,0-14.6,3.3-20.6C144,128.5,134.8,126.7,126.2,124.1z M131.9,165.8c-2.5,1-4.7,2-6.6,3.3
		c3-9.7,6.1-19.3,9.4-28.9c-0.1,1.3,1,8.8,1.3,13.3c0.1,2.1,0.5,6.1,0.8,11C135,164.9,133.3,165.3,131.9,165.8z"/>
	<path class="st0" d="M240.3,202.7c7.2-1.5,14.5-3.2,21.9-5.1c0.3-0.1,0.5-0.1,0.8-0.2c-1.9-4.6-3.4-9.4-4-14.3
		c-0.4-3.6-0.4-7.3-0.4-11c0-5,0-10.1-0.1-15.1c0-14.2-0.9-28.2,1.9-42c-6.5,1.6-10.5,2.9-16.8,4.2c-0.8,0.2-1.6,0.3-2.4,0.5
		c-0.3,0.1-0.6,0.1-0.9,0.2c-3.2,0.7-6.4,1.3-9.6,1.9c-0.2,0-0.3,0.3-0.3,0.5c0.4,1,0.7,2.1,0.7,3.2c0.6,8-1.9,15.8-4.3,23.5
		c-0.7,2.2-1.4,4.4-2.1,6.6c-0.7,0-1.4,0.1-2.2,0.2c-6,1-10,2.3-14.7,6.4c-2.6,2.4-5,5.2-6.3,8.5c-1.3,3.3-1.4,7.2,0.2,10.3
		c1.7,3.1,5.3,5.3,8.8,4.7c-2.5-2.8-2.6-7.1-1-10.5c1.5-3.4,4.5-5.9,7.5-8c1.5-1,3-1.6,4.4-2c-2.9,9-5.9,18.1-8.8,27.1
		c-1.7,5.2-3.4,10.5-5.5,15.7c-0.1,0.3,0.1,0.5,0.4,0.5c5.6-0.8,11.4-1.7,17.4-2.8c0.2,0,0.4-0.3,0.3-0.5c-0.9-2.1-1.4-4.4-1.6-6.6
		c-0.4-5.7,1.1-11.3,2.6-16.8c1.6-5.8,3.2-11.6,4.8-17.4c3.4,0.6,6.8,2.8,8.5,5.7c1,1.7,1.4,3.6,1.5,5.6c0.1,2.8-0.6,4-2.7,5.8
		c1.7-0.1,3.2-0.6,4.3-1.8c-0.4,9.2-1,16.2-1.2,17.6C241.3,199,240.8,200.9,240.3,202.7z M233.3,156.7c2.3-8.4,4.6-16.8,6.9-25.2
		c0-0.1,0-0.1,0-0.2c0,0,0,0.1,0,0.1c2.2,7.6,2.9,20.2,2.9,32.4C240.7,160.6,237.2,158.1,233.3,156.7z"/>
	<path class="st0" d="M215.9,234.8c-1.2,0.7-3.8,2.1-6.2,1.4c-3.7-1.1-11.1-13-11.7-23.5c-0.3-6-0.3-34.7-0.5-59.2
		c5-2.6,9.5-4.9,10-5.1c2.2-0.9,3.9-1.6,6.3-1.7c1.5,0,2.7,0.1,3.9,0.9c1.3,0.8,2,2.8,1,3.9c1.2-1.2,2.4-2.5,3-4.1
		c0.6-1.6,0.6-3.5-0.4-4.8s-3.3-1.7-4.4-0.5c0.5-3.3-3.5-7.1-6.8-7.3c-3.3-0.3-5.9,0.1-8.6,2.1c-1.5,1.1-2.8,2.2-4.1,3.2
		c-0.2-12.2-0.6-21.6-1.2-23.4c-0.2-0.7-0.5-1.3-0.8-2c19.5-6.8,36.5-14.8,61-14.6c4.5,0,6.6,0.6,10.5,2.8c4,2.3,4.6,3.9,5.4,5.7
		c3.3-5.8,1.1-13.9-3.3-17.5c-5.9-4.8-12.2-4.6-15.3-2.5c-2.1-2.3-8-6.2-17.6-4.5c-22,4.1-44.2,17.3-52.1,21.4
		c-5.9,3.1-14,6.7-20.6,6.7c-5.4,0-10.6-2.9-12.1-8.1c-3.3,1.2-4.8,5.5-3.6,8.8c1.2,3.3,4.3,5.6,7.6,6.8c6.3,2.1,17.7,1.4,24.1-0.3
		c1.4-0.4,2.8-0.7,4.1-1.1c0.2,7,0.5,19.3,0.8,32.4c-2.2,1.9-5.4,4.9-7.7,5.4c-2.7,0.6-5,0.9-6.8,0.2c-2.6-0.9-4.5-3-2.8-5.2
		c-2.7,2.1-2.7,6.5-0.6,9.1s5.8,3.6,9.2,3.2c3.1-0.4,6-1.7,8.8-3.3c0.2,13.4,0.2,26.4-0.1,34.2c-0.9,21.8-0.2,30.1-5.3,40.6
		c-5.1,10.5-11.4,10.1-11.4,10.1l-4.3,0c0,0,0.5,2.5,3.1,4.4c2.6,2,7.3,3.5,10.2,3.6c4.7,0.2,9.1-1.7,11.1-4.5
		c2-2.8,2.7-4.2,2.7-4.2s8.2,3.5,15.3,0.3c7.1-3.2,9.7-8.3,10.8-10.1C216.8,234.4,216.5,234.5,215.9,234.8z"/>
	<path class="st0" d="M317.1,168c1.1,3.8,3.6,7.4,7.3,8.8c1.6,0.6,3.5,1,5.2,1c2.1,0,4.6,0,6.6-0.6c3.6-1.1,7.8-3.6,9.7-7.1
		c1.8-3.3,2.5-6.3,4.5-9.5c0.9-1.3,1.4-2.1,2.7-3c1.3-0.9,4.4-1.9,4.6-1.8c0,0-1.7-0.4-2.4-0.8c-3.3-1.7-2.9-16.6-2.9-20.4
		c0-9.5-0.2-19.6-0.1-28.9c0-10.4-0.6-10.7,3.5-18.6c-4.2,1.4-10.2,3.2-14.6,4.6c0.7,1.2,1,2.1,1.3,3.3c3.5,15.4,1.9,61.8-1,69.1
		c-0.6,1.5-1.4,3.1-2.8,4c-0.8,0.5-1.9,0.7-2.8,0.4c-1.9-0.6-2.5-2.8-2.7-4.7c-1.4-19.4-0.5-42-0.4-61.5c0-3.5,0.7-5.9,2.2-8.1
		c0.1-0.1,0-0.2-0.1-0.2c-8.5,2.7-17.2,5.5-26,8.2c-0.4,0.1-0.5,0.6-0.1,0.9c2.2,1.4,4,3.6,5.1,6c1.9,4,2.2,8.6,2.4,13
		c0.5,11.4,0.6,22.8,0.3,34.2C316.2,160.2,316,164.2,317.1,168z"/>
	<path class="st0" d="M454.3,166.6c4.1-4.1,4.6-10.6,2.2-15.8c-2.8-6.4-10.1-6.2-13.3-4.7c0,0,4.9,1.7,4.9,5.3
		c0,3.6-2.1,7.7-7.8,11.5c-7.6,5-26.6,3.6-45.1-1.2c-11-2.9-19.6-5.1-26.7-4.9c5.3-5.2,10.2-12.7,10.2-20c0-6.8,0.4-31.6,0.4-31.6
		s0.4-16.2,3.6-26.2c0.1-0.3-0.2-0.6-0.5-0.5c-6.5,2-13.3,4.3-20.5,6.6c-0.3,0.1-0.3,0.5-0.1,0.7c0.2,0.2,0.3,0.3,0.5,0.5
		c0.7,1,1,2.4,1.2,3.6c1.5,8.3,0.8,17,0.7,25.5c-0.1,12.5-0.3,25.1-3,37.3c-0.5,2.2-1.1,4.4-1.9,6.4c-1.8,1-3.5,2.2-5.1,3.9
		c-2.2,2.6-3,7-2.8,9.5c0.2,2.4,1.3,4.9,2,4.7c-1.3-7.6,5.8-13.7,15.4-13c14.6,1,37.7,14.1,42.3,16.2c4.6,2.1,11.5,5.1,20.4,5.1
		c8.9,0,14.8-8.5,14.8-8.5s1.8-2.2,1.8-5c0-2.8-0.4-3.3-0.4-3.3S450.2,170.7,454.3,166.6z"/>
	<path class="st0" d="M266.9,196.4c1-0.4,2.1-0.8,3.3-1.2c8-2.3,19-4.2,25.6-6.7c5.8-2.2,10.4-5.7,13.6-11.1c1.3-2.3,2.4-5.9,3-8.4
		c1.7-6.8,0.1-15.5-3.4-21.5c-1.7-3-5.2-5.6-8.6-6.4c5.9-2.8,9.5-9.5,9-16c-0.4-6.5-2.5-13-8.3-16c-2.3-1.2-5.6-2.7-9.7-2.1
		c-2.5,0.4-11.1,3-18.3,5.1c-3,0.8-5.9,1.6-8.8,2.3c-0.1,0-0.1,0-0.2,0c0,0,0,0,0.1,0.1c0.6,0.8,4,8.4,4,14.9c0,14.7,1,59-0.9,65.8
		L266.9,196.4z M297.5,164c-0.2,7.8-2,13.5-6.8,18.1c-2.7,2.7-7.5,4.1-11,4.8c0.6-0.9,1.1-1.9,1.4-2.9c1.3-3.5,1.4-7.4,1.5-11.1
		c0.1-5.3,0.6-23,0.6-26.4c1.6,0,3.5,0.3,5.3,1.1C293.2,149.7,297.7,156.2,297.5,164z M286.6,116.4c1.3,0.3,2.6,0.8,3.6,1.7
		c0.7,0.7,1.3,1.6,1.7,2.5c1,2,1.5,4.3,1.5,6.5c0,1.6-0.2,3.1-0.9,4.5c-1.2,2.5-3.6,4.1-6,5.4c-1.1,0.6-2.2,1.1-3.3,1.6
		c-0.1-6.6-0.7-15.4-3.2-19.7c-0.4-0.6-0.7-1.3-1.1-1.9C281.5,116.3,284.1,115.9,286.6,116.4z"/>
	<circle class="st0" cx="416.4" cy="110.6" r="4.8"/>
	<path class="st0" d="M396.4,81.4c-6.9,8.4-11.5,21.3-11.5,34.3c0,9.7,1.3,18.9,5.1,25.3c6.3,10.5,17.5,15.3,26.4,15.3
		c14.3,0,31.5-20.7,31.5-46.2s-14.5-40.7-28.7-40.7C412.1,69.4,403.2,73.2,396.4,81.4z M418.3,76.6c8,0,12.5,15.5,12.5,36.8
		s-6.5,35.8-14.5,35.8c-8,0-14.5-14.5-14.5-35.8S410.3,76.6,418.3,76.6z"/>
	<path class="st0" d="M491.8,156.3c0-8.7-3.3-17-5.3-20.9c-2.2-4.3-12.2-17.7-16.1-23.5c-4.2-6.4-8.2-12.9-9-17.2
		c-1-4.6-0.4-7.8,0.8-10.1c1.4-2.6,4.2-4.4,7.7-4.3c6.6,0.1,13.7,7.5,14.2,11.3c0.3,2.2,0.1,3.2-0.1,3.7c-0.1,0.2,0.1,0.4,0.3,0.3
		c2-0.9,6.7-6.1,7.9-9.8c1-3.1,2.3-9.4-7.4-14c-9.7-4.5-16.7-2.2-17.9-1.6c-1.2,0.5-7.7,3.7-11.2,9.7c-3.5,5.9-4.8,11-3.5,19.5
		c0.1,0.3,2.2,7.9,2.2,7.9s-3.6,1.3-3.1,5.2s0.3,8.1,12.6,26.3s11.6,30,11.6,33.8c0,27-24,43.3-41.7,43.3c-20.5,0-30.3-13-30.3-21
		c0-8.1,4.4-9.4,4.4-9.4s-2-4.1-7-4.1c-5.1,0-11.4,4.4-11.6,12.1c-0.1,7.7,4.4,14,5.6,14.5c1.2,0.4,0.8,1,0.8,1s-1.3,3.4,0.3,6.7
		c1.6,3.3,7.9,21.4,37.8,21.4c53.6,0,52.3-59,52.3-59S491.8,174.5,491.8,156.3z"/>
	<path class="st0" d="M557.2,190.3c0,0-4.9,9.1-13.4,9c-6.7-0.1-14.7-2.1-17.8-4.2c-0.4-0.3-0.9-0.6-1.3-0.9
		c7.7-3.8,7.2-10.3,7.2-10.3v-16.8v-31.5c3.8,2.3,6.4,5.5,7.3,6.6c6.2,8.9,4.3,16.2,1,22.7c0.6,0.5,11.2,0.6,11.2-19
		c0-10.5-8.7-16.1-15.3-19.7c-1.4-0.7-2.8-1.3-4.3-1.7V93.3c0,0,0.1-1.1,0.5-1.6s1-0.8,1-0.8c0-0.1,0-0.1-0.1-0.2
		c-2.8-1.1-25-9.3-28.7-10.6c-0.1,0-0.2,0.1-0.1,0.2c0.7,1.3,1.3,2.5,1.8,3.6c2.7,6.3-17.9,48.2-17.9,48.2c0,0,1.2,1.9,1.3,2
		c1.7,2.8,3.4,6.8,4.6,11.1c0.1,0.4,0.4,2.3,0.5,2.7c0,0.1,0.2,0.1,0.2,0l2.7-7c0.3,2.3,1.4,4.5,3.1,6.3c-0.7-1.9,0.2-7,1.5-9.1
		c1.2-2,3.5-4.9,10-6.8c0.3-0.1,0.6-0.1,0.9-0.2l1.1,56.2c-1.4-0.8-2.8-1.6-4.2-2.2c-3.9-1.8-5.5-2.5-9.4-2.5
		c-10.8,0-10.3,11.3-10.3,11.3s2.7-5.2,6.8-5.2c4.2,0,5.8-0.3,10.2,4.1c5.9,5.9,14.8,17.8,28.2,17.8c6.5,0,8.9-4.4,8.9-4.4
		s6.1,1.4,10.1-2.7C558.3,199.4,557.2,190.3,557.2,190.3z M507.7,125.5c-2.3,1.3-4.2,2.7-5.7,4.2l10.4-26.8c0-0.1,0.2-0.1,0.2,0
		l0.4,20.5C511.2,123.9,509.4,124.6,507.7,125.5z"/>
	<path class="st0" d="M384.2,183.3c-0.5-0.9-1.2-1.9-2.1-2.6c-2.3-1.8-3.8-2.5-6.6-3c-13.4-2.3-29.1,4-42.5,9.5
		c-16.2,6.5-29.5,14.8-49,22.2c-16.3,6.2-42.4,13.2-59.8,10.2c-5.4-0.9-8.3-5.5-9.3-8.3c0,0-0.5,0.3-0.6,0.5
		c-2.7,2.7-2.8,10.6,5.4,16.7c7.1,5.3,21.8,2.2,37.3-1.6c3.8,2.5,11.3,5.5,22.8,1.8c13.3-4.3,32.9-14.8,46.4-22.5
		c0,0,8.3-4.8,11-6.4c10.9-6.4,27.2-14.4,32.3-15.5c3.3-0.7,5.7-0.8,7.4-0.6c3.4,0.3,4.4,1.6,4.9,2.6c0.8,1.5,0.6,2.6,0.5,3.5
		c-0.1,1.8-0.8,2.4-0.8,2.4c1.2-0.5,3.5-1.3,3.3-6.1C384.9,185.7,384.7,184.3,384.2,183.3z"/>
	<path class="st0" d="M282.6,89.4c0.6,0.8,1.4,1.4,2.2,1.6s1.7,0.2,2.5,0c0.8-0.3,1.6-0.7,2.2-1.4c0.6-0.7,1.1-1.5,1.3-2.5
		c0.2-0.9,0.2-1.8,0.1-2.6c-0.2-0.9-0.5-1.6-1-2.2c-0.5-0.6-1.2-0.9-2-1c-0.8-0.1-1.8,0.3-2.9,1c-0.3,0.2-0.4,0.4-0.4,0.6
		c0,0.2,0.1,0.3,0.3,0.4c0.2,0,0.5,0,0.8-0.3c0.9-0.6,1.7-0.8,2.4-0.7c0.7,0.1,1.3,0.5,1.7,1c0.4,0.6,0.7,1.3,0.8,2.1
		c0.1,0.8,0,1.6-0.4,2.4c-0.3,0.8-0.9,1.4-1.7,2c-1.2,0.7-2.2,0.9-3,0.7c-0.8-0.2-1.4-0.7-1.8-1.6c-0.4-0.9-0.6-2-0.6-3.3
		c0-1.3,0.1-2.8,0.5-4.3c0.3-1.5,0.9-3.1,1.6-4.7c0.7-1.6,1.6-3,2.6-4.3c1-1.3,2.2-2.4,3.6-3.3c1.4-0.9,2.8-1.6,4.4-1.9
		c1.5-0.4,3.1-0.4,4.7,0c0.9,0.3,1.6,0.7,2.2,1.5c0.6,0.7,1.1,1.6,1.4,2.6c0.3,1,0.5,2.1,0.4,3.2c-0.1,1.6-0.5,3.2-1.1,4.8
		c-0.6,1.6-1.4,3.1-2.3,4.5c-0.9,1.4-1.9,2.6-3,3.5c-1,0.9-2.1,1.5-3.1,1.6c0-0.9,0.1-1.9,0.1-2.9c0-1.5,0.1-3,0.2-4.7
		c0.1-1.6,0.3-3.2,0.6-4.8c0.3-1.6,0.7-3.1,1.3-4.4c0.6-1.4,1.4-2.5,2.3-3.5l0.1-0.1l-0.1,0c-1.3,0.3-2.5,0.9-3.3,1.7
		c-0.9,0.8-1.6,1.8-2.1,3c-0.5,1.2-0.9,2.5-1.2,3.9c-0.3,1.4-0.4,2.9-0.5,4.4c-0.1,1.5-0.2,3.1-0.2,4.6c-0.1,1.5-0.1,3-0.2,4.4
		c-0.1,1.4-0.3,2.6-0.5,3.8c-0.3,1.1-0.6,2-1.2,2.7c-0.5,0.6-1,0.9-1.6,1.1c-0.6,0.2-1.1,0.1-1.6,0c-0.5-0.2-0.9-0.5-1.1-1
		c-0.2-0.5-0.2-1-0.1-1.5c0.2-0.5,0.4-1,0.8-1.5c0.4-0.5,0.8-0.8,1.3-1.1c0.5-0.3,1-0.5,1.5-0.6c0.2-0.1,0.2-0.2,0.2-0.4
		c0-0.2-0.1-0.3-0.2-0.4c-0.1-0.1-0.3-0.2-0.4-0.2h0l0,0c-0.9,0.4-1.7,0.9-2.4,1.6c-0.7,0.6-1.2,1.3-1.5,2s-0.4,1.6-0.1,2.4
		c0.2,0.8,0.7,1.4,1.4,1.8c0.5,0.3,1,0.4,1.5,0.4c0.3,0,0.6,0,0.9-0.1c0.7-0.1,1.4-0.4,2-0.8c0.7-0.4,1.3-0.9,1.9-1.5
		c0.6-0.6,1-1.4,1.3-2.3c0.2-0.8,0.4-1.6,0.5-2.5c0.1-0.9,0.2-1.8,0.3-2.7c1.3,0.8,2.7,1.6,4.1,2.4c1.4,0.8,2.9,1.5,4.5,2
		c1.5,0.5,3.2,0.8,4.8,0.9c1,0,2-0.2,3.1-0.7c1.1-0.5,2.1-1.1,3-2s1.7-1.9,2.2-3c0.1-0.2,0.1-0.4,0.1-0.5c0-0.1-0.1-0.1-0.1-0.1
		c-0.1,0-0.1,0-0.3,0l0,0l0,0c-0.2,0.3-0.4,0.5-0.6,0.8c-0.3,0.4-0.6,0.8-0.9,1.1c-0.3,0.3-0.8,0.6-1.3,0.9
		c-0.5,0.2-1.2,0.4-2.1,0.5c-1.3,0.1-2.8,0.1-4.2-0.1s-2.9-0.5-4.3-0.9c-1.4-0.4-2.8-0.9-4.1-1.5c-0.2-0.1-0.9-0.3-1.9-0.7
		c2.1-0.9,3.9-2,5.3-3.3c1.5-1.3,2.6-2.7,3.5-4.3c0.8-1.5,1.4-3.1,1.6-4.6c0.2-1.5,0.2-3-0.2-4.4c-0.3-1.4-1-2.6-1.8-3.7
		c-0.9-1-2-1.8-3.4-2.3c-1.4-0.5-3-0.7-4.9-0.5c-1.9,0.2-4,0.9-6.3,2c-1.9,1-3.5,2.2-4.9,3.6c-1.3,1.4-2.4,3-3.1,4.7
		c-0.8,1.7-1.3,3.4-1.5,5.1c-0.2,1.7-0.2,3.3,0,4.7C281.5,87.4,282,88.6,282.6,89.4z"/>
	<path class="st0" d="M311.6,85.7c0.4,0.2,0.9,0.4,1.4,0.4c0.2,0,0.3,0,0.5,0c0.7-0.1,1.4-0.3,2.1-0.7c0.7-0.4,1.2-0.8,1.5-1.3l0,0
		c0.5-0.7,0.9-1.6,1.2-2.6l-0.4,10.7l0,0.1l3-1l0.3-9c0.2,0.2,0.4,0.3,0.6,0.4c0.3,0.1,0.6,0.2,1.1,0.2c0.4,0,0.9-0.1,1.5-0.3
		c0.5-0.1,0.9-0.4,1.2-0.7c0.3-0.3,0.6-0.7,0.9-1.1c0.2-0.4,0.4-0.9,0.6-1.4c0-0.1,0.1-0.3,0.1-0.4c0.6-0.4,1.2-1,1.7-1.7
		c0.3-0.4,0.6-0.9,0.8-1.4l0,0.4c0,1.1,0.2,2,0.6,2.6c0.4,0.6,0.9,1,1.5,1.1c0.2,0,0.3,0,0.5,0c0.4,0,0.8-0.1,1.2-0.3
		c0.5-0.3,0.8-0.7,1.2-1.2c0.5-0.8,0.8-1.7,1.1-2.8c0.1,0.7,0.4,1.2,0.7,1.6c0.4,0.4,0.8,0.7,1.3,0.7c0.7,0.1,1.2,0,1.7-0.3
		c0.5-0.3,0.8-0.7,1.2-1.2c0.5-0.8,0.9-1.7,1.2-2.8c0-0.1,0-0.1,0.1-0.2l-0.1,3.5V77l2.9-1l0.1-1.4c0.2,0.2,0.4,0.3,0.6,0.4
		c0.3,0.1,0.6,0.2,1.1,0.2c0,0,0,0,0,0c0.4,0,0.9-0.1,1.5-0.3c0.5-0.2,0.9-0.4,1.2-0.7c0.3-0.3,0.6-0.7,0.8-1.1
		c0.2-0.4,0.4-0.9,0.5-1.4c0-0.1,0.1-0.2,0.1-0.4c0.7-0.5,1.3-1,1.8-1.7c0.3-0.4,0.6-0.9,0.8-1.4l0,0.3c0,1.1,0.2,2,0.6,2.6
		c0.4,0.6,0.9,0.9,1.5,1c0.2,0,0.3,0,0.5,0c0.4,0,0.8-0.1,1.2-0.3c0.5-0.3,0.8-0.7,1.1-1.2c0.5-0.8,0.9-1.8,1.2-2.8
		c0.1-0.2,0.1-0.4,0.2-0.6c0.1,0.7,0.3,1.3,0.6,1.8c0.4,0.6,0.9,0.9,1.5,1c0.2,0,0.3,0,0.5,0c0.5,0,0.9-0.1,1.2-0.3
		c0.5-0.3,0.8-0.7,1.1-1.3c0.5-0.8,0.9-1.8,1.2-2.8c0.1-0.5,0.3-1,0.4-1.5c0.1,0.4,0.2,0.8,0.3,1.1c0.4,0.9,0.9,1.6,1.5,1.9
		c0.4,0.2,0.8,0.3,1.3,0.3c0.2,0,0.4,0,0.6-0.1c0.7-0.1,1.4-0.4,2-0.8c0.6-0.4,1.1-0.8,1.5-1.3l0,0c0.5-0.8,0.9-1.7,1.2-2.8
		c0.1-0.5,0.2-1,0.3-1.5c0.1,0.4,0.2,0.7,0.3,1c0.2,0.7,0.5,1.2,0.9,1.6c0.4,0.4,0.7,0.6,1.2,0.7c0.2,0,0.4,0.1,0.5,0.1
		c0.3,0,0.5,0,0.8-0.1c0.3-0.1,0.5-0.3,0.8-0.7c0.3-0.3,0.5-0.8,0.7-1.3c0.2-0.4,0.3-0.9,0.5-1.4c0.2,0.5,0.4,0.9,0.7,1.2
		c0.3,0.3,0.7,0.5,1.1,0.6c0.6,0.1,1.2,0,1.7-0.3c0.5-0.3,0.9-0.7,1.2-1.2c0.5-0.8,0.9-1.7,1.2-2.8c0.3-1,0.6-2.1,0.7-3
		c0.2-1,0.3-1.8,0.3-2.4c0-0.4,0-0.6-0.1-0.7c-0.1,0-0.1,0-0.1,0c-0.1,0-0.1,0.1-0.1,0.2c-0.1,0.3-0.2,0.7-0.3,1.2
		c-0.2,0.9-0.5,1.8-0.7,2.8c-0.3,1-0.6,1.9-0.9,2.7c-0.3,0.8-0.7,1.3-1.1,1.6c-0.1,0.1-0.2,0.1-0.3,0c-0.1,0-0.2-0.1-0.3-0.3
		c-0.1-0.3-0.2-0.9-0.2-1.6l0.3-8.9l-3,1l0,1.2c-0.3-0.3-0.7-0.4-1.2-0.5c-0.5-0.1-1,0-1.6,0.2c-0.6,0.2-1.1,0.5-1.5,1
		c-0.4,0.4-0.7,1-0.9,1.6c-0.2,0.6-0.4,1.3-0.5,1.9c-0.1,0.5-0.1,1-0.1,1.5c-0.2,0.8-0.4,1.7-0.6,2.6c0,0.1,0,0.2-0.1,0.2
		c-0.1,0.4-0.2,0.9-0.4,1.6s-0.5,1.2-0.8,1.9c-0.3,0.6-0.8,1-1.3,1.2c-0.5,0.2-1,0.2-1.6-0.1c-0.3-0.2-0.6-0.6-0.8-1.2
		c-0.2-0.6-0.3-1.4-0.4-2.4c0-0.8,0-1.7,0.1-2.5c0.1-0.8,0.2-1.5,0.5-2.1c0.2-0.6,0.5-0.9,0.8-1c0.5-0.1,0.8-0.1,1,0.2
		c0.2,0.3,0.4,0.6,0.5,1c0.1,0.4,0.1,0.8,0.1,1.2c0,0.2,0,0.3,0.1,0.3c0.1,0,0.2,0,0.3,0c0,0,0,0,0.1,0l0,0c0.1,0,0.2,0,0.3-0.1
		c0.1,0,0.2-0.1,0.2-0.2c0.1-0.5,0-1-0.1-1.4c-0.1-0.5-0.3-0.9-0.6-1.3c-0.3-0.4-0.8-0.7-1.4-0.8c-0.6-0.1-1.2,0-2,0.3
		c-0.6,0.2-1,0.5-1.4,1c-0.4,0.5-0.7,1-0.9,1.6c-0.2,0.6-0.3,1.3-0.4,1.9c-0.1,0.6-0.1,1.3,0,2c-0.1,0.7-0.3,1.4-0.5,2.1
		c-0.3,1-0.6,1.9-0.9,2.7c-0.3,0.8-0.7,1.3-1.1,1.6c-0.1,0.1-0.2,0.1-0.3,0.1c-0.1,0-0.2-0.1-0.3-0.3c-0.1-0.3-0.2-0.9-0.3-1.6
		l0.1-9l-2.9,1l-0.1,5.2c-0.2,0.8-0.4,1.6-0.6,2.4c-0.3,1-0.6,1.9-0.9,2.7c-0.3,0.8-0.7,1.3-1.1,1.6c-0.1,0.1-0.2,0.1-0.3,0.1
		c-0.1,0-0.2-0.1-0.3-0.3c-0.1-0.3-0.2-0.9-0.2-1.6l0.4-16.5v-0.1l-3,1l-0.3,12.9c-0.2,0.5-0.5,1.1-0.8,1.8c-0.4,0.7-1,1.3-1.6,1.7
		c0.1-0.8,0.1-1.6,0-2.4c-0.1-0.9-0.2-1.6-0.4-2.4c-0.2-0.7-0.6-1.3-1.1-1.7c-0.5-0.4-1.1-0.5-1.9-0.3c-0.5,0.1-1,0.4-1.5,0.9
		c-0.4,0.4-0.8,0.9-1,1.4l0.3-9.1l-2.9,1l-0.4,12.9c-0.2,0.7-0.4,1.4-0.6,2.2c-0.3,1-0.6,1.9-0.9,2.7c-0.3,0.8-0.7,1.3-1.1,1.6
		c-0.1,0.1-0.2,0.1-0.3,0c-0.1,0-0.2-0.1-0.3-0.3c-0.1-0.3-0.2-0.9-0.2-1.6l0.3-8.9v-0.1l-3,1l-0.1,2.5c-0.1,1.4-0.3,2.8-0.5,4.1
		c-0.2,1.3-0.5,2.4-0.9,3.3c-0.3,0.9-0.7,1.5-1,1.8c-0.1,0.1-0.2,0.1-0.3,0.1c-0.1,0-0.2-0.1-0.3-0.3c-0.1-0.3-0.2-0.8-0.2-1.5
		l0.3-8.9v-0.1l-2.9,1l0,0l-0.2,5.2c-0.2,0.6-0.5,1.2-0.9,1.9c-0.4,0.7-0.9,1.2-1.4,1.6c0-0.5,0.1-1.1,0.1-1.6
		c0-0.6-0.1-1.2-0.1-1.7s-0.2-1.1-0.4-1.6c-0.2-0.5-0.4-0.9-0.7-1.2c-0.3-0.3-0.6-0.5-1.1-0.7c-0.4-0.1-0.9-0.1-1.5,0.1
		c-0.3,0.1-0.7,0.4-1.1,0.8c-0.4,0.4-0.7,0.9-1.1,1.4l0.1-1.5l-3,1l-0.2,5.4c-0.2,0.7-0.4,1.4-0.6,2.1c0,0.1,0,0.2-0.1,0.2
		c-0.1,0.4-0.3,0.9-0.5,1.5c-0.2,0.6-0.5,1.2-0.9,1.8c-0.3,0.5-0.8,0.9-1.3,1.1c-0.5,0.2-1.1,0.2-1.6-0.1c-0.3-0.2-0.6-0.6-0.7-1.1
		c-0.1-0.5-0.2-1.1-0.3-1.6c0-0.5,0-1,0-1.4c0.4,0.4,0.8,0.5,1.2,0.4c0.5-0.1,0.9-0.4,1.4-0.8c0.4-0.5,0.8-1,1-1.7
		c0.3-0.6,0.4-1.3,0.3-2c-0.1-0.7-0.4-1.3-0.9-1.8c-0.3-0.3-0.7-0.5-1.3-0.5c-0.5-0.1-1.1,0-1.8,0.2c-0.5,0.2-0.9,0.4-1.2,0.7
		c-0.3,0.3-0.6,0.7-0.9,1.2c-0.2,0.5-0.4,1-0.5,1.5c-0.2,1-0.3,2.1-0.3,3.3c0,1.2,0.2,2.3,0.5,3.3C310.5,84.7,310.9,85.4,311.6,85.7
		z M312.6,79v-0.1c0-0.4,0.1-0.9,0.2-1.3c0.1-0.5,0.2-1,0.4-1.4c0.1-0.5,0.3-0.8,0.6-1.1c0.3-0.3,0.6-0.4,0.8-0.4
		c0.3,0.1,0.5,0.3,0.7,0.6c0.2,0.3,0.3,0.8,0.2,1.3c0,0.5-0.2,1.1-0.5,1.7c-0.2,0.4-0.5,0.7-0.9,0.9c-0.3,0.2-0.7,0.3-0.9,0.2
		C312.9,79.5,312.7,79.3,312.6,79z M324.5,74.3c0,0.3,0,0.8,0,1.4c0,0.7-0.1,1.4-0.2,2.2c-0.1,0-0.3,0-0.4,0c-0.3,0-0.5,0.1-0.7,0.4
		c-0.2,0.2-0.3,0.5-0.3,0.8c0,0.3,0,0.5,0.2,0.7c0.2,0.2,0.4,0.3,0.8,0.2c-0.2,0.6-0.4,1-0.6,1.4c-0.3,0.3-0.6,0.5-0.9,0.4
		c-0.3-0.1-0.6-0.3-0.8-0.7c-0.2-0.4-0.3-1-0.3-1.7v0l0,0c0-0.4,0.1-0.9,0.2-1.6c0.1-0.7,0.2-1.5,0.4-2.3c0.2-0.8,0.4-1.5,0.7-2.2
		c0.3-0.6,0.6-1,1-1.1c0.2,0,0.3,0.1,0.5,0.4C324.3,72.8,324.4,73.4,324.5,74.3z M347.5,70.1c-0.3,0-0.5,0.1-0.7,0.4
		c-0.2,0.2-0.3,0.5-0.3,0.7c0,0.3,0,0.5,0.2,0.7c0.1,0.2,0.4,0.3,0.7,0.3c-0.2,0.6-0.4,1-0.6,1.4c-0.3,0.3-0.6,0.5-0.9,0.4
		c-0.3-0.1-0.6-0.3-0.8-0.7c-0.2-0.4-0.3-1-0.3-1.7l0,0c0-0.3,0.1-0.9,0.1-1.6c0.1-0.7,0.2-1.5,0.4-2.3c0.2-0.8,0.4-1.5,0.7-2.2
		c0.3-0.6,0.6-1,1-1.1c0,0,0,0,0.1,0c0.1,0,0.3,0.1,0.4,0.4c0.2,0.3,0.3,0.9,0.4,1.8c0,0.3,0,0.7,0,1.4c0,0.7-0.1,1.4-0.2,2.2
		C347.7,70.1,347.6,70.1,347.5,70.1z M377.4,56.5c0.1-0.9,0.3-1.7,0.5-2.4c0.2-0.7,0.5-1.1,0.9-1.2c0,0,0.1,0,0.1,0
		c0.1,0,0.2,0,0.3,0.1c0.2,0.1,0.3,0.3,0.5,0.6c0.1,0.3,0.2,0.6,0.3,1c0,0.3,0,0.9,0,1.8c-0.1,0.5-0.1,1-0.2,1.6
		c-0.1,0.5-0.2,1.1-0.4,1.6c-0.1,0.5-0.3,1-0.4,1.4c-0.2,0.4-0.3,0.7-0.5,0.9c-0.2,0.2-0.3,0.3-0.4,0.3c-0.1,0-0.3-0.2-0.4-0.6
		c-0.2-0.6-0.3-1.3-0.3-2.2C377.3,58.4,377.3,57.4,377.4,56.5z"/>
	<path class="st0" d="M360.3,56.1c0.2,0.1,0.4,0.2,0.7,0.2c0.2,0,0.4,0,0.5-0.1c0.4-0.1,0.7-0.4,0.9-0.8c0.2-0.4,0.2-0.8,0.1-1.2
		s-0.4-0.7-0.8-0.9c-0.4-0.2-0.8-0.2-1.2-0.1c-0.4,0.1-0.7,0.4-0.9,0.8c-0.2,0.4-0.2,0.8-0.1,1.2C359.6,55.6,359.9,55.9,360.3,56.1z
		"/>
	<path class="st0" d="M393,56.1c0.2,0.7,0.4,1.3,0.7,1.7c0.3,0.4,0.7,0.7,1.1,0.8c0.2,0.1,0.5,0.1,0.7,0.1c0.2,0,0.4,0,0.6-0.1
		c0.3-0.1,0.6-0.3,0.8-0.6c0.3-0.3,0.5-0.7,0.8-1.2c0.2-0.4,0.4-0.9,0.6-1.4c0.1,0.5,0.3,0.9,0.6,1.3c0.3,0.3,0.7,0.6,1.1,0.7
		c0.6,0.2,1.2,0.1,1.7-0.1c0.5-0.2,0.9-0.6,1.3-1.1c0.5-0.8,1-1.7,1.4-2.7c0.2-0.4,0.3-0.8,0.4-1.2c0,0.3,0.1,0.6,0.1,0.9
		c0.2,1,0.6,1.7,1.2,2.1c0.5,0.4,1.1,0.6,1.8,0.6c0,0,0,0,0.1,0c0.7,0,1.4-0.2,2.1-0.4c0.7-0.3,1.2-0.6,1.7-1.1l0,0
		c0.6-0.7,1.2-1.6,1.6-2.6c0.5-1,0.8-2,1.1-2.9c0.3-0.9,0.5-1.7,0.6-2.4c0.1-0.4,0.1-0.6,0-0.7c0,0-0.1,0-0.1,0
		c-0.1,0-0.1,0.1-0.2,0.2c-0.1,0.3-0.3,0.7-0.5,1.2c-0.3,0.8-0.7,1.7-1.1,2.7c0,0.1-0.1,0.1-0.1,0.2c-0.2,0.4-0.4,0.9-0.7,1.5
		c-0.3,0.6-0.7,1.2-1.1,1.7c-0.4,0.5-0.9,0.8-1.5,1c-0.5,0.1-1.1,0-1.5-0.3c-0.3-0.3-0.5-0.7-0.6-1.2c-0.1-0.5-0.1-1.1-0.1-1.7
		c0-0.5,0.1-1,0.2-1.3c0.3,0.4,0.7,0.6,1.2,0.6c0.5,0,1-0.3,1.5-0.7c0.5-0.4,0.9-0.9,1.2-1.5c0.3-0.6,0.5-1.3,0.5-1.9
		c0-0.7-0.2-1.3-0.7-1.9c-0.3-0.3-0.7-0.6-1.2-0.7c-0.5-0.1-1.1-0.1-1.8,0c-0.5,0.1-0.9,0.3-1.3,0.6c-0.4,0.3-0.7,0.6-1,1.1
		s-0.5,0.9-0.7,1.4c-0.3,0.8-0.5,1.7-0.7,2.7c-0.2,0.7-0.5,1.5-0.8,2.3c-0.4,1-0.7,1.9-1.1,2.6c-0.4,0.8-0.8,1.3-1.2,1.5
		c-0.1,0.1-0.2,0.1-0.3,0c-0.1,0-0.2-0.2-0.2-0.3c-0.1-0.3-0.1-0.9-0.1-1.6l1.9-16.4l0-0.1l-3,0.7l-1,8.7c-0.3-0.3-0.7-0.5-1.1-0.6
		c-0.5-0.1-1-0.1-1.6,0.1c-0.6,0.1-1.1,0.4-1.5,0.8c-0.4,0.4-0.8,0.9-1,1.5c-0.3,0.6-0.5,1.2-0.6,1.9c-0.1,0.7-0.2,1.4-0.3,2
		c0,0.7,0,1.3,0,1.9C392.8,55.1,392.9,55.7,393,56.1z M395.6,53.7c0-0.9,0.1-1.8,0.3-2.8c0.2-0.9,0.4-1.7,0.7-2.4
		c0.3-0.6,0.6-1,1-1.1c0,0,0.1,0,0.1,0c0.1,0,0.2,0,0.3,0.1c0.2,0.1,0.3,0.3,0.4,0.6s0.2,0.6,0.2,0.9c0,0.4,0,0.5,0,0.6l-0.1,1.3
		c-0.1,0.5-0.2,1-0.3,1.5c-0.1,0.5-0.3,1.1-0.5,1.6c-0.2,0.5-0.4,1-0.6,1.3c-0.2,0.4-0.4,0.7-0.6,0.9c-0.2,0.2-0.3,0.3-0.5,0.2
		c-0.1,0-0.2-0.2-0.3-0.6C395.6,55.3,395.5,54.6,395.6,53.7z M408,48.8l0-0.1c0.1-0.4,0.2-0.8,0.3-1.3c0.1-0.5,0.3-0.9,0.5-1.4
		c0.2-0.4,0.4-0.8,0.7-1c0.3-0.3,0.6-0.4,0.9-0.3c0.3,0.1,0.5,0.3,0.6,0.7c0.1,0.4,0.1,0.8,0.1,1.3c-0.1,0.5-0.3,1.1-0.7,1.7
		c-0.3,0.4-0.6,0.7-1,0.8c-0.4,0.2-0.7,0.2-1,0.1C408.2,49.3,408,49.1,408,48.8z"/>
	<path class="st0" d="M421.3,53.4c0.4,0.1,0.7,0.2,1,0.2c0.2,0,0.4,0,0.7-0.1c0.5-0.2,1-0.5,1.4-0.9c0.7-0.7,1.3-1.5,1.8-2.4
		c0.3-0.4,0.5-0.9,0.7-1.3c0,0.4,0,0.7,0,1c0,0.7,0.2,1.3,0.4,1.8c0.2,0.5,0.5,0.8,0.9,1c0.3,0.2,0.7,0.3,1.2,0.3c0,0,0.1,0,0.1,0
		c0.3,0,0.6-0.1,1-0.4c0.3-0.3,0.7-0.6,1-1c0.3-0.4,0.6-0.8,0.8-1.3c0,0.5,0.1,1,0.3,1.4c0.2,0.4,0.5,0.7,0.9,0.9
		c0.6,0.3,1.1,0.4,1.7,0.2c0.5-0.1,1-0.4,1.5-0.9c0.7-0.6,1.3-1.4,1.9-2.3c0.6-0.9,1.1-1.8,1.5-2.7c0.4-0.9,0.8-1.6,1-2.2
		c0.1-0.4,0.1-0.6,0.1-0.7c0,0-0.1-0.1-0.1-0.1c-0.1,0-0.1,0.1-0.2,0.2c-0.2,0.3-0.4,0.7-0.6,1.1c-0.4,0.8-0.9,1.6-1.5,2.5
		c-0.5,0.9-1.1,1.7-1.6,2.3c-0.5,0.7-1.1,1.1-1.5,1.2c-0.1,0-0.2,0-0.3,0c-0.1-0.1-0.1-0.2-0.2-0.4c0-0.4,0-0.9,0.2-1.6l2.8-8.5
		l0-0.1l-3.1,0.1l-0.4,1.1c-0.3-0.3-0.6-0.6-1-0.8c-0.4-0.2-1-0.3-1.6-0.3c-0.6,0-1.2,0.2-1.7,0.5c-0.5,0.3-0.9,0.7-1.3,1.3
		c-0.4,0.5-0.7,1.1-1,1.7c-0.2,0.4-0.3,0.8-0.5,1.2c0,0,0,0,0,0.1c-0.4,0.8-0.8,1.7-1.3,2.6c-0.5,0.9-1,1.7-1.5,2.4
		c-0.5,0.7-1,1.1-1.4,1.3c-0.1,0-0.2,0-0.3,0c-0.1-0.1-0.2-0.2-0.2-0.4c-0.1-0.4,0-0.9,0.1-1.6l4.2-15.9l0-0.1l-3.1,0.3l0,0l-4,15.1
		c-0.2,1.1-0.2,2,0,2.7C420.3,52.8,420.7,53.2,421.3,53.4z M429.6,50.2c0-0.6,0.1-1.3,0.3-2.2c0.2-0.9,0.5-1.8,0.9-2.6
		c0.4-0.9,0.8-1.6,1.2-2.2c0.4-0.6,0.8-0.9,1.2-0.9c0,0,0,0,0,0c0.1,0,0.3,0.1,0.4,0.2c0.1,0.1,0.2,0.4,0.3,0.7c0.1,0.3,0.1,0.7,0,1
		c-0.1,0.3-0.3,0.9-0.5,1.7c-0.2,0.5-0.4,0.9-0.7,1.4c-0.3,0.5-0.5,1-0.8,1.4c-0.3,0.5-0.5,0.9-0.8,1.2c-0.3,0.3-0.5,0.6-0.7,0.8
		c-0.2,0.2-0.4,0.2-0.5,0.1C429.7,50.9,429.6,50.6,429.6,50.2z"/>
	<path class="st0" d="M449.8,45.1c0.8,0.5,1.9,0.7,3.3,0.5c1-0.1,2-0.4,2.9-0.9c0.9-0.5,1.7-1.1,2.2-2c0.6-0.8,0.8-1.8,0.8-2.8
		c0-0.3-0.2-0.4-0.3-0.5c-0.2-0.1-0.3,0-0.5,0.1c-0.2,0.1-0.3,0.3-0.3,0.5c0,0.9-0.2,1.6-0.6,2.3c-0.4,0.7-1,1.2-1.7,1.7
		c-0.7,0.4-1.5,0.7-2.2,0.8c-0.8,0.1-1.5,0-1.9-0.4c-0.4-0.3-0.7-0.8-0.8-1.4c-0.1-0.6-0.1-1.3,0.1-2.1c0.2-0.8,0.5-1.6,0.8-2.4
		c0.6-1.2,1.4-2.3,2.3-3.3c0.9-0.9,2-1.7,3.1-2.3c1.1-0.6,2.2-0.9,3.2-1.1c1.1-0.1,2-0.1,2.9,0.3c0.8,0.3,1.5,0.9,1.9,1.8
		c0.4,0.9,0.6,2,0.4,3.5c-0.2,1.4-0.7,2.9-1.6,4.6c-0.8,1.7-1.9,3.4-3.2,5.2c-1.3,1.7-2.6,3.4-4.1,4.8c-1.5,1.5-2.9,2.7-4.3,3.6
		c-1.4,0.9-2.7,1.4-3.9,1.4l-0.2,0l0.2,0.1c1,0.3,2.1,0.5,3.2,0.4c1.1,0,2.2-0.4,3.4-1.1c1.3-0.8,2.6-1.9,4-3.3
		c1.4-1.4,2.7-2.9,3.9-4.5c1.2-1.6,2.2-3.3,3.1-4.9c0.8-1.6,1.4-3.2,1.6-4.5c0.2-1.7,0.2-3.2-0.2-4.3c0.8,1,1.2,2.1,1.5,3.4
		c0.2,1.4,0.2,2.8,0,4.3c-0.3,1.5-0.7,3.1-1.2,4.6c-0.6,1.5-1.2,3-1.9,4.3c-0.7,1.3-1.4,2.5-2.1,3.5c-0.1,0.2,0,0.3,0,0.3
		c0.1,0.1,0.2,0.1,0.3,0.1c0.1,0,0.2,0,0.4,0c0.1,0,0.3,0,0.5,0l0,0l0,0c0.9-1.6,1.9-3.3,2.9-5c1-1.7,2.1-3.3,3.3-4.9
		c1.2-1.6,2.5-3,3.8-4.4c1.3-1.3,2.7-2.4,4.2-3.3c-1.1,1.2-2.2,2.5-3.3,3.9c-1.1,1.6-2.1,3.2-2.9,4.7c-0.9,1.6-1.5,3-2,4.3
		c-0.6,1.7-1,3.3-1.2,4.7c-0.2,1.4-0.1,2.7,0.3,3.7c0.4,1,1.1,1.7,2.2,2.1c0.4,0.1,1,0.2,1.5,0.2c0.9,0,1.8-0.2,3-0.5
		c0.1,0,0.2-0.1,0.2-0.2c0-0.1-0.1-0.1-0.1-0.2c-0.1-0.1-0.3-0.1-0.6,0c-0.3,0.1-0.6,0.1-0.9,0.2c-0.3,0-0.7,0-1-0.2
		c-0.8-0.5-1.3-1.3-1.4-2.5c-0.1-1.1,0-2.5,0.4-4c0.4-1.5,1-3.2,1.7-4.9c0.8-1.7,1.7-3.4,2.7-5c1-1.6,2.1-3.2,3.3-4.6
		c1.1-1.4,2.3-2.5,3.4-3.4c1.1-0.9,2.2-1.4,3.2-1.6l0.2,0l-0.2,0c-0.6-0.1-1.1-0.2-1.7-0.2c-0.6,0-1.2,0-1.8,0.2
		c-1.5,0.4-3.1,1-4.6,1.9c-1.5,0.9-3,1.9-4.3,3.1s-2.6,2.5-3.8,3.8c-1,1.2-1.8,2.4-2.5,3.6c0.5-1.4,0.9-2.9,1.1-4.3
		c0.2-1.6,0.2-3.1,0-4.4c-0.2-1.4-0.7-2.6-1.5-3.7c-0.7-1.1-1.7-1.9-3-2.6c-1.2-0.6-2.8-1-4.5-1c0,0,0,0-0.1,0c-1.9,0-3.5,0.3-5,0.8
		c-1.5,0.5-2.8,1.3-3.9,2.2c-1.1,0.9-1.9,1.9-2.6,3c-0.6,1.1-1,2.2-1.2,3.2c-0.2,1.1-0.1,2,0.2,2.9C448.4,43.9,449,44.6,449.8,45.1z
		"/>
	<path class="st0" d="M486.7,53.5c-0.4,0.3-0.9,0.5-1.3,0.6c-0.4,0.1-0.8,0.1-1.2,0.1c0.3-0.6,0.6-1.1,0.9-1.7
		c0.3-0.6,0.4-1.1,0.6-1.6l0,0c0.1-0.4,0.1-0.8,0.1-1.2c0-0.4-0.1-0.8-0.3-1.2c-0.2-0.4-0.4-0.7-0.8-0.9c-0.3-0.3-0.8-0.5-1.4-0.6
		c-0.5-0.1-1.1-0.1-1.6,0c-0.5,0.1-1.1,0.4-1.6,0.7c-0.5,0.3-1,0.8-1.5,1.3s-0.9,1.1-1.2,1.6c-0.4,0.6-0.7,1.2-0.9,1.8
		c-0.2,0.6-0.4,1.2-0.4,1.8c-0.1,0.6,0,1.2,0.1,1.7c0.1,0.5,0.4,1,0.7,1.3c0.4,0.4,0.8,0.6,1.5,0.8c0.3,0.1,0.5,0.1,0.8,0.1
		c0.2,0,0.4,0,0.6-0.1c0.5-0.1,0.9-0.3,1.3-0.5s0.8-0.6,1.2-0.9c0.4-0.4,0.7-0.8,1.1-1.2c0.8,0,1.6-0.2,2.4-0.5
		c0.2-0.1,0.5-0.2,0.7-0.3l-3.2,4.4l0,0l3,0.8l0,0c0.3-0.3,0.7-0.8,1.2-1.5c0.5-0.7,1.2-1.4,1.9-2.3c0.7-0.8,1.4-1.6,2.2-2.3
		c0.7-0.7,1.4-1.3,2.1-1.7c0.6-0.4,1.2-0.5,1.6-0.4c0,0,0.1,0.1,0.1,0.1c0,0,0.1,0.1,0.1,0.1c0,0.3-0.1,0.6-0.3,1
		c-0.2,0.4-0.4,0.7-0.6,1c0,0,0,0,0,0.1l-2.2,3c-0.6,1-0.9,1.8-1,2.5c0,0.7,0.2,1.3,0.7,1.7c0.5,0.4,1,0.7,1.5,0.7c0,0,0.1,0,0.1,0
		c0.5,0,1-0.1,1.5-0.4c0.8-0.4,1.7-0.9,2.5-1.6c0.1-0.1,0.3-0.2,0.4-0.3c-0.3,0.6-0.5,1.2-0.5,1.7c0,0.7,0.2,1.3,0.6,1.7
		c0.5,0.5,1,0.7,1.5,0.7c0.1,0,0.1,0,0.2,0c0.5,0,1-0.1,1.5-0.3c0.9-0.4,1.7-0.9,2.6-1.6c0.5-0.4,0.9-0.8,1.4-1.2
		c-0.2,0.5-0.4,0.9-0.5,1.2c-0.2,0.7-0.3,1.3-0.3,1.8c0.1,0.5,0.2,1,0.5,1.3c0.3,0.3,0.6,0.6,1.1,0.7c0.3,0.1,0.6,0.1,1-0.1
		c0.4-0.1,0.9-0.3,1.3-0.6c0.4-0.3,0.8-0.5,1.2-0.9c-0.2,0.5-0.2,1-0.2,1.4c0.1,0.5,0.3,0.8,0.6,1.1c0.5,0.5,1,0.7,1.5,0.8
		c0.1,0,0.2,0,0.3,0c0.5,0,0.9-0.1,1.4-0.3c0.9-0.4,1.7-0.9,2.6-1.5c0,0,0,0,0,0l-2.1,2.5l0,0l2.9,1.1l0,0c0.3-0.3,0.7-0.7,1.3-1.4
		c0.6-0.6,1.3-1.3,2-2.1c0.8-0.8,1.5-1.5,2.3-2.2c0.8-0.7,1.5-1.2,2.2-1.6c0.7-0.4,1.2-0.4,1.6-0.3c0,0,0.1,0.1,0.1,0.1
		c0,0,0.1,0.1,0.1,0.1c0,0.3-0.2,0.6-0.4,1c-0.3,0.4-0.5,0.7-0.7,0.9c0,0,0,0,0,0l-2.4,2.8c-0.7,0.9-1.1,1.7-1.1,2.4
		c-0.1,0.7,0.1,1.3,0.5,1.8c0.4,0.5,0.9,0.8,1.5,0.8c0.1,0,0.2,0,0.3,0c0.4,0,0.9-0.1,1.3-0.3c0.9-0.3,1.8-0.8,2.7-1.5
		c0.5-0.3,0.9-0.6,1.3-1c-0.2,0.4-0.4,0.8-0.5,1.1c-0.3,0.7-0.4,1.3-0.4,1.8c0,0.5,0.2,1,0.4,1.3c0.3,0.3,0.6,0.6,1,0.8
		c0.3,0.1,0.6,0.1,1,0c0.4-0.1,0.9-0.3,1.3-0.5c0.4-0.2,0.8-0.5,1.3-0.8c-0.2,0.5-0.3,1-0.2,1.4c0.1,0.5,0.2,0.8,0.5,1.2
		c0.4,0.5,0.9,0.8,1.5,0.9c0.1,0,0.3,0,0.4,0c0.4,0,0.8-0.1,1.3-0.2c0.9-0.3,1.8-0.8,2.7-1.4s1.7-1.2,2.5-1.9s1.3-1.2,1.8-1.7
		c0.3-0.3,0.4-0.5,0.3-0.6c0-0.1-0.1-0.1-0.1-0.1c-0.1,0-0.1,0-0.3,0.1c-0.3,0.2-0.6,0.5-1,0.7c-0.7,0.5-1.5,1.1-2.4,1.7
		s-1.7,1.1-2.4,1.5c-0.8,0.4-1.4,0.6-1.8,0.5c-0.1,0-0.2-0.1-0.3-0.2c-0.1-0.1-0.1-0.2,0-0.4c0.1-0.3,0.4-0.8,0.8-1.3l5.9-6.7l0,0
		l-2.9-1.1l-0.8,0.9c-0.1-0.4-0.3-0.8-0.6-1.1c-0.3-0.3-0.8-0.6-1.4-0.9c-0.6-0.2-1.1-0.3-1.7-0.2c-0.6,0.1-1.2,0.3-1.7,0.6
		s-1.1,0.7-1.6,1.2c-0.4,0.3-0.7,0.7-1,1.1c-0.7,0.5-1.4,1.1-2.2,1.7c-0.8,0.6-1.6,1.1-2.4,1.6c-0.8,0.4-1.4,0.6-1.8,0.6
		c-0.1,0-0.2-0.1-0.3-0.1c-0.1-0.1-0.1-0.2,0-0.4c0.1-0.4,0.4-0.8,0.8-1.4l1.3-1.6c0.1-0.1,0.2-0.2,0.3-0.4c0.2-0.3,0.5-0.6,0.8-0.9
		c0.3-0.3,0.6-0.7,0.8-1.1c0.3-0.4,0.5-0.8,0.6-1.2c0.2-0.4,0.2-0.8,0.2-1.1c0-0.4-0.2-0.7-0.4-1c-0.3-0.3-0.7-0.6-1.3-0.8
		c-0.2-0.1-0.5-0.1-0.8-0.1c-0.3,0-0.7,0-1.2,0.1c-0.4,0.1-0.9,0.3-1.5,0.6c-0.4,0.2-0.9,0.5-1.3,0.9l2.1-2.5l-2.9-1l0,0l-3.2,3.8
		c-0.7,0.5-1.4,1.1-2.2,1.8c-0.8,0.6-1.6,1.2-2.4,1.6c-0.7,0.4-1.4,0.6-1.8,0.6c-0.1,0-0.2-0.1-0.3-0.1c-0.1-0.1-0.1-0.2,0-0.4
		c0.1-0.4,0.3-0.8,0.8-1.4l5.5-7l0,0l-3-1l-0.7,0.9c-0.1-0.4-0.3-0.8-0.7-1.1c-0.3-0.3-0.8-0.6-1.4-0.8c-0.6-0.2-1.2-0.2-1.7-0.1
		c-0.6,0.1-1.1,0.4-1.7,0.7c-0.5,0.3-1,0.8-1.5,1.3c-0.3,0.3-0.6,0.6-0.8,0.9c0,0,0,0-0.1,0.1c-0.7,0.6-1.4,1.2-2.2,1.9
		c-0.8,0.7-1.6,1.2-2.3,1.7c-0.7,0.5-1.3,0.7-1.8,0.7c-0.1,0-0.2-0.1-0.3-0.1c-0.1-0.1-0.1-0.2,0-0.4c0.1-0.4,0.3-0.8,0.7-1.4
		l5.4-7.1l2.5,0.8l0,0l0.9-1.1l-2.5-0.8l3.8-5l-3-0.9l0,0l-3.8,5l-1.7-0.5l-0.9,1.1l1.7,0.5l-2.9,3.8c-0.6,0.6-1.3,1.2-2.1,1.9
		c-0.8,0.7-1.6,1.3-2.3,1.7c-0.7,0.5-1.3,0.7-1.8,0.7c0,0,0,0,0,0c-0.1,0-0.2-0.1-0.3-0.1c-0.1-0.1-0.1-0.2,0-0.4
		c0.1-0.4,0.3-0.8,0.7-1.4l1.2-1.6c0.1-0.1,0.2-0.3,0.3-0.4c0.2-0.3,0.5-0.6,0.7-1c0.3-0.4,0.5-0.8,0.7-1.2c0.2-0.4,0.4-0.8,0.5-1.2
		c0.1-0.4,0.2-0.8,0.1-1.2c0-0.4-0.2-0.7-0.5-1c-0.3-0.3-0.7-0.5-1.3-0.7l0,0c-0.2-0.1-0.5-0.1-0.8-0.1c-0.3,0-0.7,0.1-1.2,0.2
		c-0.4,0.1-0.9,0.4-1.4,0.7c-0.4,0.3-0.8,0.6-1.2,1l1.9-2.6l0,0l-3-0.8l0,0l-2.8,3.9C487.4,52.9,487.1,53.2,486.7,53.5z M483.8,49
		c0,0.3-0.1,0.7-0.3,1.2c-0.2,0.5-0.4,1-0.7,1.5c-0.3,0.5-0.6,1.1-0.9,1.6c-0.5-0.4-0.8-0.8-1-1.3c-0.2-0.5-0.1-1,0.1-1.5
		c0.3-0.4,0.7-0.8,1-1.1c0.3-0.3,0.6-0.6,0.9-0.7c0.2-0.1,0.4-0.2,0.6-0.2c0,0,0.1,0,0.1,0C483.8,48.5,483.8,48.7,483.8,49z
		 M480.9,54.8c-0.3,0.4-0.6,0.7-0.8,1c-0.3,0.3-0.6,0.5-0.8,0.6c-0.2,0.1-0.5,0.2-0.7,0.1c-0.2,0-0.3-0.2-0.3-0.4
		c0-0.2,0-0.5,0.1-0.8c0.1-0.3,0.2-0.7,0.4-1.2c0.2-0.4,0.4-0.8,0.7-1.3C479.7,53.7,480.2,54.4,480.9,54.8z M507,63.2
		c0.2-0.6,0.5-1.2,1.1-2c0.5-0.8,1.1-1.5,1.7-2.2c0.6-0.7,1.3-1.2,1.9-1.6c0.5-0.3,0.8-0.5,1.2-0.5c0.1,0,0.2,0,0.3,0
		c0.1,0,0.2,0.2,0.3,0.3c0.1,0.2,0.1,0.4,0,0.8c-0.1,0.3-0.2,0.6-0.4,0.9c-0.2,0.3-0.5,0.8-1.1,1.5c-0.3,0.4-0.7,0.7-1.1,1.1
		c-0.4,0.4-0.8,0.7-1.2,1.1c-0.4,0.3-0.8,0.6-1.2,0.9c-0.4,0.2-0.7,0.4-0.9,0.5c-0.2,0.1-0.4,0.1-0.5-0.1
		C506.9,63.8,506.9,63.6,507,63.2z M531,71.6c0.2-0.6,0.6-1.2,1.2-1.9c0.5-0.7,1.2-1.4,1.8-2.1c0.7-0.7,1.3-1.2,1.9-1.5
		c0.4-0.3,0.8-0.4,1.1-0.4c0.1,0,0.2,0,0.3,0.1c0.1,0,0.2,0.2,0.3,0.3c0.1,0.2,0.1,0.4,0,0.8c-0.1,0.3-0.2,0.6-0.4,0.9
		c-0.2,0.3-0.6,0.7-1.2,1.4c-0.3,0.3-0.7,0.7-1.2,1.1c-0.4,0.4-0.9,0.7-1.3,1c-0.4,0.3-0.8,0.6-1.2,0.8c-0.4,0.2-0.7,0.4-1,0.4
		c-0.3,0.1-0.4,0-0.5-0.1C530.9,72.2,530.9,71.9,531,71.6z"/>
	<path class="st0" d="M525.2,56.4c0.2-0.2,0.3-0.3,0.4-0.4c0.2-0.1,0.4-0.1,0.7-0.1c0.2,0.1,0.5,0.2,0.7,0.4
		c0.3,0.2,0.5,0.4,0.8,0.6c0.3,0.2,0.6,0.4,0.8,0.7c0.3,0.2,0.6,0.4,0.9,0.5c0.2,0.1,0.4,0.1,0.6,0.1c0.1,0,0.2,0,0.3,0
		c0.2,0,0.8-0.2,1.5-1.2c0.1-0.2,0.2-0.3,0.3-0.5l0.1-0.2l-0.2,0.1c-0.3,0.3-0.7,0.5-1,0.5c-0.3,0-0.7,0-1-0.1
		c-0.3-0.1-0.6-0.3-0.9-0.5c-0.3-0.2-0.6-0.4-0.8-0.7c-0.3-0.3-0.6-0.5-0.9-0.7c-0.3-0.2-0.6-0.3-0.9-0.4c-0.2,0-0.4,0.1-0.7,0.2
		c-0.2,0.2-0.4,0.4-0.6,0.6c-0.2,0.3-0.3,0.4-0.4,0.7c-0.2,0.4-0.3,0.9-0.3,1.1l0,0.3l0.1-0.2C524.8,57.2,525,56.7,525.2,56.4z"/>
	<path class="st0" d="M335,63.7c0.2,0,0.4,0,0.6,0c1.3,0,2.1-0.6,2.3-0.8c0.4-0.4,0.8-0.8,1.1-1.4c0.3-0.5,0.6-1.2,0.8-1.8
		c0.1-0.3-0.4-1-1.3-1.9l0-0.1l0,0.1c-0.1,0.5-0.3,0.9-0.4,1.2c-0.2,0.7-0.5,1.3-0.9,1.9c-0.3,0.6-0.8,1.1-1.2,1.6
		c-0.5,0.4-1.1,0.7-1.7,0.9l-0.2,0l0.2,0C334.5,63.6,334.8,63.7,335,63.7z"/>
</g>
</svg>
