<?xml version="1.0" encoding="utf-8"?>
<!-- Generator: Adobe Illustrator 25.2.0, SVG Export Plug-In . SVG Version: 6.00 Build 0)  -->
<svg version="1.1" id="Layer_1" xmlns="http://www.w3.org/2000/svg" xmlns:xlink="http://www.w3.org/1999/xlink" x="0px" y="0px"
	 viewBox="0 0 508 213" style="enable-background:new 0 0 508 213;" xml:space="preserve">
<style type="text/css">
	.st0{fill:#FFFFFF;}
</style>
<g>
	<path class="st0" d="M126.8,181.3c0-4.4-4-4.9-4-4.9c0,2.1-1.6,5.6-3.4,7.4c-1.8,1.8-3.3,5-15.5,5c-12.9,0-18-5-33.6-15.1
		c-7.7-5-13.9-7.6-19.4-8.3c11.9-5.2,13.7-16.8,12.8-31.1c-1-16.3-1-37.4,0-44c1-6.6,4.8-17,14.2-16.6s6.2,11.8,6.2,11.8
		s8-3.8,9.3-8s2.1-7.6,0-8s-15.6-7.3-26,1.7c-8.1,7.1-12.8,17.3-12.8,17.3s-3.6-0.2-5.9,7.1c-2.8,8.9-0.3,24.6,0.7,31.2
		c2.9,18.5,1.2,31.3-3.4,36.6c-0.6,0.7-1.1,1.4-1.4,2c-3.1,0.5-6,1.7-8.8,3.5c-7.7,4.9-5.9,11-5.1,12.8c0.1,0.1,0.2,0.1,0.3,0
		c0.1-0.5,0.4-1.2,1.2-2.3c0.5-0.7,1.1-1.5,2-2.4c4.8-4.3,12.9-4.4,18.6-1.5c6.1,3.1,11.2,7.4,17.5,13.8c9.9,10,15.8,12,23.5,12.4
		c7.7,0.4,11.4-4.6,11.4-4.6s11.2,1.1,16.4-3.9C127,188.2,126.8,185.7,126.8,181.3z"/>
	<path class="st0" d="M86,90.7c1.3,6.4-0.8,13.3-2.2,19.8c-3,14.1-5,21.6-9.9,35.2c-0.9,2.6-3.2,9.2-4.8,11.5
		c-0.9,1.3-3.2,2.6-5.5,3.5c4.5,1.9,9.4,3.7,14.6,5.3c-0.4-3.2-0.3-6.5,0.2-9.7c1.1,1.1,2.4,2,4.1,2.6c-1.4-1.3-2.7-5.8-2.6-8.1
		c0.2-2.2,0.9-5.5,5.4-9.7c2.1-2,6.6-3.5,11.1-4.2c0.9,11.9,1.7,24.8,1.3,27.1c-0.5,2.7-1.7,4.6-3.1,5.8c7.6,1.3,15.7,2,24.1,1.7
		c0.4,0,0.8,0,1.1,0c-1.2-0.7-2.4-1.6-3.4-2.6c-2.8-3.1-3.7-7.4-4.3-11.5c-1-6.4-1.8-12.9-2.4-19.4c0.9,0.3,1.6,0.7,2.1,0.9
		c8.8,4.7,10.2,11.5,10.2,18.1c0.7,0.1,1.6-2.2,1.7-2.8c1.7-5.7,0.9-12.6-2.7-17.5c-3.1-3.8-7.5-6.9-12.2-8.5
		c-0.3-4.7-0.6-9.4-0.7-14.1c-0.2-6.4,0-13.4,3.1-18.8C102.2,94.8,93.8,93.1,86,90.7z M91.1,128.9c-2.3,0.9-4.3,1.8-6,3
		c2.8-8.8,5.6-17.6,8.6-26.4c-0.1,1.2,0.9,8.1,1.2,12.2c0.1,1.9,0.4,5.6,0.8,10.1C94,128,92.5,128.4,91.1,128.9z"/>
	<path class="st0" d="M190.2,162.6c6.6-1.4,13.3-2.9,20-4.7c0.2-0.1,0.5-0.1,0.7-0.2c-1.7-4.2-3.1-8.6-3.6-13.1
		c-0.4-3.3-0.4-6.7-0.4-10.1c0-4.6,0-9.2-0.1-13.8c0-13-0.8-25.7,1.8-38.4c-5.9,1.5-9.6,2.6-15.4,3.9c-0.7,0.2-1.4,0.3-2.2,0.5
		c-0.3,0.1-0.6,0.1-0.8,0.2c-2.9,0.6-5.9,1.2-8.7,1.7c-0.2,0-0.3,0.3-0.2,0.4c0.4,0.9,0.6,2,0.7,2.9c0.6,7.3-1.7,14.5-4,21.4
		c-0.7,2-1.3,4-2,6c-0.7,0-1.3,0.1-2,0.2c-5.5,0.9-9.2,2.1-13.4,5.9c-2.4,2.2-4.6,4.7-5.8,7.7c-1.2,3-1.3,6.6,0.2,9.4
		c1.5,2.9,4.8,4.8,8,4.3c-2.3-2.5-2.3-6.5-0.9-9.6c1.4-3.1,4.1-5.4,6.9-7.3c1.4-1,2.7-1.5,4-1.8c-2.7,8.3-5.4,16.5-8,24.8
		c-1.6,4.8-3.1,9.6-5,14.3c-0.1,0.2,0.1,0.5,0.3,0.4c5.1-0.7,10.4-1.6,15.9-2.6c0.2,0,0.3-0.3,0.2-0.5c-0.8-1.9-1.3-4-1.5-6.1
		c-0.4-5.2,1-10.3,2.4-15.3c1.5-5.3,2.9-10.6,4.4-15.9c3.1,0.6,6.2,2.6,7.8,5.2c1,1.6,1.3,3.3,1.4,5.1c0.1,2.6-0.5,3.7-2.4,5.3
		c1.6-0.1,2.9-0.6,3.9-1.7c-0.3,8.4-0.9,14.8-1.1,16.1C191.1,159.2,190.7,160.9,190.2,162.6z M183.8,120.6c2.1-7.7,4.2-15.4,6.3-23
		c0-0.1,0-0.1,0-0.2c0,0,0,0.1,0,0.1c2.1,7,2.7,18.5,2.7,29.6C190.6,124.1,187.4,121.9,183.8,120.6z"/>
	<path class="st0" d="M167.9,192c-1.1,0.6-3.5,1.9-5.7,1.3c-3.4-1-10.2-11.9-10.7-21.5c-0.3-5.5-0.3-31.7-0.5-54.1
		c4.5-2.3,8.7-4.5,9.2-4.7c2-0.8,3.6-1.5,5.7-1.5c1.4,0,2.4,0.1,3.6,0.9s1.8,2.5,0.9,3.6c1.1-1.1,2.2-2.3,2.7-3.7
		c0.6-1.4,0.6-3.2-0.4-4.4c-1-1.2-3-1.6-4.1-0.4c0.4-3-3.2-6.4-6.2-6.7c-3-0.2-5.4,0.1-7.9,1.9c-1.4,1-2.6,2-3.8,2.9
		c-0.2-11.2-0.5-19.7-1.1-21.4c-0.2-0.6-0.5-1.2-0.8-1.8c17.8-6.2,33.4-13.5,55.8-13.4c4.1,0,6,0.5,9.6,2.5c3.7,2.1,4.2,3.5,4.9,5.2
		c3-5.3,1-12.7-3-16c-5.3-4.4-11.2-4.2-14-2.2c-1.9-2.1-7.4-5.7-16-4.1c-20.1,3.8-40.4,15.8-47.6,19.6c-5.4,2.8-12.8,6.1-18.8,6.2
		c-4.9,0-9.7-2.6-11.1-7.4c-3,1.1-4.4,5-3.3,8c1.1,3,3.9,5.2,7,6.2c5.8,2,16.1,1.3,22-0.2c1.3-0.3,2.5-0.7,3.8-1
		c0.2,6.4,0.5,17.7,0.7,29.6c-2.1,1.8-5,4.4-7,4.9c-2.5,0.6-4.5,0.8-6.2,0.2c-2.4-0.9-4.1-2.8-2.5-4.8c-2.4,1.9-2.5,5.9-0.5,8.3
		c1.9,2.4,5.3,3.3,8.4,3c2.9-0.3,5.5-1.6,8-3c0.2,12.2,0.2,24.1-0.1,31.2c-0.8,19.9-0.2,27.5-4.8,37.1c-4.7,9.6-10.4,9.2-10.4,9.2
		l-3.9,0c0,0,0.5,2.2,2.8,4c2.4,1.8,6.7,3.2,9.4,3.3c4.3,0.1,8.3-1.6,10.2-4.1s2.5-3.8,2.5-3.8s7.5,3.2,14,0.2s8.9-7.6,9.8-9.2
		C168.8,191.5,168.5,191.6,167.9,192z"/>
	<path class="st0" d="M260.4,130.9c1,3.5,3.3,6.8,6.7,8c1.5,0.5,3.2,0.9,4.8,0.9c1.9,0,4.2,0,6-0.6c3.3-1,7.2-3.3,8.8-6.5
		c1.6-3,2.3-5.8,4.1-8.6c0.8-1.2,1.3-1.9,2.5-2.8c1.2-0.8,4-1.7,4.2-1.6c0,0-1.6-0.4-2.2-0.7c-3-1.6-2.7-15.2-2.7-18.6
		c0-8.7-0.2-17.9-0.1-26.4c0-9.5-0.5-9.8,3.2-17c-3.9,1.3-9.3,2.9-13.3,4.2c0.6,1.1,0.9,2,1.1,3c3.2,14.1,1.8,56.5-0.9,63.1
		c-0.6,1.4-1.2,2.8-2.6,3.6c-0.8,0.5-1.7,0.7-2.6,0.4c-1.7-0.6-2.3-2.6-2.4-4.3c-1.3-17.7-0.5-38.4-0.3-56.2c0-3.2,0.6-5.4,2-7.4
		c0.1-0.1,0-0.2-0.1-0.2c-7.8,2.5-15.7,5-23.8,7.5c-0.3,0.1-0.4,0.6-0.1,0.8c2,1.3,3.6,3.3,4.6,5.5c1.7,3.7,2,7.9,2.2,11.9
		c0.5,10.4,0.6,20.9,0.3,31.3C259.6,123.7,259.4,127.4,260.4,130.9z"/>
	<path class="st0" d="M385.8,129.6c3.8-3.8,4.2-9.7,2-14.4c-2.6-5.9-9.2-5.6-12.1-4.3c0,0,4.5,1.6,4.5,4.8c0,3.3-2,7.1-7.2,10.5
		c-6.9,4.5-24.3,3.3-41.2-1.1c-10.1-2.7-17.9-4.7-24.4-4.5c4.8-4.8,9.3-11.6,9.3-18.2c0-6.2,0.4-28.9,0.4-28.9s0.4-14.8,3.3-23.9
		c0.1-0.3-0.2-0.5-0.4-0.4c-5.9,1.9-12.2,3.9-18.7,6c-0.3,0.1-0.3,0.4-0.1,0.6c0.2,0.1,0.3,0.3,0.4,0.5c0.6,0.9,0.9,2.2,1.1,3.2
		c1.4,7.6,0.7,15.5,0.6,23.3c-0.1,11.4-0.3,23-2.8,34.1c-0.4,2-1,4-1.7,5.9c-1.6,0.9-3.2,2-4.6,3.6c-2,2.4-2.8,6.4-2.6,8.7
		c0.2,2.2,1.2,4.4,1.9,4.3c-1.2-7,5.3-12.6,14.1-11.9c13.3,0.9,34.4,12.9,38.6,14.8s10.5,4.7,18.6,4.7s13.5-7.8,13.5-7.8
		s1.6-2,1.6-4.6c0-2.5-0.4-3-0.4-3S382.1,133.4,385.8,129.6z"/>
	<path class="st0" d="M214.5,156.8c0.9-0.4,1.9-0.7,3-1.1c7.3-2.1,17.4-3.8,23.4-6.1c5.3-2.1,9.5-5.2,12.4-10.2
		c1.2-2.1,2.2-5.4,2.8-7.7c1.5-6.2,0.1-14.1-3.1-19.7c-1.6-2.8-4.8-5.1-7.9-5.8c5.4-2.6,8.6-8.7,8.2-14.7
		c-0.4-5.9-2.3-11.8-7.6-14.6c-2.1-1.1-5.1-2.5-8.9-1.9c-2.2,0.3-10.2,2.7-16.8,4.6c-2.7,0.7-5.4,1.4-8.1,2.1c-0.1,0-0.1,0-0.2,0
		c0,0,0,0,0.1,0.1c0.5,0.7,3.7,7.6,3.7,13.6c0,13.4,0.9,53.9-0.8,60.2L214.5,156.8z M242.5,127.2c-0.2,7.1-1.9,12.3-6.2,16.6
		c-2.5,2.4-6.8,3.7-10.1,4.4c0.5-0.8,1-1.7,1.3-2.7c1.2-3.2,1.3-6.7,1.4-10.2c0.1-4.9,0.5-21,0.5-24.1c1.5,0,3.2,0.3,4.8,1
		C238.5,114.2,242.7,120.1,242.5,127.2z M232.6,83.7c1.2,0.2,2.4,0.7,3.3,1.5c0.7,0.6,1.2,1.4,1.6,2.3c0.9,1.9,1.4,3.9,1.4,6
		c0,1.4-0.2,2.9-0.8,4.1c-1.1,2.2-3.3,3.8-5.5,5c-1,0.5-2,1-3,1.5c-0.1-6-0.6-14.1-2.9-18c-0.3-0.6-0.7-1.2-1-1.7
		C227.9,83.7,230.2,83.2,232.6,83.7z"/>
	<circle class="st0" cx="351.2" cy="78.4" r="4.4"/>
	<path class="st0" d="M332.9,51.8c-6.3,7.7-10.5,19.5-10.5,31.3c0,8.8,1.2,17.3,4.7,23.1c5.8,9.6,16,14,24.1,14
		c13,0,28.8-18.9,28.8-42.2s-13.2-37.2-26.3-37.2C347.3,40.7,339.1,44.3,332.9,51.8z M352.9,47.3c7.3,0,11.4,14.2,11.4,33.7
		s-5.9,32.7-13.3,32.7c-7.3,0-13.3-13.3-13.3-32.7S345.6,47.3,352.9,47.3z"/>
	<path class="st0" d="M420.1,120.2c0-7.9-3-15.6-4.9-19.1c-2-3.9-11.2-16.1-14.7-21.5c-3.9-5.9-7.5-11.8-8.3-15.7
		c-0.9-4.2-0.4-7.1,0.8-9.2c1.2-2.3,3.8-4,7-3.9c6,0.1,12.5,6.9,13,10.4c0.3,2,0.1,2.9-0.1,3.4c-0.1,0.2,0.1,0.4,0.3,0.3
		c1.8-0.9,6.1-5.6,7.2-9c0.9-2.8,2.1-8.6-6.7-12.8s-15.3-2-16.4-1.5c-1.1,0.5-7,3.4-10.3,8.8c-3.2,5.4-4.4,10.1-3.2,17.8
		c0,0.3,2,7.2,2,7.2s-3.3,1.2-2.8,4.7c0.5,3.5,0.2,7.4,11.5,24s10.6,27.4,10.6,30.9c0,24.6-21.9,39.6-38.1,39.6
		c-18.7,0-27.7-11.9-27.7-19.2c0-7.4,4-8.6,4-8.6s-1.8-3.8-6.4-3.8c-4.6,0-10.5,4-10.6,11c-0.1,7,4,12.8,5.1,13.2
		c1.1,0.4,0.7,0.9,0.7,0.9s-1.2,3.1,0.3,6.1c1.4,3,7.2,19.5,34.6,19.5c49,0,47.8-53.9,47.8-53.9S420.1,136.8,420.1,120.2z"/>
	<path class="st0" d="M479.9,151.3c0,0-4.5,8.3-12.3,8.2c-6.1-0.1-13.4-1.9-16.3-3.9c-0.4-0.3-0.8-0.5-1.2-0.8
		c7-3.4,6.6-9.4,6.6-9.4v-15.4v-28.8c3.5,2.1,5.9,5,6.6,6c5.7,8.2,3.9,14.8,1,20.7c0.6,0.4,10.2,0.5,10.2-17.3
		c0-9.6-7.9-14.8-13.9-18c-1.2-0.7-2.6-1.2-3.9-1.6V62.6c0,0,0.1-1,0.4-1.5s0.9-0.7,0.9-0.7c0-0.1,0-0.1-0.1-0.2
		c-2.5-1-22.8-8.5-26.2-9.7c-0.1,0-0.2,0.1-0.1,0.2c0.6,1.2,1.2,2.3,1.6,3.3c2.5,5.7-16.3,44.1-16.3,44.1c0,0,1.1,1.8,1.2,1.8
		c1.6,2.6,3.1,6.2,4.2,10.1c0.1,0.4,0.4,2.1,0.4,2.5c0,0.1,0.2,0.1,0.2,0l2.5-6.4c0.3,2.1,1.3,4.1,2.9,5.8c-0.7-1.8,0.2-6.4,1.3-8.3
		c1.1-1.9,3.2-4.5,9.2-6.2c0.3-0.1,0.5-0.1,0.8-0.2l1,51.4c-1.3-0.8-2.6-1.4-3.8-2c-3.5-1.6-5-2.3-8.6-2.3c-9.9,0-9.4,10.3-9.4,10.3
		s2.4-4.8,6.2-4.8c3.8,0,5.3-0.3,9.3,3.7c5.4,5.4,13.5,16.3,25.8,16.3c5.9,0,8.1-4.1,8.1-4.1s5.6,1.3,9.2-2.5
		C480.9,159.6,479.9,151.3,479.9,151.3z M434.6,92.1c-2.1,1.2-3.8,2.5-5.2,3.9l9.5-24.5c0-0.1,0.2-0.1,0.2,0l0.3,18.7
		C437.8,90.6,436.2,91.2,434.6,92.1z"/>
	<path class="st0" d="M321.8,144.9c-0.4-0.9-1.1-1.7-1.9-2.4c-2.1-1.7-3.5-2.3-6-2.7c-12.3-2.1-26.6,3.7-38.9,8.6
		c-14.8,6-26.9,13.5-44.8,20.3c-14.9,5.7-38.8,12-54.7,9.4c-4.9-0.8-7.6-5.1-8.5-7.6c0,0-0.4,0.3-0.6,0.5c-2.4,2.5-2.6,9.7,5,15.3
		c6.5,4.8,19.9,2,34.1-1.5c3.5,2.3,10.3,5,20.9,1.6c12.2-3.9,30.1-13.5,42.4-20.6c0,0,7.6-4.4,10.1-5.8c10-5.9,24.9-13.2,29.5-14.2
		c3-0.7,5.2-0.7,6.8-0.6c3.1,0.2,4.1,1.4,4.5,2.3c0.7,1.4,0.6,2.4,0.5,3.2c-0.1,1.6-0.7,2.2-0.7,2.2c1.1-0.4,3.2-1.2,3-5.6
		C322.4,147.1,322.2,145.7,321.8,144.9z"/>
	<path class="st0" d="M228.9,59.1c0.6,0.8,1.3,1.3,2,1.5c0.8,0.2,1.5,0.2,2.3,0c0.8-0.2,1.4-0.7,2-1.3c0.6-0.6,1-1.4,1.2-2.3
		c0.2-0.8,0.2-1.6,0.1-2.4c-0.2-0.8-0.5-1.5-0.9-2c-0.5-0.5-1.1-0.8-1.9-0.9c-0.8-0.1-1.6,0.2-2.6,0.9c-0.2,0.2-0.4,0.3-0.4,0.5
		c0,0.2,0.1,0.3,0.3,0.3c0.2,0,0.4,0,0.7-0.3c0.8-0.5,1.5-0.8,2.2-0.7c0.6,0.1,1.1,0.4,1.5,0.9c0.4,0.5,0.6,1.1,0.7,1.9
		c0.1,0.7,0,1.5-0.3,2.2c-0.3,0.7-0.8,1.3-1.6,1.8c-1.1,0.6-2,0.9-2.7,0.7c-0.7-0.2-1.3-0.7-1.6-1.5c-0.4-0.8-0.6-1.8-0.6-3
		c0-1.2,0.1-2.5,0.4-4c0.3-1.4,0.8-2.9,1.4-4.3c0.6-1.4,1.5-2.8,2.4-4c0.9-1.2,2-2.2,3.3-3c1.2-0.8,2.6-1.4,4-1.8
		c1.4-0.3,2.9-0.3,4.3,0c0.8,0.2,1.5,0.7,2.1,1.4c0.6,0.7,1,1.5,1.3,2.4c0.3,0.9,0.4,1.9,0.4,2.9c-0.1,1.4-0.4,2.9-1,4.4
		c-0.5,1.5-1.3,2.9-2.1,4.2c-0.8,1.3-1.8,2.4-2.7,3.2c-0.9,0.8-1.9,1.3-2.8,1.5c0-0.9,0.1-1.8,0.1-2.6c0-1.3,0.1-2.8,0.2-4.3
		c0.1-1.5,0.3-3,0.6-4.4c0.3-1.4,0.7-2.8,1.2-4c0.5-1.2,1.2-2.3,2.1-3.2l0.1-0.1l-0.1,0c-1.2,0.3-2.2,0.8-3,1.6
		c-0.8,0.7-1.4,1.7-1.9,2.7c-0.5,1.1-0.8,2.3-1.1,3.6c-0.2,1.3-0.4,2.7-0.5,4.1c-0.1,1.4-0.2,2.8-0.2,4.2c0,1.4-0.1,2.8-0.2,4
		c-0.1,1.3-0.3,2.4-0.5,3.4c-0.2,1-0.6,1.9-1.1,2.5c-0.4,0.5-0.9,0.9-1.4,1s-1,0.1-1.5,0s-0.8-0.5-1-0.9c-0.2-0.5-0.2-0.9,0-1.4
		c0.1-0.5,0.4-0.9,0.8-1.3c0.4-0.4,0.8-0.8,1.2-1c0.5-0.3,0.9-0.5,1.4-0.6c0.1-0.1,0.2-0.2,0.2-0.3c0-0.1-0.1-0.3-0.2-0.4
		c-0.1-0.1-0.2-0.2-0.4-0.2h0l0,0c-0.8,0.4-1.5,0.9-2.2,1.4c-0.6,0.6-1.1,1.2-1.4,1.9c-0.3,0.7-0.3,1.4-0.1,2.2
		c0.2,0.7,0.6,1.3,1.3,1.6c0.4,0.2,0.9,0.4,1.4,0.4c0.3,0,0.5,0,0.8-0.1c0.6-0.1,1.2-0.4,1.9-0.7c0.6-0.3,1.2-0.8,1.7-1.4
		c0.5-0.6,0.9-1.3,1.2-2.1c0.2-0.7,0.4-1.5,0.5-2.3c0.1-0.8,0.2-1.6,0.2-2.5c1.2,0.8,2.4,1.5,3.7,2.2c1.3,0.7,2.7,1.3,4.1,1.8
		c1.4,0.5,2.9,0.8,4.4,0.8c0.9,0,1.8-0.2,2.8-0.6c1-0.4,1.9-1,2.8-1.8c0.8-0.8,1.5-1.7,2-2.8c0.1-0.2,0.1-0.3,0-0.4
		c0-0.1-0.1-0.1-0.1-0.1c-0.1,0-0.1,0-0.2,0l0,0l0,0c-0.2,0.2-0.4,0.5-0.5,0.7c-0.2,0.4-0.5,0.7-0.8,1c-0.3,0.3-0.7,0.6-1.2,0.8
		c-0.5,0.2-1.1,0.4-2,0.5c-1.2,0.1-2.5,0.1-3.8-0.1c-1.3-0.2-2.6-0.4-3.9-0.8c-1.3-0.4-2.5-0.8-3.7-1.4c-0.2-0.1-0.8-0.3-1.7-0.6
		c1.9-0.8,3.6-1.8,4.9-3c1.3-1.2,2.4-2.5,3.2-3.9c0.8-1.4,1.3-2.8,1.5-4.2c0.2-1.4,0.2-2.8-0.1-4s-0.9-2.4-1.7-3.3
		c-0.8-0.9-1.9-1.7-3.1-2.1s-2.8-0.6-4.5-0.4c-1.7,0.2-3.6,0.8-5.8,1.8c-1.7,0.9-3.2,2-4.5,3.3c-1.2,1.3-2.2,2.8-2.9,4.3
		c-0.7,1.5-1.2,3.1-1.4,4.7c-0.2,1.5-0.2,3,0,4.3C227.9,57.2,228.3,58.3,228.9,59.1z"/>
	<path class="st0" d="M255.4,55.7c0.4,0.2,0.8,0.3,1.3,0.3c0.2,0,0.3,0,0.5,0c0.7-0.1,1.3-0.3,1.9-0.6c0.6-0.3,1.1-0.7,1.4-1.2l0,0
		c0.5-0.7,0.8-1.5,1.1-2.4l-0.4,9.8l0,0.1l2.7-0.9l0.3-8.2c0.2,0.2,0.4,0.3,0.6,0.4c0.3,0.1,0.6,0.2,1,0.2c0.4,0,0.9-0.1,1.4-0.3
		c0.4-0.1,0.8-0.4,1.1-0.6s0.6-0.6,0.8-1c0.2-0.4,0.4-0.8,0.5-1.3c0-0.1,0.1-0.3,0.1-0.4c0.6-0.4,1.1-0.9,1.5-1.5
		c0.3-0.4,0.5-0.8,0.8-1.3l0,0.3c0,1,0.2,1.9,0.5,2.4c0.4,0.5,0.8,0.9,1.4,1c0.2,0,0.3,0,0.5,0c0.4,0,0.8-0.1,1.1-0.3
		c0.4-0.3,0.8-0.6,1.1-1.1c0.4-0.7,0.8-1.6,1-2.6c0.1,0.6,0.4,1.1,0.6,1.5c0.3,0.4,0.7,0.6,1.2,0.7c0.6,0.1,1.1,0,1.5-0.2
		c0.4-0.3,0.8-0.6,1.1-1.1c0.4-0.7,0.8-1.6,1.1-2.5c0-0.1,0-0.1,0.1-0.2l-0.1,3.2v0.1l2.7-0.9l0.1-1.3c0.2,0.2,0.4,0.3,0.6,0.4
		c0.3,0.1,0.6,0.2,1,0.2c0,0,0,0,0,0c0.4,0,0.8-0.1,1.4-0.3c0.4-0.1,0.8-0.4,1.1-0.6c0.3-0.3,0.6-0.6,0.8-1c0.2-0.4,0.4-0.8,0.5-1.3
		c0-0.1,0.1-0.2,0.1-0.3c0.6-0.4,1.2-0.9,1.6-1.6c0.3-0.4,0.6-0.8,0.8-1.3l0,0.3c0,1,0.2,1.9,0.6,2.4c0.4,0.5,0.8,0.9,1.4,0.9
		c0.2,0,0.3,0,0.4,0c0.4,0,0.8-0.1,1.1-0.3c0.4-0.3,0.8-0.6,1-1.1c0.4-0.7,0.8-1.6,1.1-2.6c0.1-0.2,0.1-0.4,0.2-0.6
		c0.1,0.7,0.3,1.2,0.5,1.6c0.4,0.5,0.8,0.9,1.4,0.9c0.1,0,0.3,0,0.4,0c0.4,0,0.8-0.1,1.1-0.3c0.4-0.3,0.8-0.7,1-1.1
		c0.4-0.7,0.8-1.6,1.1-2.6c0.1-0.5,0.2-0.9,0.3-1.4c0.1,0.4,0.2,0.7,0.3,1c0.3,0.8,0.8,1.4,1.4,1.7c0.4,0.2,0.8,0.3,1.2,0.3
		c0.2,0,0.4,0,0.6-0.1c0.6-0.1,1.3-0.4,1.9-0.7c0.6-0.4,1-0.8,1.3-1.2l0,0c0.4-0.7,0.8-1.6,1.1-2.6c0.1-0.4,0.2-0.9,0.3-1.3
		c0.1,0.3,0.1,0.6,0.2,0.9c0.2,0.6,0.5,1.1,0.8,1.5c0.3,0.4,0.7,0.6,1.1,0.7c0.2,0,0.3,0.1,0.5,0.1c0.2,0,0.5,0,0.7-0.1
		c0.2-0.1,0.5-0.3,0.7-0.6c0.2-0.3,0.4-0.7,0.6-1.2c0.2-0.4,0.3-0.8,0.4-1.3c0.2,0.5,0.4,0.8,0.6,1.1c0.3,0.3,0.6,0.5,1,0.5
		c0.6,0.1,1.1,0,1.5-0.2c0.4-0.3,0.8-0.6,1.1-1.1c0.4-0.7,0.8-1.6,1.1-2.5c0.3-0.9,0.5-1.9,0.7-2.8c0.2-0.9,0.2-1.6,0.3-2.2
		c0-0.4,0-0.6-0.1-0.6c0,0-0.1,0-0.1,0c-0.1,0-0.1,0.1-0.1,0.2c-0.1,0.3-0.2,0.7-0.3,1.1c-0.2,0.8-0.4,1.7-0.7,2.6
		c-0.2,0.9-0.5,1.7-0.8,2.5c-0.3,0.7-0.6,1.2-1,1.4c-0.1,0.1-0.2,0.1-0.3,0c-0.1,0-0.2-0.1-0.2-0.3c-0.1-0.3-0.2-0.8-0.2-1.4
		l0.3-8.2l-2.7,0.9l0,1.1c-0.3-0.2-0.7-0.4-1.1-0.5c-0.4-0.1-0.9,0-1.5,0.2c-0.5,0.2-1,0.5-1.3,0.9c-0.3,0.4-0.6,0.9-0.8,1.4
		c-0.2,0.5-0.3,1.1-0.4,1.8c-0.1,0.5-0.1,0.9-0.1,1.4c-0.2,0.7-0.3,1.5-0.5,2.4c0,0.1,0,0.1,0,0.2c-0.1,0.4-0.2,0.9-0.4,1.4
		s-0.4,1.1-0.7,1.7c-0.3,0.5-0.7,0.9-1.2,1.1c-0.5,0.2-1,0.2-1.4-0.1c-0.3-0.2-0.5-0.5-0.7-1.1c-0.2-0.5-0.3-1.3-0.3-2.2
		c0-0.8,0-1.5,0.1-2.3c0.1-0.7,0.2-1.4,0.4-1.9c0.2-0.5,0.4-0.8,0.7-1c0.4-0.1,0.7-0.1,0.9,0.2c0.2,0.2,0.4,0.6,0.4,0.9
		c0.1,0.4,0.1,0.8,0.1,1.1c0,0.1,0,0.2,0.1,0.2c0.1,0,0.1,0,0.2,0c0,0,0,0,0.1,0l0,0c0.1,0,0.2,0,0.3-0.1c0.1,0,0.1-0.1,0.1-0.2
		c0.1-0.4,0-0.9-0.1-1.3c-0.1-0.4-0.3-0.8-0.6-1.2c-0.3-0.4-0.7-0.7-1.2-0.8c-0.5-0.1-1.1,0-1.8,0.2c-0.5,0.2-1,0.5-1.3,0.9
		c-0.3,0.4-0.6,0.9-0.8,1.5c-0.2,0.6-0.3,1.2-0.4,1.8c-0.1,0.6-0.1,1.2,0,1.8c-0.1,0.6-0.3,1.2-0.5,1.9c-0.2,0.9-0.5,1.8-0.8,2.5
		c-0.3,0.7-0.6,1.2-1,1.5c-0.1,0.1-0.2,0.1-0.3,0c-0.1,0-0.2-0.1-0.2-0.3c-0.1-0.3-0.2-0.8-0.2-1.4l0.1-8.2l-2.7,0.9l-0.1,4.7
		c-0.2,0.7-0.3,1.4-0.5,2.2c-0.2,0.9-0.5,1.8-0.8,2.5c-0.3,0.7-0.6,1.2-1,1.4c-0.1,0.1-0.2,0.1-0.3,0c-0.1,0-0.2-0.1-0.2-0.3
		c-0.1-0.3-0.2-0.8-0.2-1.4l0.3-15.1v-0.1l-2.7,0.9l-0.3,11.8c-0.2,0.5-0.4,1-0.7,1.6c-0.4,0.7-0.9,1.2-1.4,1.6c0-0.7,0.1-1.5,0-2.2
		c-0.1-0.8-0.2-1.5-0.4-2.2c-0.2-0.7-0.5-1.2-1-1.5c-0.4-0.4-1-0.5-1.7-0.3c-0.5,0.1-0.9,0.4-1.4,0.8c-0.4,0.4-0.7,0.8-1,1.3
		l0.2-8.3l-2.7,0.9l-0.3,11.8c-0.2,0.6-0.3,1.3-0.5,2c-0.3,0.9-0.5,1.8-0.8,2.5c-0.3,0.7-0.6,1.2-1,1.4c-0.1,0.1-0.2,0.1-0.3,0
		c-0.1,0-0.2-0.1-0.2-0.3c-0.1-0.3-0.2-0.8-0.2-1.4l0.3-8.1V37l-2.7,0.9l-0.1,2.3c-0.1,1.3-0.3,2.6-0.5,3.7c-0.2,1.2-0.5,2.2-0.8,3
		c-0.3,0.8-0.6,1.4-0.9,1.7c-0.1,0.1-0.2,0.1-0.3,0.1c-0.1,0-0.2-0.1-0.2-0.3c-0.1-0.3-0.2-0.8-0.2-1.4l0.3-8.1v-0.1l-2.7,0.9l0,0
		l-0.2,4.7c-0.2,0.5-0.5,1.1-0.8,1.7c-0.4,0.6-0.8,1.1-1.3,1.5c0-0.5,0.1-1,0-1.5c0-0.5,0-1.1-0.1-1.6c-0.1-0.5-0.2-1-0.3-1.4
		s-0.4-0.8-0.6-1.1c-0.3-0.3-0.6-0.5-1-0.6c-0.4-0.1-0.8-0.1-1.4,0.1c-0.3,0.1-0.6,0.3-1,0.7c-0.4,0.4-0.7,0.8-1,1.2l0.1-1.4
		l-2.7,0.9l-0.2,5c-0.2,0.6-0.3,1.3-0.5,1.9c0,0.1,0,0.1-0.1,0.2c-0.1,0.4-0.2,0.8-0.4,1.4c-0.2,0.6-0.5,1.1-0.8,1.7
		c-0.3,0.5-0.7,0.8-1.2,1c-0.5,0.2-1,0.1-1.4-0.1c-0.3-0.2-0.5-0.6-0.7-1c-0.1-0.5-0.2-1-0.2-1.5c0-0.5,0-0.9,0-1.2
		c0.3,0.3,0.7,0.5,1.1,0.4c0.4-0.1,0.9-0.3,1.3-0.8c0.4-0.4,0.7-0.9,1-1.5c0.2-0.6,0.3-1.2,0.3-1.8c-0.1-0.6-0.3-1.2-0.8-1.6
		c-0.3-0.3-0.7-0.5-1.1-0.5c-0.5-0.1-1,0-1.6,0.2c-0.4,0.1-0.8,0.4-1.1,0.7c-0.3,0.3-0.6,0.7-0.8,1.1c-0.2,0.4-0.4,0.9-0.5,1.4
		c-0.2,0.9-0.3,1.9-0.3,3c0,1.1,0.2,2.1,0.5,3C254.4,54.7,254.8,55.3,255.4,55.7z M256.3,49.6L256.3,49.6c0-0.5,0.1-0.9,0.2-1.3
		c0.1-0.4,0.2-0.9,0.3-1.3c0.1-0.4,0.3-0.7,0.5-1c0.3-0.3,0.5-0.4,0.8-0.3c0.2,0.1,0.5,0.2,0.6,0.6c0.2,0.3,0.2,0.7,0.2,1.2
		c0,0.5-0.2,1-0.5,1.6c-0.2,0.4-0.5,0.7-0.8,0.9s-0.6,0.3-0.9,0.2C256.5,50,256.4,49.9,256.3,49.6z M267.2,45.2c0,0.2,0,0.7,0,1.3
		c0,0.6-0.1,1.3-0.2,2c-0.1,0-0.3,0-0.4,0c-0.3,0-0.5,0.1-0.6,0.3c-0.2,0.2-0.2,0.4-0.3,0.7c0,0.3,0,0.5,0.2,0.7
		c0.1,0.2,0.4,0.2,0.7,0.2c-0.2,0.5-0.4,0.9-0.6,1.2c-0.2,0.3-0.5,0.4-0.9,0.4c-0.3-0.1-0.5-0.3-0.7-0.7c-0.2-0.4-0.3-0.9-0.2-1.5v0
		l0,0c0-0.3,0.1-0.8,0.1-1.5c0.1-0.7,0.2-1.4,0.4-2.1c0.2-0.7,0.4-1.4,0.6-2c0.3-0.6,0.6-0.9,1-1c0.2,0,0.3,0.1,0.5,0.4
		C267,43.9,267.1,44.4,267.2,45.2z M288.2,41.4c-0.3,0-0.5,0.1-0.6,0.3c-0.2,0.2-0.2,0.4-0.3,0.7c0,0.3,0,0.5,0.1,0.7
		c0.1,0.2,0.3,0.3,0.6,0.3c-0.1,0.5-0.3,1-0.6,1.3c-0.2,0.3-0.5,0.4-0.9,0.4c-0.3-0.1-0.5-0.3-0.7-0.7c-0.2-0.4-0.3-0.9-0.3-1.5l0,0
		c0-0.3,0-0.8,0.1-1.5c0.1-0.7,0.2-1.4,0.4-2.1c0.2-0.7,0.4-1.4,0.6-2c0.3-0.6,0.6-0.9,0.9-1c0,0,0,0,0.1,0c0.1,0,0.3,0.1,0.4,0.4
		c0.1,0.3,0.3,0.9,0.4,1.7c0,0.2,0,0.7,0,1.3c0,0.6-0.1,1.3-0.1,2C288.4,41.4,288.3,41.4,288.2,41.4z M315.5,29
		c0.1-0.8,0.3-1.6,0.5-2.2c0.2-0.6,0.5-1,0.8-1.1c0,0,0.1,0,0.1,0c0.1,0,0.2,0,0.3,0.1c0.2,0.1,0.3,0.3,0.4,0.5
		c0.1,0.3,0.2,0.6,0.2,0.9c0,0.3,0,0.9,0,1.7c0,0.4-0.1,0.9-0.2,1.4c-0.1,0.5-0.2,1-0.3,1.5c-0.1,0.5-0.3,0.9-0.4,1.3
		c-0.1,0.4-0.3,0.7-0.4,0.9c-0.1,0.2-0.3,0.3-0.4,0.2c-0.1,0-0.3-0.2-0.4-0.6c-0.2-0.5-0.3-1.2-0.3-2
		C315.4,30.7,315.5,29.8,315.5,29z"/>
	<path class="st0" d="M299.9,28.6c0.2,0.1,0.4,0.1,0.6,0.1c0.2,0,0.3,0,0.5-0.1c0.4-0.1,0.6-0.4,0.8-0.7c0.2-0.4,0.2-0.7,0.1-1.1
		c-0.1-0.4-0.4-0.6-0.7-0.8c-0.4-0.2-0.7-0.2-1.1-0.1c-0.4,0.1-0.7,0.4-0.8,0.7c-0.2,0.4-0.2,0.7-0.1,1.1
		C299.3,28.2,299.5,28.5,299.9,28.6z"/>
	<path class="st0" d="M329.8,28.6c0.2,0.7,0.4,1.2,0.7,1.6c0.3,0.4,0.6,0.6,1,0.8c0.2,0.1,0.4,0.1,0.6,0.1c0.2,0,0.4,0,0.5-0.1
		c0.3-0.1,0.5-0.2,0.8-0.5c0.3-0.3,0.5-0.7,0.7-1.1c0.2-0.4,0.4-0.8,0.5-1.3c0.1,0.5,0.3,0.9,0.6,1.2c0.3,0.3,0.6,0.5,1,0.6
		c0.6,0.1,1.1,0.1,1.5-0.1c0.4-0.2,0.8-0.6,1.2-1c0.5-0.7,0.9-1.5,1.3-2.4c0.1-0.4,0.3-0.7,0.4-1.1c0,0.3,0.1,0.5,0.1,0.8
		c0.2,0.9,0.5,1.5,1.1,1.9c0.5,0.3,1,0.5,1.7,0.5c0,0,0,0,0.1,0c0.7,0,1.3-0.1,1.9-0.4c0.6-0.3,1.1-0.6,1.5-1l0,0
		c0.6-0.6,1.1-1.4,1.5-2.3c0.4-0.9,0.8-1.8,1-2.7c0.3-0.9,0.4-1.6,0.5-2.1c0.1-0.3,0.1-0.6,0-0.6c0,0-0.1,0-0.1,0
		c-0.1,0-0.1,0.1-0.2,0.2c-0.1,0.3-0.3,0.7-0.4,1.1c-0.3,0.8-0.6,1.6-1,2.4c0,0.1-0.1,0.1-0.1,0.2c-0.1,0.4-0.4,0.8-0.6,1.3
		c-0.3,0.5-0.6,1.1-1,1.6c-0.4,0.5-0.8,0.7-1.3,0.9c-0.5,0.1-1,0-1.4-0.3c-0.3-0.3-0.4-0.6-0.5-1.1c-0.1-0.5-0.1-1,0-1.5
		c0-0.5,0.1-0.9,0.1-1.2c0.3,0.4,0.6,0.6,1.1,0.5c0.4,0,0.9-0.2,1.4-0.6c0.5-0.4,0.8-0.8,1.1-1.4c0.3-0.6,0.5-1.1,0.5-1.7
		c0-0.6-0.2-1.2-0.6-1.7c-0.3-0.3-0.6-0.5-1.1-0.6c-0.4-0.1-1-0.1-1.6,0c-0.5,0.1-0.9,0.3-1.2,0.5c-0.4,0.3-0.7,0.6-0.9,1
		c-0.3,0.4-0.5,0.8-0.7,1.3c-0.3,0.7-0.5,1.6-0.6,2.5c-0.2,0.7-0.5,1.4-0.7,2.1c-0.3,0.9-0.7,1.7-1,2.4c-0.4,0.7-0.7,1.2-1.1,1.3
		c-0.1,0-0.2,0.1-0.3,0c-0.1,0-0.2-0.1-0.2-0.3c-0.1-0.3-0.1-0.8-0.1-1.4l1.7-15l0-0.1l-2.8,0.7l-0.9,8c-0.3-0.3-0.7-0.4-1-0.5
		c-0.4-0.1-0.9-0.1-1.5,0.1c-0.5,0.1-1,0.4-1.4,0.8c-0.4,0.4-0.7,0.8-0.9,1.4c-0.2,0.5-0.4,1.1-0.6,1.7c-0.1,0.6-0.2,1.2-0.2,1.9
		c0,0.6,0,1.2,0,1.8C329.6,27.7,329.7,28.2,329.8,28.6z M332.1,26.4c0-0.8,0.1-1.7,0.3-2.5c0.2-0.8,0.4-1.6,0.6-2.2
		c0.3-0.6,0.6-0.9,0.9-1c0,0,0.1,0,0.1,0c0.1,0,0.2,0,0.3,0.1c0.2,0.1,0.3,0.3,0.4,0.6c0.1,0.3,0.2,0.6,0.2,0.8c0,0.3,0,0.5,0,0.5
		l-0.1,1.2c-0.1,0.5-0.2,0.9-0.3,1.4c-0.1,0.5-0.3,1-0.4,1.4c-0.2,0.5-0.3,0.9-0.5,1.2c-0.2,0.4-0.3,0.6-0.5,0.8
		c-0.2,0.2-0.3,0.2-0.4,0.2c-0.1,0-0.2-0.1-0.3-0.6C332.2,27.9,332.1,27.2,332.1,26.4z M343.5,21.9L343.5,21.9
		c0.1-0.5,0.2-0.9,0.3-1.3c0.1-0.4,0.3-0.9,0.5-1.3c0.2-0.4,0.4-0.7,0.6-0.9c0.3-0.2,0.6-0.3,0.8-0.2c0.2,0.1,0.4,0.3,0.5,0.6
		c0.1,0.3,0.1,0.8,0,1.2c-0.1,0.5-0.3,1-0.7,1.5c-0.3,0.3-0.6,0.6-0.9,0.7c-0.3,0.1-0.6,0.2-0.9,0.1
		C343.6,22.4,343.5,22.2,343.5,21.9z"/>
	<path class="st0" d="M355.6,26.2c0.3,0.1,0.6,0.2,0.9,0.2c0.2,0,0.4,0,0.6-0.1c0.5-0.2,0.9-0.4,1.3-0.9c0.6-0.6,1.2-1.4,1.7-2.2
		c0.2-0.4,0.4-0.8,0.6-1.2c0,0.3,0,0.6,0,0.9c0,0.7,0.1,1.2,0.3,1.7c0.2,0.4,0.5,0.8,0.8,0.9c0.3,0.2,0.7,0.3,1.1,0.3
		c0,0,0.1,0,0.1,0c0.3,0,0.6-0.1,0.9-0.4c0.3-0.2,0.6-0.6,0.9-0.9c0.3-0.3,0.5-0.7,0.8-1.1c0,0.5,0.1,0.9,0.3,1.2
		c0.2,0.4,0.5,0.6,0.8,0.8c0.5,0.3,1,0.3,1.5,0.2c0.5-0.1,0.9-0.4,1.3-0.8c0.6-0.6,1.2-1.3,1.8-2.1c0.5-0.8,1-1.7,1.4-2.5
		c0.4-0.8,0.7-1.5,0.9-2c0.1-0.3,0.1-0.6,0.1-0.6c0,0-0.1-0.1-0.1,0c-0.1,0-0.1,0.1-0.2,0.2c-0.2,0.3-0.4,0.6-0.6,1
		c-0.4,0.7-0.9,1.5-1.4,2.3c-0.5,0.8-1,1.5-1.5,2.1c-0.5,0.6-1,1-1.4,1.1c-0.1,0-0.2,0-0.3,0c-0.1-0.1-0.1-0.2-0.2-0.3
		c0-0.3,0-0.8,0.2-1.4l2.5-7.7l0-0.1l-2.9,0.1l-0.3,1c-0.2-0.3-0.5-0.6-0.9-0.7c-0.4-0.2-0.9-0.3-1.5-0.2c-0.6,0-1.1,0.2-1.5,0.5
		c-0.5,0.3-0.9,0.7-1.2,1.2c-0.3,0.5-0.7,1-0.9,1.6c-0.2,0.4-0.3,0.7-0.4,1.1c0,0,0,0,0,0.1c-0.4,0.7-0.8,1.5-1.2,2.4
		c-0.5,0.8-0.9,1.6-1.4,2.2c-0.5,0.6-0.9,1-1.3,1.2c-0.1,0-0.2,0-0.3,0c-0.1-0.1-0.1-0.2-0.2-0.3c-0.1-0.3,0-0.8,0.1-1.4L361,8.5
		l0-0.1l-2.8,0.3l0,0l-3.7,13.8c-0.2,1-0.2,1.9,0,2.5C354.7,25.6,355.1,26,355.6,26.2z M363.2,23.3c0-0.5,0.1-1.2,0.3-2
		c0.2-0.8,0.5-1.6,0.8-2.4c0.3-0.8,0.7-1.5,1.1-2c0.4-0.5,0.7-0.8,1.1-0.8c0,0,0,0,0,0c0.1,0,0.2,0.1,0.4,0.2
		c0.1,0.1,0.2,0.3,0.3,0.6c0.1,0.3,0,0.6,0,0.9c-0.1,0.3-0.2,0.8-0.5,1.6c-0.2,0.4-0.4,0.9-0.6,1.3c-0.2,0.5-0.5,0.9-0.7,1.3
		c-0.2,0.4-0.5,0.8-0.7,1.1c-0.2,0.3-0.5,0.5-0.7,0.7c-0.2,0.1-0.3,0.2-0.5,0.1C363.3,23.8,363.2,23.6,363.2,23.3z"/>
	<path class="st0" d="M381.7,18.5c0.8,0.4,1.8,0.6,3,0.5c0.9-0.1,1.8-0.4,2.6-0.8c0.8-0.4,1.5-1,2-1.8c0.5-0.7,0.8-1.6,0.7-2.6
		c0-0.2-0.1-0.4-0.3-0.4c-0.2-0.1-0.3,0-0.5,0.1c-0.2,0.1-0.2,0.2-0.3,0.5c0,0.8-0.2,1.5-0.6,2.1c-0.4,0.6-0.9,1.1-1.5,1.5
		c-0.6,0.4-1.3,0.6-2,0.7c-0.8,0.1-1.4,0-1.8-0.3s-0.7-0.7-0.8-1.3c-0.1-0.6-0.1-1.2,0.1-1.9s0.4-1.5,0.8-2.2c0.5-1.1,1.3-2.1,2.1-3
		c0.9-0.9,1.8-1.6,2.8-2.1s2-0.9,3-1c1-0.1,1.8-0.1,2.6,0.2c0.8,0.3,1.3,0.8,1.7,1.6c0.4,0.8,0.5,1.9,0.4,3.2
		c-0.2,1.2-0.7,2.7-1.4,4.2c-0.8,1.6-1.7,3.1-2.9,4.7c-1.2,1.6-2.4,3.1-3.7,4.4c-1.3,1.3-2.7,2.4-3.9,3.3c-1.3,0.8-2.5,1.3-3.5,1.3
		l-0.2,0l0.2,0.1c0.9,0.3,1.9,0.4,2.9,0.4c1,0,2-0.4,3.1-1c1.2-0.8,2.4-1.8,3.7-3c1.2-1.2,2.4-2.6,3.5-4.1c1.1-1.5,2-3,2.8-4.5
		c0.8-1.5,1.2-2.9,1.4-4.1c0.2-1.6,0.1-2.9-0.2-3.9c0.7,0.9,1.1,1.9,1.3,3.1c0.2,1.2,0.2,2.6,0,4s-0.6,2.8-1.1,4.2
		c-0.5,1.4-1.1,2.7-1.7,3.9c-0.6,1.2-1.3,2.3-1.9,3.2c-0.1,0.1,0,0.2,0,0.3c0.1,0.1,0.2,0.1,0.3,0.1c0.1,0,0.2,0,0.3,0
		c0.1,0,0.3,0,0.4,0l0,0l0,0c0.8-1.5,1.7-3,2.6-4.5c0.9-1.5,1.9-3,3-4.4c1.1-1.4,2.3-2.8,3.5-4c1.2-1.1,2.5-2.2,3.8-3
		c-1,1.1-2,2.3-3,3.6c-1,1.4-1.9,2.9-2.7,4.3c-0.8,1.4-1.4,2.8-1.8,3.9c-0.6,1.5-0.9,3-1.1,4.3c-0.2,1.3-0.1,2.5,0.3,3.4
		c0.4,0.9,1,1.6,2,1.9c0.4,0.1,0.9,0.2,1.4,0.2c0.8,0,1.7-0.1,2.7-0.4c0.1,0,0.1-0.1,0.1-0.2c0-0.1,0-0.1-0.1-0.2
		c-0.1-0.1-0.3,0-0.6,0c-0.2,0.1-0.5,0.1-0.8,0.1c-0.3,0-0.6,0-0.9-0.2c-0.7-0.5-1.1-1.2-1.3-2.3c-0.1-1,0-2.3,0.3-3.7
		c0.3-1.4,0.9-2.9,1.6-4.4c0.7-1.6,1.5-3.1,2.5-4.6c0.9-1.5,1.9-2.9,3-4.2c1-1.3,2.1-2.3,3.1-3.1s2-1.3,2.9-1.5l0.2,0l-0.2,0
		c-0.5-0.1-1-0.2-1.6-0.2c-0.5,0-1.1,0-1.7,0.2c-1.4,0.3-2.8,0.9-4.2,1.7c-1.4,0.8-2.7,1.8-4,2.8c-1.3,1.1-2.4,2.3-3.4,3.5
		c-0.9,1.1-1.7,2.2-2.3,3.3c0.5-1.3,0.8-2.6,1-3.9c0.2-1.4,0.2-2.8,0-4.1s-0.7-2.4-1.3-3.4c-0.7-1-1.6-1.8-2.7-2.3
		c-1.1-0.6-2.5-0.9-4.1-0.9c0,0,0,0-0.1,0c-1.7,0-3.2,0.3-4.6,0.7c-1.4,0.5-2.5,1.2-3.5,2c-1,0.8-1.8,1.8-2.3,2.7
		c-0.6,1-0.9,2-1.1,3c-0.2,1-0.1,1.9,0.2,2.7C380.4,17.5,380.9,18.1,381.7,18.5z"/>
	<path class="st0" d="M415.4,26.2c-0.4,0.3-0.8,0.5-1.2,0.6c-0.4,0.1-0.8,0.1-1.1,0.1c0.3-0.5,0.6-1,0.8-1.6c0.2-0.5,0.4-1,0.5-1.5
		l0,0c0.1-0.4,0.1-0.8,0.1-1.1c0-0.4-0.1-0.7-0.3-1.1c-0.2-0.3-0.4-0.6-0.7-0.9c-0.3-0.2-0.7-0.4-1.2-0.5c-0.5-0.1-1-0.1-1.5,0
		c-0.5,0.1-1,0.4-1.5,0.7c-0.5,0.3-0.9,0.7-1.3,1.2s-0.8,1-1.1,1.5c-0.3,0.5-0.6,1.1-0.8,1.7c-0.2,0.6-0.3,1.1-0.4,1.7
		c-0.1,0.5,0,1.1,0.1,1.5c0.1,0.5,0.3,0.9,0.7,1.2c0.3,0.3,0.8,0.6,1.3,0.7c0.2,0.1,0.5,0.1,0.7,0.1c0.2,0,0.4,0,0.6-0.1
		c0.4-0.1,0.8-0.2,1.2-0.5c0.4-0.2,0.8-0.5,1.1-0.8c0.3-0.3,0.7-0.7,1-1.1c0.7,0,1.4-0.2,2.2-0.4c0.2-0.1,0.4-0.2,0.6-0.3l-2.9,4.1
		l0,0l2.7,0.8l0,0c0.3-0.3,0.6-0.7,1.1-1.3c0.5-0.6,1.1-1.3,1.7-2.1c0.6-0.8,1.3-1.5,2-2.1c0.7-0.7,1.3-1.2,1.9-1.6
		c0.6-0.4,1.1-0.5,1.5-0.4c0,0,0.1,0.1,0.1,0.1c0,0,0.1,0.1,0.1,0.1c0,0.2-0.1,0.6-0.3,0.9c-0.2,0.4-0.4,0.7-0.6,0.9c0,0,0,0,0,0
		l-2,2.7c-0.6,0.9-0.9,1.6-0.9,2.3c0,0.7,0.2,1.2,0.6,1.6c0.4,0.4,0.9,0.6,1.4,0.6c0,0,0.1,0,0.1,0c0.5,0,0.9-0.1,1.4-0.3
		c0.8-0.4,1.6-0.9,2.3-1.5c0.1-0.1,0.2-0.2,0.4-0.3c-0.3,0.6-0.5,1.1-0.5,1.5c0,0.7,0.2,1.2,0.6,1.6c0.4,0.4,0.9,0.6,1.4,0.7
		c0.1,0,0.1,0,0.2,0c0.4,0,0.9-0.1,1.4-0.3c0.8-0.3,1.6-0.8,2.4-1.4c0.4-0.3,0.9-0.7,1.3-1.1c-0.2,0.4-0.4,0.8-0.5,1.1
		c-0.2,0.6-0.3,1.2-0.2,1.7c0,0.5,0.2,0.9,0.5,1.2c0.3,0.3,0.6,0.5,1,0.7c0.2,0.1,0.6,0.1,0.9-0.1c0.4-0.1,0.8-0.3,1.2-0.6
		c0.4-0.2,0.8-0.5,1.1-0.8c-0.2,0.5-0.2,0.9-0.1,1.3c0.1,0.4,0.2,0.8,0.5,1c0.4,0.4,0.9,0.7,1.4,0.7c0.1,0,0.2,0,0.2,0
		c0.4,0,0.9-0.1,1.3-0.3c0.8-0.3,1.6-0.8,2.4-1.4c0,0,0,0,0,0l-1.9,2.3l0,0l2.7,1l0,0c0.3-0.3,0.7-0.7,1.2-1.3
		c0.5-0.6,1.2-1.2,1.9-1.9c0.7-0.7,1.4-1.4,2.1-2c0.7-0.6,1.4-1.1,2-1.4c0.6-0.3,1.1-0.4,1.5-0.3c0,0,0.1,0.1,0.1,0.1
		c0,0,0.1,0.1,0.1,0.1c0,0.2-0.1,0.5-0.4,0.9c-0.2,0.3-0.5,0.6-0.6,0.8c0,0,0,0,0,0l-2.2,2.6c-0.6,0.8-1,1.6-1,2.2
		c-0.1,0.7,0.1,1.2,0.5,1.6c0.4,0.4,0.9,0.7,1.4,0.7c0.1,0,0.2,0,0.3,0c0.4,0,0.8-0.1,1.2-0.2c0.8-0.3,1.6-0.8,2.4-1.3
		c0.4-0.3,0.8-0.6,1.2-0.9c-0.2,0.4-0.4,0.7-0.5,1c-0.2,0.6-0.4,1.2-0.3,1.7c0,0.5,0.2,0.9,0.4,1.2c0.2,0.3,0.6,0.6,0.9,0.7
		c0.2,0.1,0.6,0.1,1,0c0.4-0.1,0.8-0.3,1.2-0.5c0.4-0.2,0.8-0.5,1.2-0.8c-0.2,0.5-0.2,0.9-0.2,1.3c0,0.4,0.2,0.8,0.5,1.1
		c0.4,0.5,0.8,0.7,1.3,0.8c0.1,0,0.2,0,0.4,0c0.4,0,0.8-0.1,1.2-0.2c0.8-0.3,1.6-0.7,2.5-1.3c0.8-0.5,1.6-1.1,2.3-1.7
		c0.7-0.6,1.2-1.1,1.6-1.5c0.2-0.3,0.3-0.5,0.3-0.6c0-0.1-0.1-0.1-0.1-0.1c-0.1,0-0.1,0-0.2,0.1c-0.3,0.2-0.6,0.4-0.9,0.7
		c-0.7,0.5-1.4,1-2.1,1.6s-1.5,1-2.2,1.4c-0.7,0.4-1.3,0.5-1.7,0.5c-0.1,0-0.2-0.1-0.2-0.1c-0.1-0.1-0.1-0.2,0-0.4
		c0.1-0.3,0.3-0.7,0.8-1.2l5.4-6.1l0,0l-2.7-1l-0.7,0.8c-0.1-0.4-0.3-0.7-0.5-1c-0.3-0.3-0.7-0.6-1.3-0.8c-0.5-0.2-1-0.3-1.6-0.2
		c-0.5,0.1-1.1,0.3-1.6,0.6s-1,0.7-1.5,1.1c-0.3,0.3-0.6,0.6-0.9,1c-0.6,0.5-1.3,1-2,1.5c-0.8,0.6-1.5,1-2.2,1.4
		c-0.7,0.4-1.3,0.6-1.7,0.5c-0.1,0-0.2-0.1-0.2-0.1c-0.1-0.1-0.1-0.2,0-0.4c0.1-0.3,0.3-0.7,0.7-1.3l1.2-1.4
		c0.1-0.1,0.2-0.2,0.3-0.3c0.2-0.2,0.4-0.5,0.7-0.9c0.3-0.3,0.5-0.7,0.7-1c0.2-0.4,0.4-0.7,0.6-1.1c0.1-0.4,0.2-0.7,0.2-1
		c0-0.3-0.1-0.6-0.4-0.9c-0.2-0.3-0.6-0.5-1.1-0.7c-0.2-0.1-0.4-0.1-0.7-0.1c-0.3,0-0.7,0-1.1,0.1c-0.4,0.1-0.9,0.3-1.3,0.5
		c-0.4,0.2-0.8,0.5-1.2,0.8l1.9-2.3l-2.7-1l0,0l-2.9,3.5c-0.6,0.5-1.3,1-2,1.6c-0.7,0.6-1.5,1.1-2.2,1.5c-0.7,0.4-1.2,0.6-1.7,0.6
		c-0.1,0-0.2-0.1-0.2-0.1c-0.1-0.1-0.1-0.2,0-0.4c0.1-0.3,0.3-0.8,0.7-1.3l5.1-6.4l0,0l-2.7-0.9l-0.7,0.9c-0.1-0.4-0.3-0.7-0.6-1
		c-0.3-0.3-0.7-0.6-1.3-0.7c-0.5-0.2-1.1-0.2-1.6-0.1c-0.5,0.1-1,0.3-1.5,0.7c-0.5,0.3-1,0.7-1.4,1.2c-0.3,0.3-0.5,0.6-0.7,0.9
		c0,0,0,0-0.1,0c-0.6,0.5-1.3,1.1-2,1.7c-0.7,0.6-1.5,1.1-2.1,1.5c-0.7,0.4-1.2,0.6-1.6,0.6c-0.1,0-0.2-0.1-0.3-0.1
		c-0.1-0.1-0.1-0.2,0-0.4c0.1-0.3,0.3-0.8,0.7-1.3l4.9-6.5l2.3,0.7l0,0l0.8-1l-2.3-0.7l3.5-4.5l-2.7-0.8l0,0l-3.5,4.5l-1.6-0.5
		l-0.8,1l1.6,0.5l-2.6,3.5c-0.6,0.5-1.2,1.1-1.9,1.7c-0.7,0.6-1.4,1.2-2.1,1.6c-0.6,0.4-1.2,0.6-1.6,0.6c0,0,0,0,0,0
		c-0.1,0-0.2-0.1-0.2-0.1c-0.1-0.1-0.1-0.2,0-0.4c0.1-0.3,0.3-0.8,0.6-1.3l1.1-1.5c0.1-0.1,0.2-0.2,0.3-0.4c0.2-0.3,0.4-0.6,0.7-0.9
		c0.2-0.3,0.5-0.7,0.7-1.1c0.2-0.4,0.4-0.7,0.5-1.1c0.1-0.4,0.2-0.7,0.1-1.1c0-0.3-0.2-0.6-0.4-0.9c-0.3-0.3-0.7-0.5-1.2-0.6l0,0
		c-0.2-0.1-0.4-0.1-0.7-0.1c-0.3,0-0.7,0.1-1.1,0.2c-0.4,0.1-0.8,0.3-1.3,0.6c-0.4,0.2-0.7,0.5-1.1,0.9l1.7-2.3l0,0l-2.7-0.8l0,0
		l-2.6,3.6C416.1,25.7,415.8,26,415.4,26.2z M412.8,22.1c0,0.3-0.1,0.6-0.3,1.1c-0.2,0.4-0.4,0.9-0.6,1.4c-0.3,0.5-0.5,1-0.8,1.5
		c-0.4-0.4-0.7-0.8-0.9-1.2c-0.2-0.5-0.1-0.9,0.1-1.3c0.3-0.4,0.6-0.7,0.9-1s0.6-0.5,0.8-0.7c0.2-0.1,0.4-0.2,0.5-0.2
		c0,0,0.1,0,0.1,0C412.7,21.7,412.8,21.8,412.8,22.1z M410.1,27.4c-0.3,0.3-0.5,0.6-0.8,0.9c-0.3,0.3-0.5,0.4-0.7,0.6
		c-0.2,0.1-0.4,0.2-0.6,0.1c-0.2,0-0.3-0.2-0.3-0.3c0-0.2,0-0.5,0.1-0.8c0.1-0.3,0.2-0.7,0.4-1.1c0.2-0.4,0.4-0.8,0.6-1.1
		C409,26.4,409.5,27,410.1,27.4z M434,35.1c0.2-0.5,0.5-1.1,1-1.8c0.5-0.7,1-1.4,1.6-2c0.6-0.6,1.2-1.1,1.7-1.5
		c0.4-0.3,0.8-0.4,1.1-0.4c0.1,0,0.2,0,0.2,0c0.1,0,0.2,0.1,0.3,0.3c0.1,0.2,0.1,0.4,0,0.7c-0.1,0.3-0.2,0.6-0.3,0.8
		c-0.2,0.3-0.5,0.7-1,1.3c-0.3,0.3-0.6,0.7-1,1c-0.4,0.3-0.8,0.7-1.1,1c-0.4,0.3-0.7,0.6-1.1,0.8c-0.3,0.2-0.6,0.4-0.9,0.4
		c-0.2,0.1-0.4,0.1-0.5,0C433.9,35.7,433.9,35.4,434,35.1z M456,42.8c0.2-0.5,0.6-1.1,1.1-1.8c0.5-0.7,1.1-1.3,1.7-1.9
		c0.6-0.6,1.2-1.1,1.8-1.4c0.4-0.2,0.8-0.4,1-0.4c0.1,0,0.2,0,0.3,0c0.1,0,0.2,0.1,0.3,0.3c0.1,0.2,0.1,0.4,0,0.7
		c-0.1,0.3-0.2,0.6-0.4,0.8c-0.2,0.2-0.5,0.7-1.1,1.3c-0.3,0.3-0.7,0.6-1.1,1c-0.4,0.3-0.8,0.6-1.2,0.9c-0.4,0.3-0.8,0.5-1.1,0.7
		s-0.6,0.3-0.9,0.4c-0.2,0.1-0.4,0-0.5-0.1C455.8,43.3,455.8,43.1,456,42.8z"/>
	<path class="st0" d="M450.6,28.9c0.1-0.2,0.2-0.3,0.4-0.4c0.2-0.1,0.4-0.1,0.6-0.1c0.2,0.1,0.4,0.2,0.7,0.3s0.5,0.3,0.7,0.6
		c0.3,0.2,0.5,0.4,0.8,0.6c0.3,0.2,0.5,0.3,0.8,0.4c0.2,0.1,0.4,0.1,0.6,0.1c0.1,0,0.2,0,0.3,0c0.2,0,0.8-0.2,1.4-1.1
		c0.1-0.1,0.2-0.3,0.3-0.5l0.1-0.2l-0.1,0.1c-0.3,0.3-0.6,0.4-0.9,0.5c-0.3,0-0.6,0-0.9-0.1c-0.3-0.1-0.6-0.3-0.9-0.5
		c-0.3-0.2-0.5-0.4-0.8-0.6c-0.3-0.2-0.5-0.4-0.8-0.6c-0.3-0.2-0.5-0.3-0.8-0.3c-0.2,0-0.4,0.1-0.6,0.2c-0.2,0.1-0.4,0.3-0.6,0.6
		c-0.2,0.2-0.3,0.4-0.4,0.6c-0.2,0.4-0.3,0.8-0.3,1l0,0.2l0.1-0.2C450.2,29.6,450.5,29.1,450.6,28.9z"/>
	<path class="st0" d="M276.8,35.6c0.2,0,0.4,0,0.5,0c1.2,0,1.9-0.5,2.1-0.7c0.4-0.3,0.7-0.8,1-1.3c0.3-0.5,0.5-1.1,0.7-1.6
		c0.1-0.2-0.4-0.9-1.1-1.8l0-0.1l0,0.1c-0.1,0.4-0.3,0.8-0.4,1.1c-0.2,0.6-0.5,1.2-0.8,1.8c-0.3,0.6-0.7,1-1.1,1.4
		c-0.4,0.4-1,0.7-1.6,0.8l-0.1,0l0.1,0C276.3,35.5,276.6,35.5,276.8,35.6z"/>
</g>
</svg>
