<svg id="Layer_1" data-name="Layer 1" xmlns="http://www.w3.org/2000/svg" viewBox="0 0 464 361"><defs><style>.cls-1{fill:#fff;}</style></defs><path class="cls-1" d="M96.59,111.71q4,1.4,8.51,2.81l2-3.6,1.84,1.23L100.63,127c.41,0,1.05,0,1.93-.08s1.55-.09,2-.09a26,26,0,0,1,13.86,3.86,13.88,13.88,0,0,1,6.84,11.93q.09,8.34-7.28,15.09-4.47,4.22-14.65,9.3l-10.44-4.3q-10.53,5.1-17.81,5.09a12.49,12.49,0,0,1-6.85-1.84,6.19,6.19,0,0,1-3.42-5.7,7.69,7.69,0,0,1,4-6.93A16.94,16.94,0,0,1,77,151.19c1.17,0,2.4,0,3.68.13s2.6.25,4,.48l2.19-4H83.7a20.19,20.19,0,0,1-10.53-2.72q-5.44-3.24-5.62-8.78t6.76-8.33q-.45-4.92,5-10.88c.64-.64,1.74-1.67,3.29-3.07s3.58-3.13,6.1-5.18C91.27,109.81,93.9,110.77,96.59,111.71ZM73.61,158a7.46,7.46,0,0,0-3.69.79A3.73,3.73,0,0,0,68.08,162c0,1.35.79,2.4,2.37,3.16a10.54,10.54,0,0,0,4.21.79,28.89,28.89,0,0,0,14.83-4.21A40.37,40.37,0,0,0,73.61,158Zm17.1-22.47c-1.22.06-2.72.15-4.47.27q-8.77.09-11.23-6.23-2.19,2.28-2.19,4.12.08,6.68,12.45,6.67c.24,0,.68,0,1.32,0l2.55-.13,1.84-.09,2.54-4.74C92.88,135.37,91.94,135.43,90.71,135.48ZM82.2,118.2a5.87,5.87,0,0,0-2.1,4.39q0,5.35,8.51,5.35c1.17,0,2.78-.09,4.82-.26l4.65-.44L101,122q-6.93-5.18-14.13-5.35A6.91,6.91,0,0,0,82.2,118.2Zm4.83,34c2.22.46,4.49,1,6.8,1.66s4.69,1.38,7.15,2.2q5.79-3.51,5.88-6.67a2.12,2.12,0,0,0-1.76-2.11,10.73,10.73,0,0,0-3.15-.35c-1.53,0-3.34.08-5.44.22s-4.51.37-7.2.66Zm6.76-12.38a71.8,71.8,0,0,1,9.65-.79q11.22,0,11.23,7.64.17,5-10.53,10.44l7.19,2.81q8-6.67,7.9-13.95-.18-11.51-15.09-11.5a41.45,41.45,0,0,0-7.9.62Z"/><path class="cls-1" d="M170.56,124.43l6.58,6.23-2.2,2.54v23.69a3.43,3.43,0,0,0,2.11,3.07l1.4-1.31,1.32,1.4-7.72,6.58q-5.45-2.28-5.44-9.39V133.12l-2.55-2.9Zm8.07-12.9-6.41,9.65h-.7l1.93-9.65Z"/><path class="cls-1" d="M273.65,124.43q5.09,2.46,5.09,7.19l8.16-7.19,5.7,6.76-5.79,5.35L282,131.1l-3.16,2.72v22.81l4.48,3.51,2.28-2,1.14,1.41-7.63,7.1a26.56,26.56,0,0,0-10.79-6.58,7.61,7.61,0,0,0,2.36-5.88V135.22a5.39,5.39,0,0,0-1.57-3.6l-1.5,1.23-1.31-1.31Z"/><path class="cls-1" d="M309.44,124.43l11,11.84q-3.42,2.64-7,5.53T306,147.86V157l6.67,3.16,5.35-3.77,1.23,1.31q-4.12,2.9-11.84,8.95a30.12,30.12,0,0,0-11.76-4.74c1.64-1.22,2.46-3.36,2.46-6.4v-24A48.22,48.22,0,0,0,309.44,124.43Zm-3.86,21.14,7.9-6.49-7.9-8.42Z"/><path class="cls-1" d="M335.24,124.43l8.69,6-3.69,5.71-7.19-4.92v25.18l6.84,3.51,3.6-2.89,1.14,1.32-10.27,8.33a20,20,0,0,0-11.67-6c1.64-1.28,2.46-3.45,2.46-6.49V131.45A25,25,0,0,0,335.24,124.43Z"/><path class="cls-1" d="M354.19,97.23a9.85,9.85,0,0,1,8.07-4.39l.18.36c-2.63,2.22-3.95,4.68-3.95,7.36v34.57L369,124.43l7.63,8.77-7.81,7.72a17.31,17.31,0,0,1,6,10l.7,4.56a10.65,10.65,0,0,0,1.67,4.12l1.31-1.22L379.9,160l-7.81,6.67q-3.69-2.81-4-8.68l-7.72,8.68a67,67,0,0,0-6.18-3.51,40.25,40.25,0,0,0-5.93-2.37q2.37-1.58,2.37-5.52V130.75h-4.3V126.1h4.3V100.21q0-2.62-3.07-5.44l.27-.35a10.18,10.18,0,0,1,5.44,2.81Zm4.3,40.8v10l11.23-10.88-5-5.61Zm0,12.72v6.93l4.65,2.64,4.39-5.18a10.69,10.69,0,0,0-4.57-8.78Z"/><path class="cls-1" d="M135.46,97.06h1a9.83,9.83,0,0,1,8.07-4.39l.17.35q-3.94,3.33-3.94,7.46V134l11.58-9.65a13.28,13.28,0,0,1,5.44,11.14v33q0,6.75-7,11.49a41,41,0,0,1-7,3.86,34.56,34.56,0,0,1-7.9,2.28l-.26-.88a40.12,40.12,0,0,0,9.56-4.91,10.7,10.7,0,0,0,4.74-8.95V135.84a4.88,4.88,0,0,0-2.81-4.57l-6.31,5.18v21.76l2.36,2.46-6.49,6L130.11,161l2.72-2.81V130.57h-4.3v-4.65h4.3V100q0-2.64-3.07-5.44l.26-.44A10.6,10.6,0,0,1,135.46,97.06Z"/><path class="cls-1" d="M391.93,164.7l-.93,1,1.51,1.72-3.24,4.67H198.74v-3.45H196V162.6a44.39,44.39,0,0,1,6.76,3.68A49.5,49.5,0,0,1,212.85,158V137a14.06,14.06,0,0,0-2.29-7.64,11.67,11.67,0,0,0-6.22-4.91,46.09,46.09,0,0,1-8.34,9,9.53,9.53,0,0,0-5.62-9l-7.28,7.19,1.23,1.41,2-1.76a4.39,4.39,0,0,1,1.75,3.86v21a39,39,0,0,0-4.47,1.23v3l1.67-.09a6.69,6.69,0,0,1,2.8.44v8h-3v3.45H169.82a8.51,8.51,0,0,1-7-3.23l-.22.07a9.81,9.81,0,0,0,3.6,6.83v.93a8.27,8.27,0,0,0-2.3,4.46l.28.21a6.13,6.13,0,0,1,4.6-2.51h16.4v4.27h3v29.21c0,2.58-1.17,5.06-3.51,7.46q2.73-.09,6.58-3.68c2.87,3.62,5.85,5.47,9,5.52q-4.12-5.34-4.12-9.3V183.13h2.74v-4.27H387a7.52,7.52,0,0,1,5.54,1.94A24,24,0,0,1,398,171ZM196,136.45l4.83-4.74a7.1,7.1,0,0,1,2.8,2.11,4.85,4.85,0,0,1,1.32,3.07v22.28q-2.19-1-4.43-1.71c-1.49-.49-3-.92-4.52-1.27Zm-4.24,43.29a19.24,19.24,0,0,1-3.87-4l4.29-4.09c.58.76,1.19,1.48,1.83,2.17s1.3,1.38,2,2.07Z"/><path class="cls-1" d="M245,141.11v15.7a31.12,31.12,0,0,0,4.12,1.75c1.52.53,3.19,1,5,1.49V136.36c0-1.4-.9-3.1-2.72-5.09l-3.48,2.82v7Z"/><path class="cls-1" d="M227.94,141.11v15.26q2.19,1,4.43,1.88t4.69,1.8v-23.6c0-1.7-1-3.42-2.89-5.18L230.88,134v7.1Z"/><path class="cls-1" d="M255.84,124.43l-8,6.76v2.9l3.48-2.82c1.82,2,2.72,3.69,2.72,5.09v23.69c-1.81-.47-3.48-1-5-1.49a31.12,31.12,0,0,1-4.12-1.75v-15.7h0v-7.42l-.16.13q.18-4.74-5.44-9.39l-8.46,7V134l3.29-2.74c1.93,1.76,2.89,3.48,2.89,5.18v23.6q-2.46-.87-4.69-1.8t-4.43-1.88V133.91a16.28,16.28,0,0,0-2.9-8.34c-1.81-2.63-2.78-4.44-2.89-5.44q0-2.37,3.51-5.61l-.71-1.14q-8.41,4.73-8.33,10.79a12.62,12.62,0,0,0,3.42,8.16v20.18c0,3.51-.85,6-2.54,7.37a41.81,41.81,0,0,1,14.91,6.75q4.4-3.42,7.9-3.33a11.78,11.78,0,0,1,4.82,1.14c.47.23,1.1.53,1.89.88s1.68.79,2.68,1.31a32.82,32.82,0,0,1,11.67-6.49V133.38Q261.37,129.87,255.84,124.43Z"/><path class="cls-1" d="M128.91,336.05v-.59l1.86.11h1.14c.32,0,.82,0,1.5-.05l.72,0a7.79,7.79,0,0,1,1.49.11,3,3,0,0,1,1.21.5,2.91,2.91,0,0,1,.78,1,2.72,2.72,0,0,1,.32,1.18,3,3,0,0,1-.86,2.21,2.92,2.92,0,0,1-2.16.85,3.43,3.43,0,0,1-.86-.11,2.76,2.76,0,0,1-.77-.33,3.42,3.42,0,0,1,0-.62l.34,0h.27a1.7,1.7,0,0,0,1.12-.37,1.87,1.87,0,0,0,.6-1.55,2.74,2.74,0,0,0-.26-1.26,1.54,1.54,0,0,0-.62-.66,2.75,2.75,0,0,0-1.13-.23,1.53,1.53,0,0,0-.83.17.62.62,0,0,0-.1.2l.06,3.68,0,.31,0,.33v3.21a6.81,6.81,0,0,0,0,.69l1.56.2a1.89,1.89,0,0,1,0,.29,2.86,2.86,0,0,1,0,.33l-.3,0c-.16,0-.46,0-.91-.06s-1-.05-1.53-.05a13.69,13.69,0,0,0-1.85.12,3.56,3.56,0,0,1-.47,0,2.75,2.75,0,0,1,0-.34s0-.12,0-.21l.48-.16a4.18,4.18,0,0,0,.85-.36,1.68,1.68,0,0,0,.07-.41c0-.06,0-.12,0-.18s0-.39,0-.68l0-2.2-.09-2.48c0-1.17-.06-1.81-.08-1.9a.78.78,0,0,0-.19-.36,1,1,0,0,0-.45-.18A6.08,6.08,0,0,1,128.91,336.05Z"/><path class="cls-1" d="M138.73,341.5a3.88,3.88,0,0,1,.36-.89,4.13,4.13,0,0,1,.94-1,2.86,2.86,0,0,1,.89-.47,3.17,3.17,0,0,1,.84-.15,4.91,4.91,0,0,1,1.19.11,2.36,2.36,0,0,1,.75.32,4.09,4.09,0,0,1,.71.62,2.76,2.76,0,0,1,.43.73,3.11,3.11,0,0,1,.18,1l-.86,0c-.24,0-.77,0-1.58-.07l-.63,0-.84,0h-.67a1.54,1.54,0,0,0,0,.19,4.56,4.56,0,0,0,.1.87,2.68,2.68,0,0,0,.31.81,2.22,2.22,0,0,0,.5.6,2.32,2.32,0,0,0,.62.36l.46.15a6,6,0,0,0,.8,0,3.44,3.44,0,0,0,.66-.2,4,4,0,0,0,.69-.41,4.3,4.3,0,0,1,.47.37,4.47,4.47,0,0,1-1.42,1.09,3.91,3.91,0,0,1-1.66.34,3.5,3.5,0,0,1-1-.11,2.83,2.83,0,0,1-.95-.43,2.93,2.93,0,0,1-.73-.72,3.33,3.33,0,0,1-.45-.88,3.28,3.28,0,0,1-.2-.95A6.46,6.46,0,0,1,138.73,341.5Zm4.54-.33a2.14,2.14,0,0,0-.17-.84,1.33,1.33,0,0,0-.51-.63,1.2,1.2,0,0,0-1.64.24,2,2,0,0,0-.47,1.25l1.78,0,.48,0,.32,0Z"/><path class="cls-1" d="M145.88,345.25a1.65,1.65,0,0,1,.38-.12,2.3,2.3,0,0,0,.5-.12.34.34,0,0,0,.15-.17,2.62,2.62,0,0,0,.05-.69v-1.24l0-.82v-.49a3.56,3.56,0,0,0-.08-.81.46.46,0,0,0-.2-.23,2.32,2.32,0,0,0-.74-.31v-.37l.19-.05a4.77,4.77,0,0,0,.62-.15,3.71,3.71,0,0,0,.56-.22l.12-.07.21-.15a3,3,0,0,0,.57-.57l.42,0,0,.88a1.79,1.79,0,0,0,0,.21s0,.16,0,.36a4.4,4.4,0,0,1,1.18-.78,3.29,3.29,0,0,1,1.32-.29,2.32,2.32,0,0,1,1.29.36,1.67,1.67,0,0,1,.72.84,6.69,6.69,0,0,1,.17,1.93l0,2.55a.67.67,0,0,0,.06.3,1.87,1.87,0,0,0,.43.11l.39.07a.49.49,0,0,1,.07.25c0,.06,0,.14,0,.25l-1.53-.11-.45,0h-.36l-1,.07h-.26a1,1,0,0,1,0-.15c0-.09,0-.19,0-.3l.54-.08a1.32,1.32,0,0,0,.26-.05c.11,0,.17-.08.18-.13a1.34,1.34,0,0,0,.06-.5v-1.92a5.89,5.89,0,0,0-.21-2.06.93.93,0,0,0-.88-.58,2.06,2.06,0,0,0-.91.22,4.35,4.35,0,0,0-1,.67v1.15l0,1.25,0,.2a4.74,4.74,0,0,0,.11,1.44,1.61,1.61,0,0,0,.78.36c0,.09,0,.16,0,.2a1.58,1.58,0,0,1-.05.29h-.41a3.21,3.21,0,0,1-.52-.05l-.84,0c-.41,0-1,0-1.8.06a.3.3,0,0,1,0-.16Zm6.34-9.41h.45a2.23,2.23,0,0,1-.48,1.52,1.47,1.47,0,0,1-1.15.53,2.72,2.72,0,0,1-.63-.08,6.72,6.72,0,0,1-.8-.29,5.84,5.84,0,0,0-.66-.26,1.12,1.12,0,0,0-.32,0,.6.6,0,0,0-.42.13,1.08,1.08,0,0,0-.26.53h-.46a1.88,1.88,0,0,0,0-.29,1.8,1.8,0,0,1,.5-1.25,1.47,1.47,0,0,1,1.09-.51,2.8,2.8,0,0,1,.59.07,7,7,0,0,1,.82.3l.7.27a1.84,1.84,0,0,0,.39,0,.55.55,0,0,0,.38-.13A1.17,1.17,0,0,0,152.22,335.84Z"/><path class="cls-1" d="M161.62,344.17l.18.12a.22.22,0,0,1,.09.13v0a1.94,1.94,0,0,1-.49,1,1.12,1.12,0,0,1-.76.26,1.24,1.24,0,0,1-.79-.25,2.11,2.11,0,0,1-.61-.9,2.12,2.12,0,0,1-.95.9,3.32,3.32,0,0,1-1.49.3,1.73,1.73,0,0,1-1.19-.34,1.14,1.14,0,0,1-.39-.9,1.27,1.27,0,0,1,.12-.52,1.66,1.66,0,0,1,.36-.53,4,4,0,0,1,.82-.57l.59-.27,1.95-.78c0-.2,0-.4,0-.6a2.86,2.86,0,0,0-.25-1.44.63.63,0,0,0-.55-.23,1.72,1.72,0,0,0-.72.15,1,1,0,0,0-.48.38,1.93,1.93,0,0,0-.18.65,1,1,0,0,1-.11.4,1,1,0,0,1-.42.27l-.42.17a1.61,1.61,0,0,1-.67.21.37.37,0,0,1-.11-.27,1.47,1.47,0,0,1,.19-.77,3.25,3.25,0,0,1,.84-.87,3.89,3.89,0,0,1,1.06-.6,5.25,5.25,0,0,1,1.64-.22,2.39,2.39,0,0,1,1.08.23,1.21,1.21,0,0,1,.62.68,5.09,5.09,0,0,1,.18,1.64l0,1.29,0,.94v.24a.8.8,0,0,0,.09.45.26.26,0,0,0,.22.12.24.24,0,0,0,.15,0l.23-.37Zm-2.56-1.81a5.15,5.15,0,0,0-1,.5,2.37,2.37,0,0,0-.78.7,1.23,1.23,0,0,0-.16.63.75.75,0,0,0,.21.55.6.6,0,0,0,.47.22,1.11,1.11,0,0,0,.74-.25,1.49,1.49,0,0,0,.48-.53,4.79,4.79,0,0,0,.07-1.13Q159.09,342.71,159.06,342.36Z"/><path class="cls-1" d="M162.12,345.29a.92.92,0,0,1,.45-.15c.36,0,.57-.09.62-.16a1.44,1.44,0,0,0,.16-.83v-4.3l0-1.8v-.31a3.17,3.17,0,0,0-.1-.95,1.14,1.14,0,0,0-.59-.16,2,2,0,0,1-.36,0c0-.13,0-.23,0-.29a.36.36,0,0,1,0-.14,5.26,5.26,0,0,0,1.27-.32,4,4,0,0,0,1-.5H165c0,1.8,0,3,0,3.7,0,.2,0,.36,0,.48v3.65l0,1.14v.18a.8.8,0,0,0,.11.48.61.61,0,0,0,.39.13l.65.07a1.76,1.76,0,0,1,0,.27c0,.05,0,.12,0,.22l-.62,0q-.51,0-1.29,0H164c-.3,0-.73,0-1.29.07h-.57Z"/><path class="cls-1" d="M173,340a3.21,3.21,0,0,1,.75,1.11,3.31,3.31,0,0,1,.24,1.18,3.83,3.83,0,0,1-.32,1.69,3.25,3.25,0,0,1-1.3,1.43,3.83,3.83,0,0,1-1.91.46,3.75,3.75,0,0,1-2.07-.54,3.33,3.33,0,0,1-1.21-1.25,3.59,3.59,0,0,1-.37-1.72,3.49,3.49,0,0,1,.17-1.05,3.08,3.08,0,0,1,.48-.92,3.33,3.33,0,0,1,1.71-1.19,4.34,4.34,0,0,1,1.28-.16A3.35,3.35,0,0,1,173,340Zm-4.27,2.7c0,.64.08,1,.1,1.12a2.81,2.81,0,0,0,.32.9,1.32,1.32,0,0,0,.49.43,1.74,1.74,0,0,0,.82.18,1.36,1.36,0,0,0,1-.36,2.11,2.11,0,0,0,.56-1.14,8.23,8.23,0,0,0,.11-1.66,3.26,3.26,0,0,0-.47-2,1.5,1.5,0,0,0-1.23-.59,1.48,1.48,0,0,0-1,.34,1.83,1.83,0,0,0-.55,1A11.41,11.41,0,0,0,168.73,342.65Z"/><path class="cls-1" d="M174.62,345.29a.92.92,0,0,1,.45-.15c.36,0,.57-.09.62-.16a1.44,1.44,0,0,0,.16-.83v-4.3l0-1.8v-.31a3.17,3.17,0,0,0-.1-.95,1.14,1.14,0,0,0-.59-.16,2,2,0,0,1-.36,0c0-.13,0-.23,0-.29a.36.36,0,0,1,0-.14,5.26,5.26,0,0,0,1.27-.32,4,4,0,0,0,1-.5h.42c0,1.8,0,3,0,3.7,0,.2,0,.36,0,.48v3.65l0,1.14v.18a.8.8,0,0,0,.11.48.61.61,0,0,0,.39.13l.65.07a1.76,1.76,0,0,1,0,.27c0,.05,0,.12,0,.22l-.62,0q-.51,0-1.29,0h-.29c-.3,0-.73,0-1.29.07h-.57Z"/><path class="cls-1" d="M179.4,341.5a3.13,3.13,0,0,1,.36-.89,4.11,4.11,0,0,1,.93-1,2.79,2.79,0,0,1,.9-.47,3.11,3.11,0,0,1,.83-.15,4.86,4.86,0,0,1,1.19.11,2.52,2.52,0,0,1,.76.32,4,4,0,0,1,.7.62,2.51,2.51,0,0,1,.43.73,2.87,2.87,0,0,1,.19,1l-.87,0c-.24,0-.77,0-1.58-.07l-.62,0-.85,0h-.67a1.34,1.34,0,0,0,0,.19,3.87,3.87,0,0,0,.1.87,2.67,2.67,0,0,0,.3.81,2.26,2.26,0,0,0,.51.6,2.18,2.18,0,0,0,.62.36l.45.15a6.31,6.31,0,0,0,.81,0,3.94,3.94,0,0,0,.66-.2,4.36,4.36,0,0,0,.69-.41c.18.13.34.26.47.37a4.5,4.5,0,0,1-1.43,1.09,3.84,3.84,0,0,1-1.65.34,3.57,3.57,0,0,1-1-.11,2.92,2.92,0,0,1-1-.43,2.74,2.74,0,0,1-.72-.72,3.1,3.1,0,0,1-.46-.88,3.21,3.21,0,0,1-.19-.95A6.46,6.46,0,0,1,179.4,341.5Zm4.54-.33a2.33,2.33,0,0,0-.17-.84,1.33,1.33,0,0,0-.51-.63,1.25,1.25,0,0,0-.7-.22,1.24,1.24,0,0,0-.94.46,2,2,0,0,0-.48,1.25l1.78,0,.49,0,.32,0Zm-2.28-3c.16-.58.42-1.41.79-2.51l2.14,0-2.35,2.5h-.34Z"/><path class="cls-1" d="M186.55,345.25a1.58,1.58,0,0,1,.37-.12,2,2,0,0,0,.5-.12.42.42,0,0,0,.16-.17,3.4,3.4,0,0,0,0-.69v-1.24l0-.82v-.49a3.56,3.56,0,0,0-.08-.81.43.43,0,0,0-.19-.23,2.51,2.51,0,0,0-.75-.31v-.37l.18-.05a5.14,5.14,0,0,0,.63-.15,3.92,3.92,0,0,0,.55-.22l.13-.07.21-.15a3,3,0,0,0,.56-.57l.42,0v.88c0,.09,0,.16,0,.21s0,.16,0,.36a4.12,4.12,0,0,1,1.18-.78,3.28,3.28,0,0,1,1.31-.29,2.32,2.32,0,0,1,1.29.36,1.75,1.75,0,0,1,.73.84,7.09,7.09,0,0,1,.17,1.93l0,2.55a.67.67,0,0,0,.06.3,1.59,1.59,0,0,0,.43.11l.38.07a.41.41,0,0,1,.07.25c0,.06,0,.14,0,.25l-1.53-.11-.45,0h-.36l-1,.07h-.27v-.15c0-.09,0-.19,0-.3l.55-.08a1.47,1.47,0,0,0,.26-.05c.1,0,.16-.08.18-.13a1.34,1.34,0,0,0,.06-.5c0-.44,0-.78,0-1v-.91a5.89,5.89,0,0,0-.21-2.06,1,1,0,0,0-.89-.58,2.13,2.13,0,0,0-.91.22,4.1,4.1,0,0,0-1,.67l0,.14,0,.49,0,.52,0,1.25v.2a4.93,4.93,0,0,0,.1,1.44,1.61,1.61,0,0,0,.78.36,1.06,1.06,0,0,1,0,.2,1.13,1.13,0,0,1-.06.29h-.41a3,3,0,0,1-.51-.05l-.84,0c-.42,0-1,0-1.81.06a.45.45,0,0,1,0-.16S186.54,345.37,186.55,345.25Z"/><path class="cls-1" d="M199.66,341.67h3.71a3.38,3.38,0,0,1,.47,0c0,.25,0,.43,0,.55v.13l0,.41a1.55,1.55,0,0,0,0,.23v.14h-4.24v-.35c0-.12,0-.27,0-.43a1.53,1.53,0,0,0,0-.18v-.39Z"/><path class="cls-1" d="M218,335.69a13,13,0,0,1,.41,1.34,3.62,3.62,0,0,1,.15,1.06h-.71a5.08,5.08,0,0,0-1.55-1.53,3.45,3.45,0,0,0-1.78-.46,2.36,2.36,0,0,0-2,.94,5.68,5.68,0,0,0-1,3.57,7.41,7.41,0,0,0,.17,1.89,4.81,4.81,0,0,0,.72,1.49,2.17,2.17,0,0,0,.85.7,3.25,3.25,0,0,0,1.47.35,3,3,0,0,0,1.66-.53,6,6,0,0,0,1.54-1.59,4.58,4.58,0,0,1,.76-.07,4.76,4.76,0,0,1-.11.62c0,.08-.07.41-.17,1l-.07.23-.11.37a3.4,3.4,0,0,1-1.34.55,10.71,10.71,0,0,1-2.13.18,8.75,8.75,0,0,1-1.81-.18,4.42,4.42,0,0,1-1.47-.57,5.32,5.32,0,0,1-1.4-1.22,4.77,4.77,0,0,1-.75-1.43,5.78,5.78,0,0,1-.25-1.73,5.22,5.22,0,0,1,1.54-3.85,5.34,5.34,0,0,1,3.92-1.51,15,15,0,0,1,1.82.1A10.84,10.84,0,0,1,218,335.69Z"/><path class="cls-1" d="M219.53,345.15l.7-.09a.51.51,0,0,0,.31-.11,1.24,1.24,0,0,0,.08-.56v-.55l0-.59v-1.19l0-.13,0-2.83v-.22a11.86,11.86,0,0,0-.08-1.8.52.52,0,0,0-.22-.32,2.59,2.59,0,0,0-.83-.22v-.16c0-.08,0-.18,0-.29l.66-.14.37-.1a5.76,5.76,0,0,0,1.11-.39l.22-.11.42,0,0,4.67a5.52,5.52,0,0,1,1.3-.8,3.35,3.35,0,0,1,1.22-.23,2.44,2.44,0,0,1,1,.21,2,2,0,0,1,.68.53,2.08,2.08,0,0,1,.34.77,6.15,6.15,0,0,1,.07,1.18v1.6l0,1.59c0,.05,0,.08.07.09a2.14,2.14,0,0,0,.46.11l.33.07a.45.45,0,0,1,.06.19v.06a.9.9,0,0,0,0,.26h-.18l-.46,0c-.44,0-.81-.06-1.1-.06l-.78,0h-.87a.41.41,0,0,1-.16,0v-.29a.45.45,0,0,1,0-.17,1,1,0,0,1,.41-.11l.45-.06c0-.1,0-.16,0-.19l0-1.14v-1.92a4.8,4.8,0,0,0-.09-1.15,1,1,0,0,0-.39-.49,1.29,1.29,0,0,0-.72-.19,2.19,2.19,0,0,0-1,.23,3.06,3.06,0,0,0-.79.54v1.37c0,.75,0,1.31,0,1.69,0,.22,0,.36,0,.42a2.46,2.46,0,0,0,.07.74.35.35,0,0,0,.17.17l.48,0a.9.9,0,0,1,.31,0c0,.12,0,.21,0,.26a1.48,1.48,0,0,1,0,.27l-.87,0-.88,0-1.1,0h-.76a1.22,1.22,0,0,1-.17-.39Z"/><path class="cls-1" d="M235.3,344.17l.18.12a.26.26,0,0,1,.08.13v0a1.86,1.86,0,0,1-.49,1,1.1,1.1,0,0,1-.76.26,1.24,1.24,0,0,1-.79-.25,2.2,2.2,0,0,1-.61-.9,2.15,2.15,0,0,1-.94.9,3.4,3.4,0,0,1-1.5.3,1.73,1.73,0,0,1-1.19-.34,1.14,1.14,0,0,1-.38-.9A1.25,1.25,0,0,1,229,344a1.71,1.71,0,0,1,.37-.53,3.91,3.91,0,0,1,.81-.57l.6-.27,1.94-.78q0-.3,0-.6a2.83,2.83,0,0,0-.26-1.44.63.63,0,0,0-.55-.23,1.72,1.72,0,0,0-.72.15,1,1,0,0,0-.47.38,1.68,1.68,0,0,0-.19.65,1.39,1.39,0,0,1-.1.4,1,1,0,0,1-.43.27l-.42.17a1.61,1.61,0,0,1-.67.21.37.37,0,0,1-.11-.27,1.47,1.47,0,0,1,.19-.77,3.3,3.3,0,0,1,.85-.87,3.62,3.62,0,0,1,1.06-.6,5.16,5.16,0,0,1,1.64-.22,2.38,2.38,0,0,1,1.07.23,1.27,1.27,0,0,1,.63.68,5.48,5.48,0,0,1,.17,1.64v2.47a.8.8,0,0,0,.09.45.27.27,0,0,0,.23.12.23.23,0,0,0,.14,0l.24-.37Zm-2.57-1.81a5.15,5.15,0,0,0-1,.5,2.37,2.37,0,0,0-.78.7,1.22,1.22,0,0,0-.15.63.75.75,0,0,0,.2.55.6.6,0,0,0,.47.22,1.11,1.11,0,0,0,.74-.25,1.55,1.55,0,0,0,.49-.53,5.47,5.47,0,0,0,.07-1.13C232.77,342.82,232.75,342.59,232.73,342.36Z"/><path class="cls-1" d="M236.05,345.25a1.65,1.65,0,0,1,.38-.12,2.13,2.13,0,0,0,.5-.12.42.42,0,0,0,.16-.17,3.4,3.4,0,0,0,0-.69v-1.24l0-.82v-.49a3.56,3.56,0,0,0-.08-.81.46.46,0,0,0-.2-.23,2.32,2.32,0,0,0-.74-.31v-.37l.19-.05a5.14,5.14,0,0,0,.63-.15,3.92,3.92,0,0,0,.55-.22l.13-.07.21-.15a3.35,3.35,0,0,0,.56-.57l.42,0v.88a.9.9,0,0,0,0,.21,3.47,3.47,0,0,0,0,.36,4.23,4.23,0,0,1,1.17-.78,3.36,3.36,0,0,1,1.32-.29,2.32,2.32,0,0,1,1.29.36,1.67,1.67,0,0,1,.72.84,6.58,6.58,0,0,1,.18,1.93l0,2.55a.56.56,0,0,0,.07.3,1.59,1.59,0,0,0,.43.11l.38.07a.41.41,0,0,1,.07.25c0,.06,0,.14,0,.25l-1.53-.11-.45,0H242l-1,.07h-.27c0-.07,0-.12,0-.15s0-.19,0-.3l.55-.08a1.38,1.38,0,0,0,.25-.05c.11,0,.17-.08.18-.13a1.28,1.28,0,0,0,.07-.5c0-.44,0-.78,0-1v-.91a5.56,5.56,0,0,0-.22-2.06.93.93,0,0,0-.88-.58,2.09,2.09,0,0,0-.91.22,4.1,4.1,0,0,0-1,.67l0,.14,0,.49,0,.52,0,1.25v.2a4.93,4.93,0,0,0,.1,1.44,1.61,1.61,0,0,0,.78.36.87.87,0,0,1,0,.2,1.58,1.58,0,0,1,0,.29h-.41a3.21,3.21,0,0,1-.52-.05l-.83,0c-.42,0-1,0-1.81.06a.45.45,0,0,1,0-.16Zm6.34-9.41h.45a2.18,2.18,0,0,1-.48,1.52,1.47,1.47,0,0,1-1.15.53,2.57,2.57,0,0,1-.62-.08,6.13,6.13,0,0,1-.8-.29,6.42,6.42,0,0,0-.67-.26,1.12,1.12,0,0,0-.32,0,.6.6,0,0,0-.42.13,1.08,1.08,0,0,0-.26.53h-.46a1.88,1.88,0,0,0,0-.29,1.8,1.8,0,0,1,.5-1.25,1.48,1.48,0,0,1,1.1-.51,2.79,2.79,0,0,1,.58.07,7.67,7.67,0,0,1,.83.3l.69.27a1.84,1.84,0,0,0,.39,0,.55.55,0,0,0,.38-.13A1.17,1.17,0,0,0,242.39,335.84Z"/><path class="cls-1" d="M251.8,344.17l.18.12a.26.26,0,0,1,.08.13v0a1.86,1.86,0,0,1-.49,1,1.1,1.1,0,0,1-.76.26,1.24,1.24,0,0,1-.79-.25,2.2,2.2,0,0,1-.61-.9,2.15,2.15,0,0,1-.94.9,3.4,3.4,0,0,1-1.5.3,1.73,1.73,0,0,1-1.19-.34,1.14,1.14,0,0,1-.38-.9,1.25,1.25,0,0,1,.11-.52,1.71,1.71,0,0,1,.37-.53,3.91,3.91,0,0,1,.81-.57l.6-.27,1.94-.78q0-.3,0-.6a2.83,2.83,0,0,0-.26-1.44.63.63,0,0,0-.55-.23,1.72,1.72,0,0,0-.72.15,1,1,0,0,0-.47.38,1.68,1.68,0,0,0-.19.65,1.39,1.39,0,0,1-.1.4,1,1,0,0,1-.43.27l-.42.17a1.61,1.61,0,0,1-.67.21.37.37,0,0,1-.11-.27,1.47,1.47,0,0,1,.19-.77,3.3,3.3,0,0,1,.85-.87,3.62,3.62,0,0,1,1.06-.6,5.16,5.16,0,0,1,1.64-.22,2.38,2.38,0,0,1,1.07.23,1.27,1.27,0,0,1,.63.68,5.48,5.48,0,0,1,.17,1.64v2.47a.8.8,0,0,0,.09.45.27.27,0,0,0,.23.12.23.23,0,0,0,.14,0l.24-.37Zm-2.57-1.81a5.15,5.15,0,0,0-1,.5,2.37,2.37,0,0,0-.78.7,1.22,1.22,0,0,0-.15.63.75.75,0,0,0,.2.55.6.6,0,0,0,.47.22,1.11,1.11,0,0,0,.74-.25,1.55,1.55,0,0,0,.49-.53,5.47,5.47,0,0,0,.07-1.13C249.27,342.82,249.25,342.59,249.23,342.36Z"/><path class="cls-1" d="M252.54,345.25a.71.71,0,0,1,.26-.13,2.39,2.39,0,0,0,.76-.31,5.78,5.78,0,0,0,.07-1.27c0-1.31,0-2.2-.08-2.66a.34.34,0,0,0-.13-.22,2.17,2.17,0,0,0-.53-.18.24.24,0,0,1-.19-.17l0-.29a2.49,2.49,0,0,0,1-.4,2.76,2.76,0,0,0,.7-.64,1.78,1.78,0,0,1,.22-.27l.55,0a1.89,1.89,0,0,1,0,.3v.21c0,.18,0,.33,0,.45s0,.27,0,.65a8,8,0,0,1,.47-.74,4.88,4.88,0,0,1,.41-.38,1.06,1.06,0,0,1,1.32.09.86.86,0,0,1,.3.65,1,1,0,0,1-.23.66.74.74,0,0,1-.61.29,1.14,1.14,0,0,1-.7-.28.64.64,0,0,0-.35-.17h-.06a.62.62,0,0,0-.3.3,1.69,1.69,0,0,0-.21.81v.21c0,.38,0,1.28.05,2.7a.79.79,0,0,0,.15.39,1,1,0,0,0,.28.16,2.94,2.94,0,0,0,.51.07,1.19,1.19,0,0,1,.43.1.29.29,0,0,1,.08.22.56.56,0,0,1,0,.23H256l-1.49-.07c-.38,0-.72,0-1,0h-.13l-.81,0a.83.83,0,0,1,0-.2A.69.69,0,0,1,252.54,345.25Z"/><path class="cls-1" d="M265,344.17l.18.12a.22.22,0,0,1,.09.13v0a1.79,1.79,0,0,1-.49,1,1.08,1.08,0,0,1-.76.26,1.26,1.26,0,0,1-.79-.25,2.19,2.19,0,0,1-.6-.9,2.17,2.17,0,0,1-.95.9,3.35,3.35,0,0,1-1.49.3,1.77,1.77,0,0,1-1.2-.34,1.17,1.17,0,0,1-.38-.9,1.43,1.43,0,0,1,.11-.52,1.89,1.89,0,0,1,.37-.53,3.76,3.76,0,0,1,.82-.57l.59-.27,2-.78c0-.2,0-.4,0-.6a2.83,2.83,0,0,0-.26-1.44.62.62,0,0,0-.55-.23,1.64,1.64,0,0,0-.71.15,1,1,0,0,0-.48.38,1.88,1.88,0,0,0-.19.65,1.1,1.1,0,0,1-.1.4,1,1,0,0,1-.43.27l-.41.17a1.65,1.65,0,0,1-.68.21.36.36,0,0,1-.1-.27,1.57,1.57,0,0,1,.18-.77,3.3,3.3,0,0,1,.85-.87,3.75,3.75,0,0,1,1.06-.6,5.21,5.21,0,0,1,1.64-.22,2.35,2.35,0,0,1,1.07.23,1.27,1.27,0,0,1,.63.68,5.16,5.16,0,0,1,.17,1.64v2.47a.8.8,0,0,0,.09.45.28.28,0,0,0,.23.12.26.26,0,0,0,.15,0l.23-.37Zm-2.56-1.81a5.2,5.2,0,0,0-1,.5,2.23,2.23,0,0,0-.77.7,1.14,1.14,0,0,0-.16.63.79.79,0,0,0,.2.55.63.63,0,0,0,.47.22,1.15,1.15,0,0,0,.75-.25,1.6,1.6,0,0,0,.48-.53,4.79,4.79,0,0,0,.07-1.13Q262.43,342.71,262.4,342.36Z"/><path class="cls-1" d="M265.45,345.29a1,1,0,0,1,.46-.15c.36,0,.57-.09.62-.16a1.53,1.53,0,0,0,.16-.83V342l0-.52v-3.69a3.1,3.1,0,0,0-.11-.95,1.11,1.11,0,0,0-.59-.16,2,2,0,0,1-.35,0,1.8,1.8,0,0,1,0-.29.71.71,0,0,1,0-.14,5.33,5.33,0,0,0,1.28-.32,4.1,4.1,0,0,0,1-.5h.42c0,1.8.05,3,.05,3.7,0,.2,0,.36,0,.48v0l0,.15v3.46l0,1.14v.18a.82.82,0,0,0,.1.48.66.66,0,0,0,.4.13l.64.07a1,1,0,0,1,0,.27,2,2,0,0,1,0,.22l-.62,0c-.34,0-.78,0-1.3,0h-.29c-.29,0-.72,0-1.29.07h-.57Z"/><path class="cls-1" d="M275.62,339.65a3.07,3.07,0,0,1,.74-.38,4.63,4.63,0,0,1,1-.18h.43a2.69,2.69,0,0,1,1.64.58V339l0-.83a4,4,0,0,0-.21-1.67.43.43,0,0,0-.41-.23,1.21,1.21,0,0,1-.47-.1v-.38a1.35,1.35,0,0,1,.38-.05,4.79,4.79,0,0,0,.92-.16l.26-.05.78-.18.29-.06.12,0a1.13,1.13,0,0,1,.05.24v.26c0,.14,0,.53,0,1.16v1l0,.81,0,.48c0,.21,0,.54,0,1v.68a2.26,2.26,0,0,0,0,.33v.6c0,.15,0,.36,0,.62s0,.52,0,.74a1.93,1.93,0,0,1,0,.24V344c0,.19,0,.41,0,.68a2.37,2.37,0,0,0,.69.12l.31,0a1.2,1.2,0,0,1,0,.17.57.57,0,0,1-.06.21,6.66,6.66,0,0,1-.67.12,4.81,4.81,0,0,0-1.52.37.74.74,0,0,1-.31.13l-.19,0v-.18a5.22,5.22,0,0,0,0-.68l-.29.16a4.11,4.11,0,0,1-.95.44,3.73,3.73,0,0,1-1,.12,2.9,2.9,0,0,1-1.57-.37,3,3,0,0,1-1.2-1.31,4.2,4.2,0,0,1-.33-1.68A3.34,3.34,0,0,1,275.62,339.65Zm2.41,5.16a1.47,1.47,0,0,0,.28,0,1.63,1.63,0,0,0,.55-.11,2.76,2.76,0,0,0,.62-.31c0-.17,0-.28,0-.32,0-1.65,0-2.65-.07-3a1.59,1.59,0,0,0-.51-1,1.52,1.52,0,0,0-1-.37,1.78,1.78,0,0,0-.65.12,1.34,1.34,0,0,0-.5.36,2.32,2.32,0,0,0-.44.78,3.52,3.52,0,0,0-.2,1.14,3.12,3.12,0,0,0,.53,2A2,2,0,0,0,278,344.81Z"/><path class="cls-1" d="M283.07,341.5a3.88,3.88,0,0,1,.36-.89,4.11,4.11,0,0,1,.93-1,2.79,2.79,0,0,1,.9-.47,3.11,3.11,0,0,1,.83-.15,4.86,4.86,0,0,1,1.19.11,2.42,2.42,0,0,1,.76.32,4,4,0,0,1,.7.62,2.78,2.78,0,0,1,.44.73,3.11,3.11,0,0,1,.18,1l-.87,0c-.24,0-.76,0-1.58-.07l-.62,0-.84,0h-.68a1.34,1.34,0,0,0,0,.19,3.87,3.87,0,0,0,.1.87,3,3,0,0,0,.3.81,2.46,2.46,0,0,0,.51.6,2.32,2.32,0,0,0,.62.36l.45.15a6.31,6.31,0,0,0,.81,0,3.44,3.44,0,0,0,.66-.2,4,4,0,0,0,.69-.41,5.55,5.55,0,0,1,.47.37,4.5,4.5,0,0,1-1.43,1.09,3.84,3.84,0,0,1-1.65.34,3.57,3.57,0,0,1-1-.11,2.78,2.78,0,0,1-.94-.43,2.63,2.63,0,0,1-.73-.72,3.06,3.06,0,0,1-.45-.88,3.28,3.28,0,0,1-.2-.95A6.46,6.46,0,0,1,283.07,341.5Zm4.54-.33a2.33,2.33,0,0,0-.17-.84,1.33,1.33,0,0,0-.51-.63,1.25,1.25,0,0,0-.7-.22,1.24,1.24,0,0,0-.94.46,2,2,0,0,0-.48,1.25l1.78,0,.49,0,.32,0Z"/><path class="cls-1" d="M293.7,345.64v-.54a4.24,4.24,0,0,1,.52-.11,2.53,2.53,0,0,0,.73-.21,1.4,1.4,0,0,0,.32-.46l1.58-4.13,1.85-4.85h.85l.07.14L301,338.7c.3.68.58,1.34.82,2s.46,1.16.64,1.57l.43,1.1a9.26,9.26,0,0,0,.42,1,1.2,1.2,0,0,0,.24.38.91.91,0,0,0,.46.16,3.45,3.45,0,0,1,.68.18,2.31,2.31,0,0,1,0,.38,1.36,1.36,0,0,1,0,.18c-.38,0-.81,0-1.27-.06s-.88-.05-1.25-.05h-.89l-1.33.07-.38,0a4.52,4.52,0,0,1,0-.53l.87-.18a1.49,1.49,0,0,0,.45-.16.25.25,0,0,0,.08-.18.78.78,0,0,0,0-.21l-.31-.77-.62-1.53h-3c-.11.25-.34.87-.68,1.84a2.1,2.1,0,0,0-.15.56.33.33,0,0,0,.11.29,1.35,1.35,0,0,0,.68.21l.56.09c0,.19,0,.32,0,.39a1.1,1.1,0,0,1,0,.18c-.32,0-1.09,0-2.31-.13l-.32.05a7.36,7.36,0,0,1-1.1.1Zm3.67-4.4,2.15,0h.2c-.16-.46-.36-1-.61-1.62s-.45-1.09-.61-1.41Z"/><path class="cls-1" d="M311.09,343.6l.18.1a.77.77,0,0,1,.29.19,2.43,2.43,0,0,1-1,1.35,3.5,3.5,0,0,1-2.06.57,3.83,3.83,0,0,1-1.54-.32,3.21,3.21,0,0,1-1.22-.87,2.67,2.67,0,0,1-.53-1,3.6,3.6,0,0,1-.17-1,3.75,3.75,0,0,1,.21-1.15,3.48,3.48,0,0,1,.74-1.22,3.6,3.6,0,0,1,1.3-.9A4.33,4.33,0,0,1,309,339a3.12,3.12,0,0,1,1.88.42,1.13,1.13,0,0,1,.53.85,1,1,0,0,1-.21.65.76.76,0,0,1-.59.24.93.93,0,0,1-.59-.21,1.55,1.55,0,0,1-.45-.71,1.13,1.13,0,0,0-.36-.53.91.91,0,0,0-.52-.15,1.79,1.79,0,0,0-1.32.62,2.48,2.48,0,0,0-.57,1.72,2.93,2.93,0,0,0,.7,2.07,2.12,2.12,0,0,0,1.61.77,2.41,2.41,0,0,0,.76-.1,3.19,3.19,0,0,0,.53-.3,4.22,4.22,0,0,0,.32-.34Z"/><path class="cls-1" d="M312.57,341.5a3.88,3.88,0,0,1,.36-.89,4.11,4.11,0,0,1,.93-1,2.79,2.79,0,0,1,.9-.47,3.11,3.11,0,0,1,.83-.15,4.86,4.86,0,0,1,1.19.11,2.42,2.42,0,0,1,.76.32,4,4,0,0,1,.7.62,2.78,2.78,0,0,1,.44.73,3.11,3.11,0,0,1,.18,1l-.87,0c-.24,0-.76,0-1.58-.07l-.62,0-.84,0h-.68a1.34,1.34,0,0,0,0,.19,3.87,3.87,0,0,0,.1.87,3,3,0,0,0,.3.81,2.46,2.46,0,0,0,.51.6,2.32,2.32,0,0,0,.62.36l.45.15a6.31,6.31,0,0,0,.81,0,3.44,3.44,0,0,0,.66-.2,4,4,0,0,0,.69-.41,5.55,5.55,0,0,1,.47.37,4.5,4.5,0,0,1-1.43,1.09,3.84,3.84,0,0,1-1.65.34,3.57,3.57,0,0,1-1-.11,2.78,2.78,0,0,1-.94-.43,2.63,2.63,0,0,1-.73-.72,3.06,3.06,0,0,1-.45-.88,3.28,3.28,0,0,1-.2-.95A6.46,6.46,0,0,1,312.57,341.5Zm4.54-.33a2.33,2.33,0,0,0-.17-.84,1.33,1.33,0,0,0-.51-.63,1.25,1.25,0,0,0-.7-.22,1.24,1.24,0,0,0-.94.46,2,2,0,0,0-.48,1.25l1.78,0,.49,0,.32,0Z"/><path class="cls-1" d="M319.65,345.64l0-.5.89-.12a.5.5,0,0,0,.27-.16,1.1,1.1,0,0,0,.07-.47v-.09c0-.06,0-.18,0-.34s0-.31,0-.43,0-.29,0-.57v-.76l0-1.28a2.23,2.23,0,0,0-.05-.5.72.72,0,0,0-.31-.2,2.83,2.83,0,0,0-.79-.12v-.44a3.66,3.66,0,0,0,1.41-.34,3,3,0,0,0,.9-.66h.52c0,.64,0,1.48,0,2.51l0,3.19a5.47,5.47,0,0,0,0,.6,6.1,6.1,0,0,0,.79.17,1.31,1.31,0,0,1,.34.08l0,.43H323c-.53,0-1.24,0-2.13,0-.25,0-.5,0-.74,0Zm1.09-9.32a.9.9,0,0,1,.28-.69.94.94,0,0,1,.7-.27,1.06,1.06,0,0,1,.76.29.84.84,0,0,1,.31.64,1.24,1.24,0,0,1-.12.53,1,1,0,0,1-.38.43,1.12,1.12,0,0,1-.54.16,1,1,0,0,1-.69-.32A1.07,1.07,0,0,1,320.74,336.32Z"/><path class="cls-1" d="M324.36,339.72a4.8,4.8,0,0,0,1.33-.77,4.91,4.91,0,0,0,.88-1.21H327a1.49,1.49,0,0,1,.07.43c0,.27,0,.48,0,.63l0,.46v.18h.18l.74,0,.58,0a1.3,1.3,0,0,1,.05.37,2.37,2.37,0,0,1-.05.42,2.73,2.73,0,0,1-.39.05l-.25,0h-.55l-.38,0v3a6.84,6.84,0,0,0,0,1.08,1,1,0,0,0,.19.41.87.87,0,0,0,.4.08.83.83,0,0,0,.31,0,1.48,1.48,0,0,0,.34-.22l.15-.11a1.78,1.78,0,0,1,.31.3l0,.09a2,2,0,0,1-.77.68,2.42,2.42,0,0,1-1.06.24,1.56,1.56,0,0,1-1.18-.46,2,2,0,0,1-.45-1.43l0-1.37v-2.22l-.25,0-.56,0-.1,0a.27.27,0,0,1-.05-.13S324.35,339.92,324.36,339.72Z"/><path class="cls-1" d="M329.27,339.32l.14,0h2.5v.52l0,.77V343a7.91,7.91,0,0,0,.08,1.24,1,1,0,0,0,.38.52,1.2,1.2,0,0,0,.64.17,1.85,1.85,0,0,0,.57-.07,1.72,1.72,0,0,0,.5-.26,4.6,4.6,0,0,0,.37-.28,1.77,1.77,0,0,0,.31-.46l.05-1.95c0-.2,0-.36,0-.49s0-.31,0-.52,0-.32,0-.34v-.46a1.19,1.19,0,0,0-.52-.15l-.53,0a.24.24,0,0,1-.08-.06.84.84,0,0,1,0-.23,1.8,1.8,0,0,1,0-.27l.44,0h2.4l0,.58,0,.75v3.28c0,.27,0,.43,0,.46a.46.46,0,0,0,.07.29.17.17,0,0,0,.13.1l.72,0,.09,0a2.83,2.83,0,0,1,0,.31.59.59,0,0,1,0,.17,3.13,3.13,0,0,0-.59.06,14.11,14.11,0,0,0-1.83.55h-.31v-1.28l-.27.25a5.08,5.08,0,0,1-1.18.82,2.65,2.65,0,0,1-1,.21,2.22,2.22,0,0,1-1.11-.26,1.73,1.73,0,0,1-.68-.66,2.19,2.19,0,0,1-.22-.87c0-.1,0-.61,0-1.53v-.25c0-.51,0-.89,0-1.13,0-.42,0-.69,0-.84a.7.7,0,0,0-.08-.23,1.38,1.38,0,0,0-.26-.07,2.39,2.39,0,0,1-.62-.16.11.11,0,0,1,0-.1.62.62,0,0,1,0-.13C329.25,339.53,329.25,339.44,329.27,339.32Z"/><path class="cls-1" d="M338.05,345.25a1.65,1.65,0,0,1,.38-.12,2.13,2.13,0,0,0,.5-.12.42.42,0,0,0,.16-.17,3.4,3.4,0,0,0,0-.69v-1.24l0-.82v-.49a3.56,3.56,0,0,0-.08-.81.46.46,0,0,0-.2-.23,2.32,2.32,0,0,0-.74-.31v-.37l.19-.05a5.14,5.14,0,0,0,.63-.15,3.92,3.92,0,0,0,.55-.22l.13-.07.21-.15a3.35,3.35,0,0,0,.56-.57l.42,0v.88a.9.9,0,0,0,0,.21,3.47,3.47,0,0,0,0,.36,4.23,4.23,0,0,1,1.17-.78,3.36,3.36,0,0,1,1.32-.29,2.32,2.32,0,0,1,1.29.36,1.67,1.67,0,0,1,.72.84,6.58,6.58,0,0,1,.18,1.93l0,2.55a.56.56,0,0,0,.07.3,1.59,1.59,0,0,0,.43.11l.38.07a.41.41,0,0,1,.07.25c0,.06,0,.14,0,.25l-1.53-.11-.45,0H344l-1,.07h-.27c0-.07,0-.12,0-.15s0-.19,0-.3l.55-.08a1.38,1.38,0,0,0,.25-.05c.11,0,.17-.08.18-.13a1.28,1.28,0,0,0,.07-.5c0-.44,0-.78,0-1v-.91a5.56,5.56,0,0,0-.22-2.06.93.93,0,0,0-.88-.58,2.09,2.09,0,0,0-.91.22,4.1,4.1,0,0,0-1,.67l0,.14,0,.49,0,.52,0,1.25v.2a4.93,4.93,0,0,0,.1,1.44,1.61,1.61,0,0,0,.78.36.87.87,0,0,1,0,.2,1.58,1.58,0,0,1-.05.29h-.41a3.21,3.21,0,0,1-.52-.05l-.83,0c-.42,0-1,0-1.81.06a.45.45,0,0,1,0-.16Z"/><path class="cls-1" d="M353.34,340a3.08,3.08,0,0,1,.75,1.11,3.34,3.34,0,0,1,.25,1.18,3.68,3.68,0,0,1-.33,1.69,3.19,3.19,0,0,1-1.3,1.43,4.22,4.22,0,0,1-4-.08,3.41,3.41,0,0,1-1.21-1.25,3.71,3.71,0,0,1-.36-1.72,3.21,3.21,0,0,1,.17-1.05,2.85,2.85,0,0,1,.47-.92,3.33,3.33,0,0,1,1.71-1.19,4.38,4.38,0,0,1,1.28-.16A3.35,3.35,0,0,1,353.34,340Zm-4.27,2.7c.05.64.08,1,.1,1.12a3.07,3.07,0,0,0,.32.9,1.32,1.32,0,0,0,.49.43,1.77,1.77,0,0,0,.82.18,1.4,1.4,0,0,0,1-.36,2.18,2.18,0,0,0,.56-1.14,9.06,9.06,0,0,0,.11-1.66,3.33,3.33,0,0,0-.47-2,1.52,1.52,0,0,0-1.24-.59,1.44,1.44,0,0,0-1,.34,1.71,1.71,0,0,0-.55,1A9.93,9.93,0,0,0,349.07,342.65Z"/><path class="cls-1" d="M225,189.08q.09.21.36,1.17a3.48,3.48,0,0,1,.13.93h-.62a4.61,4.61,0,0,0-1.35-1.34,3.07,3.07,0,0,0-1.56-.4,2.06,2.06,0,0,0-1.71.82,4.94,4.94,0,0,0-.88,3.13,6.34,6.34,0,0,0,.15,1.65,4.32,4.32,0,0,0,.62,1.31,2.17,2.17,0,0,0,.75.61,2.84,2.84,0,0,0,1.29.3,2.59,2.59,0,0,0,1.45-.46,5.16,5.16,0,0,0,1.34-1.4,3.86,3.86,0,0,1,.66-.05,3.71,3.71,0,0,1-.08.54c0,.07-.07.36-.16.86l-.06.21-.1.32a3,3,0,0,1-1.17.48,8.87,8.87,0,0,1-1.86.16,7.39,7.39,0,0,1-1.59-.16,3.68,3.68,0,0,1-1.28-.5,4.63,4.63,0,0,1-1.22-1.06,4,4,0,0,1-.66-1.25,4.85,4.85,0,0,1-.22-1.52,4.54,4.54,0,0,1,1.35-3.37,4.66,4.66,0,0,1,3.42-1.32,16,16,0,0,1,1.6.08A10.91,10.91,0,0,1,225,189.08Z"/><path class="cls-1" d="M234.13,196.5l.16.11a.19.19,0,0,1,.07.11v0a1.64,1.64,0,0,1-.43.83,1,1,0,0,1-.66.23,1.12,1.12,0,0,1-.7-.22,2,2,0,0,1-.53-.78,1.79,1.79,0,0,1-.83.78,2.84,2.84,0,0,1-1.3.26,1.57,1.57,0,0,1-1-.29,1,1,0,0,1-.33-.79,1,1,0,0,1,.1-.45,1.33,1.33,0,0,1,.32-.46,2.83,2.83,0,0,1,.71-.51l.52-.23,1.7-.68a4.71,4.71,0,0,0,0-.53,2.45,2.45,0,0,0-.23-1.26.55.55,0,0,0-.48-.2,1.45,1.45,0,0,0-.63.13.87.87,0,0,0-.41.33,1.61,1.61,0,0,0-.17.57.92.92,0,0,1-.09.35.94.94,0,0,1-.37.23l-.37.16a1.43,1.43,0,0,1-.58.18.3.3,0,0,1-.1-.24,1.3,1.3,0,0,1,.16-.67,3.17,3.17,0,0,1,.75-.77,3.82,3.82,0,0,1,.92-.52,4.61,4.61,0,0,1,1.44-.19,2.1,2.1,0,0,1,.94.2,1.09,1.09,0,0,1,.54.6,4.22,4.22,0,0,1,.16,1.43l0,1.13,0,.82v.22a.63.63,0,0,0,.08.39.22.22,0,0,0,.19.1.18.18,0,0,0,.13,0l.21-.32Zm-2.24-1.58a3.91,3.91,0,0,0-.88.43,2.08,2.08,0,0,0-.68.61,1.08,1.08,0,0,0-.14.56.66.66,0,0,0,.18.48.53.53,0,0,0,.41.19,1,1,0,0,0,.65-.21,1.42,1.42,0,0,0,.42-.47,4.27,4.27,0,0,0,.07-1Q231.92,195.22,231.89,194.92Z"/><path class="cls-1" d="M236.23,189.55l.59-.22c.14-.05.53-.24,1.14-.56h.51c0,.13,0,.22,0,.27v.28l0,2.58v1a3.58,3.58,0,0,1,.52-.45,2.62,2.62,0,0,1,.38-.2,2.49,2.49,0,0,1,.49-.19,2.6,2.6,0,0,1,.58-.07,3.16,3.16,0,0,1,1.11.17,2.36,2.36,0,0,1,.8.54,2.67,2.67,0,0,1,.64,1,2.79,2.79,0,0,1,.17,1,3.4,3.4,0,0,1-.14.88,3.49,3.49,0,0,1-.43.95,2.88,2.88,0,0,1-.62.65,3.18,3.18,0,0,1-.92.52,3.89,3.89,0,0,1-1.17.13,3.46,3.46,0,0,1-1.7-.56l-.36-.21q-.14.19-.3.48c-.11.19-.19.31-.23.37H237c0-.11,0-.22,0-.34s0-.22,0-.32v-.51l0-.17a3.89,3.89,0,0,0,0-.39v-5a5.18,5.18,0,0,0,0-1,.16.16,0,0,0-.05-.1,7,7,0,0,0-.71-.27Zm2.29,3.75v1.06a13.32,13.32,0,0,0,.09,2.12,1,1,0,0,0,.45.61,1.36,1.36,0,0,0,.78.25,1.61,1.61,0,0,0,.6-.12,1.39,1.39,0,0,0,.46-.27,1.59,1.59,0,0,0,.36-.48,2.7,2.7,0,0,0,.23-.72,5.88,5.88,0,0,0,.06-.72,2.87,2.87,0,0,0-.23-1.11,1.74,1.74,0,0,0-.64-.82,1.63,1.63,0,0,0-.9-.27,1.77,1.77,0,0,0-.71.17A1.53,1.53,0,0,0,238.52,193.3Z"/><path class="cls-1" d="M246,194.16a3.07,3.07,0,0,1,.32-.77,3.31,3.31,0,0,1,.81-.88,2.66,2.66,0,0,1,.79-.42,3,3,0,0,1,.73-.13,4.87,4.87,0,0,1,1,.1,2,2,0,0,1,.66.29,3,3,0,0,1,.61.54,1.94,1.94,0,0,1,.38.64,2.53,2.53,0,0,1,.16.89h-.75l-1.39-.06-.54,0h-1.33a1,1,0,0,0,0,.16,3.51,3.51,0,0,0,.09.77,2.62,2.62,0,0,0,.26.7,2.07,2.07,0,0,0,.44.53,1.61,1.61,0,0,0,.55.31l.39.13a5.34,5.34,0,0,0,.71,0,3.66,3.66,0,0,0,.58-.17,3.61,3.61,0,0,0,.6-.36,4.24,4.24,0,0,1,.41.32,4,4,0,0,1-1.25,1,3.37,3.37,0,0,1-1.44.3,3.44,3.44,0,0,1-.88-.1,2.52,2.52,0,0,1-.83-.38,2.26,2.26,0,0,1-.64-.63,2.8,2.8,0,0,1-.39-.77,2.64,2.64,0,0,1-.17-.83A5.89,5.89,0,0,1,246,194.16Zm4-.29a1.83,1.83,0,0,0-.15-.73,1.15,1.15,0,0,0-1.05-.74,1.11,1.11,0,0,0-.83.4,1.76,1.76,0,0,0-.41,1.09l1.55,0,.43,0a1.69,1.69,0,0,1,.28,0Z"/><path class="cls-1" d="M253.93,197.44a.55.55,0,0,1,.23-.11,2.05,2.05,0,0,0,.67-.27,5.34,5.34,0,0,0,.06-1.11,22.56,22.56,0,0,0-.08-2.33.27.27,0,0,0-.11-.19,2.19,2.19,0,0,0-.46-.16.2.2,0,0,1-.17-.15l0-.25a2.1,2.1,0,0,0,.92-.35,2.24,2.24,0,0,0,.61-.56,1.39,1.39,0,0,1,.2-.24h.47a.91.91,0,0,1,0,.25,1.34,1.34,0,0,1,0,.19v1c.19-.32.33-.53.41-.64a3.67,3.67,0,0,1,.36-.33.85.85,0,0,1,.53-.18.93.93,0,0,1,.63.25.75.75,0,0,1,.27.57,1,1,0,0,1-.2.58.66.66,0,0,1-.54.25,1.06,1.06,0,0,1-.62-.24.55.55,0,0,0-.3-.15h-.05a.5.5,0,0,0-.26.26,1.4,1.4,0,0,0-.19.71v.18c0,.34,0,1.13,0,2.37a.85.85,0,0,0,.13.34.75.75,0,0,0,.25.13,1.58,1.58,0,0,0,.44.07.8.8,0,0,1,.38.09.22.22,0,0,1,.07.19.58.58,0,0,1,0,.2H257l-1.31-.06a8.2,8.2,0,0,0-.89,0h-.12l-.71,0c0-.08,0-.14,0-.17A1.49,1.49,0,0,1,253.93,197.44Z"/><path class="cls-1" d="M261,197.45a1,1,0,0,1,.33-.11,1.37,1.37,0,0,0,.43-.11.29.29,0,0,0,.14-.15,2.52,2.52,0,0,0,0-.6V195.4l0-.72v-.43a2.83,2.83,0,0,0-.07-.71.42.42,0,0,0-.17-.2,2.47,2.47,0,0,0-.65-.27v-.33l.16,0,.55-.14a3.85,3.85,0,0,0,.49-.19l.11-.06c.05,0,.12-.09.18-.14a2.57,2.57,0,0,0,.5-.5l.36,0v.77a1.36,1.36,0,0,0,0,.18s0,.15,0,.32a3.7,3.7,0,0,1,1-.68,3,3,0,0,1,1.16-.26,2,2,0,0,1,1.12.32,1.54,1.54,0,0,1,.64.74,6,6,0,0,1,.15,1.68l0,2.23a.6.6,0,0,0,0,.26,1,1,0,0,0,.38.1l.33.07a.3.3,0,0,1,.07.21c0,.06,0,.13,0,.22l-1.34-.09h-.71l-.9.06h-.24v-.13a2.35,2.35,0,0,1,0-.26l.48-.07.22,0c.1,0,.15-.08.16-.11a1.14,1.14,0,0,0,.06-.45c0-.38,0-.68,0-.88v-.8a5.17,5.17,0,0,0-.19-1.8.83.83,0,0,0-.78-.51,1.88,1.88,0,0,0-.79.2,3.41,3.41,0,0,0-.84.59l0,.11,0,.43,0,.46,0,1.1v.17a4.36,4.36,0,0,0,.09,1.26,1.53,1.53,0,0,0,.68.32,1.49,1.49,0,0,1,0,.17,1.19,1.19,0,0,1-.05.25h-.35a3.54,3.54,0,0,1-.45,0l-.74,0c-.36,0-.89,0-1.58.05a.32.32,0,0,1,0-.14S261,197.55,261,197.45Z"/><path class="cls-1" d="M270.79,194.16a2.79,2.79,0,0,1,.31-.77,3.51,3.51,0,0,1,.82-.88,2.75,2.75,0,0,1,.78-.42,3,3,0,0,1,.73-.13,4.74,4.74,0,0,1,1,.1,1.91,1.91,0,0,1,.66.29,3.08,3.08,0,0,1,.62.54,2.36,2.36,0,0,1,.38.64,2.53,2.53,0,0,1,.16.89h-.76l-1.38-.06-.55,0h-1.32a1.15,1.15,0,0,0,0,.16,3.51,3.51,0,0,0,.09.77,2.32,2.32,0,0,0,.27.7,1.89,1.89,0,0,0,.44.53,1.57,1.57,0,0,0,.54.31l.4.13a5.16,5.16,0,0,0,.7,0,3.66,3.66,0,0,0,.58-.17,3.27,3.27,0,0,0,.61-.36c.16.12.3.22.41.32a4.11,4.11,0,0,1-1.25,1,3.39,3.39,0,0,1-1.45.3,3.5,3.5,0,0,1-.88-.1,2.73,2.73,0,0,1-.83-.38,2.36,2.36,0,0,1-.63-.63,2.83,2.83,0,0,1-.4-.77,3,3,0,0,1-.17-.83A5.09,5.09,0,0,1,270.79,194.16Zm4-.29a2.26,2.26,0,0,0-.15-.73,1.17,1.17,0,0,0-.45-.55,1.09,1.09,0,0,0-.61-.19,1.08,1.08,0,0,0-.82.4,1.71,1.71,0,0,0-.42,1.09l1.56,0,.42,0,.28,0Z"/><path class="cls-1" d="M278.87,192.6a4.27,4.27,0,0,0,1.17-.66,4.56,4.56,0,0,0,.77-1.07h.38a1.21,1.21,0,0,1,.06.38c0,.23,0,.42,0,.55l0,.4s0,.08,0,.16h.16l.64,0h.51a1.33,1.33,0,0,1,0,.32,1.73,1.73,0,0,1,0,.37l-.35,0-.21,0h-.48l-.33,0v2.62a5.15,5.15,0,0,0,0,.94.73.73,0,0,0,.16.36.78.78,0,0,0,.35.08.64.64,0,0,0,.27,0,1.34,1.34,0,0,0,.3-.2l.13-.09a1.69,1.69,0,0,1,.27.26l0,.08a1.61,1.61,0,0,1-.67.59,2,2,0,0,1-.93.22,1.43,1.43,0,0,1-1-.4,1.75,1.75,0,0,1-.39-1.25l0-1.21v-1.94l-.21,0-.49,0-.09,0a.17.17,0,0,1,0-.11S278.86,192.78,278.87,192.6Z"/><path class="cls-1" d="M295.54,189.13a6.31,6.31,0,0,1,.12.71c0,.47.08.83.08,1.09a1.39,1.39,0,0,1,0,.27l-.06,0-.5,0-.08,0a3.48,3.48,0,0,0-.6-1.22,1.63,1.63,0,0,0-1.22-.55,1.58,1.58,0,0,0-1.07.35,1.15,1.15,0,0,0-.39.88,1.21,1.21,0,0,0,.39.84,3.94,3.94,0,0,0,1.63.77,8.32,8.32,0,0,1,1,.39,2.93,2.93,0,0,1,.89.6,2.42,2.42,0,0,1,.57.81,2.83,2.83,0,0,1,.15,1,3.44,3.44,0,0,1-.24,1.26,1.72,1.72,0,0,1-.41.62,4.13,4.13,0,0,1-.64.49,3.7,3.7,0,0,1-.89.4,4.9,4.9,0,0,1-1.19.12,5.86,5.86,0,0,1-1.14-.14l-.82-.24a1.26,1.26,0,0,1-.43-.17.22.22,0,0,1-.06-.13v-.07s0-.37,0-.94c0-.3,0-.51,0-.63v-.26h.64a7.94,7.94,0,0,0,.42.92,2.21,2.21,0,0,0,.47.56,1.91,1.91,0,0,0,.61.35,2.35,2.35,0,0,0,.77.12,2.59,2.59,0,0,0,.81-.15,1.5,1.5,0,0,0,.71-.52,1.27,1.27,0,0,0,.27-.77,1.25,1.25,0,0,0-.47-.94,5.59,5.59,0,0,0-1.54-.71,8.13,8.13,0,0,1-1.75-.79,2.43,2.43,0,0,1-.76-.94,2.54,2.54,0,0,1-.28-1.12,2.49,2.49,0,0,1,.78-1.85,3.13,3.13,0,0,1,2.29-.76,5.67,5.67,0,0,1,1,.12A7.26,7.26,0,0,1,295.54,189.13Z"/><path class="cls-1" d="M304.93,196.5l.16.11a.21.21,0,0,1,.08.11v0a1.64,1.64,0,0,1-.43.83.93.93,0,0,1-.66.23,1.08,1.08,0,0,1-.69-.22,1.89,1.89,0,0,1-.53-.78,1.89,1.89,0,0,1-.83.78,2.89,2.89,0,0,1-1.31.26,1.52,1.52,0,0,1-1-.29,1,1,0,0,1-.34-.79,1.22,1.22,0,0,1,.1-.45,1.67,1.67,0,0,1,.32-.46,2.92,2.92,0,0,1,.72-.51l.52-.23,1.7-.68c0-.18,0-.35,0-.53a2.45,2.45,0,0,0-.23-1.26.54.54,0,0,0-.47-.2,1.45,1.45,0,0,0-.63.13,1,1,0,0,0-.42.33,1.66,1.66,0,0,0-.16.57,1.67,1.67,0,0,1-.09.35,1,1,0,0,1-.38.23l-.36.16a1.46,1.46,0,0,1-.59.18.33.33,0,0,1-.1-.24,1.31,1.31,0,0,1,.17-.67,2.94,2.94,0,0,1,.74-.77,3.69,3.69,0,0,1,.93-.52,4.59,4.59,0,0,1,1.43-.19,2.07,2.07,0,0,1,.94.2,1.11,1.11,0,0,1,.55.6,4.58,4.58,0,0,1,.15,1.43v2.17a.71.71,0,0,0,.08.39.23.23,0,0,0,.2.1.2.2,0,0,0,.13,0l.2-.32Zm-2.24-1.58a4.13,4.13,0,0,0-.88.43,2.19,2.19,0,0,0-.68.61,1.08,1.08,0,0,0-.13.56.7.7,0,0,0,.17.48.54.54,0,0,0,.41.19,1,1,0,0,0,.65-.21,1.37,1.37,0,0,0,.43-.47,4.54,4.54,0,0,0,.06-1Q302.72,195.22,302.69,194.92Z"/><path class="cls-1" d="M307.35,192.26l.12,0h2.19v.46l0,.67v2.08a6.15,6.15,0,0,0,.08,1.09.77.77,0,0,0,.33.45,1,1,0,0,0,.55.15,1.66,1.66,0,0,0,.5-.06,1.7,1.7,0,0,0,.44-.23,1.57,1.57,0,0,0,.32-.25,1.47,1.47,0,0,0,.28-.4l0-1.7c0-.18,0-.32,0-.44s0-.26,0-.44,0-.28,0-.31v-.4a1,1,0,0,0-.46-.13l-.46,0-.07-.05a1,1,0,0,1,0-.21s0-.13,0-.23l.39,0h2.1v.51l0,.65v2.88c0,.24,0,.37,0,.4a.4.4,0,0,0,.06.25q.06.09.12.09l.63,0h.08c0,.16,0,.25,0,.27s0,.08,0,.15a3.75,3.75,0,0,0-.52.05,11.82,11.82,0,0,0-1.6.49l-.28,0v-1.11a1.76,1.76,0,0,0-.24.21,4.06,4.06,0,0,1-1,.72,2.18,2.18,0,0,1-.91.19,2,2,0,0,1-1-.23,1.6,1.6,0,0,1-.6-.58,2.09,2.09,0,0,1-.19-.76c0-.09,0-.53,0-1.34v-.22c0-.44,0-.77,0-1s0-.61,0-.73a.6.6,0,0,0-.07-.2.77.77,0,0,0-.23-.06,1.65,1.65,0,0,1-.54-.15s0,0,0-.09,0-.06,0-.11A2,2,0,0,0,307.35,192.26Z"/><path class="cls-1" d="M316.4,192.22h.16l1.42,0h.43l.9,0h.16a1.08,1.08,0,0,1,0,.19,1.49,1.49,0,0,1,0,.25l-.3,0a1.45,1.45,0,0,0-.42.11.12.12,0,0,0-.06.09.64.64,0,0,0,.09.29,3.56,3.56,0,0,1,.19.44c0,.11.12.28.23.5.34.7.58,1.25.73,1.65a3.64,3.64,0,0,0,.21.51c.32-.73.66-1.67,1-2.81a3.29,3.29,0,0,0,.17-.72,5.17,5.17,0,0,0-.76-.06h-.19a1.85,1.85,0,0,1,0-.23.48.48,0,0,1,.05-.24l.24,0h.93c.21,0,.42,0,.64,0l.55,0H323a1.56,1.56,0,0,1,0,.2,1.42,1.42,0,0,1,0,.19,4.39,4.39,0,0,0-1,.3L322,193l0,.06c-.18.55-.47,1.27-.87,2.17l-.74,1.79a3.41,3.41,0,0,1-.21.47l-.2.41h-.55a10.69,10.69,0,0,1-.55-1.12l-.93-2.08c-.23-.55-.49-1.13-.78-1.75a.85.85,0,0,0-.09-.14,2.37,2.37,0,0,1-.64-.23,1.09,1.09,0,0,1,0-.18A.58.58,0,0,1,316.4,192.22Z"/><path class="cls-1" d="M324.81,197.79v-.45l.77-.1a.4.4,0,0,0,.23-.14.74.74,0,0,0,.07-.41v-.08c0-.05,0-.15,0-.29s0-.27,0-.38,0-.26,0-.5v-.67l0-1.11a2.25,2.25,0,0,0,0-.44.56.56,0,0,0-.28-.18,3.21,3.21,0,0,0-.69-.1v-.39a3.19,3.19,0,0,0,1.24-.29,2.79,2.79,0,0,0,.78-.58h.46c0,.56,0,1.3,0,2.2l-.05,2.79a4.17,4.17,0,0,0,0,.52,4.2,4.2,0,0,0,.69.15,1.37,1.37,0,0,1,.29.07v.37h-.59c-.46,0-1.08,0-1.86,0-.22,0-.44,0-.65,0Zm1-8.16a.82.82,0,0,1,.85-.84,1,1,0,0,1,.67.25.77.77,0,0,1,.27.57,1.11,1.11,0,0,1-.11.46.79.79,0,0,1-.33.37.85.85,0,0,1-.47.14.84.84,0,0,1-.61-.28A.92.92,0,0,1,325.77,189.63Z"/><path class="cls-1" d="M332.21,198.71a2.83,2.83,0,0,1-1.23-.55,1,1,0,0,1-.31-.69.63.63,0,0,1,.17-.47,12.62,12.62,0,0,1,1.5-.93,2.74,2.74,0,0,1-.93-.78,1.71,1.71,0,0,1-.33-1,2.62,2.62,0,0,1,.18-.91,2.37,2.37,0,0,1,1-1A3.63,3.63,0,0,1,334,192a5.17,5.17,0,0,1,.74,0l.47.15.26.1a4.6,4.6,0,0,1,.61.45,8.61,8.61,0,0,0,.95-.24,1.59,1.59,0,0,1,.44-.07.28.28,0,0,1,.22.11,1.21,1.21,0,0,1,.08.55,1,1,0,0,1-.1.52q-.1.15-.21.15a.77.77,0,0,1-.24-.1,2.21,2.21,0,0,0-.75-.22,2.69,2.69,0,0,1,.17.89,1.79,1.79,0,0,1-.29,1,2.15,2.15,0,0,1-.8.72,3,3,0,0,1-1.41.38,4,4,0,0,1-.61,0,5.4,5.4,0,0,1-.67-.12,4.52,4.52,0,0,0-.82.55.33.33,0,0,0-.11.26.31.31,0,0,0,.12.24.65.65,0,0,0,.4.15l.15,0q.36,0,1,0l.49,0h.19a3.75,3.75,0,0,1,2.29.52,1.56,1.56,0,0,1,.65,1.27,1.45,1.45,0,0,1-.23.79,1.75,1.75,0,0,1-.61.63,4.35,4.35,0,0,1-1.13.44,6.56,6.56,0,0,1-1.57.19,6.72,6.72,0,0,1-1.63-.18,2.41,2.41,0,0,1-1.14-.58.88.88,0,0,1-.31-.64.83.83,0,0,1,.26-.6A4,4,0,0,1,332.21,198.71Zm2.1,2.16a3.19,3.19,0,0,0,1.57-.54.77.77,0,0,0,.36-.56.6.6,0,0,0-.08-.29.9.9,0,0,0-.27-.29,1.25,1.25,0,0,0-.44-.19,4.58,4.58,0,0,0-.92-.07h-.84a2.83,2.83,0,0,0-1.49.27.85.85,0,0,0-.38.73.7.7,0,0,0,.22.47,1.39,1.39,0,0,0,.71.37,4.07,4.07,0,0,0,1.07.14Zm-.39-4.91a1,1,0,0,0,.79-.4,1.92,1.92,0,0,0,.32-1.22,2.61,2.61,0,0,0-.29-1.47,1,1,0,0,0-.82-.37l-.36,0a1,1,0,0,0-.6.47,1.92,1.92,0,0,0-.27,1.08c0,.12,0,.36.05.73a1.17,1.17,0,0,0,.1.4,1.38,1.38,0,0,0,.25.41,1.15,1.15,0,0,0,.83.34Z"/><path class="cls-1" d="M339.81,197.45a1,1,0,0,1,.32-.11,1.48,1.48,0,0,0,.44-.11.29.29,0,0,0,.14-.15,2.52,2.52,0,0,0,0-.6V195.4l0-.72v-.43a3.39,3.39,0,0,0-.07-.71.49.49,0,0,0-.17-.2,2.47,2.47,0,0,0-.65-.27v-.33l.16,0,.55-.14.49-.19.11-.06a1.41,1.41,0,0,1,.18-.14,2.32,2.32,0,0,0,.49-.5l.37,0v.77a1.36,1.36,0,0,0,0,.18s0,.15,0,.32a3.7,3.7,0,0,1,1-.68,3,3,0,0,1,1.15-.26,2,2,0,0,1,1.13.32,1.51,1.51,0,0,1,.63.74,6,6,0,0,1,.15,1.68l0,2.23a.48.48,0,0,0,.05.26,1,1,0,0,0,.38.1l.33.07a.35.35,0,0,1,.06.21v.22l-1.34-.09H345l-.91.06h-.23c0-.05,0-.1,0-.13a2.46,2.46,0,0,1,0-.26l.48-.07.22,0c.09,0,.15-.08.16-.11a1.19,1.19,0,0,0,.05-.45v-1.68a5.26,5.26,0,0,0-.18-1.8.83.83,0,0,0-.78-.51,1.85,1.85,0,0,0-.79.2,3.41,3.41,0,0,0-.84.59l0,.11,0,.43,0,.46,0,1.1v.17a4.36,4.36,0,0,0,.09,1.26,1.46,1.46,0,0,0,.68.32,1.49,1.49,0,0,1,0,.17,1.19,1.19,0,0,1-.05.25h-.36l-.45,0-.73,0c-.37,0-.89,0-1.58.05a.32.32,0,0,1,0-.14A2.07,2.07,0,0,1,339.81,197.45Z"/><path class="cls-1" d="M354.89,192.81a2.63,2.63,0,0,1,.65,1,2.74,2.74,0,0,1,.22,1,3.24,3.24,0,0,1-.28,1.47,2.79,2.79,0,0,1-1.14,1.25,3.36,3.36,0,0,1-1.67.41,3.26,3.26,0,0,1-1.81-.48,2.89,2.89,0,0,1-1.06-1.09,3.13,3.13,0,0,1-.32-1.51,3,3,0,0,1,.15-.92,2.74,2.74,0,0,1,.41-.8,3.18,3.18,0,0,1,.58-.58,3,3,0,0,1,.92-.46,3.66,3.66,0,0,1,1.12-.15A2.94,2.94,0,0,1,354.89,192.81Zm-3.74,2.36c0,.56.07.89.09,1a2.48,2.48,0,0,0,.28.78,1.08,1.08,0,0,0,.43.38,1.47,1.47,0,0,0,.72.16,1.2,1.2,0,0,0,.84-.31,1.92,1.92,0,0,0,.49-1,7.2,7.2,0,0,0,.1-1.46,2.9,2.9,0,0,0-.41-1.76,1.29,1.29,0,0,0-1.08-.52,1.28,1.28,0,0,0-.87.3,1.53,1.53,0,0,0-.48.87A8.7,8.7,0,0,0,351.15,195.17Z"/><path class="cls-1" d="M358.25,197.45a1,1,0,0,1,.33-.11,1.37,1.37,0,0,0,.43-.11.29.29,0,0,0,.14-.15,2.52,2.52,0,0,0,0-.6V195.4l0-.72v-.43a3.39,3.39,0,0,0-.07-.71.49.49,0,0,0-.17-.2,2.47,2.47,0,0,0-.65-.27v-.33l.16,0,.55-.14a4.64,4.64,0,0,0,.49-.19l.11-.06a1.41,1.41,0,0,1,.18-.14,2.32,2.32,0,0,0,.49-.5l.37,0v.77a1.36,1.36,0,0,0,0,.18s0,.15,0,.32a3.7,3.7,0,0,1,1-.68,3,3,0,0,1,1.15-.26,2,2,0,0,1,1.13.32,1.51,1.51,0,0,1,.63.74,6,6,0,0,1,.15,1.68l0,2.23a.6.6,0,0,0,.05.26,1,1,0,0,0,.38.1l.33.07a.35.35,0,0,1,.06.21v.22l-1.34-.09h-.71l-.91.06h-.23v-.13a2.35,2.35,0,0,1,0-.26l.48-.07.22,0c.09,0,.15-.08.16-.11a1.14,1.14,0,0,0,.06-.45c0-.38,0-.68,0-.88v-.8a5.17,5.17,0,0,0-.19-1.8.83.83,0,0,0-.78-.51,1.88,1.88,0,0,0-.79.2,3.41,3.41,0,0,0-.84.59l0,.11,0,.43,0,.46,0,1.1v.17a4.36,4.36,0,0,0,.09,1.26,1.46,1.46,0,0,0,.68.32,1.49,1.49,0,0,1,0,.17,1.19,1.19,0,0,1-.05.25H361a3.85,3.85,0,0,1-.46,0l-.73,0c-.36,0-.89,0-1.58.05a.32.32,0,0,1,0-.14A2.07,2.07,0,0,1,358.25,197.45Z"/><path class="cls-1" d="M77.08,238.3a3.38,3.38,0,0,0-.75.17,4.83,4.83,0,0,0-.75.32,2.16,2.16,0,0,0-.8.7,4.55,4.55,0,0,0-.43.91q-.67,1.86-2.07,5.95l-2.91,8.49H66.9L62.34,242l-4.12,12.87H55.76q-2-5.93-3.13-9.13t-1.83-5.38a2.64,2.64,0,0,0-.52-1,4.58,4.58,0,0,0-.76-.6,2.36,2.36,0,0,0-.7-.33,6,6,0,0,0-.86-.16v-1H57.2v.93c-.54.07-1,.13-1.22.19a4.1,4.1,0,0,0-.63.19.52.52,0,0,0-.27.21.54.54,0,0,0,0,.19,1.15,1.15,0,0,0,0,.33l.1.37c.19.63.58,1.84,1.18,3.61s1.33,4,2.2,6.6l3.94-12.62h2.59l4.56,13q1-3.14,1.62-5.13c.4-1.33.74-2.46,1-3.41.16-.57.29-1.06.39-1.45a4.18,4.18,0,0,0,.15-1,.54.54,0,0,0-.24-.44,2.24,2.24,0,0,0-.64-.32,4.91,4.91,0,0,0-.88-.17l-1-.11v-1h7Z"/><path class="cls-1" d="M87.39,254.65H79.68v-.89l.62-.07a2,2,0,0,0,.53-.12,1,1,0,0,0,.54-.42,1.39,1.39,0,0,0,.16-.73v-7.1a1.44,1.44,0,0,0-.19-.75,1.63,1.63,0,0,0-.49-.52,2.58,2.58,0,0,0-.67-.28,3.79,3.79,0,0,0-.81-.17v-.89l6-.32.19.18v9.7a1.37,1.37,0,0,0,.18.72,1.12,1.12,0,0,0,.53.45,3.65,3.65,0,0,0,.53.19,4.13,4.13,0,0,0,.61.13ZM85.61,238a2.1,2.1,0,0,1-.71,1.58,2.45,2.45,0,0,1-1.69.65,2.48,2.48,0,0,1-1.71-.65,2.12,2.12,0,0,1,0-3.17,2.45,2.45,0,0,1,1.71-.66,2.4,2.4,0,0,1,1.69.66A2.11,2.11,0,0,1,85.61,238Z"/><path class="cls-1" d="M107,254.65H99.64v-.89l.57-.07a1.46,1.46,0,0,0,.5-.12.76.76,0,0,0,.36-.39,2.07,2.07,0,0,0,.11-.76v-5.71a3.13,3.13,0,0,0-.46-1.87,1.56,1.56,0,0,0-1.35-.63,2.67,2.67,0,0,0-.91.15,3.41,3.41,0,0,0-.83.42,3.23,3.23,0,0,0-.57.5l-.36.46v6.55a1.81,1.81,0,0,0,.12.71.84.84,0,0,0,.41.44,2.18,2.18,0,0,0,.48.19,4.35,4.35,0,0,0,.58.13v.89H90.87v-.89l.61-.07a2.8,2.8,0,0,0,.53-.12.94.94,0,0,0,.54-.41,1.57,1.57,0,0,0,.15-.74v-7.1a1.55,1.55,0,0,0-.2-.74A1.67,1.67,0,0,0,92,244a2.09,2.09,0,0,0-.56-.25,4,4,0,0,0-.73-.13v-.89l5.82-.32.18.18v1.77h0l.83-.73a8.4,8.4,0,0,1,.9-.69,4,4,0,0,1,1.19-.5,5.65,5.65,0,0,1,1.56-.21,3.73,3.73,0,0,1,3,1.13,4.32,4.32,0,0,1,1,3v6a1.65,1.65,0,0,0,.13.73,1,1,0,0,0,.5.42,2.75,2.75,0,0,0,.49.17,3.73,3.73,0,0,0,.65.13Z"/><path class="cls-1" d="M123.59,251.73a7.48,7.48,0,0,1-1,1.31,6.51,6.51,0,0,1-1.37,1.06,7.56,7.56,0,0,1-1.65.7,7,7,0,0,1-1.92.24,8.35,8.35,0,0,1-3.12-.52,6,6,0,0,1-2.17-1.38,5.4,5.4,0,0,1-1.28-2,7.55,7.55,0,0,1-.42-2.56,6.42,6.42,0,0,1,.46-2.38,6.63,6.63,0,0,1,1.3-2,6.33,6.33,0,0,1,2.09-1.4,7.17,7.17,0,0,1,2.83-.54,8,8,0,0,1,2.81.42,5,5,0,0,1,1.82,1.15,4.15,4.15,0,0,1,1,1.64,6.22,6.22,0,0,1,.32,2v.79H115a6.37,6.37,0,0,0,1,3.81,4,4,0,0,0,5.13.68,5.91,5.91,0,0,0,1.56-1.59Zm-4.67-4.64c0-.49,0-1-.07-1.5a4.79,4.79,0,0,0-.26-1.26,1.91,1.91,0,0,0-.56-.87,1.44,1.44,0,0,0-.91-.29,1.69,1.69,0,0,0-1.5,1,6.5,6.5,0,0,0-.62,3Z"/><path class="cls-1" d="M149.76,254.39a9.85,9.85,0,0,1-1.27.43A6,6,0,0,1,147,255a4.34,4.34,0,0,1-2.21-.44,2.26,2.26,0,0,1-1-1.28h-.08a7.17,7.17,0,0,1-.8.71,4.28,4.28,0,0,1-.82.5,6,6,0,0,1-1.11.4,6.26,6.26,0,0,1-1.48.14,3.62,3.62,0,0,1-2.42-.84,2.75,2.75,0,0,1-1-2.22,3.81,3.81,0,0,1,.22-1.35,3.05,3.05,0,0,1,.63-1,2.87,2.87,0,0,1,.85-.65,10.3,10.3,0,0,1,1.05-.48c.74-.27,1.62-.55,2.65-.84a14.9,14.9,0,0,0,2.24-.77v-1.17c0-.21,0-.48,0-.81a3,3,0,0,0-.21-.84,1.63,1.63,0,0,0-.54-.66,1.58,1.58,0,0,0-1-.27,2.35,2.35,0,0,0-.9.15,3.38,3.38,0,0,0-.58.31,3.88,3.88,0,0,0,.21.75,3,3,0,0,1,.17,1,1.73,1.73,0,0,1-.11.52,1.27,1.27,0,0,1-.32.5,2.22,2.22,0,0,1-.63.37,3.13,3.13,0,0,1-1.07.14,2.2,2.2,0,0,1-1.56-.5,1.67,1.67,0,0,1-.52-1.28,1.69,1.69,0,0,1,.54-1.23,4.53,4.53,0,0,1,1.32-.9,8.36,8.36,0,0,1,1.77-.57,9.84,9.84,0,0,1,1.86-.2,16,16,0,0,1,2.17.14,5.25,5.25,0,0,1,1.78.58,3.14,3.14,0,0,1,1.21,1.24,4.48,4.48,0,0,1,.44,2.12c0,.92,0,2,0,3.27s-.06,2.09-.06,2.49a1.89,1.89,0,0,0,.17.87,1.11,1.11,0,0,0,.5.48,1.93,1.93,0,0,0,.66.11l.81,0ZM143.7,248c-.45.16-.91.33-1.36.53a5.82,5.82,0,0,0-1.1.63,2.37,2.37,0,0,0-.71.88,2.84,2.84,0,0,0-.26,1.25,1.9,1.9,0,0,0,.44,1.39,1.49,1.49,0,0,0,1.07.42,2.07,2.07,0,0,0,1.11-.27,3.33,3.33,0,0,0,.77-.68Z"/><path class="cls-1" d="M166.72,243.9H164a4.18,4.18,0,0,1,.71,1.13,3.3,3.3,0,0,1,.24,1.24,3,3,0,0,1-.45,1.58,3.72,3.72,0,0,1-1.19,1.21,6.43,6.43,0,0,1-1.74.74,8.4,8.4,0,0,1-2.18.27h-2a1.91,1.91,0,0,0-.32.35.77.77,0,0,0-.18.46.76.76,0,0,0,.43.75,4,4,0,0,0,1.55.23c.74,0,1.49,0,2.25.1s1.29.07,1.62.07a4.92,4.92,0,0,1,1.4.29,4.49,4.49,0,0,1,1.21.65,3.33,3.33,0,0,1,.93,1.1,3.15,3.15,0,0,1,.37,1.53,3.53,3.53,0,0,1-.45,1.74,4,4,0,0,1-1.36,1.42,7.37,7.37,0,0,1-2.31,1,13.74,13.74,0,0,1-3.34.35,12,12,0,0,1-4.89-.78,2.53,2.53,0,0,1-1.67-2.35,1.88,1.88,0,0,1,.9-1.59,5.4,5.4,0,0,1,2.81-.68v-.15a4.39,4.39,0,0,1-1.75-1,2,2,0,0,1-.63-1.46,1.54,1.54,0,0,1,.25-.87,2.7,2.7,0,0,1,.64-.62,3.37,3.37,0,0,1,.83-.4l.82-.26v-.14a5.81,5.81,0,0,1-2.42-1.49,3.1,3.1,0,0,1-.78-2.14,3.28,3.28,0,0,1,1.66-2.87,7.52,7.52,0,0,1,4.19-1.08,9.45,9.45,0,0,1,1.61.14c.51.1.91.18,1.17.25h4.74ZM163,256.49a1.57,1.57,0,0,0-.23-.82,1.7,1.7,0,0,0-1-.67,12.27,12.27,0,0,0-1.45-.1l-2.76,0a3.19,3.19,0,0,0-.71.87,2.37,2.37,0,0,0-.29,1.2,1.5,1.5,0,0,0,.18.67,2,2,0,0,0,.53.69,3.47,3.47,0,0,0,.95.55,4.53,4.53,0,0,0,1.59.21,4.09,4.09,0,0,0,2.4-.61A2.3,2.3,0,0,0,163,256.49Zm-2-10.27a4.79,4.79,0,0,0-.46-2.26,1.49,1.49,0,0,0-1.39-.83,1.55,1.55,0,0,0-.84.23,1.65,1.65,0,0,0-.57.65,2.82,2.82,0,0,0-.28,1,8.77,8.77,0,0,0-.08,1.15,4.54,4.54,0,0,0,.47,2.18,1.45,1.45,0,0,0,1.32.86,1.49,1.49,0,0,0,1.35-.77A4.15,4.15,0,0,0,161,246.22Z"/><path class="cls-1" d="M182.94,251.73a7.91,7.91,0,0,1-1,1.31,6.57,6.57,0,0,1-1.38,1.06,7.36,7.36,0,0,1-1.65.7A7,7,0,0,1,177,255a8.35,8.35,0,0,1-3.12-.52,6,6,0,0,1-2.17-1.38,5.38,5.38,0,0,1-1.27-2,7.32,7.32,0,0,1-.43-2.56,6.42,6.42,0,0,1,.46-2.38,6.63,6.63,0,0,1,1.3-2,6.38,6.38,0,0,1,2.1-1.4,7.09,7.09,0,0,1,2.82-.54,8,8,0,0,1,2.81.42,5,5,0,0,1,1.82,1.15,4.15,4.15,0,0,1,1,1.64,6.22,6.22,0,0,1,.32,2v.79h-8.25a6.37,6.37,0,0,0,1,3.81,4,4,0,0,0,5.13.68,5.91,5.91,0,0,0,1.56-1.59Zm-4.66-4.64c0-.49,0-1-.08-1.5a5.28,5.28,0,0,0-.25-1.26,2,2,0,0,0-.57-.87,1.44,1.44,0,0,0-.91-.29,1.69,1.69,0,0,0-1.5,1,6.39,6.39,0,0,0-.61,3Z"/><path class="cls-1" d="M202.23,254.39l-6,.35-.18-.17v-1.12l-.08,0a5.2,5.2,0,0,1-1.62,1.12,4.64,4.64,0,0,1-2.05.49,5.13,5.13,0,0,1-4.06-1.83,6.92,6.92,0,0,1-1.6-4.74,6.12,6.12,0,0,1,1.78-4.42,5.82,5.82,0,0,1,4.33-1.84,7.49,7.49,0,0,1,1.87.22A5.73,5.73,0,0,1,196,243v-4a1.92,1.92,0,0,0-.19-.85,1.43,1.43,0,0,0-.49-.61,2.45,2.45,0,0,0-.94-.39,11.16,11.16,0,0,0-1.14-.16v-.89l6.6-.32.18.2v16a1.67,1.67,0,0,0,.16.78,1.08,1.08,0,0,0,.49.5,2.49,2.49,0,0,0,.74.2c.33,0,.6.06.81.07ZM196,252.22v-6.9a6.43,6.43,0,0,0-.24-.62,2.41,2.41,0,0,0-.42-.65,2.19,2.19,0,0,0-.65-.45,2.14,2.14,0,0,0-.92-.2,2.29,2.29,0,0,0-2,1.38,8,8,0,0,0-.78,3.9,10.42,10.42,0,0,0,.14,1.77,4.71,4.71,0,0,0,.49,1.44,2.79,2.79,0,0,0,.91,1,2.42,2.42,0,0,0,1.34.37,2.37,2.37,0,0,0,1.22-.29A3.58,3.58,0,0,0,196,252.22Z"/><path class="cls-1" d="M230,254.39l-5.82.35-.18-.17V253h-.08c-.27.26-.54.5-.81.74a4.88,4.88,0,0,1-.94.66,5.86,5.86,0,0,1-1.18.48,6,6,0,0,1-1.61.16,3.55,3.55,0,0,1-2.82-1.11,4.55,4.55,0,0,1-1-3.14v-5.49a1.46,1.46,0,0,0-.18-.77,2,2,0,0,0-.48-.54,1.66,1.66,0,0,0-.63-.26c-.26,0-.5-.08-.71-.1v-.89l5.9-.32.13.18v8.12a3,3,0,0,0,.48,1.86,1.62,1.62,0,0,0,1.33.59,2.79,2.79,0,0,0,1.56-.45,3.3,3.3,0,0,0,1-1v-6.58a1.65,1.65,0,0,0-.16-.75,1.37,1.37,0,0,0-.46-.53,1.56,1.56,0,0,0-.63-.2l-.84-.07v-.89l5.94-.32.18.18V252a1.47,1.47,0,0,0,.17.72,1.43,1.43,0,0,0,.5.51,1.37,1.37,0,0,0,.6.2,6.21,6.21,0,0,0,.73.07Z"/><path class="cls-1" d="M249.47,254.65h-7.34v-.89l.56-.07a1.35,1.35,0,0,0,.5-.12.78.78,0,0,0,.37-.39,2.07,2.07,0,0,0,.11-.76v-5.71a3.13,3.13,0,0,0-.46-1.87,1.57,1.57,0,0,0-1.35-.63,2.67,2.67,0,0,0-.91.15,3.24,3.24,0,0,0-.83.42,2.9,2.9,0,0,0-.57.5l-.36.46v6.55a1.81,1.81,0,0,0,.12.71.86.86,0,0,0,.4.44,2.28,2.28,0,0,0,.49.19,4.35,4.35,0,0,0,.58.13v.89h-7.43v-.89l.62-.07a3,3,0,0,0,.53-.12.94.94,0,0,0,.54-.41,1.58,1.58,0,0,0,.14-.74v-7.1a1.54,1.54,0,0,0-.19-.74,1.67,1.67,0,0,0-.51-.6,2.24,2.24,0,0,0-.56-.25,3.92,3.92,0,0,0-.74-.13v-.89l5.82-.32.19.18v1.77h.05l.83-.73a6.79,6.79,0,0,1,.9-.69,4,4,0,0,1,1.19-.5,5.55,5.55,0,0,1,1.56-.21,3.74,3.74,0,0,1,3,1.13,4.32,4.32,0,0,1,1,3v6a1.65,1.65,0,0,0,.13.73,1,1,0,0,0,.5.42,2.92,2.92,0,0,0,.48.17,3.67,3.67,0,0,0,.66.13Z"/><path class="cls-1" d="M268.72,254.39l-6,.35-.19-.17v-1.12l-.08,0a5.2,5.2,0,0,1-1.62,1.12,4.64,4.64,0,0,1-2.05.49,5.15,5.15,0,0,1-4.06-1.83,6.92,6.92,0,0,1-1.6-4.74,6.13,6.13,0,0,1,1.79-4.42,5.78,5.78,0,0,1,4.32-1.84,7.63,7.63,0,0,1,1.88.22,5.79,5.79,0,0,1,1.4.53v-4a1.92,1.92,0,0,0-.19-.85,1.49,1.49,0,0,0-.48-.61,2.56,2.56,0,0,0-.95-.39,11.16,11.16,0,0,0-1.14-.16v-.89l6.6-.32.19.2v16a1.81,1.81,0,0,0,.15.78,1.08,1.08,0,0,0,.49.5,2.48,2.48,0,0,0,.75.2c.32,0,.59.06.8.07Zm-6.22-2.17v-6.9a6.43,6.43,0,0,0-.24-.62,2.41,2.41,0,0,0-.42-.65,2.19,2.19,0,0,0-.65-.45,2.11,2.11,0,0,0-.92-.2,2.29,2.29,0,0,0-2,1.38,8,8,0,0,0-.78,3.9,10.42,10.42,0,0,0,.14,1.77,4.72,4.72,0,0,0,.5,1.44,2.68,2.68,0,0,0,.9,1,2.68,2.68,0,0,0,2.57.08A3.72,3.72,0,0,0,262.5,252.22Z"/><path class="cls-1" d="M285,251.73a7.41,7.41,0,0,1-1,1.31,6.51,6.51,0,0,1-1.37,1.06,7.64,7.64,0,0,1-1.66.7A7,7,0,0,1,279,255a8.43,8.43,0,0,1-3.12-.52,6.12,6.12,0,0,1-2.17-1.38,5.5,5.5,0,0,1-1.27-2,7.55,7.55,0,0,1-.42-2.56,6.47,6.47,0,0,1,1.76-4.42,6.33,6.33,0,0,1,2.09-1.4,7.09,7.09,0,0,1,2.82-.54,8,8,0,0,1,2.81.42,5,5,0,0,1,1.82,1.15,4,4,0,0,1,1,1.64,6,6,0,0,1,.32,2v.79h-8.25a6.37,6.37,0,0,0,1,3.81,4,4,0,0,0,5.13.68,5.91,5.91,0,0,0,1.56-1.59Zm-4.66-4.64c0-.49,0-1-.08-1.5a4.82,4.82,0,0,0-.25-1.26,2,2,0,0,0-.57-.87,1.42,1.42,0,0,0-.91-.29,1.7,1.7,0,0,0-1.5,1,6.52,6.52,0,0,0-.61,3Z"/><path class="cls-1" d="M300.68,244.77a2.51,2.51,0,0,1-.57,1.63,1.86,1.86,0,0,1-1.52.7,2.47,2.47,0,0,1-1.5-.45,1.54,1.54,0,0,1-.62-1.32,2.73,2.73,0,0,1,.06-.66c0-.16.08-.31.11-.45a2.65,2.65,0,0,0-1.18.39,3.74,3.74,0,0,0-1.1,1v6.7a1.67,1.67,0,0,0,.13.71,1,1,0,0,0,.45.44,3.14,3.14,0,0,0,.88.22c.4.06.69.1.87.11v.89h-8.17v-.89l.62-.07a3,3,0,0,0,.53-.12.94.94,0,0,0,.54-.41,1.58,1.58,0,0,0,.14-.74v-7.1a1.5,1.5,0,0,0-.2-.79,1.9,1.9,0,0,0-.5-.55,2.24,2.24,0,0,0-.56-.25,3.92,3.92,0,0,0-.74-.13v-.89l5.82-.32.19.18v1.77h.05a7,7,0,0,1,1.79-1.53,3.81,3.81,0,0,1,2-.55,2.43,2.43,0,0,1,1.82.7A2.47,2.47,0,0,1,300.68,244.77Z"/><path class="cls-1" d="M321.65,254.08a14.86,14.86,0,0,1-1.67.62,7.53,7.53,0,0,1-2.17.28,3.84,3.84,0,0,1-2.83-.93,3.62,3.62,0,0,1-.92-2.65v-7.48h-2.2v-1.33h2.25v-3.7h3.95v3.7h3.43v1.33h-3.4v6.68a3.76,3.76,0,0,0,.4,2,1.57,1.57,0,0,0,1.42.6c.22,0,.53,0,.92-.05a5.21,5.21,0,0,0,.82-.11Z"/><path class="cls-1" d="M340.73,254.65h-7.34v-.89l.57-.07a1.24,1.24,0,0,0,.49-.12.76.76,0,0,0,.36-.39,2.07,2.07,0,0,0,.11-.76v-5.71a3.14,3.14,0,0,0-.47-1.88,1.6,1.6,0,0,0-1.34-.62,2.67,2.67,0,0,0-.91.15,3.19,3.19,0,0,0-.82.42,2.9,2.9,0,0,0-.57.5l-.36.46v6.55a1.92,1.92,0,0,0,.11.71.91.91,0,0,0,.41.44,1.93,1.93,0,0,0,.49.19,4,4,0,0,0,.58.13v.89h-7.45v-.89l.62-.07a2,2,0,0,0,.53-.12,1,1,0,0,0,.54-.42,1.63,1.63,0,0,0,.14-.73V238.81a2.22,2.22,0,0,0-.18-.83,1.52,1.52,0,0,0-.52-.66,2.31,2.31,0,0,0-.7-.25,5.77,5.77,0,0,0-.83-.11v-.89l6.07-.32.19.2v8.39h.05c.31-.27.58-.52.83-.75a6.52,6.52,0,0,1,.91-.67,4,4,0,0,1,1.18-.5,5.55,5.55,0,0,1,1.56-.21,3.75,3.75,0,0,1,3,1.13,4.4,4.4,0,0,1,1,3v6a1.63,1.63,0,0,0,.14.73.93.93,0,0,0,.5.42,3.12,3.12,0,0,0,.49.17,5.93,5.93,0,0,0,.66.13Z"/><path class="cls-1" d="M357.32,251.73a7.41,7.41,0,0,1-1,1.31,6.51,6.51,0,0,1-1.37,1.06,7.64,7.64,0,0,1-1.66.7,7,7,0,0,1-1.92.24,8.43,8.43,0,0,1-3.12-.52,6.12,6.12,0,0,1-2.17-1.38,5.5,5.5,0,0,1-1.27-2,7.55,7.55,0,0,1-.42-2.56,6.47,6.47,0,0,1,1.76-4.42,6.33,6.33,0,0,1,2.09-1.4,7.11,7.11,0,0,1,2.83-.54,7.94,7.94,0,0,1,2.8.42,4.94,4.94,0,0,1,1.82,1.15,4,4,0,0,1,1,1.64,6,6,0,0,1,.32,2v.79h-8.25a6.37,6.37,0,0,0,1,3.81,4,4,0,0,0,5.13.68,5.91,5.91,0,0,0,1.56-1.59Zm-4.66-4.64c0-.49,0-1-.08-1.5a4.82,4.82,0,0,0-.25-1.26,2,2,0,0,0-.57-.87,1.42,1.42,0,0,0-.91-.29,1.7,1.7,0,0,0-1.5,1,6.52,6.52,0,0,0-.61,3Z"/><path class="cls-1" d="M376.94,255.12a10.76,10.76,0,0,1-3-.39,11.16,11.16,0,0,1-2.33-.94l-.84.86h-1l-.16-6.27h1.05a16.09,16.09,0,0,0,.91,1.89,8.86,8.86,0,0,0,1.27,1.77,6.61,6.61,0,0,0,1.66,1.34,4.42,4.42,0,0,0,2.16.51,3.64,3.64,0,0,0,2.54-.81,2.67,2.67,0,0,0,.89-2.05,2.21,2.21,0,0,0-.75-1.7,6.36,6.36,0,0,0-2.33-1.2l-1.88-.61c-.58-.19-1.12-.38-1.62-.58a5.29,5.29,0,0,1-2.6-2,5.2,5.2,0,0,1-.84-2.89,4.54,4.54,0,0,1,.43-1.95,5.33,5.33,0,0,1,1.29-1.69,6.21,6.21,0,0,1,2.06-1.13,8.31,8.31,0,0,1,2.73-.44,8.77,8.77,0,0,1,2.7.4,11.07,11.07,0,0,1,2,.81l.74-.74h1.07l.09,5.91h-1.05c-.24-.63-.53-1.28-.86-1.95a8.48,8.48,0,0,0-1-1.66,4.8,4.8,0,0,0-1.38-1.13,3.8,3.8,0,0,0-1.83-.42,3.12,3.12,0,0,0-2.16.75,2.38,2.38,0,0,0-.83,1.84,2.18,2.18,0,0,0,.73,1.7,6.13,6.13,0,0,0,2.26,1.16c.6.21,1.22.41,1.84.61s1.19.4,1.67.59a6.07,6.07,0,0,1,2.7,1.89,5,5,0,0,1,.39,5.16,5.05,5.05,0,0,1-1.41,1.75,7.17,7.17,0,0,1-2.26,1.19A9.91,9.91,0,0,1,376.94,255.12Z"/><path class="cls-1" d="M401.24,251.73a7.48,7.48,0,0,1-1,1.31,6.51,6.51,0,0,1-1.37,1.06,7.56,7.56,0,0,1-1.65.7,7,7,0,0,1-1.93.24,8.34,8.34,0,0,1-3.11-.52,6,6,0,0,1-2.17-1.38,5.4,5.4,0,0,1-1.28-2,7.55,7.55,0,0,1-.42-2.56,6.23,6.23,0,0,1,.46-2.38,6.63,6.63,0,0,1,1.3-2,6.33,6.33,0,0,1,2.09-1.4,7.17,7.17,0,0,1,2.83-.54,8,8,0,0,1,2.81.42,5,5,0,0,1,1.82,1.15,4.15,4.15,0,0,1,1,1.64,6.22,6.22,0,0,1,.32,2v.79h-8.26a6.37,6.37,0,0,0,1,3.81,4,4,0,0,0,5.13.68,5.91,5.91,0,0,0,1.56-1.59Zm-4.67-4.64c0-.49,0-1-.07-1.5a4.79,4.79,0,0,0-.26-1.26,2,2,0,0,0-.56-.87,1.44,1.44,0,0,0-.91-.29,1.71,1.71,0,0,0-1.51,1,6.65,6.65,0,0,0-.61,3Z"/><path class="cls-1" d="M418.71,254.39a9.85,9.85,0,0,1-1.27.43,5.91,5.91,0,0,1-1.54.19,4.34,4.34,0,0,1-2.21-.44,2.26,2.26,0,0,1-1-1.28h-.07a9.53,9.53,0,0,1-.8.71,4.69,4.69,0,0,1-.83.5,6,6,0,0,1-1.11.4,6.26,6.26,0,0,1-1.48.14,3.64,3.64,0,0,1-2.42-.84,2.75,2.75,0,0,1-1-2.22,3.6,3.6,0,0,1,.22-1.35,2.87,2.87,0,0,1,.62-1,3,3,0,0,1,.85-.65,9.58,9.58,0,0,1,1.06-.48q1.1-.41,2.64-.84a15.54,15.54,0,0,0,2.25-.77v-1.17c0-.21,0-.48-.05-.81a2.46,2.46,0,0,0-.21-.84,1.54,1.54,0,0,0-1.5-.93,2.35,2.35,0,0,0-.9.15,3.38,3.38,0,0,0-.58.31,4.8,4.8,0,0,0,.21.75,3,3,0,0,1,.17,1,1.73,1.73,0,0,1-.11.52,1.17,1.17,0,0,1-.32.5,2.22,2.22,0,0,1-.63.37,3.13,3.13,0,0,1-1.07.14,2.17,2.17,0,0,1-1.55-.5,1.64,1.64,0,0,1-.53-1.28,1.69,1.69,0,0,1,.54-1.23,4.58,4.58,0,0,1,1.33-.9,8,8,0,0,1,1.77-.57,9.66,9.66,0,0,1,1.85-.2,15.93,15.93,0,0,1,2.17.14,5.38,5.38,0,0,1,1.79.58,3.18,3.18,0,0,1,1.2,1.24,4.36,4.36,0,0,1,.45,2.12q0,1.38-.06,3.27c0,1.26-.05,2.09-.05,2.49a1.9,1.9,0,0,0,.16.87,1.08,1.08,0,0,0,.51.48,1.82,1.82,0,0,0,.65.11l.81,0Zm-6-6.36c-.46.16-.91.33-1.36.53a5.62,5.62,0,0,0-1.11.63,2.47,2.47,0,0,0-.71.88,2.85,2.85,0,0,0-.25,1.25,1.9,1.9,0,0,0,.43,1.39,1.49,1.49,0,0,0,1.07.42,2.07,2.07,0,0,0,1.11-.27,3.33,3.33,0,0,0,.77-.68Z"/><path class="cls-1" d="M427.87,254a4.88,4.88,0,0,1-1.24,3,8,8,0,0,1-3,2.35l-.54-.86a9.72,9.72,0,0,0,1.13-.69,4.47,4.47,0,0,0,.94-.85,4.52,4.52,0,0,0,.68-1,3.71,3.71,0,0,0,.31-1.3h-.68a2.73,2.73,0,0,1-1.88-.57,2,2,0,0,1-.64-1.54,2,2,0,0,1,.62-1.42,2,2,0,0,1,1.5-.62,2.47,2.47,0,0,1,2.08.93A4.17,4.17,0,0,1,427.87,254Z"/><path class="cls-1" d="M80.66,295.19a7.41,7.41,0,0,1-1,1.31,6.51,6.51,0,0,1-1.37,1.06,7.64,7.64,0,0,1-1.66.7,7,7,0,0,1-1.92.24,8.35,8.35,0,0,1-3.12-.52,6.12,6.12,0,0,1-2.17-1.38,5.38,5.38,0,0,1-1.27-2A7.55,7.55,0,0,1,67.7,292a6.41,6.41,0,0,1,.45-2.38,6.48,6.48,0,0,1,1.31-2,6.33,6.33,0,0,1,2.09-1.4,7.09,7.09,0,0,1,2.82-.54,8,8,0,0,1,2.81.42A4.89,4.89,0,0,1,79,287.21a4.15,4.15,0,0,1,1,1.64,6,6,0,0,1,.32,2v.79H72.08a6.37,6.37,0,0,0,1,3.81,4,4,0,0,0,5.13.68,5.91,5.91,0,0,0,1.56-1.59ZM76,290.55c0-.49,0-1-.08-1.5a4.82,4.82,0,0,0-.25-1.26,2,2,0,0,0-.57-.87,1.42,1.42,0,0,0-.91-.29,1.69,1.69,0,0,0-1.5.95,6.52,6.52,0,0,0-.61,3Z"/><path class="cls-1" d="M98.13,297.85a9.67,9.67,0,0,1-1.26.43,6,6,0,0,1-1.55.19,4.29,4.29,0,0,1-2.2-.44,2.23,2.23,0,0,1-1-1.28h-.07a8.18,8.18,0,0,1-.8.71,4.36,4.36,0,0,1-.83.5,6.15,6.15,0,0,1-1.1.4,6.35,6.35,0,0,1-1.49.14,3.66,3.66,0,0,1-2.42-.84,2.75,2.75,0,0,1-1-2.22,3.6,3.6,0,0,1,.22-1.35,2.87,2.87,0,0,1,.62-1,3.15,3.15,0,0,1,.85-.65,10.5,10.5,0,0,1,1.06-.48q1.09-.41,2.64-.84a14.71,14.71,0,0,0,2.25-.77V289.2c0-.21,0-.48,0-.81a2.46,2.46,0,0,0-.21-.84,1.51,1.51,0,0,0-1.5-.93,2.35,2.35,0,0,0-.9.15,3.38,3.38,0,0,0-.58.31,6.28,6.28,0,0,0,.21.75,2.78,2.78,0,0,1,.17,1,1.47,1.47,0,0,1-.11.52,1.17,1.17,0,0,1-.32.5,2,2,0,0,1-.63.37,3.13,3.13,0,0,1-1.07.14,2.19,2.19,0,0,1-1.55-.5,1.67,1.67,0,0,1-.53-1.28,1.69,1.69,0,0,1,.54-1.23,4.72,4.72,0,0,1,1.33-.9,8,8,0,0,1,1.77-.57,9.83,9.83,0,0,1,1.85-.2,16.2,16.2,0,0,1,2.18.14,5.33,5.33,0,0,1,1.78.58,3.12,3.12,0,0,1,1.2,1.24,4.36,4.36,0,0,1,.45,2.12q0,1.38-.06,3.27c0,1.26,0,2.09,0,2.49a1.9,1.9,0,0,0,.16.87,1.08,1.08,0,0,0,.51.48,1.91,1.91,0,0,0,.65.11l.81,0Zm-6-6.36c-.46.16-.91.33-1.36.53a5.24,5.24,0,0,0-1.1.63,2.37,2.37,0,0,0-.71.88,2.84,2.84,0,0,0-.26,1.25,1.9,1.9,0,0,0,.43,1.39,1.49,1.49,0,0,0,1.08.42,2,2,0,0,0,1.1-.27,3.33,3.33,0,0,0,.77-.68Z"/><path class="cls-1" d="M108.39,298.5a8.33,8.33,0,0,1-3-.5,5.85,5.85,0,0,1-2.14-1.35,5.39,5.39,0,0,1-1.26-2,7.61,7.61,0,0,1-.42-2.57,5.9,5.9,0,0,1,.51-2.42,6.38,6.38,0,0,1,3.59-3.44,7.86,7.86,0,0,1,2.92-.53,6.49,6.49,0,0,1,3.55.85,2.6,2.6,0,0,1,1.31,2.29,2.09,2.09,0,0,1-.46,1.42,2.07,2.07,0,0,1-1.6.53,2.52,2.52,0,0,1-1.53-.44,1.34,1.34,0,0,1-.62-1.14,3.5,3.5,0,0,1,.2-1.19,5.56,5.56,0,0,0,.23-.89.85.85,0,0,0-.35-.33,1.29,1.29,0,0,0-.64-.12,2,2,0,0,0-1,.26,2.56,2.56,0,0,0-.85.9,5.33,5.33,0,0,0-.6,1.64,11.56,11.56,0,0,0-.23,2.46,5.58,5.58,0,0,0,1,3.5,3,3,0,0,0,2.44,1.33,3.49,3.49,0,0,0,2.15-.6,5.38,5.38,0,0,0,1.43-1.71l.91.63a6.69,6.69,0,0,1-.9,1.36,5.56,5.56,0,0,1-1.26,1.09,6.24,6.24,0,0,1-1.56.76A6.07,6.07,0,0,1,108.39,298.5Z"/><path class="cls-1" d="M132.92,298.11h-7.33v-.89l.57-.07a1.29,1.29,0,0,0,.49-.12.76.76,0,0,0,.36-.39,2.1,2.1,0,0,0,.1-.76v-5.71a3.07,3.07,0,0,0-.47-1.88,1.57,1.57,0,0,0-1.33-.62,2.67,2.67,0,0,0-.91.15,3.41,3.41,0,0,0-.83.42,3.13,3.13,0,0,0-.56.5c-.15.18-.27.33-.36.46v6.55a1.73,1.73,0,0,0,.11.71.91.91,0,0,0,.41.44,1.84,1.84,0,0,0,.48.19,4.73,4.73,0,0,0,.58.13v.89h-7.44v-.89l.62-.07a2,2,0,0,0,.53-.12,1,1,0,0,0,.54-.42,1.63,1.63,0,0,0,.14-.73V282.27a2.22,2.22,0,0,0-.18-.83,1.52,1.52,0,0,0-.52-.66,2.39,2.39,0,0,0-.71-.25,5.43,5.43,0,0,0-.83-.11v-.89l6.08-.32.19.2v8.39h0l.83-.75a6.52,6.52,0,0,1,.91-.67,4,4,0,0,1,1.17-.5,5.67,5.67,0,0,1,1.57-.21,3.75,3.75,0,0,1,3,1.13,4.4,4.4,0,0,1,1,3v6a1.63,1.63,0,0,0,.14.73.93.93,0,0,0,.5.42,2.8,2.8,0,0,0,.49.17,5.29,5.29,0,0,0,.65.13Z"/><path class="cls-1" d="M159.66,292.14a6.18,6.18,0,0,1-1.81,4.55,6.26,6.26,0,0,1-4.6,1.81,9,9,0,0,1-1.85-.16,6.72,6.72,0,0,1-1.31-.37,4.39,4.39,0,0,1-.9-.46l-.53-.37-1.74,1.59-.73-.28c.05-.6.08-1.24.11-1.94s0-1.63,0-2.81V282.27a1.93,1.93,0,0,0-.19-.86,1.42,1.42,0,0,0-.5-.6,2.69,2.69,0,0,0-.68-.26,4.43,4.43,0,0,0-.83-.13v-.89l6.05-.32.18.2v7.93h.07a6.12,6.12,0,0,1,1.83-1.27,4.71,4.71,0,0,1,1.88-.4,5,5,0,0,1,4,1.74A7.07,7.07,0,0,1,159.66,292.14Zm-4.38.14a11.46,11.46,0,0,0-.14-1.78,5.43,5.43,0,0,0-.47-1.52,2.86,2.86,0,0,0-.87-1.06,2.18,2.18,0,0,0-1.32-.4,2.49,2.49,0,0,0-2.11,1v7.1a4.54,4.54,0,0,0,.27.64,2.77,2.77,0,0,0,.41.62,2.26,2.26,0,0,0,.62.48,2.11,2.11,0,0,0,.93.17,2.18,2.18,0,0,0,2-1.37A8.35,8.35,0,0,0,155.28,292.28Z"/><path class="cls-1" d="M176.05,287.44a5.64,5.64,0,0,1,1.38,2,7.15,7.15,0,0,1,0,5.1,5.48,5.48,0,0,1-1.37,2.05,6.49,6.49,0,0,1-2.3,1.41,9,9,0,0,1-3.06.49,8.56,8.56,0,0,1-2.74-.43,6.39,6.39,0,0,1-2.22-1.28,5.86,5.86,0,0,1-1.46-2,6.5,6.5,0,0,1-.54-2.69,6.86,6.86,0,0,1,.47-2.61,5.86,5.86,0,0,1,1.41-2,6.34,6.34,0,0,1,2.23-1.33,9.71,9.71,0,0,1,6,0A6.62,6.62,0,0,1,176.05,287.44Zm-3.13,8.46a7.35,7.35,0,0,0,.4-1.66,18.69,18.69,0,0,0,.13-2.27,16.31,16.31,0,0,0-.13-2,7.27,7.27,0,0,0-.36-1.73,3,3,0,0,0-.81-1.21,2,2,0,0,0-1.32-.44,2,2,0,0,0-1.38.48,3.06,3.06,0,0,0-.8,1.23,7,7,0,0,0-.36,1.63q-.09.93-.09,1.95c0,.88,0,1.62.08,2.2a7,7,0,0,0,.42,1.75,2.68,2.68,0,0,0,.8,1.2,2,2,0,0,0,1.33.44,2,2,0,0,0,1.26-.41A2.66,2.66,0,0,0,172.92,295.9Z"/><path class="cls-1" d="M190.91,297.54a14.86,14.86,0,0,1-1.67.62,7.6,7.6,0,0,1-2.18.28,3.8,3.8,0,0,1-2.82-.93,3.58,3.58,0,0,1-.92-2.65v-7.48h-2.2v-1.33h2.25v-3.7h3.95v3.7h3.43v1.33h-3.41v6.68a3.85,3.85,0,0,0,.4,2,1.59,1.59,0,0,0,1.43.6c.22,0,.53,0,.92-.05a5.41,5.41,0,0,0,.82-.11Z"/><path class="cls-1" d="M203.2,297.54a15,15,0,0,1-1.68.62,7.53,7.53,0,0,1-2.17.28,3.84,3.84,0,0,1-2.83-.93,3.62,3.62,0,0,1-.92-2.65v-7.48h-2.19v-1.33h2.24v-3.7h4v3.7H203v1.33h-3.41v6.68a3.76,3.76,0,0,0,.4,2,1.58,1.58,0,0,0,1.43.6c.22,0,.52,0,.92-.05a5.41,5.41,0,0,0,.82-.11Z"/><path class="cls-1" d="M213.86,298.11h-7.69v-.89l.62-.07a2,2,0,0,0,.53-.12,1,1,0,0,0,.54-.42,1.63,1.63,0,0,0,.14-.73V282.36a1.9,1.9,0,0,0-.19-.86,1.41,1.41,0,0,0-.51-.61,3.36,3.36,0,0,0-.73-.3,3.65,3.65,0,0,0-.88-.17v-.89l6.15-.32.19.2v16.32a1.44,1.44,0,0,0,.16.73,1.06,1.06,0,0,0,.51.44,4.6,4.6,0,0,0,.52.19,3.27,3.27,0,0,0,.64.13Z"/><path class="cls-1" d="M230.48,295.19a7.91,7.91,0,0,1-1,1.31,6.57,6.57,0,0,1-1.38,1.06,7.36,7.36,0,0,1-1.65.7,7,7,0,0,1-1.92.24,8.35,8.35,0,0,1-3.12-.52,6,6,0,0,1-2.17-1.38,5.38,5.38,0,0,1-1.27-2,7.32,7.32,0,0,1-.43-2.56,6.42,6.42,0,0,1,.46-2.38,6.63,6.63,0,0,1,1.3-2,6.38,6.38,0,0,1,2.1-1.4,7.09,7.09,0,0,1,2.82-.54,8,8,0,0,1,2.81.42,4.89,4.89,0,0,1,1.82,1.15,4.15,4.15,0,0,1,1,1.64,6.22,6.22,0,0,1,.32,2v.79H221.9a6.37,6.37,0,0,0,1,3.81,4,4,0,0,0,5.13.68,5.91,5.91,0,0,0,1.56-1.59Zm-4.66-4.64c0-.49,0-1-.08-1.5a5.28,5.28,0,0,0-.25-1.26,2,2,0,0,0-.57-.87,1.44,1.44,0,0,0-.91-.29,1.69,1.69,0,0,0-1.5.95,6.39,6.39,0,0,0-.61,3Z"/><path class="cls-1" d="M250.41,298.11H242.7v-.89l.62-.07a2,2,0,0,0,.53-.12,1,1,0,0,0,.54-.42,1.39,1.39,0,0,0,.16-.73v-7.1a1.44,1.44,0,0,0-.19-.75,1.53,1.53,0,0,0-.49-.52,2.65,2.65,0,0,0-.66-.28,4,4,0,0,0-.82-.17v-.89l6-.32.18.18v9.7a1.37,1.37,0,0,0,.18.72,1.12,1.12,0,0,0,.53.45,3.65,3.65,0,0,0,.53.19,4.13,4.13,0,0,0,.61.13Zm-1.78-16.65a2.1,2.1,0,0,1-.71,1.58,2.45,2.45,0,0,1-1.69.65,2.48,2.48,0,0,1-1.71-.65,2.12,2.12,0,0,1,0-3.17,2.45,2.45,0,0,1,1.71-.66,2.4,2.4,0,0,1,1.69.66A2.11,2.11,0,0,1,248.63,281.46Z"/><path class="cls-1" d="M263,297.54a14.33,14.33,0,0,1-1.68.62,7.48,7.48,0,0,1-2.17.28,3.8,3.8,0,0,1-2.82-.93,3.58,3.58,0,0,1-.92-2.65v-7.48h-2.2v-1.33h2.24v-3.7h4v3.7h3.43v1.33H259.4v6.68a3.85,3.85,0,0,0,.4,2,1.59,1.59,0,0,0,1.43.6c.22,0,.52,0,.92-.05a5.41,5.41,0,0,0,.82-.11Z"/><path class="cls-1" d="M266.66,287.13a6.89,6.89,0,0,0,2.17-1.56,3.71,3.71,0,0,0,.91-2.16h-.69a3.86,3.86,0,0,1-1.24-.17,2.06,2.06,0,0,1-.77-.48,1.54,1.54,0,0,1-.4-.64,2.65,2.65,0,0,1-.11-.74,1.8,1.8,0,0,1,.63-1.36,2.06,2.06,0,0,1,1.48-.59,2.52,2.52,0,0,1,2.07.89,3.84,3.84,0,0,1,.72,2.47,4.62,4.62,0,0,1-1.24,2.95,8.07,8.07,0,0,1-3,2.26Z"/><path class="cls-1" d="M280.89,298.52a7.52,7.52,0,0,1-2.31-.35,7.14,7.14,0,0,1-1.76-.74l-.36.83h-1l-.15-4.55h.89a5.62,5.62,0,0,0,.61,1.24,7,7,0,0,0,1,1.24,5.41,5.41,0,0,0,1.32.93,3.44,3.44,0,0,0,1.58.38,2.6,2.6,0,0,0,1.65-.44,1.61,1.61,0,0,0,.55-1.33,1.3,1.3,0,0,0-.25-.81,2.2,2.2,0,0,0-.67-.55,6.43,6.43,0,0,0-1-.41l-1.4-.42a13.49,13.49,0,0,1-1.42-.49,4.79,4.79,0,0,1-1.23-.79,3.46,3.46,0,0,1-1.21-2.75,3.29,3.29,0,0,1,1.45-2.78,6.21,6.21,0,0,1,3.79-1.06,8.68,8.68,0,0,1,2,.22,10.08,10.08,0,0,1,1.57.5l.26-.72h.92l.2,4.16h-.85a5.06,5.06,0,0,0-1.47-2.19,3.28,3.28,0,0,0-2.23-.92,2.48,2.48,0,0,0-1.48.39,1.26,1.26,0,0,0-.54,1.08,1.41,1.41,0,0,0,.79,1.35,11.26,11.26,0,0,0,2.2.78,7.08,7.08,0,0,1,3.19,1.53,3.29,3.29,0,0,1,1,2.47,3.55,3.55,0,0,1-1.57,3.1A6.92,6.92,0,0,1,280.89,298.52Z"/><path class="cls-1" d="M315,297.85l-5.82.35L309,298v-1.6h-.07l-.81.74a4.88,4.88,0,0,1-.94.66,5.86,5.86,0,0,1-1.18.48,6.07,6.07,0,0,1-1.62.16,3.58,3.58,0,0,1-2.82-1.11,4.6,4.6,0,0,1-1-3.14v-5.49a1.46,1.46,0,0,0-.18-.77,1.91,1.91,0,0,0-.49-.54,1.66,1.66,0,0,0-.63-.26c-.26-.05-.49-.08-.7-.1v-.89l5.9-.32.13.18v8.12a3,3,0,0,0,.48,1.86,1.6,1.6,0,0,0,1.33.59,2.78,2.78,0,0,0,1.55-.45,3.23,3.23,0,0,0,1-1v-6.58a1.65,1.65,0,0,0-.16-.75,1.46,1.46,0,0,0-.46-.53,1.56,1.56,0,0,0-.63-.2l-.84-.07v-.89l5.93-.32.19.18v9.43a1.37,1.37,0,0,0,.17.72,1.49,1.49,0,0,0,.49.51,1.46,1.46,0,0,0,.61.2,6,6,0,0,0,.73.07Z"/><path class="cls-1" d="M334.48,298.11h-7.33v-.89l.56-.07a1.4,1.4,0,0,0,.5-.12.82.82,0,0,0,.37-.39,2.07,2.07,0,0,0,.11-.76v-5.71a3.2,3.2,0,0,0-.46-1.87,1.58,1.58,0,0,0-1.36-.63,2.71,2.71,0,0,0-.91.15,3.19,3.19,0,0,0-.82.42,2.9,2.9,0,0,0-.57.5c-.15.18-.27.33-.36.46v6.55a1.81,1.81,0,0,0,.12.71.82.82,0,0,0,.4.44,2.09,2.09,0,0,0,.49.19,3.9,3.9,0,0,0,.57.13v.89h-7.42v-.89l.62-.07a3.22,3.22,0,0,0,.53-.12.88.88,0,0,0,.53-.41,1.57,1.57,0,0,0,.15-.74v-7.1A1.54,1.54,0,0,0,320,288a1.6,1.6,0,0,0-.52-.6,2,2,0,0,0-.55-.25,4.07,4.07,0,0,0-.74-.13v-.89l5.82-.32.19.18v1.77h0l.83-.73a7.54,7.54,0,0,1,.91-.69,4,4,0,0,1,1.18-.5,5.65,5.65,0,0,1,1.56-.21,3.76,3.76,0,0,1,3,1.13,4.37,4.37,0,0,1,1,3v6a1.63,1.63,0,0,0,.14.73.93.93,0,0,0,.5.42,2.92,2.92,0,0,0,.48.17,3.73,3.73,0,0,0,.65.13Z"/><path class="cls-1" d="M345.68,298.11H338v-.89l.62-.07a2,2,0,0,0,.53-.12,1.06,1.06,0,0,0,.55-.42,1.5,1.5,0,0,0,.15-.73v-7.1a1.44,1.44,0,0,0-.19-.75,1.53,1.53,0,0,0-.49-.52,2.65,2.65,0,0,0-.66-.28,4,4,0,0,0-.82-.17v-.89l6-.32.18.18v9.7a1.37,1.37,0,0,0,.18.72,1.12,1.12,0,0,0,.53.45,3.65,3.65,0,0,0,.53.19,4.13,4.13,0,0,0,.61.13Zm-1.78-16.65a2.1,2.1,0,0,1-.71,1.58,2.45,2.45,0,0,1-1.69.65,2.48,2.48,0,0,1-1.71-.65,2.12,2.12,0,0,1,0-3.17,2.45,2.45,0,0,1,1.71-.66,2.38,2.38,0,0,1,1.69.66A2.07,2.07,0,0,1,343.9,281.46Z"/><path class="cls-1" d="M365,303.53h-8.56v-.91c.23,0,.5,0,.83-.08a2.89,2.89,0,0,0,.75-.15.84.84,0,0,0,.53-.44,1.61,1.61,0,0,0,.16-.76v-4.26l-.1,0q-.19.19-.54.48a3.87,3.87,0,0,1-.81.5,6,6,0,0,1-1,.39,4.53,4.53,0,0,1-1.28.14,5.2,5.2,0,0,1-4.09-1.75,6.84,6.84,0,0,1-1.56-4.74,5.94,5.94,0,0,1,1.86-4.48,6.56,6.56,0,0,1,4.72-1.78,9.9,9.9,0,0,1,2.6.32,11.42,11.42,0,0,1,2.16.85l1.59-1.56.68.16c0,.51-.07,1.18-.12,2s-.08,1.52-.08,2.06V301a1.65,1.65,0,0,0,.17.77,1,1,0,0,0,.53.49,4.93,4.93,0,0,0,.73.23,6.25,6.25,0,0,0,.83.14Zm-6.29-7.85v-6.9a3.84,3.84,0,0,0-.24-.66,2.5,2.5,0,0,0-.43-.68,2.06,2.06,0,0,0-.66-.5,2.16,2.16,0,0,0-1-.2,2.23,2.23,0,0,0-2,1.43,8.58,8.58,0,0,0-.75,3.94,9,9,0,0,0,.16,1.82,4.8,4.8,0,0,0,.47,1.37,3,3,0,0,0,.88,1,2.31,2.31,0,0,0,1.36.35,2.63,2.63,0,0,0,1.27-.26A2.89,2.89,0,0,0,358.7,295.68Z"/><path class="cls-1" d="M383.63,297.85l-5.82.35-.18-.17v-1.6h-.07l-.81.74a5,5,0,0,1-.95.66,5.63,5.63,0,0,1-1.18.48,6,6,0,0,1-1.61.16,3.55,3.55,0,0,1-2.82-1.11,4.55,4.55,0,0,1-1-3.14v-5.49A1.37,1.37,0,0,0,369,288a2,2,0,0,0-.48-.54,1.66,1.66,0,0,0-.63-.26c-.26-.05-.5-.08-.71-.1v-.89l5.9-.32.13.18v8.12a2.89,2.89,0,0,0,.49,1.86,1.59,1.59,0,0,0,1.32.59,2.79,2.79,0,0,0,1.56-.45,3.19,3.19,0,0,0,1-1v-6.58a1.79,1.79,0,0,0-.15-.75,1.4,1.4,0,0,0-.47-.53,1.51,1.51,0,0,0-.63-.2l-.83-.07v-.89l5.93-.32.18.18v9.43a1.47,1.47,0,0,0,.17.72,1.52,1.52,0,0,0,.5.51,1.37,1.37,0,0,0,.6.2,6.21,6.21,0,0,0,.73.07Z"/><path class="cls-1" d="M400.11,295.19a7.91,7.91,0,0,1-1,1.31,6.57,6.57,0,0,1-1.38,1.06,7.36,7.36,0,0,1-1.65.7,7,7,0,0,1-1.92.24A8.35,8.35,0,0,1,391,298a6,6,0,0,1-2.17-1.38,5.38,5.38,0,0,1-1.27-2,7.55,7.55,0,0,1-.42-2.56,6.41,6.41,0,0,1,.45-2.38,6.63,6.63,0,0,1,1.3-2,6.38,6.38,0,0,1,2.1-1.4,7.09,7.09,0,0,1,2.82-.54,8,8,0,0,1,2.81.42,4.89,4.89,0,0,1,1.82,1.15,4.15,4.15,0,0,1,1,1.64,6.22,6.22,0,0,1,.32,2v.79h-8.25a6.37,6.37,0,0,0,1,3.81,4,4,0,0,0,5.13.68,5.91,5.91,0,0,0,1.56-1.59Zm-4.66-4.64c0-.49,0-1-.08-1.5a5.28,5.28,0,0,0-.25-1.26,2,2,0,0,0-.57-.87,1.44,1.44,0,0,0-.91-.29,1.69,1.69,0,0,0-1.5.95,6.39,6.39,0,0,0-.61,3Z"/><path class="cls-1" d="M409.44,296.08a2.29,2.29,0,0,1-.71,1.67,2.4,2.4,0,0,1-3.4,0,2.3,2.3,0,0,1-.71-1.68,2.41,2.41,0,0,1,4.82,0Z"/></svg>