<svg id="Layer_1" data-name="Layer 1" xmlns="http://www.w3.org/2000/svg" viewBox="0 0 464 361"><defs><style>.cls-1{fill:#fff;}</style></defs><path class="cls-1" d="M84,111.71q4,1.4,8.51,2.81l2-3.6,1.84,1.23L88.05,127c.41,0,1,0,1.93-.08s1.55-.09,2-.09a26,26,0,0,1,13.86,3.86,13.88,13.88,0,0,1,6.84,11.93q.09,8.34-7.28,15.09-4.47,4.22-14.65,9.3l-10.44-4.3q-10.53,5.1-17.81,5.09a12.49,12.49,0,0,1-6.85-1.84,6.19,6.19,0,0,1-3.42-5.7,7.69,7.69,0,0,1,4-6.93,16.94,16.94,0,0,1,8.16-2.11c1.17,0,2.4,0,3.68.13s2.6.25,4,.48l2.19-4H71.12a20.19,20.19,0,0,1-10.53-2.72q-5.45-3.24-5.62-8.78t6.76-8.33q-.45-4.92,5-10.88c.64-.64,1.74-1.67,3.29-3.07s3.58-3.13,6.1-5.18C78.69,109.81,81.32,110.77,84,111.71ZM61,158a7.46,7.46,0,0,0-3.69.79A3.73,3.73,0,0,0,55.5,162c0,1.35.79,2.4,2.37,3.16a10.54,10.54,0,0,0,4.21.79,28.89,28.89,0,0,0,14.83-4.21A40.37,40.37,0,0,0,61,158Zm17.1-22.47c-1.22.06-2.72.15-4.47.27q-8.77.09-11.23-6.23-2.19,2.28-2.19,4.12.07,6.68,12.45,6.67c.24,0,.68,0,1.32,0l2.55-.13,1.84-.09,2.54-4.74C80.3,135.37,79.36,135.43,78.13,135.48ZM69.62,118.2a5.87,5.87,0,0,0-2.1,4.39q0,5.35,8.51,5.35c1.17,0,2.78-.09,4.82-.26l4.65-.44L88.4,122q-6.93-5.18-14.13-5.35A6.91,6.91,0,0,0,69.62,118.2Zm4.83,34c2.22.46,4.49,1,6.8,1.66s4.69,1.38,7.15,2.2q5.79-3.51,5.88-6.67a2.12,2.12,0,0,0-1.76-2.11,10.73,10.73,0,0,0-3.15-.35c-1.53,0-3.34.08-5.44.22s-4.51.37-7.2.66Zm6.76-12.38a71.8,71.8,0,0,1,9.65-.79q11.22,0,11.23,7.64.16,5-10.53,10.44l7.19,2.81q8-6.67,7.9-13.95-.18-11.51-15.09-11.5a41.45,41.45,0,0,0-7.9.62Z"/><path class="cls-1" d="M158,124.43l6.58,6.23-2.2,2.54v23.69a3.43,3.43,0,0,0,2.11,3.07l1.4-1.31,1.32,1.4-7.72,6.58q-5.44-2.28-5.44-9.39V133.12l-2.55-2.9Zm8.07-12.9-6.41,9.65h-.7l1.93-9.65Z"/><path class="cls-1" d="M261.07,124.43q5.08,2.46,5.09,7.19l8.16-7.19,5.7,6.76-5.79,5.35-4.83-5.44-3.16,2.72v22.81l4.48,3.51,2.28-2,1.14,1.41-7.63,7.1a26.5,26.5,0,0,0-10.79-6.58,7.62,7.62,0,0,0,2.37-5.88V135.22a5.41,5.41,0,0,0-1.58-3.6l-1.5,1.23-1.31-1.31Z"/><path class="cls-1" d="M296.87,124.43l11,11.84q-3.42,2.64-7,5.53t-7.37,6.06V157l6.67,3.16,5.35-3.77,1.23,1.31q-4.12,2.9-11.84,8.95a30.12,30.12,0,0,0-11.76-4.74c1.64-1.22,2.46-3.36,2.46-6.4v-24A48.46,48.46,0,0,0,296.87,124.43ZM293,145.57l7.9-6.49-7.9-8.42Z"/><path class="cls-1" d="M322.66,124.43l8.69,6-3.69,5.71-7.19-4.92v25.18l6.84,3.51,3.6-2.89,1.14,1.32-10.27,8.33a20,20,0,0,0-11.67-6c1.64-1.28,2.46-3.45,2.46-6.49V131.45A25,25,0,0,0,322.66,124.43Z"/><path class="cls-1" d="M341.61,97.23a9.85,9.85,0,0,1,8.07-4.39l.18.36c-2.63,2.22-3.95,4.68-3.95,7.36v34.57l10.53-10.7,7.63,8.77-7.81,7.72a17.31,17.31,0,0,1,6,10l.7,4.56a10.65,10.65,0,0,0,1.67,4.12l1.31-1.22,1.41,1.57-7.81,6.67q-3.69-2.81-4-8.68l-7.72,8.68a67,67,0,0,0-6.18-3.51,40.25,40.25,0,0,0-5.93-2.37q2.37-1.58,2.37-5.52V130.75h-4.3V126.1H338V100.21q0-2.62-3.07-5.44l.27-.35a10.18,10.18,0,0,1,5.44,2.81Zm4.3,40.8v10l11.23-10.88-5-5.61Zm0,12.72v6.93l4.65,2.64,4.39-5.18a10.66,10.66,0,0,0-4.57-8.78Z"/><path class="cls-1" d="M122.88,97.06h1a9.85,9.85,0,0,1,8.07-4.39l.17.35q-3.94,3.33-3.94,7.46V134l11.58-9.65a13.28,13.28,0,0,1,5.44,11.14v33q0,6.75-7,11.49a40.66,40.66,0,0,1-7,3.86,34.56,34.56,0,0,1-7.9,2.28l-.26-.88a39.92,39.92,0,0,0,9.56-4.91,10.7,10.7,0,0,0,4.74-8.95V135.84a4.88,4.88,0,0,0-2.81-4.57l-6.31,5.18v21.76l2.37,2.46-6.5,6L117.53,161l2.72-2.81V130.57H116v-4.65h4.3V100q0-2.64-3.07-5.44l.26-.44A10.6,10.6,0,0,1,122.88,97.06Z"/><path class="cls-1" d="M379.35,164.7l-.93,1,1.51,1.72-3.24,4.67H186.16v-3.45h-2.74V162.6a44.39,44.39,0,0,1,6.76,3.68A49.5,49.5,0,0,1,200.27,158V137a14,14,0,0,0-2.28-7.64,11.73,11.73,0,0,0-6.23-4.91,46.09,46.09,0,0,1-8.34,9,9.54,9.54,0,0,0-5.61-9l-7.29,7.19,1.23,1.41,2-1.76a4.39,4.39,0,0,1,1.75,3.86v21a39,39,0,0,0-4.47,1.23v3l1.67-.09a6.69,6.69,0,0,1,2.8.44v8h-3v3.45H157.24a8.51,8.51,0,0,1-7-3.23l-.22.07a9.81,9.81,0,0,0,3.6,6.83v.93a8.27,8.27,0,0,0-2.3,4.46l.28.21a6.13,6.13,0,0,1,4.6-2.51h16.4v4.27h3v29.21c0,2.58-1.17,5.06-3.51,7.46q2.73-.09,6.58-3.68c2.87,3.62,5.85,5.47,8.95,5.52q-4.12-5.34-4.12-9.3V183.13h2.74v-4.27H374.39a7.52,7.52,0,0,1,5.54,1.94,24,24,0,0,1,5.53-9.77ZM183.42,136.45l4.83-4.74a7.1,7.1,0,0,1,2.8,2.11,4.85,4.85,0,0,1,1.32,3.07v22.28q-2.19-1-4.43-1.71c-1.49-.49-3-.92-4.52-1.27Zm-4.24,43.29a19.24,19.24,0,0,1-3.87-4l4.29-4.09c.58.76,1.19,1.48,1.83,2.17s1.3,1.38,2,2.07Z"/><path class="cls-1" d="M232.38,141.11v15.7a31.12,31.12,0,0,0,4.12,1.75c1.52.53,3.19,1,5,1.49V136.36c0-1.4-.9-3.1-2.72-5.09l-3.48,2.82v7Z"/><path class="cls-1" d="M215.36,141.11v15.26q2.19,1,4.43,1.88t4.69,1.8v-23.6c0-1.7-1-3.42-2.89-5.18L218.3,134v7.1Z"/><path class="cls-1" d="M243.26,124.43l-8,6.76v2.9l3.48-2.82c1.82,2,2.72,3.69,2.72,5.09v23.69c-1.81-.47-3.48-1-5-1.49a31.12,31.12,0,0,1-4.12-1.75v-15.7h0v-7.42l-.16.13q.18-4.74-5.44-9.39l-8.46,7V134l3.29-2.74c1.93,1.76,2.89,3.48,2.89,5.18v23.6q-2.46-.87-4.69-1.8t-4.43-1.88V133.91a16.28,16.28,0,0,0-2.9-8.34c-1.81-2.63-2.78-4.44-2.89-5.44q0-2.37,3.51-5.61l-.71-1.14Q204,118.11,204,124.17a12.62,12.62,0,0,0,3.42,8.16v20.18c0,3.51-.85,6-2.54,7.37a41.81,41.81,0,0,1,14.91,6.75q4.39-3.42,7.9-3.33a11.78,11.78,0,0,1,4.82,1.14c.47.23,1.1.53,1.89.88s1.68.79,2.68,1.31a32.82,32.82,0,0,1,11.67-6.49V133.38Q248.79,129.87,243.26,124.43Z"/><path class="cls-1" d="M116.33,336.05v-.59l1.86.11h1.14c.32,0,.82,0,1.5-.05l.72,0a7.79,7.79,0,0,1,1.49.11,3,3,0,0,1,1.21.5,2.91,2.91,0,0,1,.78,1,2.72,2.72,0,0,1,.32,1.18,3,3,0,0,1-.86,2.21,2.92,2.92,0,0,1-2.16.85,3.43,3.43,0,0,1-.86-.11,2.76,2.76,0,0,1-.77-.33,3.42,3.42,0,0,1,0-.62l.34,0h.27a1.7,1.7,0,0,0,1.12-.37,1.87,1.87,0,0,0,.6-1.55,2.74,2.74,0,0,0-.26-1.26,1.54,1.54,0,0,0-.62-.66,2.75,2.75,0,0,0-1.13-.23,1.53,1.53,0,0,0-.83.17.62.62,0,0,0-.1.2l.06,3.68,0,.31,0,.33v3.21a6.81,6.81,0,0,0,0,.69l1.56.2a1.89,1.89,0,0,1,0,.29,1.6,1.6,0,0,1,0,.33l-.3,0c-.16,0-.46,0-.91-.06s-1-.05-1.53-.05a13.69,13.69,0,0,0-1.85.12,3.56,3.56,0,0,1-.47,0,2.75,2.75,0,0,1,0-.34s0-.12,0-.21l.48-.16a4.18,4.18,0,0,0,.85-.36,1.68,1.68,0,0,0,.07-.41c0-.06,0-.12,0-.18s0-.39,0-.68l0-2.2-.09-2.48c0-1.17-.06-1.81-.08-1.9a.78.78,0,0,0-.19-.36,1,1,0,0,0-.45-.18A6.08,6.08,0,0,1,116.33,336.05Z"/><path class="cls-1" d="M126.15,341.5a3.88,3.88,0,0,1,.36-.89,4.34,4.34,0,0,1,.94-1,2.86,2.86,0,0,1,.89-.47,3.17,3.17,0,0,1,.84-.15,4.91,4.91,0,0,1,1.19.11,2.36,2.36,0,0,1,.75.32,3.75,3.75,0,0,1,.71.62,2.76,2.76,0,0,1,.43.73,3.11,3.11,0,0,1,.18,1l-.86,0c-.24,0-.77,0-1.58-.07l-.63,0-.84,0h-.67a1.54,1.54,0,0,0,0,.19,4.56,4.56,0,0,0,.1.87,2.68,2.68,0,0,0,.31.81,2.22,2.22,0,0,0,.5.6,2.32,2.32,0,0,0,.62.36l.46.15a6,6,0,0,0,.8,0,3.44,3.44,0,0,0,.66-.2A4,4,0,0,0,132,344a4.3,4.3,0,0,1,.47.37,4.47,4.47,0,0,1-1.42,1.09,3.91,3.91,0,0,1-1.66.34,3.5,3.5,0,0,1-1-.11,2.83,2.83,0,0,1-1-.43,2.93,2.93,0,0,1-.73-.72,3.33,3.33,0,0,1-.45-.88,3.28,3.28,0,0,1-.2-.95A6.46,6.46,0,0,1,126.15,341.5Zm4.54-.33a2.14,2.14,0,0,0-.17-.84,1.33,1.33,0,0,0-.51-.63,1.2,1.2,0,0,0-1.64.24,2,2,0,0,0-.47,1.25l1.78,0,.48,0,.32,0Z"/><path class="cls-1" d="M133.3,345.25a1.65,1.65,0,0,1,.38-.12,2.3,2.3,0,0,0,.5-.12.34.34,0,0,0,.15-.17,2.62,2.62,0,0,0,0-.69v-1.24l0-.82v-.49a3.56,3.56,0,0,0-.08-.81.46.46,0,0,0-.2-.23,2.32,2.32,0,0,0-.74-.31v-.37l.19-.05a4.77,4.77,0,0,0,.62-.15,3.71,3.71,0,0,0,.56-.22l.12-.07.21-.15a3,3,0,0,0,.57-.57l.42,0,0,.88a1.79,1.79,0,0,0,0,.21s0,.16,0,.36a4.4,4.4,0,0,1,1.18-.78,3.29,3.29,0,0,1,1.32-.29,2.32,2.32,0,0,1,1.29.36,1.67,1.67,0,0,1,.72.84,6.69,6.69,0,0,1,.17,1.93l0,2.55a.67.67,0,0,0,.06.3,1.87,1.87,0,0,0,.43.11l.39.07a.49.49,0,0,1,.07.25c0,.06,0,.14,0,.25l-1.53-.11-.45,0h-.36l-1,.07H138a1,1,0,0,1,0-.15c0-.09,0-.19,0-.3l.54-.08a1.32,1.32,0,0,0,.26-.05c.11,0,.17-.08.18-.13a1.34,1.34,0,0,0,.06-.5v-1.92a5.89,5.89,0,0,0-.21-2.06.93.93,0,0,0-.88-.58,2.06,2.06,0,0,0-.91.22,4.35,4.35,0,0,0-1,.67v1.15l0,1.25,0,.2a4.74,4.74,0,0,0,.11,1.44,1.61,1.61,0,0,0,.78.36c0,.09,0,.16,0,.2a1.58,1.58,0,0,1,0,.29h-.41a3.21,3.21,0,0,1-.52-.05l-.84,0c-.41,0-1,0-1.8.06a.47.47,0,0,1,0-.16S133.3,345.37,133.3,345.25Zm6.34-9.41h.45a2.23,2.23,0,0,1-.48,1.52,1.47,1.47,0,0,1-1.15.53,2.72,2.72,0,0,1-.63-.08,6.72,6.72,0,0,1-.8-.29,5.84,5.84,0,0,0-.66-.26,1.12,1.12,0,0,0-.32,0,.6.6,0,0,0-.42.13,1.08,1.08,0,0,0-.26.53h-.46a1.88,1.88,0,0,0,0-.29,1.8,1.8,0,0,1,.5-1.25,1.47,1.47,0,0,1,1.09-.51,2.8,2.8,0,0,1,.59.07,7,7,0,0,1,.82.3l.7.27a1.84,1.84,0,0,0,.39,0,.55.55,0,0,0,.38-.13A1.17,1.17,0,0,0,139.64,335.84Z"/><path class="cls-1" d="M149,344.17l.18.12a.22.22,0,0,1,.09.13v0a1.94,1.94,0,0,1-.49,1,1.12,1.12,0,0,1-.76.26,1.24,1.24,0,0,1-.79-.25,2.11,2.11,0,0,1-.61-.9,2.15,2.15,0,0,1-.94.9,3.4,3.4,0,0,1-1.5.3,1.73,1.73,0,0,1-1.19-.34,1.14,1.14,0,0,1-.39-.9,1.27,1.27,0,0,1,.12-.52,1.85,1.85,0,0,1,.36-.53,4,4,0,0,1,.82-.57l.59-.27,2-.78c0-.2,0-.4,0-.6a2.86,2.86,0,0,0-.25-1.44.63.63,0,0,0-.55-.23,1.72,1.72,0,0,0-.72.15,1,1,0,0,0-.48.38,1.93,1.93,0,0,0-.18.65,1,1,0,0,1-.11.4,1,1,0,0,1-.42.27l-.42.17a1.61,1.61,0,0,1-.67.21.37.37,0,0,1-.11-.27,1.47,1.47,0,0,1,.19-.77,3.25,3.25,0,0,1,.84-.87,3.89,3.89,0,0,1,1.06-.6,5.25,5.25,0,0,1,1.64-.22,2.39,2.39,0,0,1,1.08.23,1.21,1.21,0,0,1,.62.68,5.09,5.09,0,0,1,.18,1.64l0,1.29,0,.94v.24a.8.8,0,0,0,.09.45.26.26,0,0,0,.22.12.24.24,0,0,0,.15,0l.23-.37Zm-2.56-1.81a5.15,5.15,0,0,0-1,.5,2.37,2.37,0,0,0-.78.7,1.23,1.23,0,0,0-.16.63.75.75,0,0,0,.21.55.6.6,0,0,0,.47.22,1.11,1.11,0,0,0,.74-.25,1.39,1.39,0,0,0,.48-.53,4.79,4.79,0,0,0,.07-1.13Q146.51,342.71,146.48,342.36Z"/><path class="cls-1" d="M149.54,345.29a.92.92,0,0,1,.45-.15c.36,0,.57-.09.62-.16a1.44,1.44,0,0,0,.16-.83v-4.3l0-1.8v-.31a3.17,3.17,0,0,0-.1-.95,1.14,1.14,0,0,0-.59-.16,2,2,0,0,1-.36,0c0-.13,0-.23,0-.29a.78.78,0,0,1,0-.14,5.26,5.26,0,0,0,1.27-.32,4,4,0,0,0,1-.5h.42c0,1.8,0,3,0,3.7,0,.2,0,.36,0,.48v3.65l0,1.14v.18a.8.8,0,0,0,.11.48.61.61,0,0,0,.39.13l.65.07a1.76,1.76,0,0,1,0,.27c0,.05,0,.12,0,.22l-.62,0q-.51,0-1.29,0h-.29c-.3,0-.73,0-1.29.07h-.57Z"/><path class="cls-1" d="M160.42,340a3.21,3.21,0,0,1,.75,1.11,3.31,3.31,0,0,1,.24,1.18,3.69,3.69,0,0,1-.32,1.69,3.25,3.25,0,0,1-1.3,1.43,3.83,3.83,0,0,1-1.91.46,3.75,3.75,0,0,1-2.07-.54A3.33,3.33,0,0,1,154.6,344a3.59,3.59,0,0,1-.37-1.72,3.49,3.49,0,0,1,.17-1.05,3.08,3.08,0,0,1,.48-.92,3.33,3.33,0,0,1,1.71-1.19,4.34,4.34,0,0,1,1.28-.16A3.35,3.35,0,0,1,160.42,340Zm-4.27,2.7c0,.64.08,1,.1,1.12a2.81,2.81,0,0,0,.32.9,1.32,1.32,0,0,0,.49.43,1.74,1.74,0,0,0,.82.18,1.36,1.36,0,0,0,1-.36,2.11,2.11,0,0,0,.56-1.14,8.23,8.23,0,0,0,.11-1.66,3.26,3.26,0,0,0-.47-2,1.5,1.5,0,0,0-1.23-.59,1.48,1.48,0,0,0-1,.34,1.83,1.83,0,0,0-.55,1A11.41,11.41,0,0,0,156.15,342.65Z"/><path class="cls-1" d="M162,345.29a.92.92,0,0,1,.45-.15c.36,0,.57-.09.62-.16a1.44,1.44,0,0,0,.16-.83v-4.3l0-1.8v-.31a3.17,3.17,0,0,0-.1-.95,1.14,1.14,0,0,0-.59-.16,2,2,0,0,1-.36,0c0-.13,0-.23,0-.29a.78.78,0,0,1,0-.14,5.26,5.26,0,0,0,1.27-.32,4,4,0,0,0,1-.5h.42c0,1.8,0,3,0,3.7,0,.2,0,.36,0,.48v3.65l0,1.14v.18a.8.8,0,0,0,.11.48.61.61,0,0,0,.39.13l.65.07a1.76,1.76,0,0,1,0,.27c0,.05,0,.12,0,.22l-.62,0q-.51,0-1.29,0h-.29c-.3,0-.73,0-1.29.07h-.57Z"/><path class="cls-1" d="M166.82,341.5a3.13,3.13,0,0,1,.36-.89,4.11,4.11,0,0,1,.93-1,2.79,2.79,0,0,1,.9-.47,3.11,3.11,0,0,1,.83-.15,4.86,4.86,0,0,1,1.19.11,2.52,2.52,0,0,1,.76.32,4,4,0,0,1,.7.62,2.51,2.51,0,0,1,.43.73,2.87,2.87,0,0,1,.19,1l-.87,0c-.24,0-.77,0-1.58-.07l-.62,0-.85,0h-.67a1.34,1.34,0,0,0,0,.19,3.87,3.87,0,0,0,.1.87,2.67,2.67,0,0,0,.3.81,2.46,2.46,0,0,0,.51.6,2.18,2.18,0,0,0,.62.36l.45.15a6,6,0,0,0,.8,0,3.79,3.79,0,0,0,.67-.2,4,4,0,0,0,.69-.41c.18.13.34.26.47.37a4.5,4.5,0,0,1-1.43,1.09,3.84,3.84,0,0,1-1.65.34,3.57,3.57,0,0,1-1-.11,2.92,2.92,0,0,1-.95-.43,2.74,2.74,0,0,1-.72-.72,3.1,3.1,0,0,1-.46-.88,3.21,3.21,0,0,1-.19-.95A6.46,6.46,0,0,1,166.82,341.5Zm4.54-.33a2.56,2.56,0,0,0-.17-.84,1.33,1.33,0,0,0-.51-.63,1.25,1.25,0,0,0-.7-.22,1.24,1.24,0,0,0-.94.46,2,2,0,0,0-.48,1.25l1.78,0,.49,0,.32,0Zm-2.28-3c.16-.58.42-1.41.79-2.51l2.14,0-2.35,2.5h-.34Z"/><path class="cls-1" d="M174,345.25a1.58,1.58,0,0,1,.37-.12,2.13,2.13,0,0,0,.5-.12.42.42,0,0,0,.16-.17,3.4,3.4,0,0,0,0-.69v-1.24l0-.82v-.49a3.56,3.56,0,0,0-.08-.81.43.43,0,0,0-.19-.23,2.51,2.51,0,0,0-.75-.31v-.37l.18-.05a5.14,5.14,0,0,0,.63-.15,3.92,3.92,0,0,0,.55-.22l.13-.07.21-.15a3,3,0,0,0,.56-.57l.42,0v.88c0,.09,0,.16,0,.21s0,.16,0,.36a4.12,4.12,0,0,1,1.18-.78,3.28,3.28,0,0,1,1.31-.29,2.32,2.32,0,0,1,1.29.36,1.75,1.75,0,0,1,.73.84,7.09,7.09,0,0,1,.17,1.93l0,2.55a.67.67,0,0,0,.06.3,1.59,1.59,0,0,0,.43.11l.38.07a.41.41,0,0,1,.07.25c0,.06,0,.14,0,.25l-1.53-.11-.45,0h-.36l-1,.07h-.27v-.15c0-.09,0-.19,0-.3l.55-.08a1.47,1.47,0,0,0,.26-.05c.1,0,.16-.08.18-.13a1.34,1.34,0,0,0,.06-.5c0-.44,0-.78,0-1v-.91a5.89,5.89,0,0,0-.21-2.06,1,1,0,0,0-.89-.58,2.05,2.05,0,0,0-.9.22,3.94,3.94,0,0,0-1,.67l0,.14,0,.49,0,.52,0,1.25v.2a4.93,4.93,0,0,0,.1,1.44,1.61,1.61,0,0,0,.78.36,1.06,1.06,0,0,1,0,.2,1.13,1.13,0,0,1-.06.29h-.41a3,3,0,0,1-.51-.05l-.84,0c-.42,0-1,0-1.81.06a.45.45,0,0,1,0-.16S174,345.37,174,345.25Z"/><path class="cls-1" d="M187.08,341.67h3.71a3.38,3.38,0,0,1,.47,0c0,.25,0,.43.05.55v.13l0,.41a1.55,1.55,0,0,0,0,.23v.14H187v-.35c0-.12,0-.27,0-.43a1.53,1.53,0,0,0,0-.18v-.39Z"/><path class="cls-1" d="M205.42,335.69a13,13,0,0,1,.41,1.34,3.62,3.62,0,0,1,.15,1.06h-.71a5.08,5.08,0,0,0-1.55-1.53,3.45,3.45,0,0,0-1.78-.46A2.37,2.37,0,0,0,200,337a5.68,5.68,0,0,0-1,3.57,7.41,7.41,0,0,0,.17,1.89,4.81,4.81,0,0,0,.72,1.49,2.17,2.17,0,0,0,.85.7,3.25,3.25,0,0,0,1.47.35,3,3,0,0,0,1.66-.53,6,6,0,0,0,1.54-1.59,4.58,4.58,0,0,1,.76-.07,4.76,4.76,0,0,1-.11.62c0,.08-.07.41-.17,1l-.08.23-.1.37a3.4,3.4,0,0,1-1.34.55,10.71,10.71,0,0,1-2.13.18,8.75,8.75,0,0,1-1.81-.18,4.42,4.42,0,0,1-1.47-.57,5.32,5.32,0,0,1-1.4-1.22,4.77,4.77,0,0,1-.75-1.43,5.78,5.78,0,0,1-.25-1.73,5.22,5.22,0,0,1,1.54-3.85A5.34,5.34,0,0,1,202,335.3a15,15,0,0,1,1.82.1A10.84,10.84,0,0,1,205.42,335.69Z"/><path class="cls-1" d="M207,345.15l.7-.09A.51.51,0,0,0,208,345a1.24,1.24,0,0,0,.08-.56v-.55l0-.59v-1.19l0-.13,0-2.83v-.22a11.86,11.86,0,0,0-.08-1.8.52.52,0,0,0-.22-.32,2.51,2.51,0,0,0-.83-.22v-.16c0-.08,0-.18,0-.29l.66-.14.37-.1a5.76,5.76,0,0,0,1.11-.39l.22-.11.42,0,0,4.67a5.52,5.52,0,0,1,1.3-.8,3.35,3.35,0,0,1,1.22-.23,2.41,2.41,0,0,1,1,.21,2,2,0,0,1,.68.53,2.08,2.08,0,0,1,.34.77,6.15,6.15,0,0,1,.07,1.18v1.6l0,1.59c0,.05,0,.08.07.09a2.14,2.14,0,0,0,.46.11l.33.07a.45.45,0,0,1,.06.19v.06a1.78,1.78,0,0,0,0,.26h-.18l-.46,0c-.44,0-.81-.06-1.1-.06l-.78,0h-.87a.41.41,0,0,1-.16,0v-.29a.45.45,0,0,1,0-.17,1,1,0,0,1,.41-.11l.45-.06c0-.1,0-.16,0-.19l0-1.14v-1.92a4.8,4.8,0,0,0-.09-1.15.93.93,0,0,0-.39-.49,1.29,1.29,0,0,0-.72-.19,2.19,2.19,0,0,0-1,.23,3.06,3.06,0,0,0-.79.54v1.37c0,.75,0,1.31,0,1.69,0,.22,0,.36,0,.42a2.46,2.46,0,0,0,.07.74.35.35,0,0,0,.17.17l.48,0a.9.9,0,0,1,.31,0c0,.12,0,.21,0,.26a1.48,1.48,0,0,1,0,.27l-.87,0-.88,0-1.1,0h-.76a1.22,1.22,0,0,1-.17-.39Z"/><path class="cls-1" d="M222.72,344.17l.18.12a.26.26,0,0,1,.08.13v0a1.86,1.86,0,0,1-.49,1,1.12,1.12,0,0,1-.76.26,1.24,1.24,0,0,1-.79-.25,2.2,2.2,0,0,1-.61-.9,2.15,2.15,0,0,1-.94.9,3.4,3.4,0,0,1-1.5.3,1.73,1.73,0,0,1-1.19-.34,1.14,1.14,0,0,1-.38-.9,1.25,1.25,0,0,1,.11-.52,1.71,1.71,0,0,1,.37-.53,3.91,3.91,0,0,1,.81-.57l.6-.27,1.94-.78q0-.3,0-.6a2.83,2.83,0,0,0-.26-1.44.63.63,0,0,0-.55-.23,1.72,1.72,0,0,0-.72.15,1,1,0,0,0-.47.38,1.68,1.68,0,0,0-.19.65,1.39,1.39,0,0,1-.1.4,1,1,0,0,1-.43.27l-.42.17a1.61,1.61,0,0,1-.67.21.37.37,0,0,1-.11-.27,1.47,1.47,0,0,1,.19-.77,3.3,3.3,0,0,1,.85-.87,3.62,3.62,0,0,1,1.06-.6,5.16,5.16,0,0,1,1.64-.22,2.38,2.38,0,0,1,1.07.23,1.27,1.27,0,0,1,.63.68,5.48,5.48,0,0,1,.17,1.64v2.47a.8.8,0,0,0,.09.45.27.27,0,0,0,.23.12.23.23,0,0,0,.14,0l.24-.37Zm-2.57-1.81a5.15,5.15,0,0,0-1,.5,2.37,2.37,0,0,0-.78.7,1.22,1.22,0,0,0-.15.63.75.75,0,0,0,.2.55.62.62,0,0,0,.47.22,1.11,1.11,0,0,0,.74-.25,1.55,1.55,0,0,0,.49-.53,5.47,5.47,0,0,0,.07-1.13C220.19,342.82,220.17,342.59,220.15,342.36Z"/><path class="cls-1" d="M223.47,345.25a1.81,1.81,0,0,1,.38-.12,2.13,2.13,0,0,0,.5-.12.42.42,0,0,0,.16-.17,3.4,3.4,0,0,0,0-.69v-1.24l0-.82v-.49a3.56,3.56,0,0,0-.08-.81.46.46,0,0,0-.2-.23,2.32,2.32,0,0,0-.74-.31v-.37l.19-.05a5.14,5.14,0,0,0,.63-.15,3.92,3.92,0,0,0,.55-.22l.13-.07.21-.15a3.35,3.35,0,0,0,.56-.57l.42,0v.88a.9.9,0,0,0,0,.21,3.47,3.47,0,0,0,0,.36,4.23,4.23,0,0,1,1.17-.78,3.36,3.36,0,0,1,1.32-.29,2.32,2.32,0,0,1,1.29.36,1.67,1.67,0,0,1,.72.84,6.58,6.58,0,0,1,.18,1.93l0,2.55a.56.56,0,0,0,.07.3,1.59,1.59,0,0,0,.43.11l.38.07a.41.41,0,0,1,.07.25c0,.06,0,.14,0,.25l-1.53-.11-.45,0h-.36l-1,.07h-.27c0-.07,0-.12,0-.15s0-.19,0-.3l.55-.08a1.38,1.38,0,0,0,.25-.05c.11,0,.17-.08.18-.13a1.11,1.11,0,0,0,.07-.5c0-.44,0-.78,0-1v-.91a5.89,5.89,0,0,0-.21-2.06,1,1,0,0,0-.89-.58,2.13,2.13,0,0,0-.91.22,4.1,4.1,0,0,0-1,.67l0,.14,0,.49,0,.52,0,1.25v.2a4.93,4.93,0,0,0,.1,1.44,1.61,1.61,0,0,0,.78.36.87.87,0,0,1,0,.2,1.58,1.58,0,0,1-.05.29h-.41a3.21,3.21,0,0,1-.52-.05l-.83,0c-.42,0-1,0-1.81.06a.45.45,0,0,1,0-.16Zm6.34-9.41h.45a2.18,2.18,0,0,1-.48,1.52,1.47,1.47,0,0,1-1.15.53,2.57,2.57,0,0,1-.62-.08,6.13,6.13,0,0,1-.8-.29,6.42,6.42,0,0,0-.67-.26,1.12,1.12,0,0,0-.32,0,.6.6,0,0,0-.42.13,1.08,1.08,0,0,0-.26.53h-.46a1.88,1.88,0,0,0,0-.29,1.8,1.8,0,0,1,.5-1.25,1.49,1.49,0,0,1,1.1-.51,2.79,2.79,0,0,1,.58.07,7.67,7.67,0,0,1,.83.3l.69.27a1.84,1.84,0,0,0,.39,0,.55.55,0,0,0,.38-.13A1.17,1.17,0,0,0,229.81,335.84Z"/><path class="cls-1" d="M239.22,344.17l.18.12a.26.26,0,0,1,.08.13v0a1.86,1.86,0,0,1-.49,1,1.12,1.12,0,0,1-.76.26,1.24,1.24,0,0,1-.79-.25,2.2,2.2,0,0,1-.61-.9,2.15,2.15,0,0,1-.94.9,3.4,3.4,0,0,1-1.5.3,1.73,1.73,0,0,1-1.19-.34,1.14,1.14,0,0,1-.38-.9,1.25,1.25,0,0,1,.11-.52,1.71,1.71,0,0,1,.37-.53,3.91,3.91,0,0,1,.81-.57l.6-.27,1.94-.78q0-.3,0-.6a2.83,2.83,0,0,0-.26-1.44.63.63,0,0,0-.55-.23,1.72,1.72,0,0,0-.72.15,1,1,0,0,0-.47.38,1.68,1.68,0,0,0-.19.65,1.39,1.39,0,0,1-.1.4,1,1,0,0,1-.43.27l-.42.17a1.61,1.61,0,0,1-.67.21.37.37,0,0,1-.11-.27,1.47,1.47,0,0,1,.19-.77,3.3,3.3,0,0,1,.85-.87,3.62,3.62,0,0,1,1.06-.6,5.16,5.16,0,0,1,1.64-.22,2.38,2.38,0,0,1,1.07.23,1.27,1.27,0,0,1,.63.68,5.48,5.48,0,0,1,.17,1.64v2.47a.8.8,0,0,0,.09.45.27.27,0,0,0,.23.12.23.23,0,0,0,.14,0l.24-.37Zm-2.57-1.81a5.15,5.15,0,0,0-1,.5,2.37,2.37,0,0,0-.78.7,1.22,1.22,0,0,0-.15.63.75.75,0,0,0,.2.55.62.62,0,0,0,.47.22,1.11,1.11,0,0,0,.74-.25,1.55,1.55,0,0,0,.49-.53,5.47,5.47,0,0,0,.07-1.13C236.69,342.82,236.67,342.59,236.65,342.36Z"/><path class="cls-1" d="M240,345.25a.71.71,0,0,1,.26-.13,2.39,2.39,0,0,0,.76-.31,5.78,5.78,0,0,0,.07-1.27c0-1.31,0-2.2-.08-2.66a.3.3,0,0,0-.13-.22,2.17,2.17,0,0,0-.53-.18.24.24,0,0,1-.19-.17l0-.29a2.45,2.45,0,0,0,1.05-.4,2.76,2.76,0,0,0,.7-.64,1.78,1.78,0,0,1,.22-.27l.55,0a1.89,1.89,0,0,1,0,.3v.21c0,.18,0,.33,0,.45s0,.27,0,.65a8,8,0,0,1,.47-.74,4.88,4.88,0,0,1,.41-.38,1.06,1.06,0,0,1,1.32.09.86.86,0,0,1,.3.65,1,1,0,0,1-.23.66.74.74,0,0,1-.61.29,1.14,1.14,0,0,1-.7-.28.64.64,0,0,0-.35-.17h-.06a.62.62,0,0,0-.3.3,1.69,1.69,0,0,0-.21.81v.21c0,.38,0,1.28.05,2.7a.79.79,0,0,0,.15.39.88.88,0,0,0,.28.16,2.94,2.94,0,0,0,.51.07,1.19,1.19,0,0,1,.43.1.29.29,0,0,1,.08.22.56.56,0,0,1,0,.23h-.73l-1.49-.07c-.38,0-.72,0-1,0h-.13l-.81,0a.83.83,0,0,1,0-.2A.69.69,0,0,1,240,345.25Z"/><path class="cls-1" d="M252.38,344.17l.18.12a.22.22,0,0,1,.09.13v0a1.79,1.79,0,0,1-.49,1,1.07,1.07,0,0,1-.75.26,1.27,1.27,0,0,1-.8-.25,2.19,2.19,0,0,1-.6-.9,2.17,2.17,0,0,1-.95.9,3.32,3.32,0,0,1-1.49.3,1.77,1.77,0,0,1-1.2-.34,1.17,1.17,0,0,1-.38-.9,1.43,1.43,0,0,1,.11-.52,1.89,1.89,0,0,1,.37-.53,3.76,3.76,0,0,1,.82-.57l.59-.27,2-.78c0-.2,0-.4,0-.6a2.83,2.83,0,0,0-.26-1.44.61.61,0,0,0-.55-.23,1.64,1.64,0,0,0-.71.15,1,1,0,0,0-.48.38,1.88,1.88,0,0,0-.19.65,1.1,1.1,0,0,1-.1.4,1,1,0,0,1-.43.27l-.41.17a1.65,1.65,0,0,1-.68.21.36.36,0,0,1-.1-.27,1.57,1.57,0,0,1,.18-.77,3.3,3.3,0,0,1,.85-.87,3.75,3.75,0,0,1,1.06-.6,5.21,5.21,0,0,1,1.64-.22,2.35,2.35,0,0,1,1.07.23,1.27,1.27,0,0,1,.63.68,5.16,5.16,0,0,1,.17,1.64v2.47a.8.8,0,0,0,.09.45.28.28,0,0,0,.23.12.26.26,0,0,0,.15,0l.23-.37Zm-2.56-1.81a5.2,5.2,0,0,0-1,.5,2.23,2.23,0,0,0-.77.7,1.14,1.14,0,0,0-.16.63.79.79,0,0,0,.2.55.63.63,0,0,0,.47.22,1.11,1.11,0,0,0,.74-.25,1.55,1.55,0,0,0,.49-.53,4.79,4.79,0,0,0,.07-1.13Q249.85,342.71,249.82,342.36Z"/><path class="cls-1" d="M252.87,345.29a1,1,0,0,1,.46-.15c.36,0,.57-.09.62-.16a1.53,1.53,0,0,0,.16-.83V342l0-.52v-3.69a3.1,3.1,0,0,0-.11-.95,1.11,1.11,0,0,0-.59-.16,2,2,0,0,1-.35,0,1.8,1.8,0,0,1,0-.29.71.71,0,0,1,0-.14,5.33,5.33,0,0,0,1.28-.32,4.39,4.39,0,0,0,1-.5h.41c0,1.8.05,3,.05,3.7,0,.2,0,.36,0,.48v0l0,.15v4.78a.8.8,0,0,0,.11.48.66.66,0,0,0,.4.13l.64.07a1,1,0,0,1,0,.27,2,2,0,0,1,0,.22l-.62,0c-.34,0-.78,0-1.3,0h-.29c-.29,0-.72,0-1.29.07h-.57Z"/><path class="cls-1" d="M263,339.65a3.07,3.07,0,0,1,.74-.38,4.63,4.63,0,0,1,1-.18h.43a2.69,2.69,0,0,1,1.64.58V339l0-.83a4,4,0,0,0-.21-1.67.43.43,0,0,0-.41-.23,1.21,1.21,0,0,1-.47-.1v-.38a1.35,1.35,0,0,1,.38-.05,4.79,4.79,0,0,0,.92-.16l.26-.05.78-.18.29-.06.12,0a1.13,1.13,0,0,1,.05.24v.26c0,.14,0,.53,0,1.16v1l0,.81,0,.48c0,.21,0,.54,0,1v.68a2.26,2.26,0,0,0,0,.33v.6c0,.15,0,.36,0,.62s0,.52,0,.74a1.93,1.93,0,0,1,0,.24V344c0,.19,0,.41,0,.68a2.37,2.37,0,0,0,.69.12l.31,0a1.2,1.2,0,0,1,0,.17.57.57,0,0,1-.06.21,6.66,6.66,0,0,1-.67.12,4.81,4.81,0,0,0-1.52.37.74.74,0,0,1-.31.13l-.19,0v-.18a5.22,5.22,0,0,0,0-.68l-.29.16a4.11,4.11,0,0,1-.95.44,3.73,3.73,0,0,1-1,.12,2.9,2.9,0,0,1-1.57-.37,3,3,0,0,1-1.2-1.31,4.2,4.2,0,0,1-.33-1.68A3.34,3.34,0,0,1,263,339.65Zm2.41,5.16a1.47,1.47,0,0,0,.28,0,1.63,1.63,0,0,0,.55-.11,2.76,2.76,0,0,0,.62-.31c0-.17,0-.28,0-.32,0-1.65,0-2.65-.07-3a1.59,1.59,0,0,0-.51-1,1.52,1.52,0,0,0-1-.37,1.78,1.78,0,0,0-.65.12,1.34,1.34,0,0,0-.5.36,2.32,2.32,0,0,0-.44.78,3.52,3.52,0,0,0-.2,1.14,3.12,3.12,0,0,0,.53,2A2,2,0,0,0,265.45,344.81Z"/><path class="cls-1" d="M270.49,341.5a3.88,3.88,0,0,1,.36-.89,4.11,4.11,0,0,1,.93-1,2.79,2.79,0,0,1,.9-.47,3.11,3.11,0,0,1,.83-.15,4.86,4.86,0,0,1,1.19.11,2.42,2.42,0,0,1,.76.32,3.66,3.66,0,0,1,.7.62,2.78,2.78,0,0,1,.44.73,3.11,3.11,0,0,1,.18,1l-.87,0c-.24,0-.76,0-1.58-.07l-.62,0-.84,0h-.68a1.34,1.34,0,0,0,0,.19,3.87,3.87,0,0,0,.1.87,3,3,0,0,0,.3.81,2.46,2.46,0,0,0,.51.6,2.32,2.32,0,0,0,.62.36l.45.15a6.31,6.31,0,0,0,.81,0,3.44,3.44,0,0,0,.66-.2,4,4,0,0,0,.69-.41,5.55,5.55,0,0,1,.47.37,4.5,4.5,0,0,1-1.43,1.09,3.84,3.84,0,0,1-1.65.34,3.57,3.57,0,0,1-1-.11,2.78,2.78,0,0,1-.94-.43,2.63,2.63,0,0,1-.73-.72,3.06,3.06,0,0,1-.45-.88,3.28,3.28,0,0,1-.2-.95A6.46,6.46,0,0,1,270.49,341.5Zm4.54-.33a2.33,2.33,0,0,0-.17-.84,1.33,1.33,0,0,0-.51-.63,1.2,1.2,0,0,0-1.64.24,2,2,0,0,0-.48,1.25l1.78,0,.49,0,.32,0Z"/><path class="cls-1" d="M281.12,345.64v-.54a4.24,4.24,0,0,1,.52-.11,2.42,2.42,0,0,0,.73-.21,1.4,1.4,0,0,0,.32-.46l1.58-4.13,1.85-4.85H287l.07.14,1.36,3.22c.3.68.58,1.34.82,2s.46,1.16.64,1.57l.43,1.1a9.26,9.26,0,0,0,.42,1,1.2,1.2,0,0,0,.24.38.91.91,0,0,0,.46.16,3.45,3.45,0,0,1,.68.18,2.31,2.31,0,0,1,0,.38,1.36,1.36,0,0,1,0,.18c-.38,0-.81,0-1.27-.06s-.88-.05-1.25-.05h-.89l-1.33.07-.38,0a4.52,4.52,0,0,1,0-.53l.87-.18a1.49,1.49,0,0,0,.45-.16.25.25,0,0,0,.08-.18.52.52,0,0,0,0-.21l-.31-.77-.61-1.53h-3c-.11.25-.34.87-.69,1.84a2.39,2.39,0,0,0-.14.56.33.33,0,0,0,.11.29,1.35,1.35,0,0,0,.68.21l.56.09c0,.19,0,.32,0,.39a1.1,1.1,0,0,1,0,.18c-.32,0-1.09,0-2.31-.13l-.32.05a7.36,7.36,0,0,1-1.1.1Zm3.67-4.4,2.15,0h.2c-.16-.46-.36-1-.61-1.62s-.45-1.09-.61-1.41Z"/><path class="cls-1" d="M298.51,343.6l.18.1a.77.77,0,0,1,.29.19,2.43,2.43,0,0,1-1,1.35,3.5,3.5,0,0,1-2.06.57,3.83,3.83,0,0,1-1.54-.32,3.21,3.21,0,0,1-1.22-.87,2.67,2.67,0,0,1-.53-1,3.6,3.6,0,0,1-.17-1,3.75,3.75,0,0,1,.21-1.15,3.48,3.48,0,0,1,.74-1.22,3.6,3.6,0,0,1,1.3-.9,4.33,4.33,0,0,1,1.77-.34,3.12,3.12,0,0,1,1.88.42,1.13,1.13,0,0,1,.53.85,1,1,0,0,1-.21.65.76.76,0,0,1-.59.24.93.93,0,0,1-.59-.21,1.55,1.55,0,0,1-.45-.71,1.13,1.13,0,0,0-.36-.53.91.91,0,0,0-.52-.15,1.79,1.79,0,0,0-1.32.62,2.48,2.48,0,0,0-.57,1.72,2.93,2.93,0,0,0,.7,2.07,2.12,2.12,0,0,0,1.61.77,2.41,2.41,0,0,0,.76-.1,3.19,3.19,0,0,0,.53-.3,2.91,2.91,0,0,0,.32-.34Z"/><path class="cls-1" d="M300,341.5a3.88,3.88,0,0,1,.36-.89,4.11,4.11,0,0,1,.93-1,2.79,2.79,0,0,1,.9-.47A3.11,3.11,0,0,1,303,339a4.86,4.86,0,0,1,1.19.11,2.42,2.42,0,0,1,.76.32,3.66,3.66,0,0,1,.7.62,2.78,2.78,0,0,1,.44.73,3.11,3.11,0,0,1,.18,1l-.87,0c-.24,0-.76,0-1.58-.07l-.62,0-.84,0h-.68a1.34,1.34,0,0,0,0,.19,3.87,3.87,0,0,0,.1.87,3,3,0,0,0,.3.81,2.46,2.46,0,0,0,.51.6,2.32,2.32,0,0,0,.62.36l.45.15a6.31,6.31,0,0,0,.81,0,3.44,3.44,0,0,0,.66-.2,4,4,0,0,0,.69-.41,5.55,5.55,0,0,1,.47.37,4.5,4.5,0,0,1-1.43,1.09,3.84,3.84,0,0,1-1.65.34,3.57,3.57,0,0,1-1-.11,2.78,2.78,0,0,1-.94-.43,2.63,2.63,0,0,1-.73-.72,3.06,3.06,0,0,1-.45-.88,3.28,3.28,0,0,1-.2-.95A6.46,6.46,0,0,1,300,341.5Zm4.54-.33a2.33,2.33,0,0,0-.17-.84,1.33,1.33,0,0,0-.51-.63,1.2,1.2,0,0,0-1.64.24,2,2,0,0,0-.48,1.25l1.78,0,.49,0,.32,0Z"/><path class="cls-1" d="M307.07,345.64l0-.5.89-.12a.5.5,0,0,0,.27-.16,1.1,1.1,0,0,0,.07-.47v-.09c0-.06,0-.18,0-.34s0-.31,0-.43,0-.29,0-.57v-.76l0-1.28a3,3,0,0,0,0-.5.84.84,0,0,0-.32-.2,2.83,2.83,0,0,0-.79-.12v-.44a3.66,3.66,0,0,0,1.41-.34,3,3,0,0,0,.9-.66H310c0,.64,0,1.48,0,2.51l-.05,3.19a5.47,5.47,0,0,0,0,.6,6.52,6.52,0,0,0,.79.17,1.31,1.31,0,0,1,.34.08l0,.43h-.67c-.53,0-1.24,0-2.13,0-.25,0-.5,0-.74,0Zm1.09-9.32a.9.9,0,0,1,.28-.69.94.94,0,0,1,.7-.27,1.06,1.06,0,0,1,.76.29.84.84,0,0,1,.31.64,1.24,1.24,0,0,1-.12.53,1,1,0,0,1-.38.43,1.12,1.12,0,0,1-.54.16,1,1,0,0,1-.69-.32A1.07,1.07,0,0,1,308.16,336.32Z"/><path class="cls-1" d="M311.78,339.72a4.8,4.8,0,0,0,1.33-.77,4.91,4.91,0,0,0,.88-1.21h.44a1.49,1.49,0,0,1,.07.43c0,.27,0,.48,0,.63l0,.46v.18h.18l.74,0,.58,0a1.3,1.3,0,0,1,0,.37,2.37,2.37,0,0,1,0,.42,2.73,2.73,0,0,1-.39.05l-.25,0h-.55l-.38,0v3a8.47,8.47,0,0,0,0,1.08,1,1,0,0,0,.19.41.87.87,0,0,0,.4.08.83.83,0,0,0,.31,0,1.48,1.48,0,0,0,.34-.22l.15-.11a1.78,1.78,0,0,1,.31.3l0,.09a2,2,0,0,1-.77.68,2.42,2.42,0,0,1-1.06.24,1.56,1.56,0,0,1-1.18-.46,2,2,0,0,1-.45-1.43l0-1.37v-2.22l-.25,0-.56,0-.1,0a.27.27,0,0,1-.05-.13S311.77,339.92,311.78,339.72Z"/><path class="cls-1" d="M316.69,339.32l.14,0h2.5v.52l0,.77V343a7.91,7.91,0,0,0,.08,1.24,1,1,0,0,0,.38.52,1.2,1.2,0,0,0,.64.17,1.85,1.85,0,0,0,.57-.07,1.72,1.72,0,0,0,.5-.26,3.24,3.24,0,0,0,.37-.28,1.77,1.77,0,0,0,.31-.46l.05-1.95a4.63,4.63,0,0,0,0-.49c0-.14,0-.31,0-.52s0-.32,0-.34v-.46a1.19,1.19,0,0,0-.52-.15l-.53,0a.24.24,0,0,1-.08-.06,1.59,1.59,0,0,1,0-.23,1.8,1.8,0,0,1,0-.27l.44,0h2.4l0,.58,0,.75v3.28c0,.27,0,.43,0,.46a.46.46,0,0,0,.07.29.17.17,0,0,0,.13.1l.72,0,.09,0a2.83,2.83,0,0,1,0,.31.59.59,0,0,1,0,.17,3.13,3.13,0,0,0-.59.06,14.11,14.11,0,0,0-1.83.55h-.31v-1.28l-.27.25a5.08,5.08,0,0,1-1.18.82,2.65,2.65,0,0,1-1,.21,2.22,2.22,0,0,1-1.11-.26,1.73,1.73,0,0,1-.68-.66,2.19,2.19,0,0,1-.22-.87c0-.1,0-.61,0-1.53v-.25c0-.51,0-.89,0-1.13,0-.42,0-.69,0-.84a.7.7,0,0,0-.08-.23,1.38,1.38,0,0,0-.26-.07,2.39,2.39,0,0,1-.62-.16.11.11,0,0,1,0-.1.62.62,0,0,1,0-.13C316.67,339.53,316.67,339.44,316.69,339.32Z"/><path class="cls-1" d="M325.47,345.25a1.81,1.81,0,0,1,.38-.12,2.13,2.13,0,0,0,.5-.12.42.42,0,0,0,.16-.17,3.4,3.4,0,0,0,0-.69v-1.24l0-.82v-.49a3.56,3.56,0,0,0-.08-.81.46.46,0,0,0-.2-.23,2.32,2.32,0,0,0-.74-.31v-.37l.19-.05a5.14,5.14,0,0,0,.63-.15,3.92,3.92,0,0,0,.55-.22l.13-.07.21-.15a3.35,3.35,0,0,0,.56-.57l.42,0v.88a.9.9,0,0,0,0,.21,3.47,3.47,0,0,0,0,.36,4.23,4.23,0,0,1,1.17-.78,3.36,3.36,0,0,1,1.32-.29,2.32,2.32,0,0,1,1.29.36,1.67,1.67,0,0,1,.72.84,6.58,6.58,0,0,1,.18,1.93l0,2.55a.56.56,0,0,0,.07.3,1.59,1.59,0,0,0,.43.11l.38.07a.41.41,0,0,1,.07.25c0,.06,0,.14,0,.25l-1.53-.11-.45,0h-.36l-1,.07h-.27c0-.07,0-.12,0-.15s0-.19,0-.3l.55-.08a1.38,1.38,0,0,0,.25-.05c.11,0,.17-.08.18-.13a1.11,1.11,0,0,0,.07-.5c0-.44,0-.78,0-1v-.91a5.89,5.89,0,0,0-.21-2.06,1,1,0,0,0-.89-.58,2.13,2.13,0,0,0-.91.22,4.1,4.1,0,0,0-1,.67l0,.14,0,.49,0,.52,0,1.25v.2a4.93,4.93,0,0,0,.1,1.44,1.61,1.61,0,0,0,.78.36.87.87,0,0,1,0,.2,1.58,1.58,0,0,1-.05.29h-.41a3.21,3.21,0,0,1-.52-.05l-.83,0c-.42,0-1,0-1.81.06a.45.45,0,0,1,0-.16Z"/><path class="cls-1" d="M340.76,340a3,3,0,0,1,.75,1.11,3.34,3.34,0,0,1,.25,1.18,3.83,3.83,0,0,1-.32,1.69,3.27,3.27,0,0,1-1.31,1.43,4.22,4.22,0,0,1-4-.08,3.41,3.41,0,0,1-1.21-1.25,3.71,3.71,0,0,1-.36-1.72,3.21,3.21,0,0,1,.17-1.05,2.85,2.85,0,0,1,.47-.92,3.33,3.33,0,0,1,1.71-1.19,4.38,4.38,0,0,1,1.28-.16A3.35,3.35,0,0,1,340.76,340Zm-4.27,2.7c.05.64.08,1,.1,1.12a3.07,3.07,0,0,0,.32.9,1.32,1.32,0,0,0,.49.43,1.77,1.77,0,0,0,.82.18,1.4,1.4,0,0,0,1-.36,2.18,2.18,0,0,0,.56-1.14,9.06,9.06,0,0,0,.11-1.66,3.33,3.33,0,0,0-.47-2,1.5,1.5,0,0,0-1.24-.59,1.44,1.44,0,0,0-1,.34,1.77,1.77,0,0,0-.55,1A9.93,9.93,0,0,0,336.49,342.65Z"/><path class="cls-1" d="M212.44,189.08q.09.21.36,1.17a3.48,3.48,0,0,1,.13.93h-.62a4.61,4.61,0,0,0-1.35-1.34,3.07,3.07,0,0,0-1.56-.4,2.06,2.06,0,0,0-1.71.82,4.94,4.94,0,0,0-.88,3.13A6.34,6.34,0,0,0,207,195a4.32,4.32,0,0,0,.62,1.31,2.17,2.17,0,0,0,.75.61,2.84,2.84,0,0,0,1.29.3,2.59,2.59,0,0,0,1.45-.46,5.16,5.16,0,0,0,1.34-1.4,3.9,3.9,0,0,1,.67-.05q0,.26-.09.54c0,.07-.07.36-.16.86l-.06.21-.1.32a3,3,0,0,1-1.17.48,8.87,8.87,0,0,1-1.86.16,7.39,7.39,0,0,1-1.59-.16,3.68,3.68,0,0,1-1.28-.5,4.63,4.63,0,0,1-1.22-1.06,4,4,0,0,1-.66-1.25,5.16,5.16,0,0,1-.22-1.52,4.54,4.54,0,0,1,1.35-3.37,4.67,4.67,0,0,1,3.43-1.32c.56,0,1.09,0,1.59.08A10.91,10.91,0,0,1,212.44,189.08Z"/><path class="cls-1" d="M221.55,196.5l.16.11a.19.19,0,0,1,.07.11v0a1.64,1.64,0,0,1-.43.83,1,1,0,0,1-.66.23,1.12,1.12,0,0,1-.7-.22,2,2,0,0,1-.53-.78,1.82,1.82,0,0,1-.82.78,2.92,2.92,0,0,1-1.31.26,1.57,1.57,0,0,1-1.05-.29,1,1,0,0,1-.33-.79,1,1,0,0,1,.1-.45,1.33,1.33,0,0,1,.32-.46,3,3,0,0,1,.71-.51l.52-.23,1.71-.68c0-.18,0-.35,0-.53a2.45,2.45,0,0,0-.23-1.26.55.55,0,0,0-.48-.2,1.45,1.45,0,0,0-.63.13.87.87,0,0,0-.41.33,1.61,1.61,0,0,0-.17.57.92.92,0,0,1-.09.35.94.94,0,0,1-.37.23l-.37.16a1.43,1.43,0,0,1-.58.18.3.3,0,0,1-.1-.24,1.31,1.31,0,0,1,.17-.67,2.94,2.94,0,0,1,.74-.77,3.82,3.82,0,0,1,.92-.52,4.61,4.61,0,0,1,1.44-.19,2.1,2.1,0,0,1,.94.2,1.15,1.15,0,0,1,.55.6,4.58,4.58,0,0,1,.15,1.43v2.17a.63.63,0,0,0,.08.39.22.22,0,0,0,.19.1.18.18,0,0,0,.13,0l.21-.32Zm-2.24-1.58a4.13,4.13,0,0,0-.88.43,2.08,2.08,0,0,0-.68.61,1.08,1.08,0,0,0-.14.56.66.66,0,0,0,.18.48.54.54,0,0,0,.41.19,1,1,0,0,0,.65-.21,1.42,1.42,0,0,0,.42-.47,3.74,3.74,0,0,0,.07-1Q219.34,195.22,219.31,194.92Z"/><path class="cls-1" d="M223.66,189.55l.58-.22c.14-.05.53-.24,1.14-.56h.51c0,.13,0,.22,0,.27v.28l0,2.58v1a4.21,4.21,0,0,1,.52-.45,3.38,3.38,0,0,1,.38-.2,2.75,2.75,0,0,1,.49-.19,2.6,2.6,0,0,1,.58-.07,3.16,3.16,0,0,1,1.11.17,2.36,2.36,0,0,1,.8.54,2.67,2.67,0,0,1,.64,1,2.79,2.79,0,0,1,.17,1,3.4,3.4,0,0,1-.14.88,3.49,3.49,0,0,1-.43.95,2.88,2.88,0,0,1-.62.65,3.18,3.18,0,0,1-.92.52,3.89,3.89,0,0,1-1.17.13,3.46,3.46,0,0,1-1.7-.56l-.35-.21a4.49,4.49,0,0,0-.31.48c-.11.19-.19.31-.23.37h-.34c0-.11,0-.22,0-.34s0-.22,0-.32v-.51l0-.17a3.89,3.89,0,0,0,0-.39v-5a5.18,5.18,0,0,0-.05-1,.16.16,0,0,0,0-.1,7.36,7.36,0,0,0-.7-.27Zm2.28,3.75v1.06a13.32,13.32,0,0,0,.09,2.12,1,1,0,0,0,.45.61,1.36,1.36,0,0,0,.78.25,1.61,1.61,0,0,0,.6-.12,1.39,1.39,0,0,0,.46-.27,1.59,1.59,0,0,0,.36-.48,2.7,2.7,0,0,0,.23-.72A5.88,5.88,0,0,0,229,195a2.87,2.87,0,0,0-.23-1.11,1.74,1.74,0,0,0-.64-.82,1.63,1.63,0,0,0-.9-.27,1.77,1.77,0,0,0-.71.17A1.64,1.64,0,0,0,225.94,193.3Z"/><path class="cls-1" d="M233.4,194.16a2.73,2.73,0,0,1,.32-.77,3.31,3.31,0,0,1,.81-.88,2.66,2.66,0,0,1,.79-.42,3,3,0,0,1,.73-.13,4.8,4.8,0,0,1,1,.1,2,2,0,0,1,.66.29,3.38,3.38,0,0,1,.62.54,2.11,2.11,0,0,1,.37.64,2.52,2.52,0,0,1,.17.89h-.76l-1.38-.06-.55,0h-1.33a1,1,0,0,0,0,.16,3.51,3.51,0,0,0,.09.77,2.62,2.62,0,0,0,.26.7,2.07,2.07,0,0,0,.44.53,1.61,1.61,0,0,0,.55.31l.4.13a5.16,5.16,0,0,0,.7,0,3.66,3.66,0,0,0,.58-.17,3.61,3.61,0,0,0,.6-.36,4.24,4.24,0,0,1,.41.32,4,4,0,0,1-1.25,1,3.37,3.37,0,0,1-1.44.3,3.44,3.44,0,0,1-.88-.1,2.62,2.62,0,0,1-.83-.38,2.26,2.26,0,0,1-.64-.63,2.8,2.8,0,0,1-.39-.77,2.64,2.64,0,0,1-.17-.83A5.89,5.89,0,0,1,233.4,194.16Zm4-.29a1.83,1.83,0,0,0-.15-.73,1.15,1.15,0,0,0-1.05-.74,1.11,1.11,0,0,0-.83.4,1.76,1.76,0,0,0-.41,1.09l1.56,0,.42,0a1.69,1.69,0,0,1,.28,0Z"/><path class="cls-1" d="M241.35,197.44a.55.55,0,0,1,.23-.11,2.05,2.05,0,0,0,.67-.27,5.34,5.34,0,0,0,.06-1.11,22.56,22.56,0,0,0-.08-2.33.27.27,0,0,0-.11-.19,2.19,2.19,0,0,0-.46-.16.18.18,0,0,1-.16-.15l0-.25a2.1,2.1,0,0,0,.92-.35A2.46,2.46,0,0,0,243,192a1,1,0,0,1,.19-.24h.48a1.38,1.38,0,0,1,0,.25,1.34,1.34,0,0,1,0,.19v1c.19-.32.33-.53.41-.64a3.14,3.14,0,0,1,.37-.33A.82.82,0,0,1,245,192a.93.93,0,0,1,.63.25.75.75,0,0,1,.27.57,1,1,0,0,1-.2.58.66.66,0,0,1-.54.25,1.06,1.06,0,0,1-.62-.24.55.55,0,0,0-.3-.15h-.05a.5.5,0,0,0-.26.26,1.4,1.4,0,0,0-.19.71v.18c0,.34,0,1.13,0,2.37a1,1,0,0,0,.13.34.75.75,0,0,0,.25.13,1.66,1.66,0,0,0,.44.07.9.9,0,0,1,.39.09.25.25,0,0,1,.06.19.58.58,0,0,1,0,.2h-.64l-1.31-.06a8.2,8.2,0,0,0-.89,0h-.12l-.71,0c0-.08,0-.14,0-.17A1.49,1.49,0,0,1,241.35,197.44Z"/><path class="cls-1" d="M248.46,197.45a1,1,0,0,1,.33-.11,1.59,1.59,0,0,0,.44-.11.31.31,0,0,0,.13-.15,2.52,2.52,0,0,0,0-.6V195.4l0-.72v-.43a2.83,2.83,0,0,0-.07-.71.42.42,0,0,0-.17-.2,2.33,2.33,0,0,0-.65-.27v-.33l.16,0,.56-.14a4.17,4.17,0,0,0,.48-.19l.11-.06s.12-.09.18-.14a2.32,2.32,0,0,0,.5-.5l.37,0,0,.77a1.36,1.36,0,0,0,0,.18s0,.15,0,.32a3.7,3.7,0,0,1,1-.68A3,3,0,0,1,253,192a2,2,0,0,1,1.12.32,1.54,1.54,0,0,1,.64.74,6,6,0,0,1,.15,1.68l0,2.23a.6.6,0,0,0,0,.26,1,1,0,0,0,.38.1l.34.07a.35.35,0,0,1,.06.21c0,.06,0,.13,0,.22l-1.34-.09h-.71l-.9.06h-.24v-.13a2.35,2.35,0,0,1,0-.26l.48-.07.23,0c.09,0,.14-.08.15-.11a1.14,1.14,0,0,0,.06-.45c0-.38,0-.68,0-.88v-.8a4.92,4.92,0,0,0-.19-1.8.82.82,0,0,0-.77-.51,1.89,1.89,0,0,0-.8.2,3.41,3.41,0,0,0-.84.59v1l0,1.1v.17a4.36,4.36,0,0,0,.09,1.26,1.53,1.53,0,0,0,.68.32.59.59,0,0,1,0,.17.76.76,0,0,1-.05.25h-.35a3.54,3.54,0,0,1-.45,0l-.74,0c-.36,0-.89,0-1.58.05a.32.32,0,0,1,0-.14S248.46,197.55,248.46,197.45Z"/><path class="cls-1" d="M258.21,194.16a3.16,3.16,0,0,1,.31-.77,3.51,3.51,0,0,1,.82-.88,2.75,2.75,0,0,1,.78-.42,3.13,3.13,0,0,1,.73-.13,4.74,4.74,0,0,1,1,.1,1.83,1.83,0,0,1,.66.29,3.08,3.08,0,0,1,.62.54,2.36,2.36,0,0,1,.38.64,2.53,2.53,0,0,1,.16.89H263l-1.38-.06-.55,0H259.7a1.15,1.15,0,0,0,0,.16,3.51,3.51,0,0,0,.09.77,2.32,2.32,0,0,0,.27.7,1.89,1.89,0,0,0,.44.53,1.67,1.67,0,0,0,.54.31l.4.13a5.16,5.16,0,0,0,.7,0,3.37,3.37,0,0,0,.58-.17,3.27,3.27,0,0,0,.61-.36c.16.12.3.22.41.32a4,4,0,0,1-1.25,1,3.39,3.39,0,0,1-1.45.3,3.5,3.5,0,0,1-.88-.1,2.73,2.73,0,0,1-.83-.38,2.36,2.36,0,0,1-.63-.63,2.83,2.83,0,0,1-.4-.77,3,3,0,0,1-.17-.83A5.09,5.09,0,0,1,258.21,194.16Zm4-.29a2.26,2.26,0,0,0-.15-.73,1.17,1.17,0,0,0-.45-.55,1.05,1.05,0,0,0-1.43.21,1.71,1.71,0,0,0-.42,1.09l1.56,0,.42,0,.28,0Z"/><path class="cls-1" d="M266.29,192.6a4.27,4.27,0,0,0,1.17-.66,4.56,4.56,0,0,0,.77-1.07h.38a1.21,1.21,0,0,1,.06.38v.55l0,.4s0,.08,0,.16h.16l.64,0H270a1.33,1.33,0,0,1,0,.32,1.73,1.73,0,0,1,0,.37l-.34,0-.22,0h-.48l-.33,0v2.62a5.15,5.15,0,0,0,0,.94.83.83,0,0,0,.16.36.78.78,0,0,0,.35.08.64.64,0,0,0,.27,0,1.34,1.34,0,0,0,.3-.2l.13-.09a1.69,1.69,0,0,1,.27.26l0,.08a1.61,1.61,0,0,1-.67.59,2,2,0,0,1-.93.22,1.43,1.43,0,0,1-1-.4,1.75,1.75,0,0,1-.39-1.25l0-1.21v-1.94l-.21,0-.49,0-.09,0a.17.17,0,0,1,0-.11S266.28,192.78,266.29,192.6Z"/><path class="cls-1" d="M283,189.13a6.31,6.31,0,0,1,.12.71c.05.47.08.83.08,1.09a1.39,1.39,0,0,1,0,.27l-.06,0-.5,0-.08,0a3.48,3.48,0,0,0-.6-1.22,1.62,1.62,0,0,0-1.22-.55,1.58,1.58,0,0,0-1.07.35,1.15,1.15,0,0,0-.39.88,1.21,1.21,0,0,0,.39.84,3.94,3.94,0,0,0,1.63.77,7.73,7.73,0,0,1,1,.39,2.93,2.93,0,0,1,.89.6,2.42,2.42,0,0,1,.57.81,2.83,2.83,0,0,1,.15,1,3.44,3.44,0,0,1-.24,1.26,1.72,1.72,0,0,1-.41.62,4.13,4.13,0,0,1-.64.49,3.53,3.53,0,0,1-.89.4,4.9,4.9,0,0,1-1.19.12,5.86,5.86,0,0,1-1.14-.14l-.82-.24a1.26,1.26,0,0,1-.43-.17.31.31,0,0,1-.06-.13v-.07s0-.37,0-.94c0-.3,0-.51,0-.63v-.26h.64c.21.51.36.81.42.92a2.21,2.21,0,0,0,.47.56,1.91,1.91,0,0,0,.61.35,2.35,2.35,0,0,0,.77.12,2.54,2.54,0,0,0,.81-.15,1.5,1.5,0,0,0,.71-.52,1.27,1.27,0,0,0,.27-.77,1.25,1.25,0,0,0-.47-.94,5.59,5.59,0,0,0-1.54-.71,8.13,8.13,0,0,1-1.75-.79,2.43,2.43,0,0,1-.76-.94,2.54,2.54,0,0,1-.28-1.12,2.49,2.49,0,0,1,.78-1.85,3.13,3.13,0,0,1,2.29-.76,5.67,5.67,0,0,1,1,.12A7.26,7.26,0,0,1,283,189.13Z"/><path class="cls-1" d="M292.36,196.5l.15.11a.21.21,0,0,1,.08.11v0a1.57,1.57,0,0,1-.43.83.92.92,0,0,1-.66.23,1.08,1.08,0,0,1-.69-.22,1.89,1.89,0,0,1-.53-.78,1.84,1.84,0,0,1-.83.78,2.89,2.89,0,0,1-1.31.26,1.52,1.52,0,0,1-1-.29,1,1,0,0,1-.34-.79,1.22,1.22,0,0,1,.1-.45,1.67,1.67,0,0,1,.32-.46,2.92,2.92,0,0,1,.72-.51l.52-.23,1.7-.68c0-.18,0-.35,0-.53a2.47,2.47,0,0,0-.22-1.26.57.57,0,0,0-.48-.2,1.45,1.45,0,0,0-.63.13,1,1,0,0,0-.42.33,1.66,1.66,0,0,0-.16.57,1.18,1.18,0,0,1-.09.35.92.92,0,0,1-.38.23l-.36.16a1.46,1.46,0,0,1-.59.18.32.32,0,0,1-.09-.24,1.3,1.3,0,0,1,.16-.67,2.94,2.94,0,0,1,.74-.77,3.69,3.69,0,0,1,.93-.52A4.59,4.59,0,0,1,290,192a2.07,2.07,0,0,1,.94.2,1.08,1.08,0,0,1,.55.6,4.58,4.58,0,0,1,.15,1.43v2.17a.71.71,0,0,0,.08.39.23.23,0,0,0,.2.1.2.2,0,0,0,.13,0l.2-.32Zm-2.25-1.58a4.13,4.13,0,0,0-.88.43,2.19,2.19,0,0,0-.68.61,1.08,1.08,0,0,0-.13.56.66.66,0,0,0,.18.48.52.52,0,0,0,.41.19,1,1,0,0,0,.65-.21,1.42,1.42,0,0,0,.42-.47,4.54,4.54,0,0,0,.06-1Q290.14,195.22,290.11,194.92Z"/><path class="cls-1" d="M294.77,192.26l.12,0h2.19v.46l0,.67v2.08a6.15,6.15,0,0,0,.08,1.09.81.81,0,0,0,.33.45,1,1,0,0,0,.56.15,1.63,1.63,0,0,0,.49-.06,1.7,1.7,0,0,0,.44-.23,1.57,1.57,0,0,0,.32-.25,1.47,1.47,0,0,0,.28-.4l0-1.7c0-.18,0-.32,0-.44s0-.26,0-.44,0-.28,0-.31v-.4a1,1,0,0,0-.46-.13l-.46,0-.07-.05a1,1,0,0,1,0-.21s0-.13,0-.23l.39,0h2.1v.51l0,.65v2.88c0,.24,0,.37,0,.4a.4.4,0,0,0,.06.25q.06.09.12.09l.63,0h.08c0,.16,0,.25,0,.27s0,.08,0,.15a3.75,3.75,0,0,0-.52.05,11.82,11.82,0,0,0-1.6.49l-.27,0v-1.11a1.76,1.76,0,0,0-.24.21,4.06,4.06,0,0,1-1,.72,2.17,2.17,0,0,1-.9.19,2,2,0,0,1-1-.23,1.6,1.6,0,0,1-.6-.58,2.09,2.09,0,0,1-.19-.76c0-.09,0-.53,0-1.34v-.22c0-.44,0-.77,0-1s0-.61,0-.73a.6.6,0,0,0-.07-.2.7.7,0,0,0-.23-.06,1.65,1.65,0,0,1-.54-.15s0,0,0-.09,0-.06,0-.11A2,2,0,0,0,294.77,192.26Z"/><path class="cls-1" d="M303.82,192.22H304l1.42,0h.43l.9,0h.16a1.08,1.08,0,0,1,0,.19,1.49,1.49,0,0,1,0,.25l-.3,0a1.45,1.45,0,0,0-.42.11.12.12,0,0,0-.06.09.64.64,0,0,0,.09.29,3.56,3.56,0,0,1,.19.44c0,.11.12.28.23.5.34.7.58,1.25.73,1.65a5.5,5.5,0,0,0,.21.51c.32-.73.66-1.67,1-2.81a3.29,3.29,0,0,0,.17-.72,5.17,5.17,0,0,0-.76-.06h-.19a1.85,1.85,0,0,1,0-.23.48.48,0,0,1,.05-.24l.24,0H309c.21,0,.42,0,.65,0l.54,0h.19a1.56,1.56,0,0,1,0,.2,1.42,1.42,0,0,1,0,.19,4.39,4.39,0,0,0-1,.3l-.06.13,0,.06c-.18.55-.47,1.27-.87,2.17l-.74,1.79a3.41,3.41,0,0,1-.21.47l-.2.41h-.55a10.69,10.69,0,0,1-.55-1.12l-.93-2.08c-.23-.55-.49-1.13-.78-1.75a.85.85,0,0,0-.09-.14,2.37,2.37,0,0,1-.64-.23,1.09,1.09,0,0,1,0-.18A.58.58,0,0,1,303.82,192.22Z"/><path class="cls-1" d="M312.23,197.79v-.45l.77-.1a.46.46,0,0,0,.24-.14.88.88,0,0,0,.06-.41v-.08c0-.05,0-.15,0-.29s0-.27,0-.38,0-.26,0-.5v-.67l0-1.11a2.25,2.25,0,0,0,0-.44A.58.58,0,0,0,313,193a3.44,3.44,0,0,0-.7-.1v-.39a3.19,3.19,0,0,0,1.24-.29,2.79,2.79,0,0,0,.78-.58h.46c0,.56,0,1.3,0,2.2l-.05,2.79a4.17,4.17,0,0,0,0,.52,4.2,4.2,0,0,0,.69.15,1.37,1.37,0,0,1,.29.07v.37h-.59c-.46,0-1.08,0-1.86,0-.22,0-.44,0-.65,0Zm1-8.16a.82.82,0,0,1,.85-.84,1,1,0,0,1,.67.25.77.77,0,0,1,.27.57,1.11,1.11,0,0,1-.11.46.79.79,0,0,1-.33.37.83.83,0,0,1-.47.14.84.84,0,0,1-.61-.28A.92.92,0,0,1,313.19,189.63Z"/><path class="cls-1" d="M319.63,198.71a2.83,2.83,0,0,1-1.23-.55,1,1,0,0,1-.3-.69.62.62,0,0,1,.16-.47,12.62,12.62,0,0,1,1.5-.93,3,3,0,0,1-.93-.78,1.71,1.71,0,0,1-.33-1,2.62,2.62,0,0,1,.18-.91,2.35,2.35,0,0,1,1.05-1,3.58,3.58,0,0,1,1.72-.35,5.12,5.12,0,0,1,.73,0l.48.15.26.1a5.2,5.2,0,0,1,.6.45,8.06,8.06,0,0,0,1-.24,1.59,1.59,0,0,1,.44-.07.27.27,0,0,1,.22.11,1.21,1.21,0,0,1,.08.55,1,1,0,0,1-.1.52q-.11.15-.21.15a.77.77,0,0,1-.24-.1,2.21,2.21,0,0,0-.75-.22,2.69,2.69,0,0,1,.17.89,1.79,1.79,0,0,1-.29,1,2.15,2.15,0,0,1-.8.72,3,3,0,0,1-1.41.38,4,4,0,0,1-.61,0,5.4,5.4,0,0,1-.67-.12,4.52,4.52,0,0,0-.82.55.36.36,0,0,0-.11.26.31.31,0,0,0,.12.24.65.65,0,0,0,.4.15l.15,0q.36,0,1,0l.49,0h.19A3.75,3.75,0,0,1,324,198a1.56,1.56,0,0,1,.65,1.27,1.45,1.45,0,0,1-.23.79,1.75,1.75,0,0,1-.61.63,4.35,4.35,0,0,1-1.13.44,6.56,6.56,0,0,1-1.57.19,6.72,6.72,0,0,1-1.63-.18,2.41,2.41,0,0,1-1.14-.58.88.88,0,0,1-.31-.64.83.83,0,0,1,.26-.6A4.07,4.07,0,0,1,319.63,198.71Zm2.1,2.16a3.19,3.19,0,0,0,1.57-.54.77.77,0,0,0,.36-.56.6.6,0,0,0-.08-.29.9.9,0,0,0-.27-.29,1.25,1.25,0,0,0-.44-.19,4.58,4.58,0,0,0-.92-.07h-.84a2.83,2.83,0,0,0-1.49.27.85.85,0,0,0-.38.73.7.7,0,0,0,.22.47,1.39,1.39,0,0,0,.71.37,4.07,4.07,0,0,0,1.07.14Zm-.39-4.91a1,1,0,0,0,.78-.4,1.85,1.85,0,0,0,.33-1.22,2.61,2.61,0,0,0-.29-1.47,1,1,0,0,0-.82-.37l-.36,0a1,1,0,0,0-.6.47,1.92,1.92,0,0,0-.27,1.08c0,.12,0,.36.05.73a1.17,1.17,0,0,0,.1.4,1.21,1.21,0,0,0,.26.41,1.1,1.1,0,0,0,.36.25A1.25,1.25,0,0,0,321.34,196Z"/><path class="cls-1" d="M327.23,197.45a1,1,0,0,1,.33-.11,1.37,1.37,0,0,0,.43-.11.29.29,0,0,0,.14-.15,2.52,2.52,0,0,0,0-.6V195.4l0-.72v-.43a3.39,3.39,0,0,0-.07-.71.49.49,0,0,0-.17-.2,2.47,2.47,0,0,0-.65-.27v-.33l.16,0,.55-.14.49-.19.11-.06a1.41,1.41,0,0,1,.18-.14,2.32,2.32,0,0,0,.49-.5l.37,0v.77a1.36,1.36,0,0,0,0,.18s0,.15,0,.32a3.7,3.7,0,0,1,1-.68,3,3,0,0,1,1.15-.26,2,2,0,0,1,1.13.32,1.51,1.51,0,0,1,.63.74,6,6,0,0,1,.15,1.68l0,2.23a.48.48,0,0,0,.05.26,1,1,0,0,0,.38.1l.33.07a.35.35,0,0,1,.06.21v.22l-1.34-.09h-.71l-.91.06h-.23c0-.05,0-.1,0-.13a2.46,2.46,0,0,1,0-.26l.48-.07.22,0c.09,0,.15-.08.16-.11a1.19,1.19,0,0,0,.05-.45v-1.68a5.26,5.26,0,0,0-.18-1.8.83.83,0,0,0-.78-.51,1.88,1.88,0,0,0-.79.2,3.41,3.41,0,0,0-.84.59l0,.11,0,.43,0,.46,0,1.1v.17a4.36,4.36,0,0,0,.09,1.26,1.46,1.46,0,0,0,.68.32,1.49,1.49,0,0,1,0,.17,1.19,1.19,0,0,1-.05.25H330a3.85,3.85,0,0,1-.46,0l-.73,0c-.37,0-.89,0-1.58.05a.32.32,0,0,1,0-.14A2.07,2.07,0,0,1,327.23,197.45Z"/><path class="cls-1" d="M342.31,192.81a2.79,2.79,0,0,1,.66,1,2.92,2.92,0,0,1,.21,1,3.24,3.24,0,0,1-.28,1.47,2.79,2.79,0,0,1-1.14,1.25,3.36,3.36,0,0,1-1.67.41,3.26,3.26,0,0,1-1.81-.48,2.89,2.89,0,0,1-1.06-1.09,3.13,3.13,0,0,1-.32-1.51,3,3,0,0,1,.15-.92,2.74,2.74,0,0,1,.41-.8,3.18,3.18,0,0,1,.58-.58,3,3,0,0,1,.92-.46,3.66,3.66,0,0,1,1.12-.15A2.92,2.92,0,0,1,342.31,192.81Zm-3.74,2.36c.05.56.07.89.09,1a2.75,2.75,0,0,0,.28.78,1.08,1.08,0,0,0,.43.38,1.47,1.47,0,0,0,.72.16,1.2,1.2,0,0,0,.84-.31,1.92,1.92,0,0,0,.49-1,7.2,7.2,0,0,0,.1-1.46,2.9,2.9,0,0,0-.41-1.76,1.29,1.29,0,0,0-1.08-.52,1.28,1.28,0,0,0-.87.3,1.53,1.53,0,0,0-.48.87A8.7,8.7,0,0,0,338.57,195.17Z"/><path class="cls-1" d="M345.67,197.45a1,1,0,0,1,.33-.11,1.37,1.37,0,0,0,.43-.11.29.29,0,0,0,.14-.15,2.52,2.52,0,0,0,0-.6V195.4l0-.72v-.43a2.83,2.83,0,0,0-.07-.71.42.42,0,0,0-.17-.2,2.47,2.47,0,0,0-.65-.27v-.33l.16,0,.55-.14a4.64,4.64,0,0,0,.49-.19l.11-.06a1.41,1.41,0,0,1,.18-.14,2.57,2.57,0,0,0,.5-.5l.36,0v.77a1.36,1.36,0,0,0,0,.18s0,.15,0,.32a3.7,3.7,0,0,1,1-.68,3,3,0,0,1,1.15-.26,2,2,0,0,1,1.13.32,1.59,1.59,0,0,1,.64.74,6.42,6.42,0,0,1,.15,1.68l0,2.23a.6.6,0,0,0,.05.26,1,1,0,0,0,.38.1l.33.07a.3.3,0,0,1,.07.21c0,.06,0,.13,0,.22l-1.34-.09h-.71l-.9.06h-.24v-.13a2.35,2.35,0,0,1,0-.26l.48-.07.22,0c.09,0,.15-.08.16-.11a1.14,1.14,0,0,0,.06-.45c0-.38,0-.68,0-.88v-.8a5.17,5.17,0,0,0-.19-1.8.83.83,0,0,0-.78-.51,1.88,1.88,0,0,0-.79.2,3.41,3.41,0,0,0-.84.59l0,.11,0,.43,0,.46,0,1.1v.17a4.36,4.36,0,0,0,.09,1.26,1.53,1.53,0,0,0,.68.32,1.49,1.49,0,0,1,0,.17,1.19,1.19,0,0,1-.05.25h-.35a3.85,3.85,0,0,1-.46,0l-.73,0c-.36,0-.89,0-1.58.05a.32.32,0,0,1,0-.14A2.07,2.07,0,0,1,345.67,197.45Z"/><path class="cls-1" d="M87.08,250.43a4.57,4.57,0,0,0-.77.15,4.15,4.15,0,0,0-.76.34,2.93,2.93,0,0,0-.81.66,4.65,4.65,0,0,0-.57.95c-.25.57-.6,1.39-1.06,2.46s-1,2.31-1.56,3.68-1.09,2.6-1.69,4.07-1.19,2.88-1.74,4.24H75.67c-1.14-2.8-2.3-5.63-3.48-8.51s-2-4.89-2.49-6a4,4,0,0,0-.55-.92,3,3,0,0,0-.83-.64,3.37,3.37,0,0,0-.74-.32,5.11,5.11,0,0,0-.84-.17v-.95h9.39v.93a8.53,8.53,0,0,0-1.79.33c-.31.12-.47.27-.47.45a1.45,1.45,0,0,0,0,.28c0,.11.08.24.13.41.26.72.73,1.89,1.42,3.51s1.69,4.09,3,7.42c.82-2,1.5-3.74,2-5.13S81.57,255,82,254c.2-.52.37-1,.5-1.46a3.8,3.8,0,0,0,.21-1c0-.26-.19-.47-.57-.65a6.85,6.85,0,0,0-2.07-.39v-1h7Z"/><path class="cls-1" d="M97.35,266.78H89.64v-.89l.62-.06a2.87,2.87,0,0,0,.52-.12,1,1,0,0,0,.55-.42,1.44,1.44,0,0,0,.16-.73v-7.11a1.44,1.44,0,0,0-.19-.75,1.74,1.74,0,0,0-.49-.52,3,3,0,0,0-.67-.28,4.91,4.91,0,0,0-.81-.17v-.89l6-.32.19.19v9.69a1.41,1.41,0,0,0,.18.73,1.12,1.12,0,0,0,.52.44,3.79,3.79,0,0,0,.54.2,6,6,0,0,0,.61.12Zm-1.78-16.65a2,2,0,0,1-.72,1.58,2.54,2.54,0,0,1-3.39,0,2,2,0,0,1-.71-1.58,2.07,2.07,0,0,1,.71-1.59,2.52,2.52,0,0,1,3.4,0A2.11,2.11,0,0,1,95.57,250.13Z"/><path class="cls-1" d="M116.94,266.78H109.6v-.89l.56-.06a1.92,1.92,0,0,0,.5-.12.78.78,0,0,0,.37-.39,2.14,2.14,0,0,0,.11-.76v-5.71a3.16,3.16,0,0,0-.46-1.88,1.57,1.57,0,0,0-1.35-.63,2.67,2.67,0,0,0-.91.15,3.28,3.28,0,0,0-.83.43,2.61,2.61,0,0,0-.57.5l-.36.45v6.55a1.87,1.87,0,0,0,.12.72.88.88,0,0,0,.4.43,2.26,2.26,0,0,0,.49.2l.58.12v.89h-7.43v-.89l.62-.07a4,4,0,0,0,.53-.11.91.91,0,0,0,.54-.42,1.55,1.55,0,0,0,.15-.73v-7.11a1.55,1.55,0,0,0-.2-.74,1.85,1.85,0,0,0-.51-.6,1.82,1.82,0,0,0-.56-.24,3.89,3.89,0,0,0-.74-.14v-.89l5.83-.32.18.19v1.77h0c.23-.21.5-.45.83-.73a7.69,7.69,0,0,1,.9-.7,4.3,4.3,0,0,1,1.19-.5,5.55,5.55,0,0,1,1.56-.21,3.77,3.77,0,0,1,3,1.13,4.33,4.33,0,0,1,1,3v6a1.63,1.63,0,0,0,.13.72,1,1,0,0,0,.5.43l.48.17a5.23,5.23,0,0,0,.66.12Z"/><path class="cls-1" d="M132.89,256.11a5.45,5.45,0,0,1,1.37,2,6.6,6.6,0,0,1,.48,2.54,7,7,0,0,1-.47,2.55,5.6,5.6,0,0,1-1.37,2.06,6.56,6.56,0,0,1-2.3,1.4,8.77,8.77,0,0,1-3.06.49,8.29,8.29,0,0,1-2.74-.43,6.39,6.39,0,0,1-2.22-1.28,5.77,5.77,0,0,1-1.46-2,6.5,6.5,0,0,1-.54-2.69,6.9,6.9,0,0,1,.47-2.61,5.82,5.82,0,0,1,1.41-2,6.09,6.09,0,0,1,2.23-1.32,9.71,9.71,0,0,1,6,0A6.53,6.53,0,0,1,132.89,256.11Zm-3.13,8.46a7.22,7.22,0,0,0,.4-1.66,18.69,18.69,0,0,0,.13-2.27,18.34,18.34,0,0,0-.13-1.95,7.37,7.37,0,0,0-.36-1.74,3,3,0,0,0-.81-1.2,2,2,0,0,0-1.32-.44,1.93,1.93,0,0,0-1.38.47,3,3,0,0,0-.8,1.23,7.15,7.15,0,0,0-.36,1.63q-.09.94-.09,1.95c0,.89,0,1.62.08,2.2a7,7,0,0,0,.42,1.76,2.7,2.7,0,0,0,.8,1.19,2,2,0,0,0,1.33.44,2,2,0,0,0,1.26-.41A2.66,2.66,0,0,0,129.76,264.57Z"/><path class="cls-1" d="M166.3,266.78h-9.44v-.95a11,11,0,0,0,1.55-.24c.59-.13.89-.28.89-.47a1.8,1.8,0,0,0,0-.22,1.39,1.39,0,0,0-.11-.33L157.7,261h-6c-.14.34-.29.73-.46,1.17s-.31.85-.43,1.2a7.11,7.11,0,0,0-.27,1,3.52,3.52,0,0,0-.05.43q0,.39.6.66a6.43,6.43,0,0,0,2,.4v.95H146v-.95a7.09,7.09,0,0,0,.91-.13,2.24,2.24,0,0,0,.8-.29,3,3,0,0,0,.85-.72,3.93,3.93,0,0,0,.58-1q1.41-3.44,2.84-6.87t3.14-7.6h2.44q2.4,5.89,3.75,9.31t2.31,5.66a2.83,2.83,0,0,0,.4.67,2.74,2.74,0,0,0,.69.56,3,3,0,0,0,.8.3,7.07,7.07,0,0,0,.82.12Zm-9.11-7-2.5-6.26-2.47,6.26Z"/><path class="cls-1" d="M184.78,266.78h-7.33v-.89l.56-.06a1.92,1.92,0,0,0,.5-.12.82.82,0,0,0,.37-.39,2.14,2.14,0,0,0,.11-.76v-5.71a3.23,3.23,0,0,0-.46-1.88,1.58,1.58,0,0,0-1.36-.63,2.71,2.71,0,0,0-.91.15,3.4,3.4,0,0,0-.82.43,2.61,2.61,0,0,0-.57.5,5,5,0,0,0-.36.45v6.55a1.87,1.87,0,0,0,.12.72.84.84,0,0,0,.4.43,2.07,2.07,0,0,0,.49.2l.57.12v.89h-7.42v-.89l.62-.07a4.42,4.42,0,0,0,.53-.11.91.91,0,0,0,.54-.42,1.69,1.69,0,0,0,.14-.73v-7.11a1.54,1.54,0,0,0-.19-.74,1.58,1.58,0,0,0-1.07-.84,4,4,0,0,0-.74-.14v-.89l5.82-.32.19.19v1.77h0l.83-.73a7.72,7.72,0,0,1,.91-.7,4.22,4.22,0,0,1,1.18-.5,5.67,5.67,0,0,1,1.57-.21,3.77,3.77,0,0,1,3,1.13,4.38,4.38,0,0,1,1,3v6a1.62,1.62,0,0,0,.14.72.94.94,0,0,0,.5.43l.48.17a5.06,5.06,0,0,0,.65.12Zm-2.75-18a6,6,0,0,1-.49,1.17,5.21,5.21,0,0,1-.81,1.19,5.33,5.33,0,0,1-1.1,1,2.43,2.43,0,0,1-1.3.35,5.08,5.08,0,0,1-1.54-.21,8.88,8.88,0,0,1-1.12-.46q-.42-.22-.93-.45a2.17,2.17,0,0,0-1-.23,1.19,1.19,0,0,0-.93.41,7.83,7.83,0,0,0-.87,1.39l-.88-.36a9,9,0,0,1,.49-1.1,7.82,7.82,0,0,1,.79-1.21,4.32,4.32,0,0,1,1.05-.93,2.36,2.36,0,0,1,1.27-.4,4.86,4.86,0,0,1,1.44.2,7.44,7.44,0,0,1,1.18.47l.92.47a1.82,1.82,0,0,0,.88.19,1.56,1.56,0,0,0,1.34-.49,4.62,4.62,0,0,0,.62-1.26Z"/><path class="cls-1" d="M201.39,263.86a7.07,7.07,0,0,1-1,1.31,5.91,5.91,0,0,1-1.37,1.06,7.64,7.64,0,0,1-1.66.7,7,7,0,0,1-1.92.24,8.64,8.64,0,0,1-3.12-.51,6.12,6.12,0,0,1-2.17-1.38,5.63,5.63,0,0,1-1.27-2,7.5,7.5,0,0,1-.42-2.55,6.28,6.28,0,0,1,.46-2.39,6.13,6.13,0,0,1,1.3-2,6.21,6.21,0,0,1,2.09-1.41,7.28,7.28,0,0,1,2.83-.53,8.16,8.16,0,0,1,2.8.41,4.94,4.94,0,0,1,1.82,1.15,4.17,4.17,0,0,1,1,1.64,6.22,6.22,0,0,1,.31,2v.8h-8.25a6.37,6.37,0,0,0,1,3.81,4,4,0,0,0,5.13.67,5.77,5.77,0,0,0,1.56-1.59Zm-4.66-4.64c0-.48,0-1-.07-1.5a5,5,0,0,0-.26-1.25,1.89,1.89,0,0,0-.57-.87,1.36,1.36,0,0,0-.91-.29,1.68,1.68,0,0,0-1.5.95,6.47,6.47,0,0,0-.61,3Z"/><path class="cls-1" d="M210.92,265.34a7.88,7.88,0,0,1-.43,2.54,6.35,6.35,0,0,1-1.22,2.2,6.13,6.13,0,0,1-2.09,1.56,6.79,6.79,0,0,1-2.82.56,3.86,3.86,0,0,1-2.27-.57,1.77,1.77,0,0,1-.8-1.53,2.47,2.47,0,0,1,.08-.63,1.6,1.6,0,0,1,.33-.61,1.49,1.49,0,0,1,.61-.46,2.1,2.1,0,0,1,.92-.19,1.83,1.83,0,0,1,1.56.72,10,10,0,0,1,1.13,2.18,1.75,1.75,0,0,0,.73-1.19,20.08,20.08,0,0,0,.24-4V257.5a1.54,1.54,0,0,0-.18-.75,1.71,1.71,0,0,0-.5-.54,2.43,2.43,0,0,0-.74-.3,6.48,6.48,0,0,0-.9-.18v-.89l6.17-.32.18.19Zm.05-15.21a2,2,0,0,1-.72,1.58,2.39,2.39,0,0,1-1.69.65,2.43,2.43,0,0,1-1.7-.65,2,2,0,0,1-.71-1.58,2.07,2.07,0,0,1,.71-1.59,2.44,2.44,0,0,1,1.7-.66,2.4,2.4,0,0,1,1.7.66A2.11,2.11,0,0,1,211,250.13Z"/><path class="cls-1" d="M229.87,266.52a8.53,8.53,0,0,1-1.27.43,5.91,5.91,0,0,1-1.54.2,4.22,4.22,0,0,1-2.21-.45,2.23,2.23,0,0,1-1-1.28h-.07a8,8,0,0,1-.8.71,4.16,4.16,0,0,1-.83.5,6,6,0,0,1-1.11.41,6.35,6.35,0,0,1-1.48.13,3.64,3.64,0,0,1-2.42-.84,2.72,2.72,0,0,1-1-2.22,3.6,3.6,0,0,1,.22-1.35,2.87,2.87,0,0,1,.62-1,3.2,3.2,0,0,1,.85-.65,8,8,0,0,1,1.06-.47q1.09-.41,2.64-.84a15.31,15.31,0,0,0,2.25-.78v-1.17c0-.2,0-.47,0-.81a2.46,2.46,0,0,0-.21-.84,1.54,1.54,0,0,0-1.5-.93,2.16,2.16,0,0,0-.9.16,2.8,2.8,0,0,0-.58.31,4.75,4.75,0,0,0,.21.74,3.15,3.15,0,0,1,.17,1,1.79,1.79,0,0,1-.11.52,1.13,1.13,0,0,1-.32.49,2.25,2.25,0,0,1-.63.38,3.18,3.18,0,0,1-1.07.13,2.17,2.17,0,0,1-1.55-.49,1.66,1.66,0,0,1-.53-1.29,1.71,1.71,0,0,1,.54-1.23,4.37,4.37,0,0,1,1.33-.89,7.07,7.07,0,0,1,1.77-.57,8.92,8.92,0,0,1,1.85-.2,14.71,14.71,0,0,1,2.18.14,5,5,0,0,1,1.78.58,3.12,3.12,0,0,1,1.2,1.24,4.32,4.32,0,0,1,.45,2.11c0,.92,0,2-.06,3.28s0,2.09,0,2.49a1.88,1.88,0,0,0,.16.86,1.08,1.08,0,0,0,.51.48,1.82,1.82,0,0,0,.65.11c.3,0,.57,0,.81,0Zm-6.05-6.36c-.46.16-.91.34-1.36.54a5.62,5.62,0,0,0-1.11.63,2.43,2.43,0,0,0-.71.87,2.89,2.89,0,0,0-.25,1.26,1.89,1.89,0,0,0,.43,1.38,1.5,1.5,0,0,0,1.07.43A2.07,2.07,0,0,0,223,265a3.11,3.11,0,0,0,.77-.68Z"/><path class="cls-1" d="M248.93,266.52l-6,.36-.18-.17v-1.13l-.08,0a5.22,5.22,0,0,1-1.62,1.13,4.76,4.76,0,0,1-2.05.48,5.13,5.13,0,0,1-4.06-1.83,6.92,6.92,0,0,1-1.6-4.74,6.15,6.15,0,0,1,1.79-4.42,5.82,5.82,0,0,1,4.32-1.84,7.48,7.48,0,0,1,1.87.23,5.35,5.35,0,0,1,1.41.53v-4a1.89,1.89,0,0,0-.19-.85,1.52,1.52,0,0,0-.48-.62,2.4,2.4,0,0,0-.95-.38,9,9,0,0,0-1.14-.17v-.89l6.6-.32.19.2v16a1.81,1.81,0,0,0,.15.78,1,1,0,0,0,.49.5,2.22,2.22,0,0,0,.74.2c.33,0,.6.06.81.07Zm-6.22-2.17v-6.9c-.06-.18-.14-.39-.24-.62a2.57,2.57,0,0,0-.42-.65,2.19,2.19,0,0,0-.65-.45,2.1,2.1,0,0,0-.92-.19,2.29,2.29,0,0,0-2,1.38,8,8,0,0,0-.78,3.89,10.63,10.63,0,0,0,.14,1.78,5,5,0,0,0,.49,1.43,2.79,2.79,0,0,0,.91,1,2.68,2.68,0,0,0,2.57.08A3.72,3.72,0,0,0,242.71,264.35Z"/><path class="cls-1" d="M264.55,256.11a5.59,5.59,0,0,1,1.38,2,6.6,6.6,0,0,1,.48,2.54,7,7,0,0,1-.47,2.55,5.62,5.62,0,0,1-1.38,2.06,6.47,6.47,0,0,1-2.3,1.4,8.77,8.77,0,0,1-3.06.49,8.33,8.33,0,0,1-2.74-.43,6.35,6.35,0,0,1-2.21-1.28,5.79,5.79,0,0,1-1.47-2,7.28,7.28,0,0,1-.06-5.3,5.82,5.82,0,0,1,1.41-2,6.13,6.13,0,0,1,2.22-1.32,9.71,9.71,0,0,1,6,0A6.44,6.44,0,0,1,264.55,256.11Zm-3.12,8.46a6.76,6.76,0,0,0,.39-1.66,16.86,16.86,0,0,0,.13-2.27,18.11,18.11,0,0,0-.12-1.95,6.85,6.85,0,0,0-.37-1.74,2.77,2.77,0,0,0-.81-1.2,1.92,1.92,0,0,0-1.31-.44,2,2,0,0,0-1.39.47,3.24,3.24,0,0,0-.8,1.23,7.17,7.17,0,0,0-.35,1.63,17.67,17.67,0,0,0-.1,1.95c0,.89,0,1.62.09,2.2a6.6,6.6,0,0,0,.41,1.76,2.8,2.8,0,0,0,.81,1.19,2.19,2.19,0,0,0,2.59,0A2.73,2.73,0,0,0,261.43,264.57Z"/><path class="cls-1" d="M292.15,263.86a7.07,7.07,0,0,1-1,1.31,5.91,5.91,0,0,1-1.37,1.06,7.64,7.64,0,0,1-1.66.7,7,7,0,0,1-1.92.24,8.64,8.64,0,0,1-3.12-.51,6.12,6.12,0,0,1-2.17-1.38,5.63,5.63,0,0,1-1.27-2,7.5,7.5,0,0,1-.42-2.55,6.28,6.28,0,0,1,.46-2.39,6.13,6.13,0,0,1,1.3-2,6.21,6.21,0,0,1,2.09-1.41,7.28,7.28,0,0,1,2.83-.53,8.2,8.2,0,0,1,2.8.41,4.94,4.94,0,0,1,1.82,1.15,4,4,0,0,1,1,1.64,6,6,0,0,1,.32,2v.8h-8.25a6.37,6.37,0,0,0,1,3.81,4,4,0,0,0,5.13.67,5.77,5.77,0,0,0,1.56-1.59Zm-4.66-4.64c0-.48,0-1-.07-1.5a5,5,0,0,0-.26-1.25,1.89,1.89,0,0,0-.57-.87,1.36,1.36,0,0,0-.91-.29,1.68,1.68,0,0,0-1.5.95,6.47,6.47,0,0,0-.61,3Z"/><path class="cls-1" d="M311.79,266.78h-7.34v-.89l.56-.06a1.92,1.92,0,0,0,.5-.12.78.78,0,0,0,.37-.39,2.14,2.14,0,0,0,.11-.76v-5.71a3.16,3.16,0,0,0-.46-1.88,1.57,1.57,0,0,0-1.35-.63,2.67,2.67,0,0,0-.91.15,3.28,3.28,0,0,0-.83.43,2.61,2.61,0,0,0-.57.5l-.36.45v6.55a1.87,1.87,0,0,0,.12.72.86.86,0,0,0,.41.43,2.17,2.17,0,0,0,.48.2l.58.12v.89h-7.43v-.89l.62-.07a4,4,0,0,0,.53-.11.91.91,0,0,0,.54-.42,1.55,1.55,0,0,0,.15-.73v-7.11a1.55,1.55,0,0,0-.2-.74,1.85,1.85,0,0,0-.51-.6,1.82,1.82,0,0,0-.56-.24,3.89,3.89,0,0,0-.74-.14v-.89l5.83-.32.18.19v1.77h.05c.23-.21.5-.45.83-.73a7.69,7.69,0,0,1,.9-.7,4.3,4.3,0,0,1,1.19-.5,5.6,5.6,0,0,1,1.56-.21,3.76,3.76,0,0,1,3,1.13,4.33,4.33,0,0,1,1,3v6a1.63,1.63,0,0,0,.13.72,1,1,0,0,0,.5.43l.48.17a5.23,5.23,0,0,0,.66.12Z"/><path class="cls-1" d="M347.91,266.78h-9.39v-.95l1-.12a3.29,3.29,0,0,0,.82-.19,1.26,1.26,0,0,0,.65-.5,1.51,1.51,0,0,0,.2-.8V251.28l-6,15.22h-1.54c-.07-.27-.25-.8-.54-1.6s-.53-1.44-.7-1.92l-4.39-11.9v10.54a9.53,9.53,0,0,0,.21,2.3,2.07,2.07,0,0,0,.65,1.15,3.11,3.11,0,0,0,1.09.49,10.09,10.09,0,0,0,1.1.27v.95h-7.44v-.95c.2,0,.53-.08,1-.17a2.7,2.7,0,0,0,1.13-.44,1.75,1.75,0,0,0,.66-1.16,11.44,11.44,0,0,0,.17-2.31v-8.58a3.76,3.76,0,0,0-.19-1.3,1.8,1.8,0,0,0-.59-.82,2.33,2.33,0,0,0-1-.49,6.06,6.06,0,0,0-1-.15v-.95h8l4.28,11.41,3.59-9.26c.12-.34.24-.75.36-1.22a7.45,7.45,0,0,0,.18-.93h7.67v.95a8.13,8.13,0,0,0-.81.1,6.56,6.56,0,0,0-.82.19,1,1,0,0,0-.63.5,1.87,1.87,0,0,0-.15.76v12.27a1.65,1.65,0,0,0,.15.74,1.26,1.26,0,0,0,.63.52,3.63,3.63,0,0,0,.8.2l.86.14Z"/><path class="cls-1" d="M365.86,266.52a8.53,8.53,0,0,1-1.27.43,6,6,0,0,1-1.55.2,4.2,4.2,0,0,1-2.2-.45,2.23,2.23,0,0,1-1-1.28h-.08a6.28,6.28,0,0,1-.8.71,3.83,3.83,0,0,1-.82.5,5,5,0,0,1-2.59.54,3.62,3.62,0,0,1-2.42-.84,2.73,2.73,0,0,1-1-2.22,3.81,3.81,0,0,1,.22-1.35,3.24,3.24,0,0,1,1.48-1.63,8.5,8.5,0,0,1,1.05-.47q1.11-.41,2.64-.84a14.5,14.5,0,0,0,2.25-.78v-1.17a6.9,6.9,0,0,0-.05-.81,2.73,2.73,0,0,0-.2-.84,1.72,1.72,0,0,0-.54-.66,1.58,1.58,0,0,0-1-.27,2.16,2.16,0,0,0-.9.16,2.56,2.56,0,0,0-.58.31,3.83,3.83,0,0,0,.21.74,3.15,3.15,0,0,1,.17,1,1.79,1.79,0,0,1-.11.52,1.23,1.23,0,0,1-.32.49,2.25,2.25,0,0,1-.63.38,3.18,3.18,0,0,1-1.07.13,2.2,2.2,0,0,1-1.56-.49,1.69,1.69,0,0,1-.52-1.29,1.71,1.71,0,0,1,.54-1.23,4.32,4.32,0,0,1,1.32-.89,7.35,7.35,0,0,1,1.77-.57,9.08,9.08,0,0,1,1.86-.2,14.57,14.57,0,0,1,2.17.14,4.85,4.85,0,0,1,1.78.58,3.08,3.08,0,0,1,1.21,1.24,4.44,4.44,0,0,1,.44,2.11c0,.92,0,2-.05,3.28s-.06,2.09-.06,2.49a1.87,1.87,0,0,0,.17.86,1.11,1.11,0,0,0,.5.48,1.93,1.93,0,0,0,.66.11c.29,0,.56,0,.81,0Zm-6.06-6.36c-.45.16-.91.34-1.36.54a5.82,5.82,0,0,0-1.1.63,2.33,2.33,0,0,0-.71.87,2.89,2.89,0,0,0-.26,1.26,1.89,1.89,0,0,0,.44,1.38,1.5,1.5,0,0,0,1.07.43A2.07,2.07,0,0,0,359,265a2.9,2.9,0,0,0,.76-.68Z"/><path class="cls-1" d="M381.31,256.91a2.44,2.44,0,0,1-.58,1.62,1.84,1.84,0,0,1-1.51.71,2.48,2.48,0,0,1-1.51-.45,1.55,1.55,0,0,1-.62-1.33,2.76,2.76,0,0,1,.07-.66c0-.16.07-.31.11-.44a2.54,2.54,0,0,0-1.19.38,4,4,0,0,0-1.1,1v6.7a1.63,1.63,0,0,0,.14.71,1,1,0,0,0,.45.44,3.48,3.48,0,0,0,.87.23c.4.06.7.09.88.1v.89h-8.17v-.89l.61-.07a4.63,4.63,0,0,0,.54-.11.86.86,0,0,0,.53-.42,1.55,1.55,0,0,0,.15-.73v-7.11a1.47,1.47,0,0,0-.21-.78,1.71,1.71,0,0,0-.5-.56,1.86,1.86,0,0,0-.55-.24,4,4,0,0,0-.74-.14v-.89l5.82-.32.18.19v1.77h0a7.19,7.19,0,0,1,1.79-1.53,3.85,3.85,0,0,1,2-.56,2.44,2.44,0,0,1,1.83.7A2.48,2.48,0,0,1,381.31,256.91Z"/><path class="cls-1" d="M70.66,310.72a10.22,10.22,0,0,1-3.57-.62,8.1,8.1,0,0,1-4.8-4.63,10.36,10.36,0,0,1,0-7.46,8.91,8.91,0,0,1,2-3,8.66,8.66,0,0,1,3-1.91,10.3,10.3,0,0,1,3.74-.68,9,9,0,0,1,2.62.36,10.41,10.41,0,0,1,2,.79l.76-.67h1.06l.11,6.32H76.48a11.07,11.07,0,0,0-2.2-4.26,4.13,4.13,0,0,0-3.12-1.35,3.8,3.8,0,0,0-3.48,2,11.19,11.19,0,0,0-1.2,5.68,13.37,13.37,0,0,0,.41,3.53A7.13,7.13,0,0,0,68,307.21a4.25,4.25,0,0,0,1.67,1.36,5.1,5.1,0,0,0,2.13.44,5.18,5.18,0,0,0,3-.93,8.71,8.71,0,0,0,2.44-2.81l1.05.64a10.77,10.77,0,0,1-1.2,1.92,7.39,7.39,0,0,1-1.55,1.46,7.83,7.83,0,0,1-2.13,1A9,9,0,0,1,70.66,310.72Z"/><path class="cls-1" d="M95.62,310a8,8,0,0,1-1.26.43,6,6,0,0,1-1.55.2,4.18,4.18,0,0,1-2.2-.45,2.2,2.2,0,0,1-1-1.28h-.07a7,7,0,0,1-.8.71,3.9,3.9,0,0,1-.83.5,6.22,6.22,0,0,1-1.1.41,6.44,6.44,0,0,1-1.49.13,3.66,3.66,0,0,1-2.42-.84,2.72,2.72,0,0,1-1-2.22,3.6,3.6,0,0,1,.22-1.35,3,3,0,0,1,.62-1,3.37,3.37,0,0,1,.85-.65,8.66,8.66,0,0,1,1.06-.47q1.09-.4,2.64-.84a14.5,14.5,0,0,0,2.25-.78v-1.17c0-.2,0-.47,0-.81a2.46,2.46,0,0,0-.21-.84,1.51,1.51,0,0,0-1.5-.93,2.12,2.12,0,0,0-.89.16,2.66,2.66,0,0,0-.59.31,6.25,6.25,0,0,0,.21.74,2.88,2.88,0,0,1,.17,1,1.51,1.51,0,0,1-.11.52,1.21,1.21,0,0,1-.31.49,2.25,2.25,0,0,1-.63.38,3.24,3.24,0,0,1-1.08.13A2.19,2.19,0,0,1,83,302a1.74,1.74,0,0,1,0-2.52,4.32,4.32,0,0,1,1.32-.89,7.07,7.07,0,0,1,1.77-.57,9.08,9.08,0,0,1,1.86-.2,14.57,14.57,0,0,1,2.17.14,4.91,4.91,0,0,1,1.78.58,3,3,0,0,1,1.2,1.24,4.32,4.32,0,0,1,.45,2.11q0,1.38-.06,3.27c0,1.27-.05,2.1-.05,2.5a1.88,1.88,0,0,0,.16.86,1.08,1.08,0,0,0,.51.48,1.91,1.91,0,0,0,.65.11c.3,0,.57,0,.81,0Zm-6.05-6.36c-.46.16-.91.34-1.36.54a5.24,5.24,0,0,0-1.1.63,2.33,2.33,0,0,0-.71.87,2.89,2.89,0,0,0-.26,1.26,1.89,1.89,0,0,0,.44,1.38,1.48,1.48,0,0,0,1.07.43,2.07,2.07,0,0,0,1.11-.28,3.07,3.07,0,0,0,.76-.68Z"/><path class="cls-1" d="M114.69,310l-6,.36-.18-.17V309l-.09,0a5.29,5.29,0,0,1-1.61,1.13,4.81,4.81,0,0,1-2.06.48,5.16,5.16,0,0,1-4.06-1.83,7,7,0,0,1-1.59-4.74,6.14,6.14,0,0,1,1.78-4.42,5.82,5.82,0,0,1,4.32-1.84,7.56,7.56,0,0,1,1.88.23,5.27,5.27,0,0,1,1.4.53v-4a2,2,0,0,0-.18-.85,1.54,1.54,0,0,0-.49-.62,2.34,2.34,0,0,0-1-.38,8.46,8.46,0,0,0-1.14-.17v-.89l6.61-.32.18.2v16a1.81,1.81,0,0,0,.15.78,1.08,1.08,0,0,0,.49.5,2.22,2.22,0,0,0,.75.2c.33,0,.6.06.81.07Zm-6.23-2.17v-6.9a3.87,3.87,0,0,0-.24-.62,2.57,2.57,0,0,0-.42-.65,2.19,2.19,0,0,0-.65-.45,2.1,2.1,0,0,0-.92-.19,2.28,2.28,0,0,0-2,1.38,8,8,0,0,0-.78,3.89,9.67,9.67,0,0,0,.14,1.78,4.48,4.48,0,0,0,.49,1.43,2.79,2.79,0,0,0,.91,1,2.66,2.66,0,0,0,2.56.08A3.37,3.37,0,0,0,108.46,307.81Z"/><path class="cls-1" d="M131.79,310a8,8,0,0,1-1.26.43,6,6,0,0,1-1.55.2,4.18,4.18,0,0,1-2.2-.45,2.2,2.2,0,0,1-1-1.28h-.07a7,7,0,0,1-.8.71,3.9,3.9,0,0,1-.83.5,6.22,6.22,0,0,1-1.1.41,6.44,6.44,0,0,1-1.49.13,3.66,3.66,0,0,1-2.42-.84,2.72,2.72,0,0,1-1-2.22,3.6,3.6,0,0,1,.22-1.35,3,3,0,0,1,.62-1,3.37,3.37,0,0,1,.85-.65,8.66,8.66,0,0,1,1.06-.47q1.09-.4,2.64-.84a14.5,14.5,0,0,0,2.25-.78v-1.17c0-.2,0-.47,0-.81a2.46,2.46,0,0,0-.21-.84,1.51,1.51,0,0,0-1.5-.93,2.2,2.2,0,0,0-.9.16,2.8,2.8,0,0,0-.58.31,6.25,6.25,0,0,0,.21.74,2.88,2.88,0,0,1,.17,1,1.51,1.51,0,0,1-.11.52,1.21,1.21,0,0,1-.31.49,2.25,2.25,0,0,1-.63.38,3.24,3.24,0,0,1-1.08.13,2.19,2.19,0,0,1-1.55-.49,1.74,1.74,0,0,1,0-2.52,4.32,4.32,0,0,1,1.32-.89,7.07,7.07,0,0,1,1.77-.57,9.08,9.08,0,0,1,1.86-.2,14.57,14.57,0,0,1,2.17.14,4.91,4.91,0,0,1,1.78.58,3,3,0,0,1,1.2,1.24,4.32,4.32,0,0,1,.45,2.11q0,1.38-.06,3.27c0,1.27-.05,2.1-.05,2.5a1.88,1.88,0,0,0,.16.86,1.08,1.08,0,0,0,.51.48,1.91,1.91,0,0,0,.65.11c.3,0,.57,0,.81,0Zm-6-6.36c-.46.16-.91.34-1.36.54a5.24,5.24,0,0,0-1.1.63,2.33,2.33,0,0,0-.71.87,2.89,2.89,0,0,0-.26,1.26,1.89,1.89,0,0,0,.44,1.38,1.48,1.48,0,0,0,1.07.43,2.07,2.07,0,0,0,1.11-.28,3.07,3.07,0,0,0,.76-.68Z"/><path class="cls-1" d="M158.35,304.27a6.21,6.21,0,0,1-6.41,6.36,9.8,9.8,0,0,1-1.85-.15,7.26,7.26,0,0,1-1.31-.37,5.28,5.28,0,0,1-.9-.46c-.23-.15-.4-.28-.53-.37l-1.75,1.58-.72-.28c0-.59.08-1.24.11-1.93s0-1.64,0-2.82V294.41a2,2,0,0,0-.19-.86,1.48,1.48,0,0,0-.51-.61,2.49,2.49,0,0,0-.67-.25,4.64,4.64,0,0,0-.83-.14v-.89l6-.32.19.2v7.93h.07A6.18,6.18,0,0,1,151,298.2a4.85,4.85,0,0,1,1.88-.4,5,5,0,0,1,4,1.75A7.1,7.1,0,0,1,158.35,304.27Zm-4.39.15a10.39,10.39,0,0,0-.14-1.79,5.53,5.53,0,0,0-.46-1.52,2.94,2.94,0,0,0-.87-1.06,2.2,2.2,0,0,0-1.33-.39,2.81,2.81,0,0,0-1.23.24,2.66,2.66,0,0,0-.87.72v7.11a5.1,5.1,0,0,0,.27.64,2.39,2.39,0,0,0,.41.61,1.83,1.83,0,0,0,1.55.65,2.18,2.18,0,0,0,2-1.36A8.52,8.52,0,0,0,154,304.42Z"/><path class="cls-1" d="M174.73,299.57a5.36,5.36,0,0,1,1.38,2,6.59,6.59,0,0,1,.48,2.53,7,7,0,0,1-.47,2.56,5.6,5.6,0,0,1-1.37,2.06,6.56,6.56,0,0,1-2.3,1.4,8.81,8.81,0,0,1-3.06.49,8.25,8.25,0,0,1-2.74-.43,6.3,6.3,0,0,1-2.22-1.28,5.65,5.65,0,0,1-1.46-2,6.5,6.5,0,0,1-.54-2.69,6.9,6.9,0,0,1,.47-2.61,5.82,5.82,0,0,1,1.41-2,6.09,6.09,0,0,1,2.23-1.32,9.71,9.71,0,0,1,6,0A6.39,6.39,0,0,1,174.73,299.57ZM171.61,308a7.22,7.22,0,0,0,.4-1.66,18.86,18.86,0,0,0,.12-2.27,18.11,18.11,0,0,0-.12-2,7.37,7.37,0,0,0-.36-1.74,2.88,2.88,0,0,0-.82-1.2,1.91,1.91,0,0,0-1.31-.44,1.93,1.93,0,0,0-1.38.47,3,3,0,0,0-.8,1.23,7.15,7.15,0,0,0-.36,1.63c-.06.63-.1,1.28-.1,1.95,0,.89,0,1.62.09,2.2a7.48,7.48,0,0,0,.41,1.76,2.8,2.8,0,0,0,.81,1.19,2.19,2.19,0,0,0,2.59,0A2.66,2.66,0,0,0,171.61,308Z"/><path class="cls-1" d="M189.6,309.68a14.34,14.34,0,0,1-1.68.61,7.15,7.15,0,0,1-2.17.28,3.8,3.8,0,0,1-2.82-.93A3.56,3.56,0,0,1,182,307v-7.49h-2.19v-1.33h2.24v-3.7h4v3.7h3.43v1.33H186v6.68a3.83,3.83,0,0,0,.4,2,1.59,1.59,0,0,0,1.43.6,9.18,9.18,0,0,0,.92-.05,5.41,5.41,0,0,0,.82-.11Z"/><path class="cls-1" d="M205.92,307.32a7.07,7.07,0,0,1-1,1.31,5.91,5.91,0,0,1-1.37,1.06,7.64,7.64,0,0,1-1.66.7,6.9,6.9,0,0,1-1.92.24,8.64,8.64,0,0,1-3.12-.51,6.08,6.08,0,0,1-2.16-1.38,5.52,5.52,0,0,1-1.28-2.05,7.5,7.5,0,0,1-.42-2.55,6.42,6.42,0,0,1,1.76-4.42,6.21,6.21,0,0,1,2.09-1.41,7.28,7.28,0,0,1,2.83-.53,8.16,8.16,0,0,1,2.8.41,4.94,4.94,0,0,1,1.82,1.15,4.17,4.17,0,0,1,1,1.64,6.22,6.22,0,0,1,.31,2v.8h-8.25a6.3,6.3,0,0,0,1,3.81,4,4,0,0,0,5.12.67,5.94,5.94,0,0,0,1.57-1.59Zm-4.66-4.64c0-.48,0-1-.07-1.5a5,5,0,0,0-.26-1.25,1.89,1.89,0,0,0-.57-.87,1.36,1.36,0,0,0-.91-.29,1.69,1.69,0,0,0-1.5,1,6.47,6.47,0,0,0-.61,3Z"/><path class="cls-1" d="M216.9,310.24h-7.69v-.89l.62-.06a3.35,3.35,0,0,0,.54-.12.93.93,0,0,0,.53-.42A1.56,1.56,0,0,0,211,308V294.49a2.07,2.07,0,0,0-.18-.86,1.51,1.51,0,0,0-.51-.6,2.82,2.82,0,0,0-.74-.31,4.13,4.13,0,0,0-.87-.17v-.89l6.15-.32.18.2v16.32a1.52,1.52,0,0,0,.16.73,1,1,0,0,0,.52.44,3.52,3.52,0,0,0,.52.2,4.43,4.43,0,0,0,.63.12Z"/><path class="cls-1" d="M227.86,310.24h-7.69v-.89l.62-.06a3.22,3.22,0,0,0,.53-.12,1,1,0,0,0,.54-.42A1.69,1.69,0,0,0,222,308V294.49a1.93,1.93,0,0,0-.19-.86,1.44,1.44,0,0,0-.51-.6,2.73,2.73,0,0,0-.73-.31,4.09,4.09,0,0,0-.88-.17v-.89l6.16-.32.18.2v16.32a1.41,1.41,0,0,0,.16.73,1,1,0,0,0,.52.44,3.86,3.86,0,0,0,.51.2,4.32,4.32,0,0,0,.64.12Z"/><path class="cls-1" d="M245.31,310a8.53,8.53,0,0,1-1.27.43,6,6,0,0,1-1.54.2,4.22,4.22,0,0,1-2.21-.45,2.23,2.23,0,0,1-1-1.28h-.08a6.28,6.28,0,0,1-.8.71,3.83,3.83,0,0,1-.82.5,6,6,0,0,1-1.11.41,6.35,6.35,0,0,1-1.48.13,3.62,3.62,0,0,1-2.42-.84,2.73,2.73,0,0,1-1-2.22,3.81,3.81,0,0,1,.22-1.35,3.24,3.24,0,0,1,1.48-1.63,8.5,8.5,0,0,1,1.05-.47q1.11-.4,2.64-.84a14.5,14.5,0,0,0,2.25-.78v-1.17c0-.2,0-.47,0-.81a3,3,0,0,0-.21-.84,1.63,1.63,0,0,0-.54-.66,1.58,1.58,0,0,0-1-.27,2.16,2.16,0,0,0-.9.16,2.8,2.8,0,0,0-.58.31,3.83,3.83,0,0,0,.21.74,3.15,3.15,0,0,1,.17,1,1.79,1.79,0,0,1-.11.52,1.23,1.23,0,0,1-.32.49,2.25,2.25,0,0,1-.63.38,3.18,3.18,0,0,1-1.07.13,2.2,2.2,0,0,1-1.56-.49,1.69,1.69,0,0,1-.52-1.29,1.71,1.71,0,0,1,.54-1.23,4.32,4.32,0,0,1,1.32-.89,7.35,7.35,0,0,1,1.77-.57,9.08,9.08,0,0,1,1.86-.2,14.57,14.57,0,0,1,2.17.14,4.85,4.85,0,0,1,1.78.58,3.08,3.08,0,0,1,1.21,1.24,4.44,4.44,0,0,1,.44,2.11c0,.92,0,2-.05,3.27s-.06,2.1-.06,2.5a1.87,1.87,0,0,0,.17.86,1.11,1.11,0,0,0,.5.48,1.93,1.93,0,0,0,.66.11c.29,0,.56,0,.81,0Zm-6.06-6.36c-.45.16-.91.34-1.36.54a5.82,5.82,0,0,0-1.1.63,2.33,2.33,0,0,0-.71.87,2.89,2.89,0,0,0-.26,1.26,1.89,1.89,0,0,0,.44,1.38,1.5,1.5,0,0,0,1.07.43,2.07,2.07,0,0,0,1.11-.28,3.11,3.11,0,0,0,.77-.68Z"/><path class="cls-1" d="M270.42,307.32a7.51,7.51,0,0,1-1,1.31,5.76,5.76,0,0,1-1.38,1.06,7.36,7.36,0,0,1-1.65.7,7,7,0,0,1-1.92.24,8.57,8.57,0,0,1-3.12-.51,6,6,0,0,1-2.17-1.38,5.49,5.49,0,0,1-1.27-2.05,7.5,7.5,0,0,1-.42-2.55,6.35,6.35,0,0,1,1.75-4.42,6.25,6.25,0,0,1,2.1-1.41,7.27,7.27,0,0,1,2.82-.53,8.22,8.22,0,0,1,2.81.41,5,5,0,0,1,1.82,1.15,4.15,4.15,0,0,1,1,1.64,6.22,6.22,0,0,1,.32,2v.8h-8.25a6.37,6.37,0,0,0,1,3.81,4,4,0,0,0,5.13.67,5.77,5.77,0,0,0,1.56-1.59Zm-4.66-4.64c0-.48,0-1-.08-1.5a5.08,5.08,0,0,0-.25-1.25,1.89,1.89,0,0,0-.57-.87,1.36,1.36,0,0,0-.91-.29,1.67,1.67,0,0,0-1.5,1,6.35,6.35,0,0,0-.61,3Z"/><path class="cls-1" d="M279.59,310.66a7.84,7.84,0,0,1-2.31-.35,7.44,7.44,0,0,1-1.75-.74l-.37.83h-1l-.16-4.55h.89a7,7,0,0,0,.61,1.23,6.7,6.7,0,0,0,1,1.24,5.36,5.36,0,0,0,1.31.93,3.44,3.44,0,0,0,1.58.38,2.66,2.66,0,0,0,1.66-.43,1.62,1.62,0,0,0,.54-1.34,1.32,1.32,0,0,0-.24-.81,2.33,2.33,0,0,0-.67-.55,6.2,6.2,0,0,0-1-.41l-1.4-.42a12.83,12.83,0,0,1-1.42-.49,4.92,4.92,0,0,1-1.22-.79,3.53,3.53,0,0,1-.88-1.14,3.63,3.63,0,0,1-.33-1.6,3.31,3.31,0,0,1,1.44-2.79,6.32,6.32,0,0,1,3.79-1.06,8.75,8.75,0,0,1,2.05.23,10.53,10.53,0,0,1,1.57.49l.25-.72h.93l.2,4.16h-.86a5.07,5.07,0,0,0-1.46-2.19,3.35,3.35,0,0,0-2.24-.92,2.44,2.44,0,0,0-1.47.39,1.26,1.26,0,0,0-.54,1.09,1.41,1.41,0,0,0,.78,1.34,10.28,10.28,0,0,0,2.2.78,7.34,7.34,0,0,1,3.2,1.53,3.32,3.32,0,0,1,1,2.48,3.57,3.57,0,0,1-1.57,3.1A7,7,0,0,1,279.59,310.66Z"/><path class="cls-1" d="M313.72,310l-5.82.36-.18-.17v-1.6h-.07l-.82.74a4.57,4.57,0,0,1-.94.65,6.31,6.31,0,0,1-1.18.49,6.43,6.43,0,0,1-1.61.16,3.55,3.55,0,0,1-2.82-1.11,4.58,4.58,0,0,1-1-3.14v-5.49a1.41,1.41,0,0,0-.19-.78,1.85,1.85,0,0,0-.48-.53,1.52,1.52,0,0,0-.63-.26,5.39,5.39,0,0,0-.71-.11v-.89l5.9-.32.13.19v8.12a2.88,2.88,0,0,0,.49,1.85,1.6,1.6,0,0,0,1.32.6,2.79,2.79,0,0,0,1.56-.45,3.21,3.21,0,0,0,1-1v-6.58a1.78,1.78,0,0,0-.15-.74,1.36,1.36,0,0,0-.47-.54,1.38,1.38,0,0,0-.63-.19c-.27,0-.55-.06-.83-.08v-.89l5.93-.32.18.19v9.42a1.49,1.49,0,0,0,.17.73,1.41,1.41,0,0,0,.5.5,1.51,1.51,0,0,0,.6.21l.73.06ZM309,292.42a1.48,1.48,0,0,1-.25.88,3,3,0,0,1-.8.69c-.4.26-1,.63-1.9,1.11s-1.83,1-2.93,1.7l-.51-.46c.72-1,1.27-1.71,1.66-2.28s.73-1.05,1-1.45a3.36,3.36,0,0,1,1-1,2.34,2.34,0,0,1,1.18-.27,1.89,1.89,0,0,1,1.06.32A.91.91,0,0,1,309,292.42Z"/><path class="cls-1" d="M333.19,310.24h-7.34v-.89l.57-.06a2.15,2.15,0,0,0,.5-.12.76.76,0,0,0,.36-.39,2.14,2.14,0,0,0,.11-.76v-5.71a3.16,3.16,0,0,0-.46-1.88,1.56,1.56,0,0,0-1.35-.63,2.67,2.67,0,0,0-.91.15,3.46,3.46,0,0,0-.83.43,2.87,2.87,0,0,0-.57.5l-.36.45v6.55a1.87,1.87,0,0,0,.12.72.86.86,0,0,0,.41.43,2.17,2.17,0,0,0,.48.2l.58.12v.89h-7.42v-.89l.61-.07a4,4,0,0,0,.53-.11.91.91,0,0,0,.54-.42,1.55,1.55,0,0,0,.15-.73v-7.11a1.55,1.55,0,0,0-.2-.74,1.85,1.85,0,0,0-.51-.6,1.82,1.82,0,0,0-.56-.24,3.94,3.94,0,0,0-.73-.14v-.89l5.82-.32.18.19v1.77h0c.23-.21.5-.45.83-.73a8.63,8.63,0,0,1,.9-.7,4.3,4.3,0,0,1,1.19-.5,5.65,5.65,0,0,1,1.56-.21,3.76,3.76,0,0,1,3,1.13,4.33,4.33,0,0,1,1,3v6a1.63,1.63,0,0,0,.13.72,1,1,0,0,0,.5.43l.49.17a5.06,5.06,0,0,0,.65.12Z"/><path class="cls-1" d="M344.39,310.24h-7.72v-.89l.63-.06a3.08,3.08,0,0,0,.52-.12,1.06,1.06,0,0,0,.55-.42,1.44,1.44,0,0,0,.16-.73v-7.11a1.45,1.45,0,0,0-.2-.75,1.72,1.72,0,0,0-.48-.52,3,3,0,0,0-.67-.28,4.91,4.91,0,0,0-.81-.17v-.89l6-.32.18.19v9.69a1.32,1.32,0,0,0,.19.73,1.08,1.08,0,0,0,.52.44,3.39,3.39,0,0,0,.54.2,5.49,5.49,0,0,0,.61.12Zm-1.78-16.65a2,2,0,0,1-.72,1.58,2.54,2.54,0,0,1-3.39,0,2,2,0,0,1-.72-1.58,2.08,2.08,0,0,1,.72-1.59,2.52,2.52,0,0,1,3.4,0A2.11,2.11,0,0,1,342.61,293.59Z"/><path class="cls-1" d="M354.83,310.63a8.33,8.33,0,0,1-3-.49,5.9,5.9,0,0,1-2.15-1.35,5.45,5.45,0,0,1-1.25-2.05,7.67,7.67,0,0,1-.42-2.58,5.9,5.9,0,0,1,.51-2.42,6.64,6.64,0,0,1,1.37-2,6.52,6.52,0,0,1,2.22-1.42,7.63,7.63,0,0,1,2.92-.53,6.5,6.5,0,0,1,3.55.84,2.62,2.62,0,0,1,1.31,2.29,2.1,2.1,0,0,1-.47,1.42,2,2,0,0,1-1.59.54,2.6,2.6,0,0,1-1.54-.44,1.36,1.36,0,0,1-.61-1.15,3.69,3.69,0,0,1,.19-1.18,4.65,4.65,0,0,0,.23-.89.92.92,0,0,0-.34-.34,1.34,1.34,0,0,0-.65-.12,2,2,0,0,0-1,.26,2.46,2.46,0,0,0-.84.9,5.43,5.43,0,0,0-.6,1.64,11.56,11.56,0,0,0-.23,2.46,5.63,5.63,0,0,0,1,3.51,3,3,0,0,0,2.44,1.33,3.43,3.43,0,0,0,2.15-.61,5.36,5.36,0,0,0,1.42-1.71l.92.63a7,7,0,0,1-.9,1.37,5.82,5.82,0,0,1-1.26,1.09,7,7,0,0,1-1.56.76A6.42,6.42,0,0,1,354.83,310.63Z"/><path class="cls-1" d="M377.45,310a8.53,8.53,0,0,1-1.27.43,6,6,0,0,1-1.55.2,4.18,4.18,0,0,1-2.2-.45,2.24,2.24,0,0,1-1-1.28h-.07a7,7,0,0,1-.8.71,3.9,3.9,0,0,1-.83.5,6.22,6.22,0,0,1-1.1.41,6.44,6.44,0,0,1-1.49.13,3.66,3.66,0,0,1-2.42-.84,2.72,2.72,0,0,1-1-2.22,3.6,3.6,0,0,1,.22-1.35,3,3,0,0,1,.62-1,3.37,3.37,0,0,1,.85-.65,8.66,8.66,0,0,1,1.06-.47q1.1-.4,2.64-.84a14.5,14.5,0,0,0,2.25-.78v-1.17a6.9,6.9,0,0,0-.05-.81,2.46,2.46,0,0,0-.21-.84,1.51,1.51,0,0,0-1.5-.93,2.12,2.12,0,0,0-.89.16,2.56,2.56,0,0,0-.58.31,4.46,4.46,0,0,0,.2.74,2.9,2.9,0,0,1,.18,1,1.57,1.57,0,0,1-.12.52,1.12,1.12,0,0,1-.31.49,2.25,2.25,0,0,1-.63.38,3.24,3.24,0,0,1-1.08.13,2.19,2.19,0,0,1-1.55-.49,1.74,1.74,0,0,1,0-2.52,4.32,4.32,0,0,1,1.32-.89A7.07,7.07,0,0,1,368,298a9.08,9.08,0,0,1,1.86-.2,14.57,14.57,0,0,1,2.17.14,4.91,4.91,0,0,1,1.78.58,3,3,0,0,1,1.2,1.24,4.32,4.32,0,0,1,.45,2.11q0,1.38-.06,3.27c0,1.27-.05,2.1-.05,2.5a1.88,1.88,0,0,0,.16.86,1.08,1.08,0,0,0,.51.48,1.91,1.91,0,0,0,.65.11c.3,0,.57,0,.82,0Zm-6.06-6.36c-.46.16-.91.34-1.36.54a5.24,5.24,0,0,0-1.1.63,2.33,2.33,0,0,0-.71.87,2.89,2.89,0,0,0-.26,1.26,1.89,1.89,0,0,0,.44,1.38,1.48,1.48,0,0,0,1.07.43,2.07,2.07,0,0,0,1.11-.28,3.07,3.07,0,0,0,.76-.68Z"/><path class="cls-1" d="M386.55,308.21a2.29,2.29,0,0,1-.72,1.68,2.4,2.4,0,0,1-3.39,0,2.25,2.25,0,0,1-.72-1.68,2.42,2.42,0,0,1,4.83,0Z"/></svg>