<?xml version="1.0" encoding="utf-8"?>
<!-- Generator: Adobe Illustrator 25.2.0, SVG Export Plug-In . SVG Version: 6.00 Build 0)  -->
<svg version="1.1" id="Layer_1" xmlns="http://www.w3.org/2000/svg" xmlns:xlink="http://www.w3.org/1999/xlink" x="0px" y="0px"
	 viewBox="0 0 643.8 263.2" style="enable-background:new 0 0 643.8 263.2;" xml:space="preserve">
<style type="text/css">
	.st0{fill:#010202;}
</style>
<g>
	<path class="st0" d="M141.9,218.5c0-6.2-5.7-6.9-5.7-6.9c0,3-2.2,7.9-4.7,10.4c-2.5,2.5-4.7,7-21.7,7c-18.1,0-25.3-7-47.2-21.1
		c-10.8-7-19.6-10.7-27.2-11.7c16.7-7.3,19.2-23.6,17.9-43.7c-1.5-22.8-1.5-52.5,0-61.7c1.5-9.2,6.8-23.8,19.9-23.3
		C86.4,67.8,82,83.9,82,83.9s11.2-5.3,13.1-11.2c1.9-5.8,2.9-10.7,0-11.2s-21.9-10.2-36.5,2.4c-11.4,9.9-18,24.3-18,24.3
		s-5.1-0.2-8.3,9.9c-3.9,12.5-0.4,34.6,1,43.8c4,26,1.6,44-4.8,51.4c-0.9,1-1.5,2-2,2.8c-4.4,0.7-8.4,2.4-12.4,5
		c-10.7,6.9-8.3,15.4-7.2,17.9c0.1,0.2,0.3,0.2,0.4,0c0.1-0.6,0.6-1.7,1.7-3.2c0.7-0.9,1.5-2.1,2.9-3.3c6.8-6,18.2-6.1,26.2-2.1
		c8.5,4.3,15.7,10.5,24.6,19.4c13.9,14,22.2,16.9,32.9,17.4s16-6.5,16-6.5s15.7,1.5,23.1-5.5C142.2,228.2,141.9,224.7,141.9,218.5z"
		/>
	<path class="st0" d="M84.5,91.3c1.9,8.9-1.1,18.7-3.1,27.8c-4.3,19.9-7,30.3-13.8,49.4c-1.3,3.7-4.5,13-6.8,16.1
		c-1.3,1.8-4.5,3.6-7.7,4.9c6.3,2.7,13.2,5.2,20.5,7.4c-0.6-4.5-0.4-9.1,0.3-13.7c1.5,1.6,3.4,2.8,5.8,3.7c-2-1.8-3.9-8.2-3.6-11.3
		c0.2-3.1,1.2-7.7,7.5-13.6c3-2.8,9.3-4.9,15.5-6c1.2,16.6,2.5,34.8,1.8,38.1c-0.7,3.8-2.4,6.4-4.4,8.1c10.6,1.8,22,2.8,33.9,2.4
		c0.5,0,1.1,0,1.6,0c-1.7-1-3.4-2.2-4.8-3.7c-4-4.3-5.1-10.4-6-16.2c-1.4-9-2.5-18.1-3.4-27.2c1.3,0.5,2.3,1,2.9,1.2
		c12.3,6.6,14.3,16.1,14.3,25.4c1,0.2,2.2-3.1,2.5-3.9c2.4-8.1,1.3-17.7-3.8-24.5c-4.4-5.3-10.5-9.7-17.1-11.9
		c-0.5-6.6-0.8-13.2-1-19.8c-0.3-9-0.1-18.8,4.3-26.4C107.4,97,95.5,94.7,84.5,91.3z M91.8,144.9c-3.2,1.2-6,2.5-8.4,4.2
		c3.9-12.4,7.9-24.8,12-37.1c-0.1,1.6,1.3,11.3,1.7,17.1c0.2,2.7,0.6,7.9,1.1,14.1C95.9,143.7,93.7,144.2,91.8,144.9z"/>
	<path class="st0" d="M230.9,192.2c9.2-1.9,18.6-4.1,28.1-6.6c0.3-0.1,0.7-0.2,1-0.3c-2.4-6-4.3-12.1-5.1-18.4
		c-0.6-4.7-0.5-9.4-0.5-14.1c0-6.4,0-12.9-0.1-19.3c-0.1-18.2-1.2-36.2,2.5-53.9c-8.3,2.1-13.5,3.7-21.6,5.4c-1,0.2-2,0.4-3,0.6
		c-0.4,0.1-0.8,0.2-1.2,0.2c-4.1,0.8-8.2,1.6-12.3,2.4c-0.3,0.1-0.4,0.4-0.3,0.6c0.5,1.3,0.8,2.8,0.9,4.1
		c0.8,10.2-2.4,20.3-5.6,30.1c-0.9,2.8-1.8,5.7-2.8,8.5c-0.9,0.1-1.8,0.2-2.8,0.3c-7.7,1.3-12.9,2.9-18.8,8.3
		c-3.4,3.1-6.4,6.6-8.1,10.9c-1.7,4.2-1.8,9.2,0.3,13.2c2.1,4,6.8,6.8,11.3,6c-3.2-3.6-3.3-9.1-1.3-13.5c2-4.3,5.7-7.6,9.7-10.3
		c2-1.3,3.8-2.1,5.6-2.6c-3.8,11.6-7.5,23.2-11.3,34.8c-2.2,6.7-4.4,13.5-7.1,20.1c-0.1,0.3,0.1,0.7,0.5,0.6
		c7.2-1,14.7-2.2,22.3-3.6c0.3-0.1,0.5-0.4,0.3-0.6c-1.2-2.7-1.9-5.6-2.1-8.5c-0.5-7.3,1.4-14.5,3.3-21.5c2-7.5,4.1-14.9,6.1-22.4
		c4.4,0.8,8.7,3.6,10.9,7.3c1.3,2.2,1.9,4.6,1.9,7.2c0.1,3.6-0.7,5.1-3.4,7.5c2.2-0.1,4.1-0.8,5.5-2.3c-0.5,11.7-1.2,20.8-1.6,22.6
		C232.2,187.5,231.6,189.9,230.9,192.2z M221.9,133.3c3-10.8,5.9-21.6,8.9-32.4c0-0.1,0-0.1,0-0.2c0,0,0,0.1,0,0.1
		c2.9,9.8,3.8,26,3.8,41.6C231.4,138.2,226.9,135,221.9,133.3z"/>
	<path class="st0" d="M199.6,233.5c-1.6,0.8-4.9,2.7-8,1.8c-4.7-1.4-14.3-16.7-15-30.1c-0.4-7.7-0.4-44.5-0.7-75.9
		c6.4-3.3,12.3-6.3,12.9-6.5c2.8-1.1,5-2.1,8-2.2c2,0,3.4,0.1,5.1,1.2s2.5,3.5,1.3,5c1.5-1.6,3-3.2,3.8-5.2c0.8-2,0.8-4.5-0.5-6.2
		c-1.3-1.7-4.2-2.2-5.7-0.6c0.6-4.2-4.5-9.1-8.7-9.4c-4.3-0.3-7.6,0.2-11.1,2.7c-1.9,1.4-3.7,2.8-5.3,4.1c-0.3-15.7-0.7-27.7-1.5-30
		c-0.3-0.9-0.7-1.7-1.1-2.5c25-8.7,46.8-19,78.3-18.8c5.8,0,8.5,0.7,13.5,3.6c5.2,2.9,5.9,5,6.9,7.4c4.2-7.4,1.5-17.8-4.2-22.5
		c-7.5-6.2-15.7-5.9-19.7-3.1c-2.7-3-10.3-8-22.5-5.7c-28.3,5.3-56.7,22.2-66.8,27.5c-7.6,3.9-17.9,8.6-26.5,8.6
		c-6.9,0-13.7-3.7-15.6-10.3c-4.3,1.5-6.2,7-4.7,11.3c1.5,4.3,5.5,7.2,9.8,8.7c8.1,2.8,22.7,1.8,30.9-0.3c1.8-0.5,3.5-0.9,5.3-1.4
		c0.3,9,0.7,24.8,1,41.6c-2.9,2.5-7,6.2-9.9,6.9c-3.5,0.8-6.4,1.1-8.7,0.3c-3.3-1.2-5.7-3.9-3.5-6.7c-3.4,2.6-3.5,8.3-0.8,11.7
		s7.5,4.6,11.8,4.1c4-0.5,7.7-2.2,11.3-4.2c0.2,17.2,0.3,33.9-0.1,43.8c-1.1,27.9-0.3,38.6-6.8,52.2c-6.5,13.5-14.6,13-14.6,13
		l-5.5,0c0,0,0.6,3.2,3.9,5.7c3.3,2.5,9.4,4.4,13.1,4.6c6,0.2,11.7-2.2,14.3-5.8s3.5-5.4,3.5-5.4s10.5,4.5,19.7,0.3
		c9.1-4.1,12.5-10.7,13.8-12.9C200.8,232.9,200.5,233,199.6,233.5z"/>
	<path class="st0" d="M329.5,147.7c1.4,4.9,4.6,9.5,9.4,11.2c2.1,0.8,4.5,1.3,6.7,1.3c2.7,0,5.9,0,8.5-0.8
		c4.6-1.5,10.1-4.7,12.4-9.1c2.3-4.2,3.2-8.1,5.8-12.1c1.1-1.7,1.8-2.7,3.5-3.9c1.6-1.2,5.6-2.4,5.9-2.3c0,0-2.2-0.5-3.1-1
		c-4.3-2.2-3.8-21.3-3.8-26.1c0-12.2-0.2-25.1-0.2-37.1c0.1-13.3-0.7-13.7,4.5-23.9c-5.4,1.8-13.1,4.1-18.7,5.9
		c0.9,1.5,1.3,2.7,1.6,4.2c4.4,19.7,2.5,79.4-1.3,88.7c-0.8,2-1.8,3.9-3.6,5.1c-1.1,0.7-2.4,0.9-3.6,0.5c-2.4-0.8-3.3-3.6-3.4-6
		c-1.8-24.8-0.7-53.9-0.5-79c0-4.5,0.9-7.5,2.8-10.4c0.1-0.1,0-0.3-0.2-0.2c-10.9,3.5-22.1,7.1-33.4,10.5c-0.5,0.2-0.6,0.8-0.2,1.1
		c2.8,1.8,5.1,4.6,6.5,7.7c2.4,5.2,2.8,11,3,16.7c0.7,14.6,0.8,29.3,0.4,43.9C328.4,137.6,328.2,142.8,329.5,147.7z"/>
	<path class="st0" d="M505.6,145.9c5.3-5.3,5.9-13.6,2.9-20.3c-3.6-8.2-13-7.9-17.1-6.1c0,0,6.3,2.2,6.3,6.8
		c0,4.6-2.7,9.9-10.1,14.8c-9.7,6.4-34.2,4.7-57.9-1.6c-14.2-3.7-25.2-6.6-34.2-6.3c6.8-6.7,13-16.3,13-25.6
		c0-8.7,0.5-40.5,0.5-40.5s0.6-20.8,4.6-33.6c0.1-0.4-0.2-0.7-0.6-0.6c-8.3,2.6-17.1,5.5-26.2,8.4c-0.4,0.1-0.4,0.6-0.1,0.8
		c0.2,0.2,0.4,0.4,0.6,0.7c0.9,1.3,1.3,3,1.6,4.6c1.9,10.7,1,21.8,0.9,32.7c-0.2,16.1-0.4,32.2-3.9,47.9c-0.6,2.8-1.4,5.6-2.4,8.2
		c-2.3,1.2-4.5,2.9-6.5,5c-2.9,3.4-3.9,9-3.6,12.2c0.3,3.1,1.7,6.2,2.6,6c-1.6-9.8,7.4-17.6,19.8-16.7c18.7,1.3,48.4,18.1,54.2,20.8
		c5.9,2.7,14.8,6.6,26.2,6.6s18.9-10.9,18.9-10.9s2.2-2.9,2.2-6.4c0-3.5-0.6-4.3-0.6-4.3S500.3,151.2,505.6,145.9z"/>
	<path class="st0" d="M265.1,184.2c1.3-0.6,2.7-1,4.2-1.5c10.2-3,24.4-5.3,32.9-8.6c7.5-2.9,13.4-7.4,17.4-14.3
		c1.7-2.9,3.1-7.6,3.9-10.8c2.2-8.7,0.1-19.8-4.4-27.6c-2.2-3.9-6.7-7.1-11-8.2c7.5-3.6,12.1-12.2,11.6-20.6
		c-0.6-8.3-3.2-16.6-10.6-20.5c-2.9-1.5-7.2-3.5-12.5-2.7c-3.2,0.5-14.3,3.9-23.5,6.5c-3.8,1-7.6,2-11.3,3c-0.1,0-0.1,0-0.2,0.1
		c0,0,0,0.1,0.1,0.1c0.8,1,5.2,10.7,5.2,19.2c0,18.8,1.3,75.7-1.2,84.5L265.1,184.2z M304.4,142.6c-0.3,10-2.6,17.3-8.8,23.3
		c-3.5,3.4-9.6,5.2-14.1,6.2c0.8-1.2,1.4-2.5,1.9-3.8c1.6-4.5,1.8-9.5,1.9-14.3c0.2-6.9,0.7-29.5,0.7-33.9c2.1,0.1,4.5,0.4,6.8,1.5
		C298.8,124.3,304.7,132.6,304.4,142.6z M290.4,81.4c1.7,0.3,3.3,1,4.6,2.2c1,0.9,1.7,2,2.2,3.2c1.3,2.6,1.9,5.5,1.9,8.4
		c0,2-0.3,4-1.2,5.8c-1.5,3.2-4.6,5.3-7.7,7c-1.4,0.8-2.8,1.5-4.2,2.1c-0.1-8.4-0.9-19.8-4-25.3c-0.5-0.8-0.9-1.6-1.5-2.4
		C283.8,81.4,287.1,80.8,290.4,81.4z"/>
	<circle class="st0" cx="456.9" cy="74" r="6.2"/>
	<path class="st0" d="M431.3,36.6c-8.9,10.8-14.8,27.4-14.8,44c0,12.4,1.6,24.3,6.6,32.5c8.1,13.5,22.5,19.6,33.8,19.6
		c18.3,0,40.4-26.6,40.4-59.3s-18.6-52.3-36.9-52.3C451.5,21.1,440,26.1,431.3,36.6z M459.4,30.4c10.3,0,16,19.9,16,47.3
		s-8.3,45.9-18.6,45.9s-18.6-18.6-18.6-45.9S449.1,30.4,459.4,30.4z"/>
	<path class="st0" d="M553.7,132.7c0-11.2-4.3-21.8-6.8-26.9c-2.8-5.5-15.7-22.7-20.7-30.1c-5.4-8.2-10.5-16.6-11.6-22
		c-1.2-6-0.5-10,1.1-12.9c1.7-3.3,5.4-5.6,9.8-5.5c8.4,0.2,17.5,9.7,18.2,14.6c0.4,2.8,0.2,4.1-0.1,4.7c-0.1,0.3,0.2,0.5,0.4,0.4
		c2.5-1.2,8.6-7.9,10.1-12.6c1.3-4,3-12.1-9.5-17.9s-21.4-2.8-23-2.1c-1.6,0.7-9.9,4.8-14.4,12.4c-4.5,7.5-6.2,14.1-4.4,25
		c0.1,0.4,2.8,10.2,2.8,10.2s-4.6,1.7-3.9,6.6s0.3,10.4,16.1,33.7c15.8,23.3,14.9,38.5,14.9,43.4c0,34.6-30.8,55.6-53.5,55.6
		c-26.3,0-38.9-16.7-38.9-27c0-10.4,5.6-12.1,5.6-12.1s-2.5-5.3-9-5.3c-6.5,0-14.7,5.7-14.9,15.5s5.6,18,7.2,18.6
		c1.6,0.6,1,1.3,1,1.3s-1.7,4.4,0.4,8.6c2,4.3,10.1,27.4,48.5,27.4c68.8,0,67.1-75.7,67.1-75.7S553.7,156,553.7,132.7z"/>
	<path class="st0" d="M637.7,176.4c0,0-6.3,11.7-17.2,11.6c-8.6-0.1-18.8-2.7-22.8-5.4c-0.6-0.4-1.1-0.7-1.6-1.1
		c9.9-4.8,9.2-13.2,9.2-13.2v-21.6v-40.4c4.9,2.9,8.2,7,9.3,8.5c8,11.5,5.5,20.8,1.3,29.1c0.8,0.6,14.4,0.8,14.4-24.4
		c0-13.4-11.1-20.7-19.6-25.3c-1.7-0.9-3.6-1.6-5.5-2.2v-40c0,0,0.2-1.4,0.6-2.1s1.2-1,1.2-1c0-0.1,0-0.2-0.1-0.2
		c-3.6-1.5-32-11.9-36.9-13.6c-0.1,0-0.2,0.1-0.2,0.2c0.9,1.6,1.7,3.2,2.3,4.6c3.4,8.1-23,61.9-23,61.9c0,0,1.6,2.5,1.6,2.5
		c2.2,3.6,4.4,8.7,5.9,14.2c0.1,0.5,0.6,3,0.6,3.5c0,0.2,0.2,0.2,0.3,0l3.5-9c0.4,2.9,1.8,5.7,4,8.1c-0.9-2.5,0.2-9,1.9-11.7
		c1.6-2.6,4.5-6.3,12.8-8.7c0.4-0.1,0.7-0.2,1.1-0.3l1.3,72.1c-1.8-1.1-3.6-2-5.4-2.8c-5-2.3-7-3.2-12.1-3.2
		c-13.9,0-13.3,14.4-13.3,14.4s3.4-6.7,8.7-6.7c5.4,0,7.4-0.4,13.1,5.3c7.6,7.5,19,22.8,36.2,22.8c8.4,0,11.4-5.7,11.4-5.7
		s7.9,1.8,13-3.5C639.1,188,637.7,176.4,637.7,176.4z M574.1,93.2c-2.9,1.6-5.3,3.5-7.3,5.4l13.3-34.4c0.1-0.2,0.3-0.1,0.3,0
		l0.5,26.3C578.6,91.1,576.3,91.9,574.1,93.2z"/>
	<path class="st0" d="M415.7,167.3c-0.6-1.2-1.5-2.4-2.7-3.3c-3-2.3-4.9-3.2-8.4-3.8c-17.2-2.9-37.3,5.1-54.6,12.1
		c-20.8,8.4-37.8,19-62.9,28.5c-20.9,8-54.4,16.9-76.8,13.1c-6.9-1.2-10.7-7.1-11.9-10.6c0,0-0.6,0.4-0.8,0.7
		c-3.4,3.4-3.6,13.6,7,21.5c9.1,6.8,27.9,2.8,47.9-2.1c4.9,3.3,14.5,7.1,29.3,2.3c17.1-5.5,42.2-19,59.6-28.9c0,0,10.7-6.1,14.2-8.2
		c14-8.3,34.9-18.5,41.4-19.9c4.2-0.9,7.3-1,9.6-0.8c4.3,0.3,5.7,2,6.3,3.3c1,1.9,0.8,3.4,0.7,4.4c-0.2,2.2-1,3.1-1,3.1
		c1.6-0.6,4.4-1.6,4.2-7.8C416.5,170.4,416.2,168.6,415.7,167.3z"/>
</g>
</svg>
