<?xml version="1.0" encoding="utf-8"?>
<!-- Generator: Adobe Illustrator 25.2.0, SVG Export Plug-In . SVG Version: 6.00 Build 0)  -->
<svg version="1.1" id="Layer_1" xmlns="http://www.w3.org/2000/svg" xmlns:xlink="http://www.w3.org/1999/xlink" x="0px" y="0px"
	 viewBox="0 0 98.1 94" style="enable-background:new 0 0 98.1 94;" xml:space="preserve">
<style type="text/css">
	.st0{fill:#330F0D;}
</style>
<g>
	<path class="st0" d="M22.1,62.6c0-0.9-0.8-1-0.8-1c0,0.5-0.3,1.2-0.7,1.6c-0.4,0.4-0.7,1-3.3,1c-2.7,0-3.8-1-7.1-3.2
		c-1.6-1-2.9-1.6-4.1-1.8c2.5-1.1,2.9-3.5,2.7-6.5c-0.2-3.4-0.2-7.9,0-9.3c0.2-1.4,1-3.6,3-3.5c2,0.1,1.3,2.5,1.3,2.5s1.7-0.8,2-1.7
		c0.3-0.9,0.4-1.6,0-1.7c-0.4-0.1-3.3-1.5-5.5,0.4C7.9,40.9,6.9,43,6.9,43s-0.8,0-1.2,1.5c-0.6,1.9-0.1,5.2,0.1,6.6
		c0.6,3.9,0.2,6.6-0.7,7.7C5,59,4.9,59.1,4.8,59.2c-0.7,0.1-1.3,0.4-1.9,0.7c-1.6,1-1.2,2.3-1.1,2.7c0,0,0.1,0,0.1,0
		c0-0.1,0.1-0.3,0.3-0.5c0.1-0.1,0.2-0.3,0.4-0.5c1-0.9,2.7-0.9,3.9-0.3c1.3,0.6,2.4,1.6,3.7,2.9c2.1,2.1,3.3,2.5,4.9,2.6
		s2.4-1,2.4-1s2.4,0.2,3.5-0.8C22.1,64,22.1,63.5,22.1,62.6z"/>
	<path class="st0" d="M13.5,43.5c0.3,1.3-0.2,2.8-0.5,4.2c-0.6,3-1,4.5-2.1,7.4c-0.2,0.5-0.7,1.9-1,2.4c-0.2,0.3-0.7,0.5-1.2,0.7
		c1,0.4,2,0.8,3.1,1.1c-0.1-0.7-0.1-1.4,0-2c0.2,0.2,0.5,0.4,0.9,0.6c-0.3-0.3-0.6-1.2-0.5-1.7c0-0.5,0.2-1.1,1.1-2
		c0.4-0.4,1.4-0.7,2.3-0.9c0.2,2.5,0.4,5.2,0.3,5.7c-0.1,0.6-0.4,1-0.7,1.2c1.6,0.3,3.3,0.4,5.1,0.4c0.1,0,0.2,0,0.2,0
		c-0.3-0.2-0.5-0.3-0.7-0.6c-0.6-0.6-0.8-1.6-0.9-2.4c-0.2-1.4-0.4-2.7-0.5-4.1c0.2,0.1,0.3,0.1,0.4,0.2c1.8,1,2.1,2.4,2.1,3.8
		c0.2,0,0.3-0.5,0.4-0.6c0.4-1.2,0.2-2.6-0.6-3.7c-0.7-0.8-1.6-1.5-2.6-1.8c-0.1-1-0.1-2-0.2-3c0-1.3,0-2.8,0.6-4
		C16.9,44.4,15.1,44,13.5,43.5z M14.6,51.5c-0.5,0.2-0.9,0.4-1.3,0.6c0.6-1.9,1.2-3.7,1.8-5.6c0,0.2,0.2,1.7,0.2,2.6
		c0,0.4,0.1,1.2,0.2,2.1C15.2,51.4,14.8,51.4,14.6,51.5z"/>
	<path class="st0" d="M35.4,58.6c1.4-0.3,2.8-0.6,4.2-1c0,0,0.1,0,0.1,0c-0.4-0.9-0.6-1.8-0.8-2.8c-0.1-0.7-0.1-1.4-0.1-2.1
		c0-1,0-1.9,0-2.9c0-2.7-0.2-5.4,0.4-8.1c-1.2,0.3-2,0.6-3.2,0.8c-0.2,0-0.3,0.1-0.5,0.1c-0.1,0-0.1,0-0.2,0
		c-0.6,0.1-1.2,0.2-1.8,0.4c0,0-0.1,0.1-0.1,0.1c0.1,0.2,0.1,0.4,0.1,0.6c0.1,1.5-0.4,3-0.8,4.5c-0.1,0.4-0.3,0.8-0.4,1.3
		c-0.1,0-0.3,0-0.4,0c-1.2,0.2-1.9,0.4-2.8,1.2c-0.5,0.5-1,1-1.2,1.6c-0.2,0.6-0.3,1.4,0,2c0.3,0.6,1,1,1.7,0.9
		c-0.5-0.5-0.5-1.4-0.2-2c0.3-0.6,0.9-1.1,1.5-1.5c0.3-0.2,0.6-0.3,0.8-0.4c-0.6,1.7-1.1,3.5-1.7,5.2c-0.3,1-0.7,2-1.1,3
		c0,0,0,0.1,0.1,0.1c1.1-0.2,2.2-0.3,3.3-0.5c0,0,0.1-0.1,0.1-0.1c-0.2-0.4-0.3-0.8-0.3-1.3c-0.1-1.1,0.2-2.2,0.5-3.2
		c0.3-1.1,0.6-2.2,0.9-3.4c0.7,0.1,1.3,0.5,1.6,1.1c0.2,0.3,0.3,0.7,0.3,1.1c0,0.5-0.1,0.8-0.5,1.1c0.3,0,0.6-0.1,0.8-0.4
		c-0.1,1.8-0.2,3.1-0.2,3.4C35.6,57.9,35.5,58.3,35.4,58.6z M34.1,49.8c0.4-1.6,0.9-3.2,1.3-4.8c0,0,0,0,0,0c0,0,0,0,0,0
		c0.4,1.5,0.6,3.9,0.6,6.2C35.5,50.5,34.8,50.1,34.1,49.8z"/>
	<path class="st0" d="M30.7,64.8c-0.2,0.1-0.7,0.4-1.2,0.3c-0.7-0.2-2.1-2.5-2.3-4.5c-0.1-1.1-0.1-6.7-0.1-11.4c1-0.5,1.8-0.9,1.9-1
		c0.4-0.2,0.7-0.3,1.2-0.3c0.3,0,0.5,0,0.8,0.2c0.2,0.2,0.4,0.5,0.2,0.8c0.2-0.2,0.5-0.5,0.6-0.8c0.1-0.3,0.1-0.7-0.1-0.9
		c-0.2-0.3-0.6-0.3-0.9-0.1c0.1-0.6-0.7-1.4-1.3-1.4c-0.6-0.1-1.1,0-1.7,0.4c-0.3,0.2-0.5,0.4-0.8,0.6c0-2.4-0.1-4.1-0.2-4.5
		c0-0.1-0.1-0.3-0.2-0.4c3.7-1.3,7-2.8,11.7-2.8c0.9,0,1.3,0.1,2,0.5c0.8,0.4,0.9,0.7,1,1.1c0.6-1.1,0.2-2.7-0.6-3.4
		c-1.1-0.9-2.4-0.9-2.9-0.5c-0.4-0.4-1.5-1.2-3.4-0.9c-4.2,0.8-8.5,3.3-10,4.1c-1.1,0.6-2.7,1.3-4,1.3c-1,0-2-0.6-2.3-1.6
		c-0.6,0.2-0.9,1.1-0.7,1.7c0.2,0.6,0.8,1.1,1.5,1.3c1.2,0.4,3.4,0.3,4.6,0c0.3-0.1,0.5-0.1,0.8-0.2c0,1.3,0.1,3.7,0.1,6.2
		c-0.4,0.4-1,0.9-1.5,1c-0.5,0.1-1,0.2-1.3,0c-0.5-0.2-0.9-0.6-0.5-1c-0.5,0.4-0.5,1.2-0.1,1.7c0.4,0.5,1.1,0.7,1.8,0.6
		c0.6-0.1,1.2-0.3,1.7-0.6c0,2.6,0,5.1,0,6.6c-0.2,4.2,0,5.8-1,7.8c-1,2-2.2,1.9-2.2,1.9l-0.8,0c0,0,0.1,0.5,0.6,0.8
		c0.5,0.4,1.4,0.7,2,0.7c0.9,0,1.8-0.3,2.1-0.9c0.4-0.5,0.5-0.8,0.5-0.8s1.6,0.7,2.9,0s1.9-1.6,2.1-1.9
		C30.9,64.7,30.8,64.7,30.7,64.8z"/>
	<path class="st0" d="M50.2,52c0.2,0.7,0.7,1.4,1.4,1.7c0.3,0.1,0.7,0.2,1,0.2c0.4,0,0.9,0,1.3-0.1c0.7-0.2,1.5-0.7,1.9-1.4
		c0.3-0.6,0.5-1.2,0.9-1.8c0.2-0.3,0.3-0.4,0.5-0.6c0.2-0.2,0.8-0.4,0.9-0.3c0,0-0.3-0.1-0.5-0.1c-0.6-0.3-0.6-3.2-0.6-3.9
		c0-1.8,0-3.8,0-5.6c0-2-0.1-2.1,0.7-3.6c-0.8,0.3-2,0.6-2.8,0.9c0.1,0.2,0.2,0.4,0.2,0.6c0.7,3,0.4,11.9-0.2,13.3
		c-0.1,0.3-0.3,0.6-0.5,0.8c-0.2,0.1-0.4,0.1-0.5,0.1c-0.4-0.1-0.5-0.5-0.5-0.9c-0.3-3.7-0.1-8.1-0.1-11.8c0-0.7,0.1-1.1,0.4-1.6
		c0,0,0,0,0,0c-1.6,0.5-3.3,1.1-5,1.6c-0.1,0-0.1,0.1,0,0.2c0.4,0.3,0.8,0.7,1,1.1c0.4,0.8,0.4,1.7,0.5,2.5c0.1,2.2,0.1,4.4,0.1,6.6
		C50,50.5,50,51.2,50.2,52z"/>
	<path class="st0" d="M76.6,51.7c0.8-0.8,0.9-2,0.4-3c-0.5-1.2-1.9-1.2-2.6-0.9c0,0,0.9,0.3,0.9,1c0,0.7-0.4,1.5-1.5,2.2
		c-1.5,1-5.1,0.7-8.7-0.2c-2.1-0.6-3.8-1-5.1-0.9c1-1,2-2.4,2-3.8c0-1.3,0.1-6.1,0.1-6.1s0.1-3.1,0.7-5c0-0.1,0-0.1-0.1-0.1
		c-1.2,0.4-2.6,0.8-3.9,1.3c-0.1,0-0.1,0.1,0,0.1c0,0,0.1,0.1,0.1,0.1c0.1,0.2,0.2,0.5,0.2,0.7c0.3,1.6,0.2,3.3,0.1,4.9
		c0,2.4-0.1,4.8-0.6,7.2c-0.1,0.4-0.2,0.8-0.4,1.2c-0.3,0.2-0.7,0.4-1,0.8c-0.4,0.5-0.6,1.4-0.5,1.8c0,0.5,0.2,0.9,0.4,0.9
		c-0.2-1.5,1.1-2.6,3-2.5c2.8,0.2,7.2,2.7,8.1,3.1c0.9,0.4,2.2,1,3.9,1s2.8-1.6,2.8-1.6s0.3-0.4,0.3-1c0-0.5-0.1-0.6-0.1-0.6
		S75.8,52.5,76.6,51.7z"/>
	<path class="st0" d="M40.5,57.4c0.2-0.1,0.4-0.2,0.6-0.2c1.5-0.4,3.7-0.8,4.9-1.3c1.1-0.4,2-1.1,2.6-2.1c0.3-0.4,0.5-1.1,0.6-1.6
		c0.3-1.3,0-3-0.7-4.1c-0.3-0.6-1-1.1-1.7-1.2c1.1-0.5,1.8-1.8,1.7-3.1s-0.5-2.5-1.6-3.1c-0.4-0.2-1.1-0.5-1.9-0.4
		c-0.5,0.1-2.1,0.6-3.5,1c-0.6,0.2-1.1,0.3-1.7,0.4c0,0,0,0,0,0c0,0,0,0,0,0c0.1,0.2,0.8,1.6,0.8,2.9c0,2.8,0.2,11.3-0.2,12.7
		L40.5,57.4z M46.4,51.2c0,1.5-0.4,2.6-1.3,3.5c-0.5,0.5-1.4,0.8-2.1,0.9c0.1-0.2,0.2-0.4,0.3-0.6c0.2-0.7,0.3-1.4,0.3-2.1
		c0-1,0.1-4.4,0.1-5.1c0.3,0,0.7,0.1,1,0.2C45.6,48.5,46.5,49.7,46.4,51.2z M44.3,42c0.3,0,0.5,0.1,0.7,0.3c0.1,0.1,0.2,0.3,0.3,0.5
		c0.2,0.4,0.3,0.8,0.3,1.3c0,0.3,0,0.6-0.2,0.9c-0.2,0.5-0.7,0.8-1.1,1c-0.2,0.1-0.4,0.2-0.6,0.3c0-1.3-0.1-3-0.6-3.8
		c-0.1-0.1-0.1-0.2-0.2-0.4C43.3,42,43.8,41.9,44.3,42z"/>
	<circle class="st0" cx="69.3" cy="40.9" r="0.9"/>
	<path class="st0" d="M65.4,35.3c-1.3,1.6-2.2,4.1-2.2,6.6c0,1.9,0.2,3.6,1,4.9c1.2,2,3.4,2.9,5.1,2.9c2.7,0,6.1-4,6.1-8.9
		c0-4.9-2.8-7.8-5.5-7.8C68.5,33,66.7,33.7,65.4,35.3z M69.7,34.4c1.5,0,2.4,3,2.4,7.1c0,4.1-1.3,6.9-2.8,6.9
		c-1.5,0-2.8-2.8-2.8-6.9C66.5,37.4,68.1,34.4,69.7,34.4z"/>
	<path class="st0" d="M83.8,49.7c0-1.7-0.6-3.3-1-4c-0.4-0.8-2.4-3.4-3.1-4.5c-0.8-1.2-1.6-2.5-1.7-3.3c-0.2-0.9-0.1-1.5,0.2-1.9
		c0.3-0.5,0.8-0.8,1.5-0.8c1.3,0,2.6,1.4,2.7,2.2c0.1,0.4,0,0.6,0,0.7c0,0,0,0.1,0.1,0.1c0.4-0.2,1.3-1.2,1.5-1.9
		c0.2-0.6,0.4-1.8-1.4-2.7c-1.9-0.9-3.2-0.4-3.4-0.3c-0.2,0.1-1.5,0.7-2.2,1.9c-0.7,1.1-0.9,2.1-0.7,3.7c0,0.1,0.4,1.5,0.4,1.5
		s-0.7,0.3-0.6,1c0.1,0.7,0.1,1.6,2.4,5.1s2.2,5.8,2.2,6.5c0,5.2-4.6,8.3-8,8.3c-3.9,0-5.8-2.5-5.8-4c0-1.6,0.8-1.8,0.8-1.8
		s-0.4-0.8-1.4-0.8c-1,0-2.2,0.9-2.2,2.3c0,1.5,0.8,2.7,1.1,2.8c0.2,0.1,0.2,0.2,0.2,0.2s-0.2,0.7,0.1,1.3c0.3,0.6,1.5,4.1,7.3,4.1
		c10.3,0,10.1-11.3,10.1-11.3S83.8,53.2,83.8,49.7z"/>
	<path class="st0" d="M96.4,56.3c0,0-0.9,1.7-2.6,1.7c-1.3,0-2.8-0.4-3.4-0.8c-0.1-0.1-0.2-0.1-0.2-0.2c1.5-0.7,1.4-2,1.4-2v-3.2
		v-6.1c0.7,0.4,1.2,1.1,1.4,1.3c1.2,1.7,0.8,3.1,0.2,4.4c0.1,0.1,2.2,0.1,2.2-3.7c0-2-1.7-3.1-2.9-3.8c-0.3-0.1-0.5-0.2-0.8-0.3v-6
		c0,0,0-0.2,0.1-0.3c0.1-0.1,0.2-0.2,0.2-0.2c0,0,0,0,0,0c-0.5-0.2-4.8-1.8-5.5-2c0,0,0,0,0,0c0.1,0.2,0.3,0.5,0.3,0.7
		c0.5,1.2-3.4,9.3-3.4,9.3c0,0,0.2,0.4,0.2,0.4c0.3,0.5,0.7,1.3,0.9,2.1c0,0.1,0.1,0.5,0.1,0.5c0,0,0,0,0,0l0.5-1.3
		c0.1,0.4,0.3,0.9,0.6,1.2c-0.1-0.4,0-1.4,0.3-1.8c0.2-0.4,0.7-0.9,1.9-1.3c0.1,0,0.1,0,0.2,0l0.2,10.8c-0.3-0.2-0.5-0.3-0.8-0.4
		c-0.7-0.3-1.1-0.5-1.8-0.5c-2.1,0-2,2.2-2,2.2s0.5-1,1.3-1c0.8,0,1.1-0.1,2,0.8c1.1,1.1,2.8,3.4,5.4,3.4c1.3,0,1.7-0.9,1.7-0.9
		s1.2,0.3,1.9-0.5C96.6,58,96.4,56.3,96.4,56.3z M86.8,43.8c-0.4,0.2-0.8,0.5-1.1,0.8l2-5.2c0,0,0,0,0,0l0.1,3.9
		C87.5,43.5,87.2,43.6,86.8,43.8z"/>
	<path class="st0" d="M63.1,54.9c-0.1-0.2-0.2-0.4-0.4-0.5c-0.4-0.3-0.7-0.5-1.3-0.6c-2.6-0.4-5.6,0.8-8.2,1.8
		c-3.1,1.3-5.7,2.8-9.4,4.3c-3.1,1.2-8.2,2.5-11.5,2c-1-0.2-1.6-1.1-1.8-1.6c0,0-0.1,0.1-0.1,0.1c-0.5,0.5-0.5,2,1,3.2
		c1.4,1,4.2,0.4,7.2-0.3c0.7,0.5,2.2,1.1,4.4,0.3c2.6-0.8,6.3-2.8,8.9-4.3c0,0,1.6-0.9,2.1-1.2c2.1-1.2,5.2-2.8,6.2-3
		c0.6-0.1,1.1-0.1,1.4-0.1c0.6,0.1,0.9,0.3,0.9,0.5c0.1,0.3,0.1,0.5,0.1,0.7c0,0.3-0.2,0.5-0.2,0.5c0.2-0.1,0.7-0.2,0.6-1.2
		C63.2,55.4,63.2,55.1,63.1,54.9z"/>
	<path class="st0" d="M43.6,36.9c0.1,0.2,0.3,0.3,0.4,0.3c0.2,0,0.3,0,0.5,0c0.2,0,0.3-0.1,0.4-0.3c0.1-0.1,0.2-0.3,0.3-0.5
		c0-0.2,0-0.3,0-0.5c0-0.2-0.1-0.3-0.2-0.4c-0.1-0.1-0.2-0.2-0.4-0.2c-0.2,0-0.3,0.1-0.6,0.2c-0.1,0-0.1,0.1-0.1,0.1
		c0,0,0,0.1,0.1,0.1c0,0,0.1,0,0.2-0.1c0.2-0.1,0.3-0.2,0.5-0.1c0.1,0,0.2,0.1,0.3,0.2c0.1,0.1,0.1,0.2,0.2,0.4c0,0.2,0,0.3-0.1,0.5
		c-0.1,0.1-0.2,0.3-0.3,0.4c-0.2,0.1-0.4,0.2-0.6,0.1c-0.1,0-0.3-0.1-0.3-0.3c-0.1-0.2-0.1-0.4-0.1-0.6c0-0.3,0-0.5,0.1-0.8
		c0.1-0.3,0.2-0.6,0.3-0.9c0.1-0.3,0.3-0.6,0.5-0.8c0.2-0.2,0.4-0.5,0.7-0.6c0.3-0.2,0.5-0.3,0.8-0.4c0.3-0.1,0.6-0.1,0.9,0
		c0.2,0,0.3,0.1,0.4,0.3c0.1,0.1,0.2,0.3,0.3,0.5c0.1,0.2,0.1,0.4,0.1,0.6c0,0.3-0.1,0.6-0.2,0.9c-0.1,0.3-0.3,0.6-0.4,0.9
		c-0.2,0.3-0.4,0.5-0.6,0.7c-0.2,0.2-0.4,0.3-0.6,0.3c0-0.2,0-0.4,0-0.6c0-0.3,0-0.6,0-0.9c0-0.3,0.1-0.6,0.1-0.9
		c0.1-0.3,0.1-0.6,0.3-0.9c0.1-0.3,0.3-0.5,0.4-0.7l0,0l0,0c-0.3,0.1-0.5,0.2-0.6,0.3c-0.2,0.2-0.3,0.4-0.4,0.6
		c-0.1,0.2-0.2,0.5-0.2,0.8c0,0.3-0.1,0.6-0.1,0.9c0,0.3,0,0.6,0,0.9c0,0.3,0,0.6,0,0.8c0,0.3-0.1,0.5-0.1,0.7
		c0,0.2-0.1,0.4-0.2,0.5c-0.1,0.1-0.2,0.2-0.3,0.2c-0.1,0-0.2,0-0.3,0c-0.1,0-0.2-0.1-0.2-0.2c0-0.1,0-0.2,0-0.3
		c0-0.1,0.1-0.2,0.2-0.3c0.1-0.1,0.2-0.2,0.3-0.2c0.1-0.1,0.2-0.1,0.3-0.1c0,0,0,0,0-0.1c0,0,0-0.1,0-0.1c0,0-0.1,0-0.1,0l0,0l0,0
		c-0.2,0.1-0.3,0.2-0.5,0.3c-0.1,0.1-0.2,0.2-0.3,0.4C44,38,44,38.2,44,38.4c0,0.2,0.1,0.3,0.3,0.3c0.1,0.1,0.2,0.1,0.3,0.1
		c0.1,0,0.1,0,0.2,0c0.1,0,0.3-0.1,0.4-0.1c0.1-0.1,0.3-0.2,0.4-0.3c0.1-0.1,0.2-0.3,0.2-0.4c0-0.1,0.1-0.3,0.1-0.5
		c0-0.2,0-0.3,0.1-0.5c0.2,0.2,0.5,0.3,0.8,0.5c0.3,0.2,0.6,0.3,0.9,0.4c0.3,0.1,0.6,0.2,0.9,0.2c0.2,0,0.4,0,0.6-0.1
		c0.2-0.1,0.4-0.2,0.6-0.4c0.2-0.2,0.3-0.4,0.4-0.6c0,0,0-0.1,0-0.1c0,0,0,0,0,0c0,0,0,0,0,0l0,0l0,0c0,0-0.1,0.1-0.1,0.1
		c-0.1,0.1-0.1,0.2-0.2,0.2c-0.1,0.1-0.1,0.1-0.2,0.2c-0.1,0-0.2,0.1-0.4,0.1c-0.3,0-0.5,0-0.8,0c-0.3,0-0.6-0.1-0.8-0.2
		c-0.3-0.1-0.5-0.2-0.8-0.3c0,0-0.2-0.1-0.4-0.1c0.4-0.2,0.7-0.4,1-0.6c0.3-0.3,0.5-0.5,0.7-0.8c0.2-0.3,0.3-0.6,0.3-0.9
		c0-0.3,0-0.6,0-0.8c-0.1-0.3-0.2-0.5-0.4-0.7c-0.2-0.2-0.4-0.4-0.7-0.4c-0.3-0.1-0.6-0.1-0.9-0.1c-0.4,0-0.8,0.2-1.2,0.4
		c-0.4,0.2-0.7,0.4-0.9,0.7c-0.3,0.3-0.5,0.6-0.6,0.9c-0.1,0.3-0.2,0.7-0.3,1c0,0.3,0,0.6,0,0.9C43.3,36.5,43.4,36.7,43.6,36.9z"/>
	<path class="st0" d="M49.1,36.1c0.1,0,0.2,0.1,0.3,0.1c0,0,0.1,0,0.1,0c0.1,0,0.3-0.1,0.4-0.1c0.1-0.1,0.2-0.2,0.3-0.2l0,0
		c0.1-0.1,0.2-0.3,0.2-0.5l-0.1,2.1l0,0l0.6-0.2l0.1-1.7c0,0,0.1,0.1,0.1,0.1c0.1,0,0.1,0,0.2,0c0.1,0,0.2,0,0.3-0.1
		c0.1,0,0.2-0.1,0.2-0.1c0.1-0.1,0.1-0.1,0.2-0.2c0-0.1,0.1-0.2,0.1-0.3c0,0,0-0.1,0-0.1c0.1-0.1,0.2-0.2,0.3-0.3
		c0.1-0.1,0.1-0.2,0.2-0.3l0,0.1c0,0.2,0,0.4,0.1,0.5c0.1,0.1,0.2,0.2,0.3,0.2c0,0,0.1,0,0.1,0c0.1,0,0.2,0,0.2-0.1
		c0.1-0.1,0.2-0.1,0.2-0.2c0.1-0.2,0.2-0.3,0.2-0.5c0,0.1,0.1,0.2,0.1,0.3c0.1,0.1,0.2,0.1,0.2,0.1c0.1,0,0.2,0,0.3-0.1
		c0.1-0.1,0.2-0.1,0.2-0.2c0.1-0.2,0.2-0.3,0.2-0.5c0,0,0,0,0,0l0,0.7l0,0l0.6-0.2l0-0.3c0,0,0.1,0.1,0.1,0.1c0.1,0,0.1,0,0.2,0
		c0,0,0,0,0,0c0.1,0,0.2,0,0.3-0.1c0.1,0,0.2-0.1,0.2-0.1c0.1-0.1,0.1-0.1,0.2-0.2c0-0.1,0.1-0.2,0.1-0.3c0,0,0,0,0-0.1
		c0.1-0.1,0.2-0.2,0.3-0.3c0.1-0.1,0.1-0.2,0.2-0.3l0,0.1c0,0.2,0,0.4,0.1,0.5c0.1,0.1,0.2,0.2,0.3,0.2c0,0,0.1,0,0.1,0
		c0.1,0,0.2,0,0.2-0.1c0.1-0.1,0.2-0.1,0.2-0.2c0.1-0.2,0.2-0.3,0.2-0.5c0,0,0-0.1,0-0.1c0,0.1,0.1,0.3,0.1,0.3
		c0.1,0.1,0.2,0.2,0.3,0.2c0,0,0.1,0,0.1,0c0.1,0,0.2,0,0.2-0.1c0.1-0.1,0.2-0.1,0.2-0.2c0.1-0.2,0.2-0.3,0.2-0.5
		c0-0.1,0.1-0.2,0.1-0.3c0,0.1,0,0.2,0.1,0.2c0.1,0.2,0.2,0.3,0.3,0.4c0.1,0,0.2,0.1,0.2,0.1c0,0,0.1,0,0.1,0c0.1,0,0.3-0.1,0.4-0.2
		c0.1-0.1,0.2-0.2,0.3-0.3l0,0c0.1-0.2,0.2-0.3,0.2-0.5c0-0.1,0-0.2,0.1-0.3c0,0.1,0,0.1,0,0.2c0,0.1,0.1,0.2,0.2,0.3
		c0.1,0.1,0.1,0.1,0.2,0.1c0,0,0.1,0,0.1,0c0,0,0.1,0,0.1,0c0.1,0,0.1-0.1,0.2-0.1c0-0.1,0.1-0.1,0.1-0.2c0-0.1,0.1-0.2,0.1-0.3
		c0,0.1,0.1,0.2,0.1,0.2c0.1,0.1,0.1,0.1,0.2,0.1c0.1,0,0.2,0,0.3-0.1c0.1-0.1,0.2-0.1,0.2-0.2c0.1-0.2,0.2-0.3,0.2-0.5
		c0.1-0.2,0.1-0.4,0.1-0.6c0-0.2,0.1-0.3,0.1-0.5c0-0.1,0-0.1,0-0.1c0,0,0,0,0,0c0,0,0,0,0,0c0,0.1,0,0.1-0.1,0.2
		c0,0.2-0.1,0.3-0.1,0.5c-0.1,0.2-0.1,0.4-0.2,0.5c-0.1,0.2-0.1,0.3-0.2,0.3c0,0,0,0-0.1,0c0,0,0,0-0.1-0.1c0-0.1,0-0.2,0-0.3
		l0.1-1.7l-0.6,0.2l0,0.2c-0.1-0.1-0.1-0.1-0.2-0.1c-0.1,0-0.2,0-0.3,0c-0.1,0-0.2,0.1-0.3,0.2c-0.1,0.1-0.1,0.2-0.2,0.3
		c0,0.1-0.1,0.2-0.1,0.4c0,0.1,0,0.2,0,0.3c0,0.2-0.1,0.3-0.1,0.5c0,0,0,0,0,0c0,0.1,0,0.2-0.1,0.3c0,0.1-0.1,0.2-0.2,0.4
		c-0.1,0.1-0.1,0.2-0.2,0.2c-0.1,0-0.2,0-0.3,0c-0.1,0-0.1-0.1-0.2-0.2c0-0.1-0.1-0.3-0.1-0.5c0-0.2,0-0.3,0-0.5
		c0-0.2,0-0.3,0.1-0.4c0-0.1,0.1-0.2,0.2-0.2c0.1,0,0.2,0,0.2,0c0,0.1,0.1,0.1,0.1,0.2c0,0.1,0,0.2,0,0.2c0,0,0,0,0,0.1c0,0,0,0,0,0
		c0,0,0,0,0,0l0,0c0,0,0,0,0.1,0c0,0,0,0,0,0c0-0.1,0-0.2,0-0.3c0-0.1-0.1-0.2-0.1-0.3c-0.1-0.1-0.2-0.1-0.3-0.2
		c-0.1,0-0.2,0-0.4,0.1c-0.1,0-0.2,0.1-0.3,0.2c-0.1,0.1-0.1,0.2-0.2,0.3c0,0.1-0.1,0.2-0.1,0.4c0,0.1,0,0.3,0,0.4
		c0,0.1-0.1,0.3-0.1,0.4c0,0.2-0.1,0.4-0.2,0.5c-0.1,0.2-0.1,0.3-0.2,0.3c0,0,0,0-0.1,0c0,0,0,0-0.1-0.1c0-0.1,0-0.2,0-0.3l0-1.7
		l-0.6,0.2l0,1c0,0.1-0.1,0.3-0.1,0.5c-0.1,0.2-0.1,0.4-0.2,0.5c-0.1,0.2-0.1,0.3-0.2,0.3c0,0,0,0-0.1,0c0,0,0,0-0.1-0.1
		c0-0.1,0-0.2,0-0.3l0.1-3.2l0,0l-0.6,0.2l-0.1,2.5c0,0.1-0.1,0.2-0.2,0.3c-0.1,0.1-0.2,0.2-0.3,0.3c0-0.1,0-0.3,0-0.5
		c0-0.2,0-0.3-0.1-0.5c0-0.1-0.1-0.2-0.2-0.3c-0.1-0.1-0.2-0.1-0.4-0.1c-0.1,0-0.2,0.1-0.3,0.2c-0.1,0.1-0.1,0.2-0.2,0.3l0-1.7
		L55,30.5L55,33c0,0.1-0.1,0.3-0.1,0.4c-0.1,0.2-0.1,0.4-0.2,0.5c-0.1,0.2-0.1,0.3-0.2,0.3c0,0,0,0-0.1,0c0,0,0,0-0.1-0.1
		c0-0.1,0-0.2,0-0.3l0.1-1.7l0,0l-0.6,0.2l0,0.5c0,0.3-0.1,0.5-0.1,0.8c0,0.2-0.1,0.5-0.2,0.6c-0.1,0.2-0.1,0.3-0.2,0.4
		c0,0,0,0-0.1,0c0,0,0,0,0-0.1c0-0.1,0-0.2,0-0.3l0.1-1.7l0,0l-0.6,0.2l0,0l0,1c0,0.1-0.1,0.2-0.2,0.4c-0.1,0.1-0.2,0.2-0.3,0.3
		c0-0.1,0-0.2,0-0.3c0-0.1,0-0.2,0-0.3c0-0.1,0-0.2-0.1-0.3c0-0.1-0.1-0.2-0.1-0.2c-0.1-0.1-0.1-0.1-0.2-0.1c-0.1,0-0.2,0-0.3,0
		c-0.1,0-0.1,0.1-0.2,0.2c-0.1,0.1-0.1,0.2-0.2,0.3l0-0.3l-0.6,0.2l0,1c0,0.1-0.1,0.3-0.1,0.4c0,0,0,0,0,0c0,0.1-0.1,0.2-0.1,0.3
		c0,0.1-0.1,0.2-0.2,0.4c-0.1,0.1-0.2,0.2-0.3,0.2c-0.1,0-0.2,0-0.3,0c-0.1,0-0.1-0.1-0.1-0.2c0-0.1,0-0.2-0.1-0.3
		c0-0.1,0-0.2,0-0.3c0.1,0.1,0.1,0.1,0.2,0.1c0.1,0,0.2-0.1,0.3-0.2c0.1-0.1,0.2-0.2,0.2-0.3c0-0.1,0.1-0.3,0.1-0.4
		c0-0.1-0.1-0.2-0.2-0.3c-0.1-0.1-0.1-0.1-0.2-0.1c-0.1,0-0.2,0-0.3,0c-0.1,0-0.2,0.1-0.2,0.1C49,34,49,34.1,48.9,34.2
		c0,0.1-0.1,0.2-0.1,0.3c0,0.2-0.1,0.4-0.1,0.6c0,0.2,0,0.4,0.1,0.6C48.9,35.9,49,36.1,49.1,36.1z M49.3,34.9L49.3,34.9
		c0-0.1,0-0.2,0-0.3c0-0.1,0-0.2,0.1-0.3c0-0.1,0.1-0.2,0.1-0.2c0.1-0.1,0.1-0.1,0.2-0.1c0.1,0,0.1,0.1,0.1,0.1c0,0.1,0,0.2,0,0.3
		c0,0.1,0,0.2-0.1,0.3c0,0.1-0.1,0.1-0.2,0.2C49.5,34.9,49.5,35,49.3,34.9C49.4,34.9,49.3,34.9,49.3,34.9z M51.6,33.9
		c0,0.1,0,0.1,0,0.3c0,0.1,0,0.3,0,0.4c0,0-0.1,0-0.1,0c-0.1,0-0.1,0-0.1,0.1c0,0-0.1,0.1-0.1,0.1c0,0.1,0,0.1,0,0.1
		c0,0,0.1,0.1,0.1,0c0,0.1-0.1,0.2-0.1,0.3c0,0.1-0.1,0.1-0.2,0.1c-0.1,0-0.1-0.1-0.1-0.1c0-0.1-0.1-0.2-0.1-0.3l0,0l0,0
		c0-0.1,0-0.2,0-0.3c0-0.1,0-0.3,0.1-0.4c0-0.2,0.1-0.3,0.1-0.4c0.1-0.1,0.1-0.2,0.2-0.2c0,0,0.1,0,0.1,0.1
		C51.6,33.6,51.6,33.8,51.6,33.9z M56,33.1c-0.1,0-0.1,0-0.1,0.1c0,0-0.1,0.1-0.1,0.1c0,0.1,0,0.1,0,0.1c0,0,0.1,0.1,0.1,0.1
		c0,0.1-0.1,0.2-0.1,0.3c-0.1,0.1-0.1,0.1-0.2,0.1c-0.1,0-0.1-0.1-0.1-0.1c0-0.1-0.1-0.2-0.1-0.3l0,0c0-0.1,0-0.2,0-0.3
		c0-0.1,0-0.3,0.1-0.5c0-0.2,0.1-0.3,0.1-0.4c0.1-0.1,0.1-0.2,0.2-0.2c0,0,0,0,0,0c0,0,0.1,0,0.1,0.1c0,0.1,0.1,0.2,0.1,0.3
		c0,0.1,0,0.1,0,0.3C56.1,32.8,56.1,33,56,33.1C56.1,33.1,56.1,33.1,56,33.1z M61.8,30.5c0-0.2,0.1-0.3,0.1-0.5
		c0-0.1,0.1-0.2,0.2-0.2c0,0,0,0,0,0c0,0,0,0,0.1,0c0,0,0.1,0.1,0.1,0.1c0,0.1,0,0.1,0,0.2c0,0.1,0,0.2,0,0.4c0,0.1,0,0.2,0,0.3
		c0,0.1,0,0.2-0.1,0.3c0,0.1-0.1,0.2-0.1,0.3c0,0.1-0.1,0.1-0.1,0.2c0,0-0.1,0.1-0.1,0.1c0,0-0.1,0-0.1-0.1c0-0.1-0.1-0.3-0.1-0.4
		C61.8,30.9,61.8,30.7,61.8,30.5z"/>
	<path class="st0" d="M58.5,30.4c0,0,0.1,0,0.1,0c0,0,0.1,0,0.1,0c0.1,0,0.1-0.1,0.2-0.2c0-0.1,0-0.2,0-0.2c0-0.1-0.1-0.1-0.2-0.2
		c-0.1,0-0.2,0-0.2,0c-0.1,0-0.1,0.1-0.2,0.2c0,0.1,0,0.2,0,0.2C58.4,30.4,58.4,30.4,58.5,30.4z"/>
	<path class="st0" d="M64.8,30.4c0,0.1,0.1,0.2,0.1,0.3c0.1,0.1,0.1,0.1,0.2,0.2c0,0,0.1,0,0.1,0c0,0,0.1,0,0.1,0
		c0.1,0,0.1-0.1,0.2-0.1c0.1-0.1,0.1-0.1,0.1-0.2c0-0.1,0.1-0.2,0.1-0.3c0,0.1,0.1,0.2,0.1,0.2c0.1,0.1,0.1,0.1,0.2,0.1
		c0.1,0,0.2,0,0.3,0c0.1,0,0.2-0.1,0.2-0.2c0.1-0.1,0.2-0.3,0.3-0.5c0-0.1,0.1-0.2,0.1-0.2c0,0.1,0,0.1,0,0.2c0,0.2,0.1,0.3,0.2,0.4
		c0.1,0.1,0.2,0.1,0.3,0.1c0,0,0,0,0,0c0.1,0,0.3,0,0.4-0.1c0.1-0.1,0.2-0.1,0.3-0.2l0,0c0.1-0.1,0.2-0.3,0.3-0.5
		c0.1-0.2,0.2-0.4,0.2-0.6c0.1-0.2,0.1-0.3,0.1-0.5c0-0.1,0-0.1,0-0.1c0,0,0,0,0,0c0,0,0,0,0,0c0,0.1-0.1,0.1-0.1,0.2
		c-0.1,0.2-0.1,0.3-0.2,0.5c0,0,0,0,0,0c0,0.1-0.1,0.2-0.1,0.3c-0.1,0.1-0.1,0.2-0.2,0.3C68.2,30,68.1,30,68,30.1
		c-0.1,0-0.2,0-0.3-0.1c-0.1-0.1-0.1-0.1-0.1-0.2c0-0.1,0-0.2,0-0.3c0-0.1,0-0.2,0-0.3c0.1,0.1,0.1,0.1,0.2,0.1c0.1,0,0.2,0,0.3-0.1
		c0.1-0.1,0.2-0.2,0.2-0.3c0.1-0.1,0.1-0.2,0.1-0.4c0-0.1,0-0.2-0.1-0.4c-0.1-0.1-0.1-0.1-0.2-0.1c-0.1,0-0.2,0-0.3,0
		c-0.1,0-0.2,0.1-0.3,0.1c-0.1,0.1-0.1,0.1-0.2,0.2c-0.1,0.1-0.1,0.2-0.1,0.3c-0.1,0.2-0.1,0.3-0.1,0.5c0,0.1-0.1,0.3-0.2,0.4
		c-0.1,0.2-0.1,0.4-0.2,0.5c-0.1,0.1-0.2,0.2-0.2,0.3c0,0,0,0-0.1,0c0,0,0,0,0-0.1c0-0.1,0-0.2,0-0.3l0.4-3.2l0,0L66.1,27l-0.2,1.7
		c-0.1-0.1-0.1-0.1-0.2-0.1c-0.1,0-0.2,0-0.3,0c-0.1,0-0.2,0.1-0.3,0.2C65,28.8,65,28.9,64.9,29c-0.1,0.1-0.1,0.2-0.1,0.4
		c0,0.1,0,0.3-0.1,0.4c0,0.1,0,0.3,0,0.4C64.7,30.2,64.8,30.4,64.8,30.4z M65.3,30c0-0.2,0-0.4,0.1-0.5c0-0.2,0.1-0.3,0.1-0.5
		c0.1-0.1,0.1-0.2,0.2-0.2c0,0,0,0,0,0c0,0,0,0,0.1,0c0,0,0.1,0.1,0.1,0.1c0,0.1,0,0.1,0,0.2c0,0.1,0,0.1,0,0.1l0,0.2
		c0,0.1,0,0.2-0.1,0.3c0,0.1-0.1,0.2-0.1,0.3c0,0.1-0.1,0.2-0.1,0.3c0,0.1-0.1,0.1-0.1,0.2c0,0-0.1,0.1-0.1,0c0,0,0,0-0.1-0.1
		C65.3,30.3,65.3,30.1,65.3,30z M67.7,29L67.7,29c0-0.1,0-0.2,0.1-0.3c0-0.1,0.1-0.2,0.1-0.3c0-0.1,0.1-0.1,0.1-0.2
		c0.1-0.1,0.1-0.1,0.2-0.1c0.1,0,0.1,0.1,0.1,0.1c0,0.1,0,0.2,0,0.3c0,0.1-0.1,0.2-0.1,0.3c-0.1,0.1-0.1,0.1-0.2,0.2
		c-0.1,0-0.1,0-0.2,0C67.7,29.1,67.7,29.1,67.7,29z"/>
	<path class="st0" d="M70.2,29.9c0.1,0,0.1,0,0.2,0c0,0,0.1,0,0.1,0c0.1,0,0.2-0.1,0.3-0.2c0.1-0.1,0.2-0.3,0.3-0.5
		c0-0.1,0.1-0.2,0.1-0.3c0,0.1,0,0.1,0,0.2c0,0.1,0,0.3,0.1,0.3c0,0.1,0.1,0.2,0.2,0.2c0.1,0,0.1,0.1,0.2,0.1c0,0,0,0,0,0
		c0.1,0,0.1,0,0.2-0.1c0.1,0,0.1-0.1,0.2-0.2c0.1-0.1,0.1-0.2,0.2-0.2c0,0.1,0,0.2,0.1,0.3c0,0.1,0.1,0.1,0.2,0.2
		c0.1,0.1,0.2,0.1,0.3,0c0.1,0,0.2-0.1,0.3-0.2c0.1-0.1,0.3-0.3,0.4-0.4c0.1-0.2,0.2-0.4,0.3-0.5c0.1-0.2,0.1-0.3,0.2-0.4
		c0-0.1,0-0.1,0-0.1c0,0,0,0,0,0c0,0,0,0,0,0c0,0.1-0.1,0.1-0.1,0.2c-0.1,0.1-0.2,0.3-0.3,0.5c-0.1,0.2-0.2,0.3-0.3,0.5
		c-0.1,0.1-0.2,0.2-0.3,0.2c0,0,0,0-0.1,0c0,0,0,0,0-0.1c0-0.1,0-0.2,0-0.3l0.5-1.6l0,0l-0.6,0l-0.1,0.2c0-0.1-0.1-0.1-0.2-0.2
		c-0.1,0-0.2-0.1-0.3-0.1c-0.1,0-0.2,0-0.3,0.1c-0.1,0.1-0.2,0.1-0.3,0.2c-0.1,0.1-0.1,0.2-0.2,0.3c0,0.1-0.1,0.2-0.1,0.2
		c0,0,0,0,0,0c-0.1,0.2-0.2,0.3-0.3,0.5c-0.1,0.2-0.2,0.3-0.3,0.5c-0.1,0.1-0.2,0.2-0.3,0.2c0,0,0,0-0.1,0c0,0,0,0,0-0.1
		c0-0.1,0-0.2,0-0.3l0.8-3.1l0,0l-0.6,0.1l0,0L70,29.1c0,0.2,0,0.4,0,0.5C70,29.8,70.1,29.9,70.2,29.9z M71.8,29.3
		c0-0.1,0-0.3,0.1-0.4c0-0.2,0.1-0.3,0.2-0.5c0.1-0.2,0.1-0.3,0.2-0.4c0.1-0.1,0.2-0.2,0.2-0.2c0,0,0,0,0,0c0,0,0,0,0.1,0
		c0,0,0,0.1,0.1,0.1c0,0.1,0,0.1,0,0.2c0,0.1,0,0.2-0.1,0.3c0,0.1-0.1,0.2-0.1,0.3c0,0.1-0.1,0.2-0.2,0.3c-0.1,0.1-0.1,0.2-0.2,0.2
		C72,29.3,72,29.4,72,29.4c0,0-0.1,0-0.1,0C71.8,29.4,71.8,29.4,71.8,29.3z"/>
	<path class="st0" d="M75.7,28.3c0.2,0.1,0.4,0.1,0.6,0.1c0.2,0,0.4-0.1,0.6-0.2c0.2-0.1,0.3-0.2,0.4-0.4c0.1-0.2,0.2-0.3,0.2-0.5
		c0,0,0-0.1-0.1-0.1c0,0-0.1,0-0.1,0c0,0-0.1,0.1-0.1,0.1c0,0.2,0,0.3-0.1,0.4c-0.1,0.1-0.2,0.2-0.3,0.3c-0.1,0.1-0.3,0.1-0.4,0.1
		c-0.2,0-0.3,0-0.4-0.1c-0.1-0.1-0.1-0.2-0.2-0.3c0-0.1,0-0.3,0-0.4c0-0.2,0.1-0.3,0.2-0.5c0.1-0.2,0.3-0.4,0.4-0.6
		c0.2-0.2,0.4-0.3,0.6-0.4c0.2-0.1,0.4-0.2,0.6-0.2c0.2,0,0.4,0,0.5,0.1c0.2,0.1,0.3,0.2,0.4,0.3c0.1,0.2,0.1,0.4,0.1,0.7
		c0,0.3-0.1,0.6-0.3,0.9c-0.2,0.3-0.4,0.7-0.6,1c-0.2,0.3-0.5,0.6-0.8,0.9c-0.3,0.3-0.6,0.5-0.8,0.7c-0.3,0.2-0.5,0.3-0.7,0.3l0,0
		l0,0c0.2,0.1,0.4,0.1,0.6,0.1c0.2,0,0.4-0.1,0.6-0.2c0.2-0.2,0.5-0.4,0.8-0.6c0.3-0.3,0.5-0.6,0.7-0.9c0.2-0.3,0.4-0.6,0.6-1
		c0.2-0.3,0.3-0.6,0.3-0.9c0-0.3,0-0.6,0-0.8c0.1,0.2,0.2,0.4,0.3,0.6c0,0.3,0,0.5,0,0.8c0,0.3-0.1,0.6-0.2,0.9
		c-0.1,0.3-0.2,0.6-0.4,0.8c-0.1,0.3-0.3,0.5-0.4,0.7c0,0,0,0,0,0.1c0,0,0,0,0.1,0c0,0,0,0,0.1,0c0,0,0.1,0,0.1,0l0,0l0,0
		c0.2-0.3,0.4-0.6,0.6-1c0.2-0.3,0.4-0.6,0.6-0.9c0.2-0.3,0.5-0.6,0.7-0.8c0.2-0.2,0.5-0.5,0.8-0.6c-0.2,0.2-0.4,0.5-0.6,0.8
		c-0.2,0.3-0.4,0.6-0.6,0.9c-0.2,0.3-0.3,0.6-0.4,0.8c-0.1,0.3-0.2,0.6-0.2,0.9c0,0.3,0,0.5,0.1,0.7c0.1,0.2,0.2,0.3,0.4,0.4
		c0.1,0,0.2,0,0.3,0c0.2,0,0.4,0,0.6-0.1c0,0,0,0,0,0c0,0,0,0,0,0c0,0-0.1,0-0.1,0c-0.1,0-0.1,0-0.2,0c-0.1,0-0.1,0-0.2,0
		c-0.2-0.1-0.2-0.3-0.3-0.5c0-0.2,0-0.5,0.1-0.8c0.1-0.3,0.2-0.6,0.3-0.9c0.1-0.3,0.3-0.7,0.5-1c0.2-0.3,0.4-0.6,0.6-0.9
		c0.2-0.3,0.4-0.5,0.7-0.7c0.2-0.2,0.4-0.3,0.6-0.3l0,0l0,0c-0.1,0-0.2,0-0.3,0c-0.1,0-0.2,0-0.4,0c-0.3,0.1-0.6,0.2-0.9,0.4
		c-0.3,0.2-0.6,0.4-0.8,0.6c-0.3,0.2-0.5,0.5-0.7,0.7c-0.2,0.2-0.4,0.5-0.5,0.7c0.1-0.3,0.2-0.6,0.2-0.8c0-0.3,0-0.6,0-0.9
		c0-0.3-0.1-0.5-0.3-0.7c-0.1-0.2-0.3-0.4-0.6-0.5c-0.2-0.1-0.5-0.2-0.9-0.2c0,0,0,0,0,0c-0.4,0-0.7,0.1-1,0.2
		c-0.3,0.1-0.5,0.2-0.7,0.4c-0.2,0.2-0.4,0.4-0.5,0.6c-0.1,0.2-0.2,0.4-0.2,0.6c0,0.2,0,0.4,0,0.6C75.4,28.1,75.5,28.2,75.7,28.3z"
		/>
	<path class="st0" d="M82.8,29.9C82.7,30,82.6,30,82.5,30c-0.1,0-0.2,0-0.2,0c0.1-0.1,0.1-0.2,0.2-0.3c0-0.1,0.1-0.2,0.1-0.3h0
		c0-0.1,0-0.2,0-0.2c0-0.1,0-0.2-0.1-0.2c0-0.1-0.1-0.1-0.2-0.2c-0.1-0.1-0.2-0.1-0.3-0.1c-0.1,0-0.2,0-0.3,0
		c-0.1,0-0.2,0.1-0.3,0.1c-0.1,0.1-0.2,0.1-0.3,0.2c-0.1,0.1-0.2,0.2-0.2,0.3c-0.1,0.1-0.1,0.2-0.2,0.4c0,0.1-0.1,0.2-0.1,0.4
		c0,0.1,0,0.2,0,0.3c0,0.1,0.1,0.2,0.1,0.3c0.1,0.1,0.2,0.1,0.3,0.1c0.1,0,0.1,0,0.2,0c0,0,0.1,0,0.1,0c0.1,0,0.2-0.1,0.3-0.1
		c0.1,0,0.2-0.1,0.2-0.2c0.1-0.1,0.1-0.1,0.2-0.2c0.2,0,0.3,0,0.5-0.1c0,0,0.1,0,0.1-0.1L82.1,31l0,0l0.6,0.2l0,0
		c0.1-0.1,0.1-0.2,0.2-0.3c0.1-0.1,0.2-0.3,0.4-0.4c0.1-0.2,0.3-0.3,0.4-0.4c0.1-0.1,0.3-0.3,0.4-0.3c0.1-0.1,0.2-0.1,0.3-0.1
		c0,0,0,0,0,0c0,0,0,0,0,0c0,0.1,0,0.1-0.1,0.2c0,0.1-0.1,0.1-0.1,0.2c0,0,0,0,0,0l-0.4,0.6c-0.1,0.2-0.2,0.3-0.2,0.5
		c0,0.1,0,0.2,0.1,0.3c0.1,0.1,0.2,0.1,0.3,0.1c0,0,0,0,0,0c0.1,0,0.2,0,0.3-0.1c0.2-0.1,0.3-0.2,0.5-0.3c0,0,0.1,0,0.1-0.1
		c-0.1,0.1-0.1,0.2-0.1,0.3c0,0.1,0,0.2,0.1,0.3c0.1,0.1,0.2,0.1,0.3,0.1c0,0,0,0,0,0c0.1,0,0.2,0,0.3-0.1c0.2-0.1,0.3-0.2,0.5-0.3
		c0.1-0.1,0.2-0.1,0.3-0.2c0,0.1-0.1,0.2-0.1,0.2c0,0.1-0.1,0.3-0.1,0.4c0,0.1,0,0.2,0.1,0.2c0.1,0.1,0.1,0.1,0.2,0.1
		c0.1,0,0.1,0,0.2,0c0.1,0,0.2-0.1,0.3-0.1c0.1,0,0.2-0.1,0.2-0.2c0,0.1,0,0.2,0,0.3c0,0.1,0.1,0.2,0.1,0.2c0.1,0.1,0.2,0.1,0.3,0.1
		c0,0,0,0,0,0c0.1,0,0.2,0,0.3-0.1c0.2-0.1,0.3-0.2,0.5-0.3c0,0,0,0,0,0L88,32.8l0,0l0.6,0.2l0,0c0.1-0.1,0.1-0.1,0.3-0.3
		c0.1-0.1,0.2-0.3,0.4-0.4c0.1-0.1,0.3-0.3,0.4-0.4c0.1-0.1,0.3-0.2,0.4-0.3c0.1-0.1,0.2-0.1,0.3-0.1c0,0,0,0,0,0c0,0,0,0,0,0
		c0,0.1,0,0.1-0.1,0.2c0,0.1-0.1,0.1-0.1,0.2c0,0,0,0,0,0l-0.5,0.5c-0.1,0.2-0.2,0.3-0.2,0.5c0,0.1,0,0.3,0.1,0.3
		c0.1,0.1,0.2,0.1,0.3,0.2c0,0,0,0,0.1,0c0.1,0,0.2,0,0.3-0.1c0.2-0.1,0.3-0.2,0.5-0.3c0.1-0.1,0.2-0.1,0.3-0.2
		c0,0.1-0.1,0.1-0.1,0.2c-0.1,0.1-0.1,0.2-0.1,0.3c0,0.1,0,0.2,0.1,0.3c0,0.1,0.1,0.1,0.2,0.1c0.1,0,0.1,0,0.2,0
		c0.1,0,0.2-0.1,0.3-0.1c0.1,0,0.2-0.1,0.2-0.2c0,0.1-0.1,0.2,0,0.3c0,0.1,0,0.2,0.1,0.2c0.1,0.1,0.2,0.2,0.3,0.2c0,0,0.1,0,0.1,0
		c0.1,0,0.2,0,0.2,0c0.2-0.1,0.3-0.2,0.5-0.3c0.2-0.1,0.3-0.2,0.5-0.4c0.1-0.1,0.3-0.2,0.3-0.3c0.1-0.1,0.1-0.1,0.1-0.1c0,0,0,0,0,0
		c0,0,0,0-0.1,0c-0.1,0-0.1,0.1-0.2,0.1c-0.1,0.1-0.3,0.2-0.5,0.3c-0.2,0.1-0.3,0.2-0.5,0.3C92.5,34,92.4,34,92.3,34c0,0,0,0,0,0
		c0,0,0,0,0-0.1c0-0.1,0.1-0.2,0.2-0.3l1.1-1.3l0,0L93,32.2l-0.2,0.2c0-0.1-0.1-0.2-0.1-0.2c-0.1-0.1-0.2-0.1-0.3-0.2
		c-0.1,0-0.2-0.1-0.3,0c-0.1,0-0.2,0.1-0.3,0.1c-0.1,0.1-0.2,0.1-0.3,0.2c-0.1,0.1-0.1,0.1-0.2,0.2c-0.1,0.1-0.3,0.2-0.4,0.3
		c-0.2,0.1-0.3,0.2-0.5,0.3c-0.1,0.1-0.3,0.1-0.4,0.1c0,0,0,0,0,0c0,0,0,0,0-0.1c0-0.1,0.1-0.2,0.2-0.3l0.2-0.3c0,0,0,0,0.1-0.1
		c0-0.1,0.1-0.1,0.2-0.2c0.1-0.1,0.1-0.1,0.2-0.2c0-0.1,0.1-0.1,0.1-0.2c0-0.1,0-0.2,0-0.2c0-0.1,0-0.1-0.1-0.2
		c-0.1-0.1-0.1-0.1-0.2-0.1c0,0-0.1,0-0.2,0c-0.1,0-0.1,0-0.2,0c-0.1,0-0.2,0.1-0.3,0.1c-0.1,0-0.2,0.1-0.3,0.2l0.4-0.5l-0.6-0.2
		l0,0l-0.6,0.7c-0.1,0.1-0.3,0.2-0.4,0.3c-0.2,0.1-0.3,0.2-0.5,0.3c-0.1,0.1-0.3,0.1-0.3,0.1c0,0,0,0-0.1,0c0,0,0,0,0-0.1
		c0-0.1,0.1-0.2,0.1-0.3l1.1-1.3l0,0l-0.6-0.2l-0.1,0.2c0-0.1-0.1-0.2-0.1-0.2c-0.1-0.1-0.2-0.1-0.3-0.2c-0.1,0-0.2,0-0.3,0
		c-0.1,0-0.2,0.1-0.3,0.1c-0.1,0.1-0.2,0.1-0.3,0.2c-0.1,0.1-0.1,0.1-0.2,0.2c0,0,0,0,0,0c-0.1,0.1-0.3,0.2-0.4,0.4
		c-0.2,0.1-0.3,0.2-0.4,0.3c-0.1,0.1-0.3,0.1-0.3,0.1c0,0,0,0-0.1,0c0,0,0,0,0-0.1c0-0.1,0.1-0.2,0.1-0.3l1-1.4l0.5,0.1l0,0l0.2-0.2
		l-0.5-0.1l0.7-1l-0.6-0.2l0,0l-0.7,1l-0.3-0.1l-0.2,0.2l0.3,0.1l-0.6,0.7c-0.1,0.1-0.3,0.2-0.4,0.4c-0.2,0.1-0.3,0.2-0.4,0.3
		c-0.1,0.1-0.2,0.1-0.3,0.1c0,0,0,0,0,0c0,0,0,0-0.1,0c0,0,0,0,0-0.1c0-0.1,0.1-0.2,0.1-0.3l0.2-0.3c0,0,0,0,0.1-0.1
		c0-0.1,0.1-0.1,0.1-0.2c0-0.1,0.1-0.1,0.1-0.2c0-0.1,0.1-0.2,0.1-0.2c0-0.1,0-0.2,0-0.2c0-0.1,0-0.1-0.1-0.2
		c-0.1-0.1-0.1-0.1-0.3-0.1h0c0,0-0.1,0-0.2,0c-0.1,0-0.1,0-0.2,0c-0.1,0-0.2,0.1-0.3,0.1c-0.1,0-0.2,0.1-0.2,0.2l0.4-0.5l0,0
		L83.6,29l0,0L83,29.8C82.9,29.8,82.9,29.9,82.8,29.9z M82.3,29.1c0,0.1,0,0.1-0.1,0.2c0,0.1-0.1,0.2-0.1,0.3
		c-0.1,0.1-0.1,0.2-0.2,0.3c-0.1-0.1-0.2-0.2-0.2-0.3c0-0.1,0-0.2,0-0.3c0.1-0.1,0.1-0.2,0.2-0.2C82,29.1,82,29,82.1,29
		C82.1,29,82.2,29,82.3,29.1C82.2,29,82.2,29,82.3,29.1C82.2,29,82.3,29,82.3,29.1z M81.7,30.2c-0.1,0.1-0.1,0.1-0.2,0.2
		c-0.1,0.1-0.1,0.1-0.2,0.1c0,0-0.1,0-0.1,0c0,0-0.1,0-0.1-0.1c0,0,0-0.1,0-0.2c0-0.1,0-0.1,0.1-0.2c0-0.1,0.1-0.2,0.1-0.2
		C81.5,30,81.6,30.1,81.7,30.2z M86.7,31.8c0-0.1,0.1-0.2,0.2-0.4c0.1-0.1,0.2-0.3,0.3-0.4c0.1-0.1,0.2-0.2,0.4-0.3
		c0.1-0.1,0.2-0.1,0.2-0.1c0,0,0,0,0,0c0,0,0,0,0.1,0.1c0,0,0,0.1,0,0.1c0,0.1,0,0.1-0.1,0.2c0,0.1-0.1,0.1-0.2,0.3
		c-0.1,0.1-0.1,0.1-0.2,0.2c-0.1,0.1-0.2,0.1-0.2,0.2c-0.1,0.1-0.2,0.1-0.2,0.2c-0.1,0-0.1,0.1-0.2,0.1c0,0-0.1,0-0.1,0
		C86.7,31.9,86.7,31.9,86.7,31.8z M91.3,33.4c0-0.1,0.1-0.2,0.2-0.4c0.1-0.1,0.2-0.3,0.4-0.4c0.1-0.1,0.3-0.2,0.4-0.3
		c0.1-0.1,0.2-0.1,0.2-0.1c0,0,0,0,0.1,0c0,0,0,0,0.1,0.1c0,0,0,0.1,0,0.1c0,0.1,0,0.1-0.1,0.2c0,0.1-0.1,0.1-0.2,0.3
		c-0.1,0.1-0.1,0.1-0.2,0.2c-0.1,0.1-0.2,0.1-0.2,0.2c-0.1,0.1-0.2,0.1-0.2,0.2c-0.1,0-0.1,0.1-0.2,0.1c0,0-0.1,0-0.1,0
		C91.3,33.5,91.3,33.5,91.3,33.4z"/>
	<path class="st0" d="M90.2,30.5C90.3,30.5,90.3,30.4,90.2,30.5c0.1-0.1,0.2-0.1,0.2-0.1c0,0,0.1,0,0.1,0.1c0,0,0.1,0.1,0.2,0.1
		c0.1,0,0.1,0.1,0.2,0.1c0.1,0,0.1,0.1,0.2,0.1c0,0,0.1,0,0.1,0c0,0,0,0,0.1,0c0,0,0.2,0,0.3-0.2c0,0,0-0.1,0.1-0.1l0,0l0,0
		c-0.1,0.1-0.1,0.1-0.2,0.1c-0.1,0-0.1,0-0.2,0c-0.1,0-0.1-0.1-0.2-0.1c-0.1,0-0.1-0.1-0.2-0.1c-0.1,0-0.1-0.1-0.2-0.1
		c-0.1,0-0.1-0.1-0.2-0.1c0,0-0.1,0-0.1,0c0,0-0.1,0.1-0.1,0.1C90.2,30.3,90.2,30.4,90.2,30.5c-0.1,0-0.1,0.1-0.1,0.1l0,0.1l0,0
		C90.1,30.6,90.2,30.5,90.2,30.5z"/>
	<path class="st0" d="M53.6,31.9c0,0,0.1,0,0.1,0c0.2,0,0.4-0.1,0.4-0.1c0.1-0.1,0.2-0.2,0.2-0.3c0.1-0.1,0.1-0.2,0.2-0.3
		c0-0.1-0.1-0.2-0.2-0.4l0,0l0,0c0,0.1-0.1,0.2-0.1,0.2c0,0.1-0.1,0.3-0.2,0.4c-0.1,0.1-0.1,0.2-0.2,0.3c-0.1,0.1-0.2,0.1-0.3,0.2
		l0,0l0,0C53.5,31.9,53.6,31.9,53.6,31.9z"/>
</g>
</svg>
