<svg id="Layer_1" data-name="Layer 1" xmlns="http://www.w3.org/2000/svg" viewBox="0 0 566.93 566.93"><defs><style>.cls-1,.cls-6{fill:#fff;}.cls-2,.cls-3,.cls-4,.cls-5,.cls-7{fill:none;}.cls-2,.cls-3,.cls-4,.cls-6,.cls-7{stroke:#fff;}.cls-2,.cls-3,.cls-4,.cls-5,.cls-6,.cls-7{stroke-miterlimit:10;}.cls-2{stroke-width:16.95px;}.cls-3{stroke-width:12.5px;}.cls-4{stroke-width:18.76px;}.cls-5{stroke:#20232a;stroke-width:35px;}.cls-6{stroke-width:12.72px;}.cls-7{stroke-linecap:round;stroke-width:24px;}</style></defs><path class="cls-1" d="M68.77,41.54H85.11V57.88H68.77Z"/><path class="cls-1" d="M68.77,74.21H85.11V90.54H68.77Z"/><path class="cls-1" d="M85.11,57.88h16.33V74.21H85.11Z"/><path class="cls-1" d="M52.44,57.88H68.77V74.21H52.44Z"/><path class="cls-1" d="M98.46,487.36h19.15v19.15H98.46Z"/><path class="cls-1" d="M98.46,525.66h19.15V544.8H98.46Z"/><path class="cls-1" d="M117.61,506.51h19.15v19.15H117.61Z"/><path class="cls-1" d="M79.31,506.51H98.46v19.15H79.31Z"/><path class="cls-1" d="M37.3,425.07H50.89v13.59H37.3Z"/><path class="cls-1" d="M37.3,452.25H50.89v13.59H37.3Z"/><path class="cls-1" d="M50.89,438.66H64.48v13.59H50.89Z"/><path class="cls-1" d="M23.71,438.66H37.3v13.59H23.71Z"/><circle class="cls-2" cx="283.46" cy="283.46" r="91.12"/><circle class="cls-3" cx="283.46" cy="283.46" r="150.96"/><circle class="cls-4" cx="283.46" cy="283.46" r="226.47"/><line class="cls-5" x1="283.46" y1="283.46" x2="441.54" y2="125.39"/><polyline class="cls-5" points="434.85 134 474.11 135.29 524.17 85.22 485.6 83.38"/><polyline class="cls-5" points="435.44 134.59 434.15 95.33 484.22 45.27 486.06 83.84"/><line class="cls-6" x1="283.46" y1="283.46" x2="441.54" y2="125.39"/><polyline class="cls-6" points="437.69 128.05 476.95 129.34 527.02 79.27 488.44 77.43"/><polyline class="cls-6" points="438.29 128.64 437 89.39 487.07 39.32 488.91 77.89"/><circle class="cls-1" cx="283.46" cy="283.46" r="44.23"/><line class="cls-7" x1="283.46" y1="22.6" x2="283.46" y2="92.8"/><line class="cls-7" x1="283.46" y1="474.6" x2="283.46" y2="544.8"/><line class="cls-7" x1="544.57" y1="283.7" x2="474.36" y2="283.7"/><line class="cls-7" x1="92.57" y1="283.7" x2="22.36" y2="283.7"/></svg>