<svg id="Layer_1" data-name="Layer 1" xmlns="http://www.w3.org/2000/svg" viewBox="0 0 566.93 566.93"><defs><style>.cls-1,.cls-2,.cls-5{fill:#20232a;}.cls-1,.cls-10,.cls-2,.cls-3,.cls-6,.cls-7,.cls-8,.cls-9{stroke:#fff;}.cls-1,.cls-2,.cls-3,.cls-6,.cls-7,.cls-8{stroke-miterlimit:10;}.cls-1{stroke-width:8.85px;}.cls-2,.cls-3{stroke-width:8.16px;}.cls-10,.cls-3,.cls-6,.cls-7,.cls-8,.cls-9{fill:none;}.cls-4{fill:#fff;}.cls-6,.cls-7,.cls-8,.cls-9{stroke-linecap:round;}.cls-6{stroke-width:5.42px;}.cls-7{stroke-width:5.51px;}.cls-10,.cls-8{stroke-width:8.82px;}.cls-10,.cls-9{stroke-linejoin:round;}.cls-9{stroke-width:16.54px;}</style></defs><path class="cls-1" d="M242.61,163.72h0a133.61,133.61,0,0,0,3.68,86.32l-77.65,39.88a126,126,0,0,0-64.87-52.35,107.72,107.72,0,1,1,138.84-73.86Z"/><path class="cls-2" d="M195.42,323.14l65.15-33.46L280.25,328,215.1,361.47Z"/><line class="cls-3" x1="174.27" y1="287.04" x2="197.28" y2="322.19"/><line class="cls-3" x1="242.06" y1="252.23" x2="257.83" y2="292.19"/><path class="cls-4" d="M499.22,227.73c0,41.53-41.06,75.19-91.71,75.19a109.18,109.18,0,0,1-34.22-5.41c-5.57-1.84-51.13,17.07-51.13,17.07s22.92-31.41,17.72-36.06c-15-13.38-24.08-31.21-24.08-50.79,0-41.52,41.06-75.18,91.71-75.18S499.22,186.21,499.22,227.73Z"/><path class="cls-5" d="M375.08,225.28a8.1,8.1,0,0,0-8.29,8.29,8.34,8.34,0,0,0,8.29,8.29,8.29,8.29,0,1,0,0-16.58Z"/><path class="cls-5" d="M407.51,225.28a8.29,8.29,0,1,0,8.29,8.29A8.09,8.09,0,0,0,407.51,225.28Z"/><path class="cls-5" d="M439.93,225.28a8.29,8.29,0,1,0,8.29,8.29A8.09,8.09,0,0,0,439.93,225.28Z"/><path class="cls-6" d="M83.13,45.59C62.51,72.51,60.73,119.75,76,154.43c13.4,30.37,70.25,51.58,91.46,77.37,11.52,14,22.6,30.47,27.93,40.41"/><path class="cls-7" d="M96.74,36.54c35,0,74.87,27.32,93.69,60.56,16.48,29.1,7.8,88.81,15.63,121.32,4.26,17.67,6.31,25.83,14.17,40.9"/><path class="cls-8" d="M496.51,430.55c-77.6-33.08-163-10.8-188.07,11.51-6.55,5.84-23.95,25.68-23.95,25.68h-2.05s-18.53-33.38-44.61-45.27c-29.3-13.36-89.82-25-167.41,8.08"/><path class="cls-9" d="M284.49,503.31c57.44,0,47.63-26.4,47.63-26.4L534,518.4"/><path class="cls-9" d="M282.44,503.31c-57.44,0-47.63-26.4-47.63-26.4L33,518.4"/><path class="cls-10" d="M43.68,513.9l11.15-37s17.48-32,116.94-35.59,110.67,31.8,110.67,31.8l1,3.7,1-3.7s11.21-35.41,110.67-31.8,116.93,35.59,116.93,35.59l13.37,39.74"/><path class="cls-9" d="M282.44,503.31c-57.44,0-47.63-26.4-47.63-26.4L33,518.4"/><path class="cls-5" d="M460.3,397.42a2.64,2.64,0,0,0,0-5.13c-31.54-7.94-40.56-17-48.49-48.49h0a2.65,2.65,0,0,0-5.14,0c-7.93,31.54-17,40.56-48.48,48.49h0a2.64,2.64,0,0,0,0,5.13c31.53,7.94,40.55,17,48.49,48.49h0a2.65,2.65,0,0,0,5.14,0C419.74,414.38,428.76,405.36,460.3,397.42Z"/><path class="cls-4" d="M442.92,396.55a1.75,1.75,0,0,0,0-3.39c-20.8-5.23-26.75-11.19-32-32h0a1.74,1.74,0,0,0-3.38,0c-5.24,20.8-11.19,26.75-32,32h0a1.75,1.75,0,0,0,0,3.39c20.8,5.23,26.75,11.18,32,32h0a1.74,1.74,0,0,0,3.38,0C416.17,407.73,422.12,401.78,442.92,396.55Z"/><path class="cls-4" d="M147.8,321.72a2.64,2.64,0,0,0,0-5.13c-31.53-7.94-40.55-17-48.49-48.49h0a2.64,2.64,0,0,0-5.13,0c-7.94,31.54-17,40.55-48.49,48.49h0a2.64,2.64,0,0,0,0,5.13c31.54,7.94,40.56,17,48.49,48.49h0a2.64,2.64,0,0,0,5.13,0C107.25,338.67,116.27,329.65,147.8,321.72Z"/><path class="cls-4" d="M130.42,320.84a1.74,1.74,0,0,0,0-3.38c-20.8-5.24-26.75-11.19-32-32h0a1.75,1.75,0,0,0-3.39,0c-5.23,20.8-11.19,26.75-32,32h0a1.74,1.74,0,0,0,0,3.38c20.8,5.24,26.75,11.19,32,32h0a1.75,1.75,0,0,0,3.39,0C103.67,332,109.62,326.08,130.42,320.84Z"/><path class="cls-4" d="M312.09,75.61a42.13,42.13,0,0,1,21.67-36.85,53.92,53.92,0,0,0-7.56-.54,52.73,52.73,0,1,0,48,74.5,42.16,42.16,0,0,1-62.15-37.11Z"/><rect class="cls-4" x="293.63" y="370.5" width="18.67" height="18.67"/><rect class="cls-4" x="407.51" y="66.58" width="18.67" height="18.67"/><rect class="cls-4" x="466.66" y="362.88" width="18.67" height="18.67"/><rect class="cls-4" x="65.91" y="376.18" width="18.67" height="18.67"/></svg>