<svg id="Layer_1" data-name="Layer 1" xmlns="http://www.w3.org/2000/svg" viewBox="0 0 566.93 566.93"><defs><style>.cls-1{fill:#fff;}.cls-2{fill:none;}.cls-2,.cls-3,.cls-5{stroke:#fff;stroke-miterlimit:10;}.cls-2,.cls-3{stroke-width:14px;}.cls-3,.cls-4,.cls-5{fill:#20232a;}.cls-5{stroke-width:25.3px;}</style></defs><path class="cls-1" d="M380.07,255.39l-24-24c-3.27-3.27-8.72-3.27-12.53,0l-25.62,24a9,9,0,0,0-2.72,6.53,10.49,10.49,0,0,0,2.17,6.54,8.74,8.74,0,0,0,12.54.55l10.9-9.81v5.45A52.92,52.92,0,0,1,288,317.52H261.81a70.36,70.36,0,0,0-69.76,63.76,29.75,29.75,0,0,0-21.79,28.88,30.52,30.52,0,1,0,40.32-28.88A52.48,52.48,0,0,1,262.9,335h25.62a70.46,70.46,0,0,0,70.29-70.3V259.2l8.72,8.72a9.23,9.23,0,0,0,12.53,0,9,9,0,0,0,2.73-6.54c-.54-2.18-1.09-4.36-2.72-6ZM213.31,410.16a12.54,12.54,0,1,1-12.54-12.54A12.68,12.68,0,0,1,213.31,410.16Z"/><path class="cls-1" d="M341.11,414.44c0-2.72-1.09-4.36-2.72-6.53-3.27-3.27-9.27-3.82-12.54-.55l-12,11.45-12-11.45c-3.81-3.27-9.26-3.27-12.53,0a9.07,9.07,0,0,0-2.73,6.54c0,2.18,1.1,4.36,2.73,6.54l11.45,10.9-11.45,10.9a9,9,0,0,0-2.73,6.53,10.08,10.08,0,0,0,2.73,6.54,9,9,0,0,0,6.54,2.73,8.2,8.2,0,0,0,6-2.18l12-11.45,12,11.45a7,7,0,0,0,6.54,2.18,10,10,0,0,0,6.54-2.73c3.27-3.81,3.27-9.26,0-12.53l-11.45-10.9L338.93,421a11.66,11.66,0,0,0,2.18-6.54Z"/><path class="cls-1" d="M192.24,259.23a10,10,0,0,0,2.73,6.54,8.76,8.76,0,0,0,6,2.73,11.55,11.55,0,0,0,6-2.18l12-11.45,12,11.45a9.23,9.23,0,0,0,12.53,0,9.06,9.06,0,0,0,2.72-6.54c0-2.18-1.09-4.36-2.72-6.54L232,242.34l11.45-10.9a9,9,0,0,0,2.72-6.54,10.06,10.06,0,0,0-2.72-6.53c-3.27-3.27-9.27-3.82-12.53,0L219.49,229.8l-12-11.45c-3.82-3.26-9.26-3.26-12.53.55s-3.27,9.26,0,12.53l11.44,10.9L195,253.23c-2.18,1.1-2.73,3.28-2.73,6Z"/><path class="cls-1" d="M213.13,94.48a1.31,1.31,0,0,0,0,2.54c15.62,3.93,20.09,8.4,24,24h0a1.31,1.31,0,0,0,2.54,0c3.93-15.63,8.4-20.1,24-24h0a1.31,1.31,0,0,0,0-2.54c-15.63-3.93-20.09-8.4-24-24h0a1.31,1.31,0,0,0-2.54,0c-3.93,15.62-8.4,20.1-24,24Z"/><path class="cls-1" d="M282.12,40.21a1.31,1.31,0,0,0,0,2.54c15.63,3.94,20.1,8.41,24,24h0a1.31,1.31,0,0,0,2.54,0c3.93-15.62,8.4-20.09,24-24h0a1.31,1.31,0,0,0,0-2.54c-15.63-3.93-20.1-8.4-24-24h0a1.31,1.31,0,0,0-2.54,0c-3.93,15.62-8.4,20.09-24,24Z"/><rect class="cls-2" x="28.85" y="155.44" width="503.35" height="366.05" rx="47.27"/><path class="cls-3" d="M81.86,109.22h0a53,53,0,0,0-53,53V474.14a53,53,0,0,1,53-53h0a53,53,0,0,1,53,53V162.23A53,53,0,0,0,81.86,109.22Z"/><path class="cls-3" d="M479.19,109.22h0a53,53,0,0,0-53,53V474.14a53,53,0,0,1,53-53h0a53,53,0,0,1,53,53V162.23A53,53,0,0,0,479.19,109.22Z"/><path class="cls-4" d="M309.06,556.78a28.52,28.52,0,0,1,0-40.34l69.81-69.82c2.27-2.27,7.1-1.12,10.78,2.56l27,27c3.68,3.69,4.83,8.52,2.57,10.79L349.4,556.78a28.52,28.52,0,0,1-40.34,0Z"/><path class="cls-4" d="M386.68,484.55a105.35,105.35,0,0,1,0-155.65c39.93-36.42,101.76-36.42,141.68,0a105.34,105.34,0,0,1,0,155.65C488.44,521,426.61,521,386.68,484.55Z"/><path class="cls-5" d="M406.9,462.33a75.2,75.2,0,1,1,101.24,0A75.28,75.28,0,0,1,406.9,462.33Z"/><path class="cls-1" d="M317.91,548.28a13.35,13.35,0,0,1,0-18.89l76-76c2.15-2.15,5.3-2.5,7-.77l12.64,12.63c1.72,1.73,1.38,4.87-.78,7l-76,76a13.36,13.36,0,0,1-18.88,0Z"/><path class="cls-4" d="M415.33,132.92c-41.28-11.59-54-26.31-65.34-71.22h0a4,4,0,0,0-7.77,0c-12,47.7-25.65,61.34-73.33,73.34h0a4,4,0,0,0,0,7.76c47.69,12,61.33,25.66,73.33,73.34h0a4,4,0,0,0,7.77,0c11.42-45.38,22.6-59.45,64.9-71.09C417.05,144.45,417.89,133.63,415.33,132.92Z"/><path class="cls-1" d="M397,141.48a2.64,2.64,0,0,0,0-5.12c-31.46-7.92-40.46-16.92-48.37-48.38h0a2.64,2.64,0,0,0-5.13,0c-7.91,31.46-16.92,40.45-48.37,48.37h0a2.64,2.64,0,0,0,0,5.12c31.46,7.92,40.46,16.92,48.38,48.37h0a2.64,2.64,0,0,0,5.13,0C356.58,158.39,365.58,149.4,397,141.48Z"/></svg>