<?xml version="1.0" encoding="utf-8"?>
<!-- Generator: Adobe Illustrator 25.2.0, SVG Export Plug-In . SVG Version: 6.00 Build 0)  -->
<svg version="1.1" id="Layer_1" xmlns="http://www.w3.org/2000/svg" xmlns:xlink="http://www.w3.org/1999/xlink" x="0px" y="0px"
	 viewBox="0 0 300.5 290.8" style="enable-background:new 0 0 300.5 290.8;" xml:space="preserve">
<style type="text/css">
	.st0{fill:#FFFFFF;}
</style>
<path class="st0" d="M155,0C74.7,0,9.6,65.1,9.6,145.4c0,32.9,11,63.3,29.4,87.7L0.5,283l59.1-27.9c25.5,22.2,58.9,35.7,95.4,35.7
	c80.3,0,145.4-65.1,145.4-145.4S235.3,0,155,0z M76.3,165c-12.8,0-23.2-10.4-23.2-23.2c0-12.8,10.4-23.2,23.2-23.2
	c12.8,0,23.2,10.4,23.2,23.2C99.5,154.6,89.1,165,76.3,165z M156.3,165c-12.8,0-23.2-10.4-23.2-23.2c0-12.8,10.4-23.2,23.2-23.2
	c12.8,0,23.2,10.4,23.2,23.2C179.5,154.6,169.1,165,156.3,165z M236.3,165c-12.8,0-23.2-10.4-23.2-23.2c0-12.8,10.4-23.2,23.2-23.2
	c12.8,0,23.2,10.4,23.2,23.2C259.5,154.6,249.1,165,236.3,165z"/>
</svg>
